<svg width="89" height="52" viewBox="0 0 89 52" fill="none" xmlns="http://www.w3.org/2000/svg">
<path fill-rule="evenodd" clip-rule="evenodd" d="M70.2929 18.9504C64.9335 18.9504 61.1534 15.1445 61.1534 9.70739C61.1534 4.27032 64.9335 0.438477 70.2929 0.438477C74.6166 0.438477 77.8789 2.87221 78.9145 6.80762H74.0471C73.2962 5.25417 71.924 4.47744 70.2411 4.47744C67.5226 4.47744 65.6584 6.49693 65.6584 9.70739C65.6584 12.9178 67.5226 14.9373 70.2411 14.9373C71.924 14.9373 73.2962 14.1606 74.0471 12.6072H78.9145C77.8789 16.5426 74.6166 18.9504 70.2929 18.9504ZM22.0976 18.8209H26.7838L20.2075 0.645603H15.0811L8.50488 18.8209H13.1393L14.2268 15.6105H21.0101L22.0976 18.8209ZM19.8709 12.1929H15.3918L17.6184 5.53897L19.8709 12.1929ZM46.8312 13.2803C46.8312 14.5749 45.9768 15.248 44.501 15.248H41.2387V11.2349H44.4492C45.925 11.2349 46.8312 11.9858 46.8312 13.2803ZM46.391 6.10856C46.391 7.35132 45.5884 7.99859 44.1385 7.99859H41.2387V4.19264H44.1385C45.5884 4.19264 46.391 4.8658 46.391 6.10856ZM51.3103 13.8758C51.3103 11.8045 49.9381 9.9404 47.815 9.50026C49.5756 8.98244 50.896 7.55845 50.896 5.35773C50.896 2.48385 48.6953 0.645603 44.9929 0.645603H36.8114V18.8209H45.2777C49.1096 18.8209 51.3103 16.8791 51.3103 13.8758ZM0 25.6753C0 24.5707 0.895431 23.6753 2 23.6753H25.509C26.6136 23.6753 27.509 24.5707 27.509 25.6753V49.1843C27.509 50.2888 26.6136 51.1843 25.509 51.1843H2C0.895431 51.1843 0 50.2888 0 49.1843V25.6753ZM23.799 30.6217C24.4309 31.2537 24.4309 32.2782 23.799 32.9102L12.4718 44.2374C11.8398 44.8693 10.8152 44.8693 10.1833 44.2374L5.32878 39.3829C4.69684 38.7509 4.69684 37.7264 5.32878 37.0944C5.96072 36.4625 6.98529 36.4625 7.61723 37.0944L11.3275 40.8047L21.5105 30.6217C22.1425 29.9898 23.167 29.9898 23.799 30.6217ZM30.7451 25.6753C30.7451 24.5707 31.6405 23.6753 32.7451 23.6753H56.2541C57.3587 23.6753 58.2541 24.5707 58.2541 25.6753V49.1843C58.2541 50.2888 57.3587 51.1843 56.2541 51.1843H32.7451C31.6405 51.1843 30.7451 50.2888 30.7451 49.1843V25.6753ZM63.4907 23.6748C62.3862 23.6748 61.4907 24.5702 61.4907 25.6748V49.1838C61.4907 50.2884 62.3862 51.1838 63.4907 51.1838H86.9997C88.1043 51.1838 88.9997 50.2884 88.9997 49.1838V25.6748C88.9997 24.5702 88.1043 23.6748 86.9997 23.6748H63.4907Z" fill="black"/>
<path fill-rule="evenodd" clip-rule="evenodd" d="M70.2929 18.9504C64.9335 18.9504 61.1534 15.1445 61.1534 9.70739C61.1534 4.27032 64.9335 0.438477 70.2929 0.438477C74.6166 0.438477 77.8789 2.87221 78.9145 6.80762H74.0471C73.2962 5.25417 71.924 4.47744 70.2411 4.47744C67.5226 4.47744 65.6584 6.49693 65.6584 9.70739C65.6584 12.9178 67.5226 14.9373 70.2411 14.9373C71.924 14.9373 73.2962 14.1606 74.0471 12.6072H78.9145C77.8789 16.5426 74.6166 18.9504 70.2929 18.9504ZM22.0976 18.8209H26.7838L20.2075 0.645603H15.0811L8.50488 18.8209H13.1393L14.2268 15.6105H21.0101L22.0976 18.8209ZM19.8709 12.1929H15.3918L17.6184 5.53897L19.8709 12.1929ZM46.8312 13.2803C46.8312 14.5749 45.9768 15.248 44.501 15.248H41.2387V11.2349H44.4492C45.925 11.2349 46.8312 11.9858 46.8312 13.2803ZM46.391 6.10856C46.391 7.35132 45.5884 7.99859 44.1385 7.99859H41.2387V4.19264H44.1385C45.5884 4.19264 46.391 4.8658 46.391 6.10856ZM51.3103 13.8758C51.3103 11.8045 49.9381 9.9404 47.815 9.50026C49.5756 8.98244 50.896 7.55845 50.896 5.35773C50.896 2.48385 48.6953 0.645603 44.9929 0.645603H36.8114V18.8209H45.2777C49.1096 18.8209 51.3103 16.8791 51.3103 13.8758ZM0 25.6753C0 24.5707 0.895431 23.6753 2 23.6753H25.509C26.6136 23.6753 27.509 24.5707 27.509 25.6753V49.1843C27.509 50.2888 26.6136 51.1843 25.509 51.1843H2C0.895431 51.1843 0 50.2888 0 49.1843V25.6753ZM23.799 30.6217C24.4309 31.2537 24.4309 32.2782 23.799 32.9102L12.4718 44.2374C11.8398 44.8693 10.8152 44.8693 10.1833 44.2374L5.32878 39.3829C4.69684 38.7509 4.69684 37.7264 5.32878 37.0944C5.96072 36.4625 6.98529 36.4625 7.61723 37.0944L11.3275 40.8047L21.5105 30.6217C22.1425 29.9898 23.167 29.9898 23.799 30.6217ZM30.7451 25.6753C30.7451 24.5707 31.6405 23.6753 32.7451 23.6753H56.2541C57.3587 23.6753 58.2541 24.5707 58.2541 25.6753V49.1843C58.2541 50.2888 57.3587 51.1843 56.2541 51.1843H32.7451C31.6405 51.1843 30.7451 50.2888 30.7451 49.1843V25.6753ZM63.4907 23.6748C62.3862 23.6748 61.4907 24.5702 61.4907 25.6748V49.1838C61.4907 50.2884 62.3862 51.1838 63.4907 51.1838H86.9997C88.1043 51.1838 88.9997 50.2884 88.9997 49.1838V25.6748C88.9997 24.5702 88.1043 23.6748 86.9997 23.6748H63.4907Z" fill="url(#paint0_linear)"/>
<g style="mix-blend-mode:overlay">
<mask id="path-2-inside-1" fill="white">
<path fill-rule="evenodd" clip-rule="evenodd" d="M70.2929 18.9504C64.9335 18.9504 61.1534 15.1445 61.1534 9.70739C61.1534 4.27032 64.9335 0.438477 70.2929 0.438477C74.6166 0.438477 77.8789 2.87221 78.9145 6.80762H74.0471C73.2962 5.25417 71.924 4.47744 70.2411 4.47744C67.5226 4.47744 65.6584 6.49693 65.6584 9.70739C65.6584 12.9178 67.5226 14.9373 70.2411 14.9373C71.924 14.9373 73.2962 14.1606 74.0471 12.6072H78.9145C77.8789 16.5426 74.6166 18.9504 70.2929 18.9504ZM22.0976 18.8209H26.7838L20.2075 0.645603H15.0811L8.50488 18.8209H13.1393L14.2268 15.6105H21.0101L22.0976 18.8209ZM19.8709 12.1929H15.3918L17.6184 5.53897L19.8709 12.1929ZM46.8312 13.2803C46.8312 14.5749 45.9768 15.248 44.501 15.248H41.2387V11.2349H44.4492C45.925 11.2349 46.8312 11.9858 46.8312 13.2803ZM46.391 6.10856C46.391 7.35132 45.5884 7.99859 44.1385 7.99859H41.2387V4.19264H44.1385C45.5884 4.19264 46.391 4.8658 46.391 6.10856ZM51.3103 13.8758C51.3103 11.8045 49.9381 9.9404 47.815 9.50026C49.5756 8.98244 50.896 7.55845 50.896 5.35773C50.896 2.48385 48.6953 0.645603 44.9929 0.645603H36.8114V18.8209H45.2777C49.1096 18.8209 51.3103 16.8791 51.3103 13.8758ZM0 25.6753C0 24.5707 0.895431 23.6753 2 23.6753H25.509C26.6136 23.6753 27.509 24.5707 27.509 25.6753V49.1843C27.509 50.2888 26.6136 51.1843 25.509 51.1843H2C0.895431 51.1843 0 50.2888 0 49.1843V25.6753ZM23.799 30.6217C24.4309 31.2537 24.4309 32.2782 23.799 32.9102L12.4718 44.2374C11.8398 44.8693 10.8152 44.8693 10.1833 44.2374L5.32878 39.3829C4.69684 38.7509 4.69684 37.7264 5.32878 37.0944C5.96072 36.4625 6.98529 36.4625 7.61723 37.0944L11.3275 40.8047L21.5105 30.6217C22.1425 29.9898 23.167 29.9898 23.799 30.6217ZM30.7451 25.6753C30.7451 24.5707 31.6405 23.6753 32.7451 23.6753H56.2541C57.3587 23.6753 58.2541 24.5707 58.2541 25.6753V49.1843C58.2541 50.2888 57.3587 51.1843 56.2541 51.1843H32.7451C31.6405 51.1843 30.7451 50.2888 30.7451 49.1843V25.6753ZM63.4907 23.6748C62.3862 23.6748 61.4907 24.5702 61.4907 25.6748V49.1838C61.4907 50.2884 62.3862 51.1838 63.4907 51.1838H86.9997C88.1043 51.1838 88.9997 50.2884 88.9997 49.1838V25.6748C88.9997 24.5702 88.1043 23.6748 86.9997 23.6748H63.4907Z"/>
</mask>
<path d="M78.9145 6.80762V7.30762H79.5631L79.3981 6.68037L78.9145 6.80762ZM74.0471 6.80762L73.5969 7.0252L73.7334 7.30762H74.0471V6.80762ZM74.0471 12.6072V12.1072H73.7334L73.5969 12.3896L74.0471 12.6072ZM78.9145 12.6072L79.3981 12.7344L79.5631 12.1072H78.9145V12.6072ZM26.7838 18.8209V19.3209H27.4964L27.254 18.6508L26.7838 18.8209ZM22.0976 18.8209L21.624 18.9814L21.739 19.3209H22.0976V18.8209ZM20.2075 0.645603L20.6777 0.475485L20.5583 0.145603H20.2075V0.645603ZM15.0811 0.645603V0.145603H14.7303L14.611 0.475485L15.0811 0.645603ZM8.50488 18.8209L8.03471 18.6508L7.79225 19.3209H8.50488V18.8209ZM13.1393 18.8209V19.3209H13.4979L13.6129 18.9814L13.1393 18.8209ZM14.2268 15.6105V15.1105H13.8682L13.7532 15.4501L14.2268 15.6105ZM21.0101 15.6105L21.4837 15.4501L21.3687 15.1105H21.0101V15.6105ZM15.3918 12.1929L14.9177 12.0342L14.6973 12.6929H15.3918V12.1929ZM19.8709 12.1929V12.6929H20.5681L20.3445 12.0326L19.8709 12.1929ZM17.6184 5.53897L18.092 5.37864L17.6157 3.97153L17.1443 5.3803L17.6184 5.53897ZM41.2387 15.248H40.7387V15.748H41.2387V15.248ZM41.2387 11.2349V10.7349H40.7387V11.2349H41.2387ZM41.2387 7.99859H40.7387V8.49859H41.2387V7.99859ZM41.2387 4.19264V3.69264H40.7387V4.19264H41.2387ZM47.815 9.50026L47.6739 9.02058L47.7135 9.98985L47.815 9.50026ZM36.8114 0.645603V0.145603H36.3114V0.645603H36.8114ZM36.8114 18.8209H36.3114V19.3209H36.8114V18.8209ZM23.799 32.9102L23.4454 32.5566L23.799 32.9102ZM23.799 30.6217L23.4454 30.9753L23.799 30.6217ZM12.4718 44.2374L12.1182 43.8838L12.4718 44.2374ZM10.1833 44.2374L10.5369 43.8838L10.1833 44.2374ZM5.32878 39.3829L5.68233 39.0293H5.68233L5.32878 39.3829ZM5.32878 37.0944L5.68233 37.448L5.32878 37.0944ZM7.61723 37.0944L7.97078 36.7409H7.97078L7.61723 37.0944ZM11.3275 40.8047L10.974 41.1583L11.3275 41.5118L11.6811 41.1583L11.3275 40.8047ZM21.5105 30.6217L21.8641 30.9753L21.5105 30.6217ZM60.6534 9.70739C60.6534 12.5446 61.6416 14.9859 63.3581 16.7196C65.0748 18.4535 67.4913 19.4504 70.2929 19.4504V18.4504C67.735 18.4504 65.5818 17.5443 64.0687 16.016C62.5552 14.4874 61.6534 12.3072 61.6534 9.70739H60.6534ZM70.2929 -0.0615234C67.4903 -0.0615234 65.0737 0.942536 63.3574 2.68295C61.6415 4.42288 60.6534 6.87032 60.6534 9.70739H61.6534C61.6534 7.10738 62.5554 4.92036 64.0694 3.38511C65.5829 1.85034 67.736 0.938477 70.2929 0.938477V-0.0615234ZM79.3981 6.68037C78.3006 2.50989 74.8274 -0.0615234 70.2929 -0.0615234V0.938477C74.4059 0.938477 77.4572 3.23454 78.431 6.93486L79.3981 6.68037ZM74.0471 7.30762H78.9145V6.30762H74.0471V7.30762ZM70.2411 4.97744C71.7481 4.97744 72.9362 5.6583 73.5969 7.0252L74.4972 6.59003C73.6562 4.85004 72.0999 3.97744 70.2411 3.97744V4.97744ZM66.1584 9.70739C66.1584 8.19732 66.596 7.01685 67.3039 6.22076C68.0073 5.42982 69.0128 4.97744 70.2411 4.97744V3.97744C68.7509 3.97744 67.465 4.53481 66.5567 5.55623C65.6529 6.57249 65.1584 8.007 65.1584 9.70739H66.1584ZM70.2411 14.4373C69.0128 14.4373 68.0073 13.985 67.3039 13.194C66.596 12.3979 66.1584 11.2175 66.1584 9.70739H65.1584C65.1584 11.4078 65.6529 12.8423 66.5567 13.8585C67.465 14.88 68.7509 15.4373 70.2411 15.4373V14.4373ZM73.5969 12.3896C72.9362 13.7565 71.7481 14.4373 70.2411 14.4373V15.4373C72.0999 15.4373 73.6562 14.5647 74.4972 12.8247L73.5969 12.3896ZM78.9145 12.1072H74.0471V13.1072H78.9145V12.1072ZM70.2929 19.4504C74.825 19.4504 78.3 16.9071 79.3981 12.7344L78.431 12.4799C77.4578 16.178 74.4083 18.4504 70.2929 18.4504V19.4504ZM26.7838 18.3209H22.0976V19.3209H26.7838V18.3209ZM19.7374 0.815722L26.3136 18.9911L27.254 18.6508L20.6777 0.475485L19.7374 0.815722ZM15.0811 1.1456H20.2075V0.145603H15.0811V1.1456ZM8.97505 18.9911L15.5513 0.815722L14.611 0.475485L8.03471 18.6508L8.97505 18.9911ZM13.1393 18.3209H8.50488V19.3209H13.1393V18.3209ZM13.7532 15.4501L12.6658 18.6605L13.6129 18.9814L14.7003 15.7709L13.7532 15.4501ZM21.0101 15.1105H14.2268V16.1105H21.0101V15.1105ZM22.5711 18.6605L21.4837 15.4501L20.5366 15.7709L21.624 18.9814L22.5711 18.6605ZM15.3918 12.6929H19.8709V11.6929H15.3918V12.6929ZM17.1443 5.3803L14.9177 12.0342L15.866 12.3516L18.0926 5.69763L17.1443 5.3803ZM20.3445 12.0326L18.092 5.37864L17.1448 5.69929L19.3973 12.3532L20.3445 12.0326ZM44.501 15.748C45.306 15.748 46.019 15.5654 46.5387 15.1345C47.0735 14.691 47.3312 14.0449 47.3312 13.2803H46.3312C46.3312 13.8102 46.1617 14.148 45.9003 14.3647C45.6238 14.594 45.1718 14.748 44.501 14.748V15.748ZM41.2387 15.748H44.501V14.748H41.2387V15.748ZM40.7387 11.2349V15.248H41.7387V11.2349H40.7387ZM44.4492 10.7349H41.2387V11.7349H44.4492V10.7349ZM47.3312 13.2803C47.3312 12.5082 47.0558 11.849 46.5175 11.3913C45.99 10.9427 45.2663 10.7349 44.4492 10.7349V11.7349C45.1079 11.7349 45.5752 11.9026 45.8697 12.1531C46.1534 12.3944 46.3312 12.7579 46.3312 13.2803H47.3312ZM44.1385 8.49859C44.9282 8.49859 45.6231 8.3235 46.1279 7.90426C46.6484 7.47203 46.891 6.84406 46.891 6.10856H45.891C45.891 6.61582 45.7324 6.93287 45.489 7.13497C45.2301 7.35005 44.7987 7.49859 44.1385 7.49859V8.49859ZM41.2387 8.49859H44.1385V7.49859H41.2387V8.49859ZM40.7387 4.19264V7.99859H41.7387V4.19264H40.7387ZM44.1385 3.69264H41.2387V4.69264H44.1385V3.69264ZM46.891 6.10856C46.891 5.37365 46.6489 4.74142 46.1317 4.30312C45.6279 3.87613 44.9324 3.69264 44.1385 3.69264V4.69264C44.7945 4.69264 45.2253 4.84574 45.4852 5.06602C45.7318 5.27498 45.891 5.60071 45.891 6.10856H46.891ZM47.7135 9.98985C49.5873 10.3783 50.8103 12.0235 50.8103 13.8758H51.8103C51.8103 11.5855 50.2889 9.5025 47.9165 9.01067L47.7135 9.98985ZM50.396 5.35773C50.396 7.31484 49.2434 8.55897 47.6739 9.02058L47.9561 9.97994C49.9078 9.40592 51.396 7.80206 51.396 5.35773H50.396ZM44.9929 1.1456C46.7671 1.1456 48.1198 1.58639 49.0185 2.31282C49.9051 3.02946 50.396 4.05992 50.396 5.35773H51.396C51.396 3.78166 50.7865 2.45606 49.6472 1.53511C48.5199 0.623938 46.9211 0.145603 44.9929 0.145603V1.1456ZM36.8114 1.1456H44.9929V0.145603H36.8114V1.1456ZM37.3114 18.8209V0.645603H36.3114V18.8209H37.3114ZM45.2777 18.3209H36.8114V19.3209H45.2777V18.3209ZM50.8103 13.8758C50.8103 15.2462 50.3135 16.3355 49.4101 17.0911C48.4963 17.8555 47.1144 18.3209 45.2777 18.3209V19.3209C47.2729 19.3209 48.9072 18.8155 50.0517 17.8581C51.2067 16.892 51.8103 15.5088 51.8103 13.8758H50.8103ZM2 23.1753C0.619288 23.1753 -0.5 24.2946 -0.5 25.6753H0.5C0.5 24.8469 1.17157 24.1753 2 24.1753V23.1753ZM25.509 23.1753H2V24.1753H25.509V23.1753ZM28.009 25.6753C28.009 24.2946 26.8897 23.1753 25.509 23.1753V24.1753C26.3374 24.1753 27.009 24.8469 27.009 25.6753H28.009ZM28.009 49.1843V25.6753H27.009V49.1843H28.009ZM25.509 51.6843C26.8897 51.6843 28.009 50.565 28.009 49.1843H27.009C27.009 50.0127 26.3374 50.6843 25.509 50.6843V51.6843ZM2 51.6843H25.509V50.6843H2V51.6843ZM-0.5 49.1843C-0.5 50.565 0.619289 51.6843 2 51.6843V50.6843C1.17157 50.6843 0.5 50.0127 0.5 49.1843H-0.5ZM-0.5 25.6753V49.1843H0.5V25.6753H-0.5ZM24.1525 33.2637C24.9797 32.4365 24.9797 31.0954 24.1525 30.2682L23.4454 30.9753C23.8821 31.412 23.8821 32.1199 23.4454 32.5566L24.1525 33.2637ZM12.8253 44.591L24.1525 33.2637L23.4454 32.5566L12.1182 43.8838L12.8253 44.591ZM9.82975 44.591C10.657 45.4182 11.9981 45.4182 12.8253 44.591L12.1182 43.8838C11.6815 44.3205 10.9735 44.3205 10.5369 43.8838L9.82975 44.591ZM4.97523 39.7364L9.82975 44.591L10.5369 43.8838L5.68233 39.0293L4.97523 39.7364ZM4.97523 36.7409C4.14803 37.5681 4.14803 38.9092 4.97523 39.7364L5.68233 39.0293C5.24566 38.5926 5.24566 37.8847 5.68233 37.448L4.97523 36.7409ZM7.97078 36.7409C7.14358 35.9137 5.80243 35.9137 4.97523 36.7409L5.68233 37.448C6.11901 37.0113 6.827 37.0113 7.26367 37.448L7.97078 36.7409ZM11.6811 40.4512L7.97078 36.7409L7.26367 37.448L10.974 41.1583L11.6811 40.4512ZM21.157 30.2682L10.974 40.4512L11.6811 41.1583L21.8641 30.9753L21.157 30.2682ZM24.1525 30.2682C23.3253 29.441 21.9842 29.441 21.157 30.2682L21.8641 30.9753C22.3008 30.5386 23.0088 30.5386 23.4454 30.9753L24.1525 30.2682ZM32.7451 23.1753C31.3644 23.1753 30.2451 24.2946 30.2451 25.6753H31.2451C31.2451 24.8469 31.9167 24.1753 32.7451 24.1753V23.1753ZM56.2541 23.1753H32.7451V24.1753H56.2541V23.1753ZM58.7541 25.6753C58.7541 24.2946 57.6348 23.1753 56.2541 23.1753V24.1753C57.0825 24.1753 57.7541 24.8469 57.7541 25.6753H58.7541ZM58.7541 49.1843V25.6753H57.7541V49.1843H58.7541ZM56.2541 51.6843C57.6348 51.6843 58.7541 50.565 58.7541 49.1843H57.7541C57.7541 50.0127 57.0825 50.6843 56.2541 50.6843V51.6843ZM32.7451 51.6843H56.2541V50.6843H32.7451V51.6843ZM30.2451 49.1843C30.2451 50.565 31.3644 51.6843 32.7451 51.6843V50.6843C31.9167 50.6843 31.2451 50.0127 31.2451 49.1843H30.2451ZM30.2451 25.6753V49.1843H31.2451V25.6753H30.2451ZM61.9907 25.6748C61.9907 24.8464 62.6623 24.1748 63.4907 24.1748V23.1748C62.11 23.1748 60.9907 24.2941 60.9907 25.6748H61.9907ZM61.9907 49.1838V25.6748H60.9907V49.1838H61.9907ZM63.4907 50.6838C62.6623 50.6838 61.9907 50.0122 61.9907 49.1838H60.9907C60.9907 50.5645 62.11 51.6838 63.4907 51.6838V50.6838ZM86.9997 50.6838H63.4907V51.6838H86.9997V50.6838ZM88.4997 49.1838C88.4997 50.0122 87.8281 50.6838 86.9997 50.6838V51.6838C88.3804 51.6838 89.4997 50.5645 89.4997 49.1838H88.4997ZM88.4997 25.6748V49.1838H89.4997V25.6748H88.4997ZM86.9997 24.1748C87.8281 24.1748 88.4997 24.8464 88.4997 25.6748H89.4997C89.4997 24.2941 88.3804 23.1748 86.9997 23.1748V24.1748ZM63.4907 24.1748H86.9997V23.1748H63.4907V24.1748Z" fill="url(#paint1_linear)" mask="url(#path-2-inside-1)"/>
</g>
<path fill-rule="evenodd" clip-rule="evenodd" d="M52.502 32.9099C53.134 32.2779 53.134 31.2534 52.502 30.6214C51.8701 29.9895 50.8455 29.9895 50.2136 30.6214L45.0969 35.7381L39.9802 30.6214C39.3482 29.9895 38.3237 29.9895 37.6917 30.6214C37.0598 31.2534 37.0598 32.2779 37.6917 32.9099L42.8084 38.0266L37.6919 43.143C37.06 43.775 37.06 44.7995 37.6919 45.4315C38.3239 46.0634 39.3485 46.0634 39.9804 45.4315L45.0969 40.315L50.2134 45.4315C50.8453 46.0634 51.8699 46.0634 52.5018 45.4315C53.1337 44.7996 53.1337 43.775 52.5018 43.143L47.3853 38.0266L52.502 32.9099Z" fill="#D8110E"/>
<path fill-rule="evenodd" clip-rule="evenodd" d="M70.7253 30.6214C70.0934 29.9895 69.0688 29.9895 68.4368 30.6214C67.8049 31.2534 67.8049 32.2779 68.4368 32.9099L73.5535 38.0266L68.4371 43.143C67.8051 43.775 67.8051 44.7995 68.4371 45.4315C69.069 46.0634 70.0936 46.0634 70.7255 45.4315L75.842 40.315L80.9585 45.4315C81.5904 46.0634 82.615 46.0634 83.2469 45.4315C83.8789 44.7995 83.8789 43.775 83.2469 43.143L78.1304 38.0266L83.2471 32.9099C83.8791 32.2779 83.8791 31.2534 83.2471 30.6214C82.6152 29.9895 81.5906 29.9895 80.9587 30.6214L75.842 35.7381L70.7253 30.6214Z" fill="#D8110E"/>
<defs>
<linearGradient id="paint0_linear" x1="44.4999" y1="0.438477" x2="44.4999" y2="51.1843" gradientUnits="userSpaceOnUse">
<stop stop-color="#EDD364"/>
<stop offset="0.232292" stop-color="#FBF790"/>
<stop offset="0.482292" stop-color="#D6B851"/>
<stop offset="0.690625" stop-color="#ECE07C"/>
<stop offset="1" stop-color="#86652A"/>
</linearGradient>
<linearGradient id="paint1_linear" x1="44.4999" y1="0.438477" x2="44.4999" y2="51.1843" gradientUnits="userSpaceOnUse">
<stop stop-color="white"/>
<stop offset="1"/>
</linearGradient>
</defs>
</svg>
