<svg width="146" height="146" viewBox="0 0 146 146" fill="none" xmlns="http://www.w3.org/2000/svg">
<g clip-path="url(#clip0)">
<path d="M141.856 34.8331C141.581 34.8237 135.942 34.6333 127.665 34.8162V17.8453C127.665 15.3436 125.529 13.3594 123.014 13.5661C106.509 14.9439 85.5114 22.2368 73 35.5385C60.4887 22.2368 39.4907 14.9439 22.9864 13.5661C20.4758 13.3617 18.335 15.337 18.335 17.8453V35.2751C13.6321 35.0976 9.18369 34.9725 4.42151 34.8326C2.01967 34.7567 0 36.6913 0 39.1247V117.326C0 119.586 1.75114 121.459 4.00584 121.611C21.0873 122.76 49.7001 122.89 71.3156 132.109C73.2419 132.932 74.9713 131.987 74.685 132.109C96.2999 122.89 124.908 122.761 141.995 121.611C144.249 121.459 146.001 119.586 146.001 117.326V39.1247C146 36.8113 144.168 34.9139 141.856 34.8331ZM119.077 22.675V96.2728C106.694 99.0428 91.0004 104.954 77.2941 117.487C77.2941 113.707 77.2941 45.7196 77.2941 43.675C86.6897 31.9521 104.483 24.8862 119.077 22.675ZM26.9233 22.675C41.5167 24.8862 59.3104 31.9521 68.7059 43.675V117.487C54.9996 104.954 39.3064 99.0428 26.9233 96.2728V22.675ZM8.58824 113.286V43.547C11.6631 43.6381 14.9518 43.7408 18.335 43.87V99.7728C18.335 101.839 19.8065 103.612 21.837 103.993C31.6422 105.834 44.3929 109.828 56.2767 118.43C39.3221 114.627 21.5754 114.016 8.58824 113.286ZM137.412 113.286C124.446 114.015 106.685 114.625 89.723 118.43C101.607 109.828 114.358 105.834 124.163 103.993C126.193 103.612 127.665 101.839 127.665 99.7728V43.4073C131.617 43.3189 134.983 43.3177 137.411 43.3398V113.286H137.412Z" fill="#8F662A"/>
<path d="M141.856 34.8331C141.581 34.8237 135.942 34.6333 127.665 34.8162V17.8453C127.665 15.3436 125.529 13.3594 123.014 13.5661C106.509 14.9439 85.5114 22.2368 73 35.5385C60.4887 22.2368 39.4907 14.9439 22.9864 13.5661C20.4758 13.3617 18.335 15.337 18.335 17.8453V35.2751C13.6321 35.0976 9.18369 34.9725 4.42151 34.8326C2.01967 34.7567 0 36.6913 0 39.1247V117.326C0 119.586 1.75114 121.459 4.00584 121.611C21.0873 122.76 49.7001 122.89 71.3156 132.109C73.2419 132.932 74.9713 131.987 74.685 132.109C96.2999 122.89 124.908 122.761 141.995 121.611C144.249 121.459 146.001 119.586 146.001 117.326V39.1247C146 36.8113 144.168 34.9139 141.856 34.8331ZM119.077 22.675V96.2728C106.694 99.0428 91.0004 104.954 77.2941 117.487C77.2941 113.707 77.2941 45.7196 77.2941 43.675C86.6897 31.9521 104.483 24.8862 119.077 22.675ZM26.9233 22.675C41.5167 24.8862 59.3104 31.9521 68.7059 43.675V117.487C54.9996 104.954 39.3064 99.0428 26.9233 96.2728V22.675ZM8.58824 113.286V43.547C11.6631 43.6381 14.9518 43.7408 18.335 43.87V99.7728C18.335 101.839 19.8065 103.612 21.837 103.993C31.6422 105.834 44.3929 109.828 56.2767 118.43C39.3221 114.627 21.5754 114.016 8.58824 113.286ZM137.412 113.286C124.446 114.015 106.685 114.625 89.723 118.43C101.607 109.828 114.358 105.834 124.163 103.993C126.193 103.612 127.665 101.839 127.665 99.7728V43.4073C131.617 43.3189 134.983 43.3177 137.411 43.3398V113.286H137.412Z" fill="url(#paint0_linear)"/>
<path d="M57.572 53.5664C54.2461 51.2493 48.5123 48.4052 42.3932 47.3712C40.0558 46.9744 37.8388 48.5515 37.4435 50.8898C37.0484 53.2281 38.6238 55.4441 40.9624 55.8392C45.6868 56.6376 50.2179 58.9098 52.6627 60.6131C54.6079 61.9683 57.2846 61.4908 58.6407 59.5444C59.9962 57.5986 59.5178 54.9219 57.572 53.5664Z" fill="#8F662A"/>
<path d="M57.572 53.5664C54.2461 51.2493 48.5123 48.4052 42.3932 47.3712C40.0558 46.9744 37.8388 48.5515 37.4435 50.8898C37.0484 53.2281 38.6238 55.4441 40.9624 55.8392C45.6868 56.6376 50.2179 58.9098 52.6627 60.6131C54.6079 61.9683 57.2846 61.4908 58.6407 59.5444C59.9962 57.5986 59.5178 54.9219 57.572 53.5664Z" fill="url(#paint1_linear)"/>
<path d="M57.142 77.748C54.0821 75.8795 48.0969 72.6005 42.3932 71.6367C40.0558 71.2405 37.8388 72.8167 37.4435 75.1553C37.0484 77.4938 38.6238 79.7096 40.9624 80.1047C45.4056 80.8556 50.627 83.8322 52.6656 85.0775C54.6921 86.3145 57.3338 85.6727 58.5685 83.651C59.8047 81.6271 59.166 78.9845 57.142 77.748Z" fill="#8F662A"/>
<path d="M57.142 77.748C54.0821 75.8795 48.0969 72.6005 42.3932 71.6367C40.0558 71.2405 37.8388 72.8167 37.4435 75.1553C37.0484 77.4938 38.6238 79.7096 40.9624 80.1047C45.4056 80.8556 50.627 83.8322 52.6656 85.0775C54.6921 86.3145 57.3338 85.6727 58.5685 83.651C59.8047 81.6271 59.166 78.9845 57.142 77.748Z" fill="url(#paint2_linear)"/>
<path d="M93.3379 60.6133C95.7827 58.91 100.314 56.6378 105.038 55.8394C107.377 55.4443 108.952 53.2283 108.557 50.89C108.162 48.5514 105.945 46.9738 103.607 47.3714C97.4883 48.4051 91.7545 51.2496 88.4286 53.5667C86.4828 54.9222 86.0044 57.5988 87.3599 59.5446C88.7163 61.4916 91.3938 61.968 93.3379 60.6133Z" fill="#8F662A"/>
<path d="M93.3379 60.6133C95.7827 58.91 100.314 56.6378 105.038 55.8394C107.377 55.4443 108.952 53.2283 108.557 50.89C108.162 48.5514 105.945 46.9738 103.607 47.3714C97.4883 48.4051 91.7545 51.2496 88.4286 53.5667C86.4828 54.9222 86.0044 57.5988 87.3599 59.5446C88.7163 61.4916 91.3938 61.968 93.3379 60.6133Z" fill="url(#paint3_linear)"/>
<path d="M103.607 71.637C97.9034 72.6006 91.9183 75.8796 88.8583 77.7484C86.8344 78.9845 86.1957 81.6274 87.4318 83.6514C88.6679 85.6751 91.3105 86.3137 93.3348 85.0779C95.3734 83.8326 100.595 80.8559 105.038 80.105C107.376 79.71 108.952 77.4942 108.557 75.1556C108.162 72.817 105.945 71.2394 103.607 71.637Z" fill="#8F662A"/>
<path d="M103.607 71.637C97.9034 72.6006 91.9183 75.8796 88.8583 77.7484C86.8344 78.9845 86.1957 81.6274 87.4318 83.6514C88.6679 85.6751 91.3105 86.3137 93.3348 85.0779C95.3734 83.8326 100.595 80.8559 105.038 80.105C107.376 79.71 108.952 77.4942 108.557 75.1556C108.162 72.817 105.945 71.2394 103.607 71.637Z" fill="url(#paint4_linear)"/>
</g>
<defs>
<linearGradient id="paint0_linear" x1="72.9982" y1="132.837" x2="72.9982" y2="13.6003" gradientUnits="userSpaceOnUse">
<stop stop-color="#3D290C"/>
<stop offset="1" stop-color="#724F1B"/>
</linearGradient>
<linearGradient id="paint1_linear" x1="48.397" y1="61.4301" x2="48.397" y2="47.3159" gradientUnits="userSpaceOnUse">
<stop stop-color="#3D290C"/>
<stop offset="1" stop-color="#724F1B"/>
</linearGradient>
<linearGradient id="paint2_linear" x1="48.2904" y1="85.7536" x2="48.2904" y2="71.5815" gradientUnits="userSpaceOnUse">
<stop stop-color="#3D290C"/>
<stop offset="1" stop-color="#724F1B"/>
</linearGradient>
<linearGradient id="paint3_linear" x1="97.603" y1="61.4302" x2="97.603" y2="47.3159" gradientUnits="userSpaceOnUse">
<stop stop-color="#3D290C"/>
<stop offset="1" stop-color="#724F1B"/>
</linearGradient>
<linearGradient id="paint4_linear" x1="97.7093" y1="85.7539" x2="97.7093" y2="71.5815" gradientUnits="userSpaceOnUse">
<stop stop-color="#3D290C"/>
<stop offset="1" stop-color="#724F1B"/>
</linearGradient>
<clipPath id="clip0">
<rect width="146" height="146" fill="white"/>
</clipPath>
</defs>
</svg>
