<svg width="21" height="21" viewBox="0 0 21 21" fill="none" xmlns="http://www.w3.org/2000/svg">
<path d="M18.75 2.25H16.5V0.750014C16.5 0.335786 16.1642 0 15.75 0C15.3358 0 15 0.335786 15 0.750014V2.25H5.99998V0.750014C5.99998 0.335786 5.6642 0 5.25001 0C4.83583 0 4.5 0.335786 4.5 0.750014V2.25H2.25C1.00736 2.25 0 3.25736 0 4.5V18.75C0 19.9926 1.00736 21 2.25 21H18.75C19.9926 21 21 19.9926 21 18.75V4.5C21 3.25736 19.9926 2.25 18.75 2.25ZM19.5 18.75C19.5 19.1642 19.1642 19.5 18.75 19.5H2.25C1.83577 19.5 1.49998 19.1642 1.49998 18.75V8.99999H19.5V18.75ZM19.5 7.50001H1.49998V4.5C1.49998 4.08577 1.83577 3.74998 2.25 3.74998H4.5V5.24997C4.5 5.6642 4.83578 5.99998 5.25001 5.99998C5.66424 5.99998 6.00003 5.6642 6.00003 5.24997V3.74998H15V5.24997C15 5.6642 15.3358 5.99998 15.75 5.99998C16.1643 5.99998 16.5 5.6642 16.5 5.24997V3.74998H18.75C19.1643 3.74998 19.5001 4.08577 19.5001 4.5V7.50001H19.5Z" fill="white"/>
<path d="M6 10.5H4.50002C4.08579 10.5 3.75 10.8358 3.75 11.25C3.75 11.6642 4.08579 12 4.50002 12H6C6.41423 12 6.75002 11.6642 6.75002 11.25C6.75002 10.8358 6.41423 10.5 6 10.5Z" fill="white"/>
<path d="M11.2501 10.5H9.75014C9.33591 10.5 9.00012 10.8358 9.00012 11.25C9.00012 11.6642 9.33591 12 9.75014 12H11.2501C11.6644 12 12.0001 11.6642 12.0001 11.25C12.0001 10.8358 11.6644 10.5 11.2501 10.5Z" fill="white"/>
<path d="M16.5004 10.5H15.0004C14.5862 10.5 14.2504 10.8358 14.2504 11.25C14.2504 11.6642 14.5862 12 15.0004 12H16.5004C16.9146 12 17.2504 11.6642 17.2504 11.25C17.2503 10.8358 16.9145 10.5 16.5004 10.5Z" fill="white"/>
<path d="M6 13.5H4.50002C4.08579 13.5 3.75 13.8358 3.75 14.25C3.75 14.6642 4.08579 15 4.50002 15H6C6.41423 15 6.75002 14.6642 6.75002 14.25C6.75002 13.8358 6.41423 13.5 6 13.5Z" fill="white"/>
<path d="M11.2501 13.5H9.75014C9.33591 13.5 9.00012 13.8358 9.00012 14.25C9.00012 14.6642 9.33591 15 9.75014 15H11.2501C11.6644 15 12.0001 14.6642 12.0001 14.25C12.0001 13.8358 11.6644 13.5 11.2501 13.5Z" fill="white"/>
<path d="M16.5004 13.5H15.0004C14.5862 13.5 14.2504 13.8358 14.2504 14.25C14.2504 14.6642 14.5862 15 15.0004 15H16.5004C16.9146 15 17.2504 14.6642 17.2504 14.25C17.2503 13.8358 16.9145 13.5 16.5004 13.5Z" fill="white"/>
<path d="M6 16.5H4.50002C4.08579 16.5 3.75 16.8358 3.75 17.25C3.75 17.6642 4.08579 18 4.50002 18H6C6.41423 18 6.75002 17.6642 6.75002 17.25C6.75002 16.8357 6.41423 16.5 6 16.5Z" fill="white"/>
<path d="M11.2501 16.5H9.75014C9.33591 16.5 9.00012 16.8358 9.00012 17.25C9.00012 17.6642 9.33591 18 9.75014 18H11.2501C11.6644 18 12.0001 17.6642 12.0001 17.25C12.0001 16.8358 11.6644 16.5 11.2501 16.5Z" fill="white"/>
<path d="M16.5004 16.5H15.0004C14.5862 16.5 14.2504 16.8358 14.2504 17.25C14.2504 17.6642 14.5862 18 15.0004 18H16.5004C16.9146 18 17.2504 17.6642 17.2504 17.25C17.2504 16.8358 16.9145 16.5 16.5004 16.5Z" fill="white"/>
</svg>
