<svg width="44" height="37" viewBox="0 0 44 37" fill="none" xmlns="http://www.w3.org/2000/svg">
<path d="M29.1549 21.6844C29.1549 25.5819 25.9843 28.7524 22.0868 28.7524C18.1893 28.7524 15.02 25.5819 15.02 21.6844C15.02 17.7869 18.1893 14.6163 22.0868 14.6163C25.9843 14.6163 29.1549 17.7881 29.1549 21.6844ZM43.9998 11.648V31.7231C43.9998 34.3994 41.83 36.5693 39.1537 36.5693H5.01996C2.34368 36.5693 0.173828 34.3994 0.173828 31.7231V11.648C0.173828 8.97175 2.34368 6.80189 5.01996 6.80189H10.9807V5.12513C10.9807 2.78324 12.878 0.884766 15.2211 0.884766H28.9526C31.2957 0.884766 33.193 2.78324 33.193 5.12513V6.80068H39.1537C41.83 6.80189 43.9998 8.97175 43.9998 11.648ZM32.7895 21.6844C32.7895 15.783 27.9882 10.9817 22.0868 10.9817C16.1867 10.9817 11.3854 15.783 11.3854 21.6844C11.3854 27.5857 16.1867 32.387 22.0868 32.387C27.9882 32.387 32.7895 27.5857 32.7895 21.6844Z" fill="url(#paint0_linear)"/>
<g style="mix-blend-mode:overlay">
<path d="M10.9807 7.05189H11.2307V6.80189V5.12513C11.2307 2.92126 13.0161 1.13477 15.2211 1.13477H28.9526C31.1576 1.13477 32.943 2.92126 32.943 5.12513V6.80068V7.05068H33.193H39.1536C39.1536 7.05068 39.1537 7.05068 39.1537 7.05068C41.692 7.05189 43.7498 9.10988 43.7498 11.648V31.7231C43.7498 34.2613 41.6919 36.3193 39.1537 36.3193H5.01996C2.48176 36.3193 0.423828 34.2613 0.423828 31.7231V11.648C0.423828 9.10982 2.48176 7.05189 5.01996 7.05189H10.9807ZM28.9049 21.6844C28.9049 25.4438 25.8463 28.5024 22.0868 28.5024C18.3275 28.5024 15.27 25.4439 15.27 21.6844C15.27 17.9249 18.3275 14.8663 22.0868 14.8663C25.8462 14.8663 28.9049 17.9261 28.9049 21.6844ZM33.0395 21.6844C33.0395 15.6449 28.1263 10.7317 22.0868 10.7317C16.0486 10.7317 11.1354 15.6449 11.1354 21.6844C11.1354 27.7238 16.0486 32.637 22.0868 32.637C28.1263 32.637 33.0395 27.7238 33.0395 21.6844Z" stroke="url(#paint1_linear)" stroke-width="0.5"/>
</g>
<defs>
<linearGradient id="paint0_linear" x1="22.0868" y1="0.884766" x2="22.0868" y2="36.5693" gradientUnits="userSpaceOnUse">
<stop stop-color="#EDD364"/>
<stop offset="0.232292" stop-color="#FBF790"/>
<stop offset="0.482292" stop-color="#D6B851"/>
<stop offset="0.690625" stop-color="#ECE07C"/>
<stop offset="1" stop-color="#86652A"/>
</linearGradient>
<linearGradient id="paint1_linear" x1="22.0868" y1="0.884766" x2="22.0868" y2="36.5693" gradientUnits="userSpaceOnUse">
<stop stop-color="white"/>
<stop offset="1"/>
</linearGradient>
</defs>
</svg>
