<svg width="138" height="138" viewBox="0 0 138 138" fill="none" xmlns="http://www.w3.org/2000/svg">
<mask id="path-1-outside-1" maskUnits="userSpaceOnUse" x="0" y="0" width="138" height="138" fill="black">
<rect fill="white" width="138" height="138"/>
<path fill-rule="evenodd" clip-rule="evenodd" d="M107.25 15.4527C123.881 16.81 137 30.7766 137 47.75C137 62.2027 127.491 74.4745 114.398 78.6395V111.736C114.398 113.203 113.208 114.393 111.742 114.393H107.25V129.031C107.25 133.425 103.675 137 99.2812 137H8.96875C4.57531 137 1 133.425 1 129.031V29.6848C1 28.9809 1.27891 28.3062 1.77828 27.8069L27.8069 1.77828C28.3036 1.27891 28.9809 1 29.6848 1H99.2812C103.675 1 107.25 4.57531 107.25 8.96875V15.4527ZM27.0286 24.3697V10.0684L10.0684 27.0259H24.3723C25.8386 27.0259 27.0286 25.8359 27.0286 24.3697ZM99.2812 131.688C100.747 131.688 101.938 130.497 101.938 129.031V114.393H97.4617C95.9955 114.393 94.8055 113.203 94.8055 111.736V78.6448C81.7075 74.4852 72.1875 62.208 72.1875 47.75C72.1875 30.7766 85.3067 16.81 101.938 15.4527V8.96875C101.938 7.5025 100.747 6.3125 99.2812 6.3125H32.3411V24.3723C32.3411 28.7658 28.7658 32.3411 24.3723 32.3411H6.3125V129.031C6.3125 130.497 7.5025 131.688 8.96875 131.688H99.2812ZM100.118 92.9062V109.08H109.085V92.9062H100.118ZM100.118 87.5938H109.083V79.8428C107.617 80.0473 106.116 80.1562 104.591 80.1562C103.074 80.1562 101.582 80.05 100.118 79.8455V87.5938ZM77.5 47.75C77.5 62.6888 89.655 74.8438 104.594 74.8438C119.533 74.8438 131.688 62.6888 131.688 47.75C131.688 32.8112 119.535 20.6562 104.594 20.6562C89.6523 20.6562 77.5 32.8112 77.5 47.75ZM53.6788 112.031H51.4741C50.0079 112.031 48.8179 110.841 48.8179 109.375V90.25C48.8179 88.7838 50.0079 87.5938 51.4741 87.5938H53.6788C60.4151 87.5938 65.8976 93.0762 65.8976 99.8125C65.8976 106.549 60.4151 112.031 53.6788 112.031ZM60.5851 99.8125C60.5851 96.1548 57.7296 93.1533 54.1304 92.9195V106.705C57.7296 106.472 60.5851 103.47 60.5851 99.8125ZM28.7527 111.893C30.118 112.353 31.5869 111.641 32.0863 110.305H39.9833C40.3791 111.367 41.3885 112.034 42.4695 112.034C42.7511 112.034 43.0353 111.989 43.3169 111.896C44.7061 111.428 45.4552 109.922 44.9877 108.53L38.5516 89.4053C38.1877 88.3242 37.1756 87.5964 36.0335 87.5964C34.8913 87.5964 33.8792 88.3242 33.5153 89.4053L27.0792 108.53C26.6144 109.92 27.3635 111.426 28.7527 111.893ZM36.0361 98.58L38.193 104.99H33.8792L36.0361 98.58ZM61.1165 56.7812H17.9126C16.4463 56.7812 15.2563 55.5913 15.2563 54.125C15.2563 52.6587 16.4463 51.4688 17.9126 51.4688H61.1165C62.5828 51.4688 63.7728 52.6587 63.7728 54.125C63.7728 55.5913 62.5828 56.7812 61.1165 56.7812ZM17.9126 69.5312H61.1165C62.5828 69.5312 63.7728 68.3412 63.7728 66.875C63.7728 65.4088 62.5828 64.2188 61.1165 64.2188H17.9126C16.4463 64.2188 15.2563 65.4088 15.2563 66.875C15.2563 68.3412 16.4463 69.5312 17.9126 69.5312ZM61.1186 44.0312H40.3096C38.8407 44.0312 37.6533 42.8413 37.6533 41.375C37.6533 39.9087 38.8433 38.7188 40.3096 38.7188H61.1186C62.5849 38.7188 63.7749 39.9087 63.7749 41.375C63.7749 42.8413 62.5849 44.0312 61.1186 44.0312ZM74.8438 76.9688H18C16.5337 76.9688 15.3438 78.1588 15.3438 79.625V120C15.3438 121.466 16.5337 122.656 18 122.656H74.8438C76.31 122.656 77.5 121.466 77.5 120V79.625C77.5 78.1588 76.31 76.9688 74.8438 76.9688ZM72.1875 117.344H20.6562V82.2812H72.1875V117.344ZM69 20.6562H42.3472C40.8809 20.6562 39.6909 19.4662 39.6909 18C39.6909 16.5337 40.8809 15.3438 42.3472 15.3438H69C70.4662 15.3438 71.6562 16.5337 71.6562 18C71.6562 19.4662 70.4662 20.6562 69 20.6562Z"/>
</mask>
<path fill-rule="evenodd" clip-rule="evenodd" d="M107.25 15.4527C123.881 16.81 137 30.7766 137 47.75C137 62.2027 127.491 74.4745 114.398 78.6395V111.736C114.398 113.203 113.208 114.393 111.742 114.393H107.25V129.031C107.25 133.425 103.675 137 99.2812 137H8.96875C4.57531 137 1 133.425 1 129.031V29.6848C1 28.9809 1.27891 28.3062 1.77828 27.8069L27.8069 1.77828C28.3036 1.27891 28.9809 1 29.6848 1H99.2812C103.675 1 107.25 4.57531 107.25 8.96875V15.4527ZM27.0286 24.3697V10.0684L10.0684 27.0259H24.3723C25.8386 27.0259 27.0286 25.8359 27.0286 24.3697ZM99.2812 131.688C100.747 131.688 101.938 130.497 101.938 129.031V114.393H97.4617C95.9955 114.393 94.8055 113.203 94.8055 111.736V78.6448C81.7075 74.4852 72.1875 62.208 72.1875 47.75C72.1875 30.7766 85.3067 16.81 101.938 15.4527V8.96875C101.938 7.5025 100.747 6.3125 99.2812 6.3125H32.3411V24.3723C32.3411 28.7658 28.7658 32.3411 24.3723 32.3411H6.3125V129.031C6.3125 130.497 7.5025 131.688 8.96875 131.688H99.2812ZM100.118 92.9062V109.08H109.085V92.9062H100.118ZM100.118 87.5938H109.083V79.8428C107.617 80.0473 106.116 80.1562 104.591 80.1562C103.074 80.1562 101.582 80.05 100.118 79.8455V87.5938ZM77.5 47.75C77.5 62.6888 89.655 74.8438 104.594 74.8438C119.533 74.8438 131.688 62.6888 131.688 47.75C131.688 32.8112 119.535 20.6562 104.594 20.6562C89.6523 20.6562 77.5 32.8112 77.5 47.75ZM53.6788 112.031H51.4741C50.0079 112.031 48.8179 110.841 48.8179 109.375V90.25C48.8179 88.7838 50.0079 87.5938 51.4741 87.5938H53.6788C60.4151 87.5938 65.8976 93.0762 65.8976 99.8125C65.8976 106.549 60.4151 112.031 53.6788 112.031ZM60.5851 99.8125C60.5851 96.1548 57.7296 93.1533 54.1304 92.9195V106.705C57.7296 106.472 60.5851 103.47 60.5851 99.8125ZM28.7527 111.893C30.118 112.353 31.5869 111.641 32.0863 110.305H39.9833C40.3791 111.367 41.3885 112.034 42.4695 112.034C42.7511 112.034 43.0353 111.989 43.3169 111.896C44.7061 111.428 45.4552 109.922 44.9877 108.53L38.5516 89.4053C38.1877 88.3242 37.1756 87.5964 36.0335 87.5964C34.8913 87.5964 33.8792 88.3242 33.5153 89.4053L27.0792 108.53C26.6144 109.92 27.3635 111.426 28.7527 111.893ZM36.0361 98.58L38.193 104.99H33.8792L36.0361 98.58ZM61.1165 56.7812H17.9126C16.4463 56.7812 15.2563 55.5913 15.2563 54.125C15.2563 52.6587 16.4463 51.4688 17.9126 51.4688H61.1165C62.5828 51.4688 63.7728 52.6587 63.7728 54.125C63.7728 55.5913 62.5828 56.7812 61.1165 56.7812ZM17.9126 69.5312H61.1165C62.5828 69.5312 63.7728 68.3412 63.7728 66.875C63.7728 65.4088 62.5828 64.2188 61.1165 64.2188H17.9126C16.4463 64.2188 15.2563 65.4088 15.2563 66.875C15.2563 68.3412 16.4463 69.5312 17.9126 69.5312ZM61.1186 44.0312H40.3096C38.8407 44.0312 37.6533 42.8413 37.6533 41.375C37.6533 39.9087 38.8433 38.7188 40.3096 38.7188H61.1186C62.5849 38.7188 63.7749 39.9087 63.7749 41.375C63.7749 42.8413 62.5849 44.0312 61.1186 44.0312ZM74.8438 76.9688H18C16.5337 76.9688 15.3438 78.1588 15.3438 79.625V120C15.3438 121.466 16.5337 122.656 18 122.656H74.8438C76.31 122.656 77.5 121.466 77.5 120V79.625C77.5 78.1588 76.31 76.9688 74.8438 76.9688ZM72.1875 117.344H20.6562V82.2812H72.1875V117.344ZM69 20.6562H42.3472C40.8809 20.6562 39.6909 19.4662 39.6909 18C39.6909 16.5337 40.8809 15.3438 42.3472 15.3438H69C70.4662 15.3438 71.6562 16.5337 71.6562 18C71.6562 19.4662 70.4662 20.6562 69 20.6562Z" fill="black"/>
<path fill-rule="evenodd" clip-rule="evenodd" d="M107.25 15.4527C123.881 16.81 137 30.7766 137 47.75C137 62.2027 127.491 74.4745 114.398 78.6395V111.736C114.398 113.203 113.208 114.393 111.742 114.393H107.25V129.031C107.25 133.425 103.675 137 99.2812 137H8.96875C4.57531 137 1 133.425 1 129.031V29.6848C1 28.9809 1.27891 28.3062 1.77828 27.8069L27.8069 1.77828C28.3036 1.27891 28.9809 1 29.6848 1H99.2812C103.675 1 107.25 4.57531 107.25 8.96875V15.4527ZM27.0286 24.3697V10.0684L10.0684 27.0259H24.3723C25.8386 27.0259 27.0286 25.8359 27.0286 24.3697ZM99.2812 131.688C100.747 131.688 101.938 130.497 101.938 129.031V114.393H97.4617C95.9955 114.393 94.8055 113.203 94.8055 111.736V78.6448C81.7075 74.4852 72.1875 62.208 72.1875 47.75C72.1875 30.7766 85.3067 16.81 101.938 15.4527V8.96875C101.938 7.5025 100.747 6.3125 99.2812 6.3125H32.3411V24.3723C32.3411 28.7658 28.7658 32.3411 24.3723 32.3411H6.3125V129.031C6.3125 130.497 7.5025 131.688 8.96875 131.688H99.2812ZM100.118 92.9062V109.08H109.085V92.9062H100.118ZM100.118 87.5938H109.083V79.8428C107.617 80.0473 106.116 80.1562 104.591 80.1562C103.074 80.1562 101.582 80.05 100.118 79.8455V87.5938ZM77.5 47.75C77.5 62.6888 89.655 74.8438 104.594 74.8438C119.533 74.8438 131.688 62.6888 131.688 47.75C131.688 32.8112 119.535 20.6562 104.594 20.6562C89.6523 20.6562 77.5 32.8112 77.5 47.75ZM53.6788 112.031H51.4741C50.0079 112.031 48.8179 110.841 48.8179 109.375V90.25C48.8179 88.7838 50.0079 87.5938 51.4741 87.5938H53.6788C60.4151 87.5938 65.8976 93.0762 65.8976 99.8125C65.8976 106.549 60.4151 112.031 53.6788 112.031ZM60.5851 99.8125C60.5851 96.1548 57.7296 93.1533 54.1304 92.9195V106.705C57.7296 106.472 60.5851 103.47 60.5851 99.8125ZM28.7527 111.893C30.118 112.353 31.5869 111.641 32.0863 110.305H39.9833C40.3791 111.367 41.3885 112.034 42.4695 112.034C42.7511 112.034 43.0353 111.989 43.3169 111.896C44.7061 111.428 45.4552 109.922 44.9877 108.53L38.5516 89.4053C38.1877 88.3242 37.1756 87.5964 36.0335 87.5964C34.8913 87.5964 33.8792 88.3242 33.5153 89.4053L27.0792 108.53C26.6144 109.92 27.3635 111.426 28.7527 111.893ZM36.0361 98.58L38.193 104.99H33.8792L36.0361 98.58ZM61.1165 56.7812H17.9126C16.4463 56.7812 15.2563 55.5913 15.2563 54.125C15.2563 52.6587 16.4463 51.4688 17.9126 51.4688H61.1165C62.5828 51.4688 63.7728 52.6587 63.7728 54.125C63.7728 55.5913 62.5828 56.7812 61.1165 56.7812ZM17.9126 69.5312H61.1165C62.5828 69.5312 63.7728 68.3412 63.7728 66.875C63.7728 65.4088 62.5828 64.2188 61.1165 64.2188H17.9126C16.4463 64.2188 15.2563 65.4088 15.2563 66.875C15.2563 68.3412 16.4463 69.5312 17.9126 69.5312ZM61.1186 44.0312H40.3096C38.8407 44.0312 37.6533 42.8413 37.6533 41.375C37.6533 39.9087 38.8433 38.7188 40.3096 38.7188H61.1186C62.5849 38.7188 63.7749 39.9087 63.7749 41.375C63.7749 42.8413 62.5849 44.0312 61.1186 44.0312ZM74.8438 76.9688H18C16.5337 76.9688 15.3438 78.1588 15.3438 79.625V120C15.3438 121.466 16.5337 122.656 18 122.656H74.8438C76.31 122.656 77.5 121.466 77.5 120V79.625C77.5 78.1588 76.31 76.9688 74.8438 76.9688ZM72.1875 117.344H20.6562V82.2812H72.1875V117.344ZM69 20.6562H42.3472C40.8809 20.6562 39.6909 19.4662 39.6909 18C39.6909 16.5337 40.8809 15.3438 42.3472 15.3438H69C70.4662 15.3438 71.6562 16.5337 71.6562 18C71.6562 19.4662 70.4662 20.6562 69 20.6562Z" fill="url(#paint0_linear)"/>
<path d="M107.25 15.4527H106.25V16.3744L107.169 16.4493L107.25 15.4527ZM114.398 78.6395L114.095 77.6866L113.398 77.9083V78.6395H114.398ZM107.25 114.393V113.393H106.25V114.393H107.25ZM1.77828 27.8069L2.48539 28.514H2.48539L1.77828 27.8069ZM27.8069 1.77828L28.514 2.48539L28.5159 2.4835L27.8069 1.77828ZM27.0286 10.0684H28.0286V7.65449L26.3215 9.36128L27.0286 10.0684ZM10.0684 27.0259L9.36139 26.3188L7.65396 28.0259H10.0684V27.0259ZM101.938 114.393H102.938V113.393H101.938V114.393ZM94.8055 78.6448H95.8055V77.9132L95.1082 77.6918L94.8055 78.6448ZM101.938 15.4527L102.019 16.4493L102.938 16.3744V15.4527H101.938ZM32.3411 6.3125V5.3125H31.3411V6.3125H32.3411ZM6.3125 32.3411V31.3411H5.3125V32.3411H6.3125ZM100.118 109.08H99.118V110.08H100.118V109.08ZM100.118 92.9062V91.9062H99.118V92.9062H100.118ZM109.085 109.08V110.08H110.085V109.08H109.085ZM109.085 92.9062H110.085V91.9062H109.085V92.9062ZM109.083 87.5938V88.5938H110.083V87.5938H109.083ZM100.118 87.5938H99.118V88.5938H100.118V87.5938ZM109.083 79.8428H110.083V78.6936L108.945 78.8524L109.083 79.8428ZM100.118 79.8455L100.256 78.8551L99.118 78.696V79.8455H100.118ZM54.1304 92.9195L54.1952 91.9216L53.1304 91.8525V92.9195H54.1304ZM54.1304 106.705H53.1304V107.773L54.1952 107.703L54.1304 106.705ZM32.0863 110.305V109.305H31.3925L31.1496 109.955L32.0863 110.305ZM28.7527 111.893L29.0717 110.945L29.0716 110.945L28.7527 111.893ZM39.9833 110.305L40.9204 109.956L40.6779 109.305H39.9833V110.305ZM43.3169 111.896L43.6304 112.845L43.6358 112.844L43.3169 111.896ZM44.9877 108.53L45.9356 108.212L45.9354 108.211L44.9877 108.53ZM38.5516 89.4053L39.4994 89.0864L39.4993 89.0863L38.5516 89.4053ZM33.5153 89.4053L32.5676 89.0863L32.5676 89.0864L33.5153 89.4053ZM27.0792 108.53L26.1315 108.211L26.1309 108.213L27.0792 108.53ZM38.193 104.99V105.99H39.5846L39.1408 104.671L38.193 104.99ZM36.0361 98.58L36.9839 98.2611L36.0361 95.4446L35.0883 98.2611L36.0361 98.58ZM33.8792 104.99L32.9315 104.671L32.4876 105.99H33.8792V104.99ZM20.6562 117.344H19.6562V118.344H20.6562V117.344ZM72.1875 117.344V118.344H73.1875V117.344H72.1875ZM20.6562 82.2812V81.2812H19.6562V82.2812H20.6562ZM72.1875 82.2812H73.1875V81.2812H72.1875V82.2812ZM138 47.75C138 30.251 124.476 15.8553 107.331 14.456L107.169 16.4493C123.285 17.7647 136 31.3021 136 47.75H138ZM114.701 79.5925C128.196 75.2996 138 62.6517 138 47.75H136C136 61.7536 126.786 73.6495 114.095 77.6866L114.701 79.5925ZM115.398 111.736V78.6395H113.398V111.736H115.398ZM111.742 115.393C113.76 115.393 115.398 113.755 115.398 111.736H113.398C113.398 112.65 112.656 113.393 111.742 113.393V115.393ZM107.25 115.393H111.742V113.393H107.25V115.393ZM108.25 129.031V114.393H106.25V129.031H108.25ZM99.2812 138C104.227 138 108.25 133.977 108.25 129.031H106.25C106.25 132.872 103.122 136 99.2812 136V138ZM8.96875 138H99.2812V136H8.96875V138ZM0 129.031C0 133.977 4.02303 138 8.96875 138V136C5.1276 136 2 132.872 2 129.031H0ZM0 29.6848V129.031H2V29.6848H0ZM1.07117 27.0998C0.38421 27.7867 0 28.7158 0 29.6848H2C2 29.2461 2.1736 28.8258 2.48539 28.514L1.07117 27.0998ZM27.0998 1.07117L1.07117 27.0998L2.48539 28.514L28.514 2.48539L27.0998 1.07117ZM29.6848 0C28.7173 0 27.7841 0.383205 27.0979 1.07306L28.5159 2.4835C28.8231 2.17461 29.2445 2 29.6848 2V0ZM99.2812 0H29.6848V2H99.2812V0ZM108.25 8.96875C108.25 4.02303 104.227 0 99.2812 0V2C103.122 2 106.25 5.1276 106.25 8.96875H108.25ZM108.25 15.4527V8.96875H106.25V15.4527H108.25ZM26.0286 10.0684V24.3697H28.0286V10.0684H26.0286ZM10.7755 27.7331L27.7356 10.7756L26.3215 9.36128L9.36139 26.3188L10.7755 27.7331ZM24.3723 26.0259H10.0684V28.0259H24.3723V26.0259ZM26.0286 24.3697C26.0286 25.2837 25.2863 26.0259 24.3723 26.0259V28.0259C26.3909 28.0259 28.0286 26.3882 28.0286 24.3697H26.0286ZM100.938 129.031C100.938 129.945 100.195 130.688 99.2812 130.688V132.688C101.3 132.688 102.938 131.05 102.938 129.031H100.938ZM100.938 114.393V129.031H102.938V114.393H100.938ZM97.4617 115.393H101.938V113.393H97.4617V115.393ZM93.8055 111.736C93.8055 113.755 95.4432 115.393 97.4617 115.393V113.393C96.5478 113.393 95.8055 112.65 95.8055 111.736H93.8055ZM93.8055 78.6448V111.736H95.8055V78.6448H93.8055ZM71.1875 47.75C71.1875 62.6572 81.0027 75.3105 94.5028 79.5979L95.1082 77.6918C82.4123 73.6598 73.1875 61.7587 73.1875 47.75H71.1875ZM101.856 14.456C84.7112 15.8553 71.1875 30.251 71.1875 47.75H73.1875C73.1875 31.3021 85.9023 17.7647 102.019 16.4493L101.856 14.456ZM100.938 8.96875V15.4527H102.938V8.96875H100.938ZM99.2812 7.3125C100.195 7.3125 100.938 8.05479 100.938 8.96875H102.938C102.938 6.95021 101.3 5.3125 99.2812 5.3125V7.3125ZM32.3411 7.3125H99.2812V5.3125H32.3411V7.3125ZM33.3411 24.3723V6.3125H31.3411V24.3723H33.3411ZM24.3723 33.3411C29.3181 33.3411 33.3411 29.3181 33.3411 24.3723H31.3411C31.3411 28.2135 28.2135 31.3411 24.3723 31.3411V33.3411ZM6.3125 33.3411H24.3723V31.3411H6.3125V33.3411ZM7.3125 129.031V32.3411H5.3125V129.031H7.3125ZM8.96875 130.688C8.05479 130.688 7.3125 129.945 7.3125 129.031H5.3125C5.3125 131.05 6.95021 132.688 8.96875 132.688V130.688ZM99.2812 130.688H8.96875V132.688H99.2812V130.688ZM101.118 109.08V92.9062H99.118V109.08H101.118ZM109.085 108.08H100.118V110.08H109.085V108.08ZM108.085 92.9062V109.08H110.085V92.9062H108.085ZM100.118 93.9062H109.085V91.9062H100.118V93.9062ZM109.083 86.5938H100.118V88.5938H109.083V86.5938ZM108.083 79.8428V87.5938H110.083V79.8428H108.083ZM104.591 81.1562C106.163 81.1562 107.71 81.0439 109.221 80.8332L108.945 78.8524C107.523 79.0508 106.068 79.1562 104.591 79.1562V81.1562ZM99.9796 80.8358C101.489 81.0467 103.028 81.1562 104.591 81.1562V79.1562C103.121 79.1562 101.675 79.0533 100.256 78.8551L99.9796 80.8358ZM101.118 87.5938V79.8455H99.118V87.5938H101.118ZM104.594 73.8438C90.2073 73.8438 78.5 62.1365 78.5 47.75H76.5C76.5 63.241 89.1027 75.8438 104.594 75.8438V73.8438ZM130.688 47.75C130.688 62.1365 118.98 73.8438 104.594 73.8438V75.8438C120.085 75.8438 132.688 63.241 132.688 47.75H130.688ZM104.594 21.6562C118.983 21.6562 130.688 33.3635 130.688 47.75H132.688C132.688 32.259 120.088 19.6562 104.594 19.6562V21.6562ZM78.5 47.75C78.5 33.3635 90.2047 21.6562 104.594 21.6562V19.6562C89.1 19.6562 76.5 32.259 76.5 47.75H78.5ZM51.4741 113.031H53.6788V111.031H51.4741V113.031ZM47.8179 109.375C47.8179 111.394 49.4556 113.031 51.4741 113.031V111.031C50.5602 111.031 49.8179 110.289 49.8179 109.375H47.8179ZM47.8179 90.25V109.375H49.8179V90.25H47.8179ZM51.4741 86.5938C49.4556 86.5938 47.8179 88.2315 47.8179 90.25H49.8179C49.8179 89.336 50.5602 88.5938 51.4741 88.5938V86.5938ZM53.6788 86.5938H51.4741V88.5938H53.6788V86.5938ZM66.8976 99.8125C66.8976 92.524 60.9674 86.5938 53.6788 86.5938V88.5938C59.8628 88.5938 64.8976 93.6285 64.8976 99.8125H66.8976ZM53.6788 113.031C60.9674 113.031 66.8976 107.101 66.8976 99.8125H64.8976C64.8976 105.996 59.8628 111.031 53.6788 111.031V113.031ZM54.0656 93.9174C57.1424 94.1172 59.5851 96.6856 59.5851 99.8125H61.5851C61.5851 95.6241 58.3168 92.1893 54.1952 91.9216L54.0656 93.9174ZM55.1304 106.705V92.9195H53.1304V106.705H55.1304ZM59.5851 99.8125C59.5851 102.939 57.1424 105.508 54.0656 105.708L54.1952 107.703C58.3168 107.436 61.5851 104.001 61.5851 99.8125H59.5851ZM31.1496 109.955C30.8374 110.79 29.9214 111.231 29.0717 110.945L28.4337 112.841C30.3146 113.474 32.3363 112.492 33.023 110.655L31.1496 109.955ZM39.9833 109.305H32.0863V111.305H39.9833V109.305ZM42.4695 111.034C41.7959 111.034 41.1669 110.617 40.9204 109.956L39.0462 110.654C39.5913 112.117 40.981 113.034 42.4695 113.034V111.034ZM43.0033 110.946C42.8215 111.006 42.6431 111.034 42.4695 111.034V113.034C42.8591 113.034 43.2492 112.971 43.6304 112.845L43.0033 110.946ZM44.0397 108.849C44.3315 109.717 43.8639 110.657 42.9979 110.948L43.6358 112.844C45.5484 112.2 46.5789 110.127 45.9356 108.212L44.0397 108.849ZM37.6038 89.7243L44.0399 108.849L45.9354 108.211L39.4994 89.0864L37.6038 89.7243ZM36.0335 88.5964C36.7462 88.5964 37.3769 89.0501 37.6038 89.7243L39.4993 89.0863C38.9985 87.5984 37.6051 86.5964 36.0335 86.5964V88.5964ZM34.4631 89.7243C34.69 89.0501 35.3207 88.5964 36.0335 88.5964V86.5964C34.4618 86.5964 33.0684 87.5984 32.5676 89.0863L34.4631 89.7243ZM28.027 108.849L34.4631 89.7243L32.5676 89.0864L26.1315 108.211L28.027 108.849ZM29.0716 110.945C28.2051 110.654 27.7378 109.714 28.0276 108.848L26.1309 108.213C25.491 110.125 26.5218 112.197 28.4337 112.841L29.0716 110.945ZM39.1408 104.671L36.9839 98.2611L35.0883 98.8989L37.2452 105.308L39.1408 104.671ZM33.8792 105.99H38.193V103.99H33.8792V105.99ZM35.0883 98.2611L32.9315 104.671L34.827 105.308L36.9839 98.8989L35.0883 98.2611ZM17.9126 57.7812H61.1165V55.7812H17.9126V57.7812ZM14.2563 54.125C14.2563 56.1435 15.8941 57.7812 17.9126 57.7812V55.7812C16.9986 55.7812 16.2563 55.039 16.2563 54.125H14.2563ZM17.9126 50.4688C15.8941 50.4688 14.2563 52.1065 14.2563 54.125H16.2563C16.2563 53.211 16.9986 52.4688 17.9126 52.4688V50.4688ZM61.1165 50.4688H17.9126V52.4688H61.1165V50.4688ZM64.7728 54.125C64.7728 52.1065 63.135 50.4688 61.1165 50.4688V52.4688C62.0305 52.4688 62.7728 53.211 62.7728 54.125H64.7728ZM61.1165 57.7812C63.135 57.7812 64.7728 56.1435 64.7728 54.125H62.7728C62.7728 55.039 62.0305 55.7812 61.1165 55.7812V57.7812ZM61.1165 68.5312H17.9126V70.5312H61.1165V68.5312ZM62.7728 66.875C62.7728 67.789 62.0305 68.5312 61.1165 68.5312V70.5312C63.135 70.5312 64.7728 68.8935 64.7728 66.875H62.7728ZM61.1165 65.2188C62.0305 65.2188 62.7728 65.961 62.7728 66.875H64.7728C64.7728 64.8565 63.135 63.2188 61.1165 63.2188V65.2188ZM17.9126 65.2188H61.1165V63.2188H17.9126V65.2188ZM16.2563 66.875C16.2563 65.961 16.9986 65.2188 17.9126 65.2188V63.2188C15.8941 63.2188 14.2563 64.8565 14.2563 66.875H16.2563ZM17.9126 68.5312C16.9986 68.5312 16.2563 67.789 16.2563 66.875H14.2563C14.2563 68.8935 15.8941 70.5312 17.9126 70.5312V68.5312ZM40.3096 45.0312H61.1186V43.0312H40.3096V45.0312ZM36.6533 41.375C36.6533 43.3929 38.2877 45.0312 40.3096 45.0312V43.0312C39.3936 43.0312 38.6533 42.2896 38.6533 41.375H36.6533ZM40.3096 37.7188C38.291 37.7188 36.6533 39.3565 36.6533 41.375H38.6533C38.6533 40.461 39.3956 39.7188 40.3096 39.7188V37.7188ZM61.1186 37.7188H40.3096V39.7188H61.1186V37.7188ZM64.7749 41.375C64.7749 39.3565 63.1372 37.7188 61.1186 37.7188V39.7188C62.0326 39.7188 62.7749 40.461 62.7749 41.375H64.7749ZM61.1186 45.0312C63.1372 45.0312 64.7749 43.3935 64.7749 41.375H62.7749C62.7749 42.289 62.0326 43.0312 61.1186 43.0312V45.0312ZM18 77.9688H74.8438V75.9688H18V77.9688ZM16.3438 79.625C16.3438 78.711 17.086 77.9688 18 77.9688V75.9688C15.9815 75.9688 14.3438 77.6065 14.3438 79.625H16.3438ZM16.3438 120V79.625H14.3438V120H16.3438ZM18 121.656C17.086 121.656 16.3438 120.914 16.3438 120H14.3438C14.3438 122.019 15.9815 123.656 18 123.656V121.656ZM74.8438 121.656H18V123.656H74.8438V121.656ZM76.5 120C76.5 120.914 75.7577 121.656 74.8438 121.656V123.656C76.8623 123.656 78.5 122.019 78.5 120H76.5ZM76.5 79.625V120H78.5V79.625H76.5ZM74.8438 77.9688C75.7577 77.9688 76.5 78.711 76.5 79.625H78.5C78.5 77.6065 76.8623 75.9688 74.8438 75.9688V77.9688ZM20.6562 118.344H72.1875V116.344H20.6562V118.344ZM19.6562 82.2812V117.344H21.6562V82.2812H19.6562ZM72.1875 81.2812H20.6562V83.2812H72.1875V81.2812ZM73.1875 117.344V82.2812H71.1875V117.344H73.1875ZM42.3472 21.6562H69V19.6562H42.3472V21.6562ZM38.6909 18C38.6909 20.0185 40.3286 21.6562 42.3472 21.6562V19.6562C41.4332 19.6562 40.6909 18.914 40.6909 18H38.6909ZM42.3472 14.3438C40.3286 14.3438 38.6909 15.9815 38.6909 18H40.6909C40.6909 17.086 41.4332 16.3438 42.3472 16.3438V14.3438ZM69 14.3438H42.3472V16.3438H69V14.3438ZM72.6562 18C72.6562 15.9815 71.0185 14.3438 69 14.3438V16.3438C69.9139 16.3438 70.6562 17.086 70.6562 18H72.6562ZM69 21.6562C71.0185 21.6562 72.6562 20.0185 72.6562 18H70.6562C70.6562 18.914 69.9139 19.6562 69 19.6562V21.6562Z" fill="black" mask="url(#path-1-outside-1)"/>
<path d="M107.25 15.4527H106.25V16.3744L107.169 16.4493L107.25 15.4527ZM114.398 78.6395L114.095 77.6866L113.398 77.9083V78.6395H114.398ZM107.25 114.393V113.393H106.25V114.393H107.25ZM1.77828 27.8069L2.48539 28.514H2.48539L1.77828 27.8069ZM27.8069 1.77828L28.514 2.48539L28.5159 2.4835L27.8069 1.77828ZM27.0286 10.0684H28.0286V7.65449L26.3215 9.36128L27.0286 10.0684ZM10.0684 27.0259L9.36139 26.3188L7.65396 28.0259H10.0684V27.0259ZM101.938 114.393H102.938V113.393H101.938V114.393ZM94.8055 78.6448H95.8055V77.9132L95.1082 77.6918L94.8055 78.6448ZM101.938 15.4527L102.019 16.4493L102.938 16.3744V15.4527H101.938ZM32.3411 6.3125V5.3125H31.3411V6.3125H32.3411ZM6.3125 32.3411V31.3411H5.3125V32.3411H6.3125ZM100.118 109.08H99.118V110.08H100.118V109.08ZM100.118 92.9062V91.9062H99.118V92.9062H100.118ZM109.085 109.08V110.08H110.085V109.08H109.085ZM109.085 92.9062H110.085V91.9062H109.085V92.9062ZM109.083 87.5938V88.5938H110.083V87.5938H109.083ZM100.118 87.5938H99.118V88.5938H100.118V87.5938ZM109.083 79.8428H110.083V78.6936L108.945 78.8524L109.083 79.8428ZM100.118 79.8455L100.256 78.8551L99.118 78.696V79.8455H100.118ZM54.1304 92.9195L54.1952 91.9216L53.1304 91.8525V92.9195H54.1304ZM54.1304 106.705H53.1304V107.773L54.1952 107.703L54.1304 106.705ZM32.0863 110.305V109.305H31.3925L31.1496 109.955L32.0863 110.305ZM28.7527 111.893L29.0717 110.945L29.0716 110.945L28.7527 111.893ZM39.9833 110.305L40.9204 109.956L40.6779 109.305H39.9833V110.305ZM43.3169 111.896L43.6304 112.845L43.6358 112.844L43.3169 111.896ZM44.9877 108.53L45.9356 108.212L45.9354 108.211L44.9877 108.53ZM38.5516 89.4053L39.4994 89.0864L39.4993 89.0863L38.5516 89.4053ZM33.5153 89.4053L32.5676 89.0863L32.5676 89.0864L33.5153 89.4053ZM27.0792 108.53L26.1315 108.211L26.1309 108.213L27.0792 108.53ZM38.193 104.99V105.99H39.5846L39.1408 104.671L38.193 104.99ZM36.0361 98.58L36.9839 98.2611L36.0361 95.4446L35.0883 98.2611L36.0361 98.58ZM33.8792 104.99L32.9315 104.671L32.4876 105.99H33.8792V104.99ZM20.6562 117.344H19.6562V118.344H20.6562V117.344ZM72.1875 117.344V118.344H73.1875V117.344H72.1875ZM20.6562 82.2812V81.2812H19.6562V82.2812H20.6562ZM72.1875 82.2812H73.1875V81.2812H72.1875V82.2812ZM138 47.75C138 30.251 124.476 15.8553 107.331 14.456L107.169 16.4493C123.285 17.7647 136 31.3021 136 47.75H138ZM114.701 79.5925C128.196 75.2996 138 62.6517 138 47.75H136C136 61.7536 126.786 73.6495 114.095 77.6866L114.701 79.5925ZM115.398 111.736V78.6395H113.398V111.736H115.398ZM111.742 115.393C113.76 115.393 115.398 113.755 115.398 111.736H113.398C113.398 112.65 112.656 113.393 111.742 113.393V115.393ZM107.25 115.393H111.742V113.393H107.25V115.393ZM108.25 129.031V114.393H106.25V129.031H108.25ZM99.2812 138C104.227 138 108.25 133.977 108.25 129.031H106.25C106.25 132.872 103.122 136 99.2812 136V138ZM8.96875 138H99.2812V136H8.96875V138ZM0 129.031C0 133.977 4.02303 138 8.96875 138V136C5.1276 136 2 132.872 2 129.031H0ZM0 29.6848V129.031H2V29.6848H0ZM1.07117 27.0998C0.38421 27.7867 0 28.7158 0 29.6848H2C2 29.2461 2.1736 28.8258 2.48539 28.514L1.07117 27.0998ZM27.0998 1.07117L1.07117 27.0998L2.48539 28.514L28.514 2.48539L27.0998 1.07117ZM29.6848 0C28.7173 0 27.7841 0.383205 27.0979 1.07306L28.5159 2.4835C28.8231 2.17461 29.2445 2 29.6848 2V0ZM99.2812 0H29.6848V2H99.2812V0ZM108.25 8.96875C108.25 4.02303 104.227 0 99.2812 0V2C103.122 2 106.25 5.1276 106.25 8.96875H108.25ZM108.25 15.4527V8.96875H106.25V15.4527H108.25ZM26.0286 10.0684V24.3697H28.0286V10.0684H26.0286ZM10.7755 27.7331L27.7356 10.7756L26.3215 9.36128L9.36139 26.3188L10.7755 27.7331ZM24.3723 26.0259H10.0684V28.0259H24.3723V26.0259ZM26.0286 24.3697C26.0286 25.2837 25.2863 26.0259 24.3723 26.0259V28.0259C26.3909 28.0259 28.0286 26.3882 28.0286 24.3697H26.0286ZM100.938 129.031C100.938 129.945 100.195 130.688 99.2812 130.688V132.688C101.3 132.688 102.938 131.05 102.938 129.031H100.938ZM100.938 114.393V129.031H102.938V114.393H100.938ZM97.4617 115.393H101.938V113.393H97.4617V115.393ZM93.8055 111.736C93.8055 113.755 95.4432 115.393 97.4617 115.393V113.393C96.5478 113.393 95.8055 112.65 95.8055 111.736H93.8055ZM93.8055 78.6448V111.736H95.8055V78.6448H93.8055ZM71.1875 47.75C71.1875 62.6572 81.0027 75.3105 94.5028 79.5979L95.1082 77.6918C82.4123 73.6598 73.1875 61.7587 73.1875 47.75H71.1875ZM101.856 14.456C84.7112 15.8553 71.1875 30.251 71.1875 47.75H73.1875C73.1875 31.3021 85.9023 17.7647 102.019 16.4493L101.856 14.456ZM100.938 8.96875V15.4527H102.938V8.96875H100.938ZM99.2812 7.3125C100.195 7.3125 100.938 8.05479 100.938 8.96875H102.938C102.938 6.95021 101.3 5.3125 99.2812 5.3125V7.3125ZM32.3411 7.3125H99.2812V5.3125H32.3411V7.3125ZM33.3411 24.3723V6.3125H31.3411V24.3723H33.3411ZM24.3723 33.3411C29.3181 33.3411 33.3411 29.3181 33.3411 24.3723H31.3411C31.3411 28.2135 28.2135 31.3411 24.3723 31.3411V33.3411ZM6.3125 33.3411H24.3723V31.3411H6.3125V33.3411ZM7.3125 129.031V32.3411H5.3125V129.031H7.3125ZM8.96875 130.688C8.05479 130.688 7.3125 129.945 7.3125 129.031H5.3125C5.3125 131.05 6.95021 132.688 8.96875 132.688V130.688ZM99.2812 130.688H8.96875V132.688H99.2812V130.688ZM101.118 109.08V92.9062H99.118V109.08H101.118ZM109.085 108.08H100.118V110.08H109.085V108.08ZM108.085 92.9062V109.08H110.085V92.9062H108.085ZM100.118 93.9062H109.085V91.9062H100.118V93.9062ZM109.083 86.5938H100.118V88.5938H109.083V86.5938ZM108.083 79.8428V87.5938H110.083V79.8428H108.083ZM104.591 81.1562C106.163 81.1562 107.71 81.0439 109.221 80.8332L108.945 78.8524C107.523 79.0508 106.068 79.1562 104.591 79.1562V81.1562ZM99.9796 80.8358C101.489 81.0467 103.028 81.1562 104.591 81.1562V79.1562C103.121 79.1562 101.675 79.0533 100.256 78.8551L99.9796 80.8358ZM101.118 87.5938V79.8455H99.118V87.5938H101.118ZM104.594 73.8438C90.2073 73.8438 78.5 62.1365 78.5 47.75H76.5C76.5 63.241 89.1027 75.8438 104.594 75.8438V73.8438ZM130.688 47.75C130.688 62.1365 118.98 73.8438 104.594 73.8438V75.8438C120.085 75.8438 132.688 63.241 132.688 47.75H130.688ZM104.594 21.6562C118.983 21.6562 130.688 33.3635 130.688 47.75H132.688C132.688 32.259 120.088 19.6562 104.594 19.6562V21.6562ZM78.5 47.75C78.5 33.3635 90.2047 21.6562 104.594 21.6562V19.6562C89.1 19.6562 76.5 32.259 76.5 47.75H78.5ZM51.4741 113.031H53.6788V111.031H51.4741V113.031ZM47.8179 109.375C47.8179 111.394 49.4556 113.031 51.4741 113.031V111.031C50.5602 111.031 49.8179 110.289 49.8179 109.375H47.8179ZM47.8179 90.25V109.375H49.8179V90.25H47.8179ZM51.4741 86.5938C49.4556 86.5938 47.8179 88.2315 47.8179 90.25H49.8179C49.8179 89.336 50.5602 88.5938 51.4741 88.5938V86.5938ZM53.6788 86.5938H51.4741V88.5938H53.6788V86.5938ZM66.8976 99.8125C66.8976 92.524 60.9674 86.5938 53.6788 86.5938V88.5938C59.8628 88.5938 64.8976 93.6285 64.8976 99.8125H66.8976ZM53.6788 113.031C60.9674 113.031 66.8976 107.101 66.8976 99.8125H64.8976C64.8976 105.996 59.8628 111.031 53.6788 111.031V113.031ZM54.0656 93.9174C57.1424 94.1172 59.5851 96.6856 59.5851 99.8125H61.5851C61.5851 95.6241 58.3168 92.1893 54.1952 91.9216L54.0656 93.9174ZM55.1304 106.705V92.9195H53.1304V106.705H55.1304ZM59.5851 99.8125C59.5851 102.939 57.1424 105.508 54.0656 105.708L54.1952 107.703C58.3168 107.436 61.5851 104.001 61.5851 99.8125H59.5851ZM31.1496 109.955C30.8374 110.79 29.9214 111.231 29.0717 110.945L28.4337 112.841C30.3146 113.474 32.3363 112.492 33.023 110.655L31.1496 109.955ZM39.9833 109.305H32.0863V111.305H39.9833V109.305ZM42.4695 111.034C41.7959 111.034 41.1669 110.617 40.9204 109.956L39.0462 110.654C39.5913 112.117 40.981 113.034 42.4695 113.034V111.034ZM43.0033 110.946C42.8215 111.006 42.6431 111.034 42.4695 111.034V113.034C42.8591 113.034 43.2492 112.971 43.6304 112.845L43.0033 110.946ZM44.0397 108.849C44.3315 109.717 43.8639 110.657 42.9979 110.948L43.6358 112.844C45.5484 112.2 46.5789 110.127 45.9356 108.212L44.0397 108.849ZM37.6038 89.7243L44.0399 108.849L45.9354 108.211L39.4994 89.0864L37.6038 89.7243ZM36.0335 88.5964C36.7462 88.5964 37.3769 89.0501 37.6038 89.7243L39.4993 89.0863C38.9985 87.5984 37.6051 86.5964 36.0335 86.5964V88.5964ZM34.4631 89.7243C34.69 89.0501 35.3207 88.5964 36.0335 88.5964V86.5964C34.4618 86.5964 33.0684 87.5984 32.5676 89.0863L34.4631 89.7243ZM28.027 108.849L34.4631 89.7243L32.5676 89.0864L26.1315 108.211L28.027 108.849ZM29.0716 110.945C28.2051 110.654 27.7378 109.714 28.0276 108.848L26.1309 108.213C25.491 110.125 26.5218 112.197 28.4337 112.841L29.0716 110.945ZM39.1408 104.671L36.9839 98.2611L35.0883 98.8989L37.2452 105.308L39.1408 104.671ZM33.8792 105.99H38.193V103.99H33.8792V105.99ZM35.0883 98.2611L32.9315 104.671L34.827 105.308L36.9839 98.8989L35.0883 98.2611ZM17.9126 57.7812H61.1165V55.7812H17.9126V57.7812ZM14.2563 54.125C14.2563 56.1435 15.8941 57.7812 17.9126 57.7812V55.7812C16.9986 55.7812 16.2563 55.039 16.2563 54.125H14.2563ZM17.9126 50.4688C15.8941 50.4688 14.2563 52.1065 14.2563 54.125H16.2563C16.2563 53.211 16.9986 52.4688 17.9126 52.4688V50.4688ZM61.1165 50.4688H17.9126V52.4688H61.1165V50.4688ZM64.7728 54.125C64.7728 52.1065 63.135 50.4688 61.1165 50.4688V52.4688C62.0305 52.4688 62.7728 53.211 62.7728 54.125H64.7728ZM61.1165 57.7812C63.135 57.7812 64.7728 56.1435 64.7728 54.125H62.7728C62.7728 55.039 62.0305 55.7812 61.1165 55.7812V57.7812ZM61.1165 68.5312H17.9126V70.5312H61.1165V68.5312ZM62.7728 66.875C62.7728 67.789 62.0305 68.5312 61.1165 68.5312V70.5312C63.135 70.5312 64.7728 68.8935 64.7728 66.875H62.7728ZM61.1165 65.2188C62.0305 65.2188 62.7728 65.961 62.7728 66.875H64.7728C64.7728 64.8565 63.135 63.2188 61.1165 63.2188V65.2188ZM17.9126 65.2188H61.1165V63.2188H17.9126V65.2188ZM16.2563 66.875C16.2563 65.961 16.9986 65.2188 17.9126 65.2188V63.2188C15.8941 63.2188 14.2563 64.8565 14.2563 66.875H16.2563ZM17.9126 68.5312C16.9986 68.5312 16.2563 67.789 16.2563 66.875H14.2563C14.2563 68.8935 15.8941 70.5312 17.9126 70.5312V68.5312ZM40.3096 45.0312H61.1186V43.0312H40.3096V45.0312ZM36.6533 41.375C36.6533 43.3929 38.2877 45.0312 40.3096 45.0312V43.0312C39.3936 43.0312 38.6533 42.2896 38.6533 41.375H36.6533ZM40.3096 37.7188C38.291 37.7188 36.6533 39.3565 36.6533 41.375H38.6533C38.6533 40.461 39.3956 39.7188 40.3096 39.7188V37.7188ZM61.1186 37.7188H40.3096V39.7188H61.1186V37.7188ZM64.7749 41.375C64.7749 39.3565 63.1372 37.7188 61.1186 37.7188V39.7188C62.0326 39.7188 62.7749 40.461 62.7749 41.375H64.7749ZM61.1186 45.0312C63.1372 45.0312 64.7749 43.3935 64.7749 41.375H62.7749C62.7749 42.289 62.0326 43.0312 61.1186 43.0312V45.0312ZM18 77.9688H74.8438V75.9688H18V77.9688ZM16.3438 79.625C16.3438 78.711 17.086 77.9688 18 77.9688V75.9688C15.9815 75.9688 14.3438 77.6065 14.3438 79.625H16.3438ZM16.3438 120V79.625H14.3438V120H16.3438ZM18 121.656C17.086 121.656 16.3438 120.914 16.3438 120H14.3438C14.3438 122.019 15.9815 123.656 18 123.656V121.656ZM74.8438 121.656H18V123.656H74.8438V121.656ZM76.5 120C76.5 120.914 75.7577 121.656 74.8438 121.656V123.656C76.8623 123.656 78.5 122.019 78.5 120H76.5ZM76.5 79.625V120H78.5V79.625H76.5ZM74.8438 77.9688C75.7577 77.9688 76.5 78.711 76.5 79.625H78.5C78.5 77.6065 76.8623 75.9688 74.8438 75.9688V77.9688ZM20.6562 118.344H72.1875V116.344H20.6562V118.344ZM19.6562 82.2812V117.344H21.6562V82.2812H19.6562ZM72.1875 81.2812H20.6562V83.2812H72.1875V81.2812ZM73.1875 117.344V82.2812H71.1875V117.344H73.1875ZM42.3472 21.6562H69V19.6562H42.3472V21.6562ZM38.6909 18C38.6909 20.0185 40.3286 21.6562 42.3472 21.6562V19.6562C41.4332 19.6562 40.6909 18.914 40.6909 18H38.6909ZM42.3472 14.3438C40.3286 14.3438 38.6909 15.9815 38.6909 18H40.6909C40.6909 17.086 41.4332 16.3438 42.3472 16.3438V14.3438ZM69 14.3438H42.3472V16.3438H69V14.3438ZM72.6562 18C72.6562 15.9815 71.0185 14.3438 69 14.3438V16.3438C69.9139 16.3438 70.6562 17.086 70.6562 18H72.6562ZM69 21.6562C71.0185 21.6562 72.6562 20.0185 72.6562 18H70.6562C70.6562 18.914 69.9139 19.6562 69 19.6562V21.6562Z" fill="url(#paint1_linear)" mask="url(#path-1-outside-1)"/>
<defs>
<linearGradient id="paint0_linear" x1="68.998" y1="137.444" x2="68.998" y2="1.05604" gradientUnits="userSpaceOnUse">
<stop stop-color="#3D290C"/>
<stop offset="1" stop-color="#724F1B"/>
</linearGradient>
<linearGradient id="paint1_linear" x1="68.998" y1="137.444" x2="68.998" y2="1.05604" gradientUnits="userSpaceOnUse">
<stop stop-color="#3D290C"/>
<stop offset="1" stop-color="#724F1B"/>
</linearGradient>
</defs>
</svg>
