<svg width="82" height="82" viewBox="0 0 82 82" fill="none" xmlns="http://www.w3.org/2000/svg">
<g filter="url(#filter0_d)">
<circle cx="41" cy="37" r="37" fill="url(#paint0_radial)"/>
<circle cx="41" cy="37" r="37" fill="url(#paint1_radial)"/>
<circle cx="41" cy="37" r="35" stroke="url(#paint2_linear)" stroke-width="4"/>
</g>
<g filter="url(#filter1_d)">
<path fill-rule="evenodd" clip-rule="evenodd" d="M24.7976 25.6569C24.4071 26.0474 24.4071 26.6806 24.7976 27.0711L34.8631 37.1366L24.7968 47.203C24.4063 47.5935 24.4063 48.2267 24.7968 48.6172L29.8464 53.6668C30.2369 54.0573 30.8701 54.0573 31.2606 53.6668L41.3269 43.6004L51.3931 53.6667C51.7837 54.0572 52.4168 54.0572 52.8074 53.6667L57.8569 48.6171C58.2475 48.2266 58.2475 47.5934 57.8569 47.2029L47.7907 37.1366L57.8561 27.0712C58.2467 26.6807 58.2467 26.0475 57.8561 25.657L52.8066 20.6074C52.416 20.2169 51.7829 20.2169 51.3923 20.6074L41.3269 30.6729L31.2614 20.6073C30.8709 20.2168 30.2377 20.2168 29.8472 20.6073L24.7976 25.6569Z" fill="url(#paint3_linear)"/>
</g>
<mask id="path-4-inside-1" fill="white">
<path fill-rule="evenodd" clip-rule="evenodd" d="M24.7976 25.6569C24.4071 26.0474 24.4071 26.6806 24.7976 27.0711L34.8631 37.1366L24.7968 47.203C24.4063 47.5935 24.4063 48.2267 24.7968 48.6172L29.8464 53.6668C30.2369 54.0573 30.8701 54.0573 31.2606 53.6668L41.3269 43.6004L51.3931 53.6667C51.7837 54.0572 52.4168 54.0572 52.8074 53.6667L57.8569 48.6171C58.2475 48.2266 58.2475 47.5934 57.8569 47.2029L47.7907 37.1366L57.8561 27.0712C58.2467 26.6807 58.2467 26.0475 57.8561 25.657L52.8066 20.6074C52.416 20.2169 51.7829 20.2169 51.3923 20.6074L41.3269 30.6729L31.2614 20.6073C30.8709 20.2168 30.2377 20.2168 29.8472 20.6073L24.7976 25.6569Z"/>
</mask>
<path d="M24.7976 27.0711L24.5855 27.2833H24.5855L24.7976 27.0711ZM24.7976 25.6569L25.0097 25.8691H25.0097L24.7976 25.6569ZM34.8631 37.1366L35.0752 37.3488L35.2874 37.1366L35.0752 36.9245L34.8631 37.1366ZM24.7968 47.203L25.0089 47.4151H25.0089L24.7968 47.203ZM24.7968 48.6172L25.0089 48.405H25.0089L24.7968 48.6172ZM29.8464 53.6668L29.6342 53.8789H29.6342L29.8464 53.6668ZM31.2606 53.6668L31.4727 53.8789H31.4727L31.2606 53.6668ZM41.3269 43.6004L41.539 43.3883L41.3269 43.1762L41.1148 43.3883L41.3269 43.6004ZM51.3931 53.6667L51.181 53.8788L51.3931 53.6667ZM52.8074 53.6667L53.0195 53.8788L52.8074 53.6667ZM57.8569 48.6171L58.0691 48.8292L57.8569 48.6171ZM57.8569 47.2029L58.0691 46.9908L57.8569 47.2029ZM47.7907 37.1366L47.5786 36.9245L47.3664 37.1366L47.5786 37.3488L47.7907 37.1366ZM57.8561 27.0712L57.644 26.8591V26.8591L57.8561 27.0712ZM57.8561 25.657L57.644 25.8691V25.8691L57.8561 25.657ZM52.8066 20.6074L53.0187 20.3953V20.3953L52.8066 20.6074ZM51.3923 20.6074L51.1802 20.3953V20.3953L51.3923 20.6074ZM41.3269 30.6729L41.1148 30.885L41.3269 31.0971L41.539 30.885L41.3269 30.6729ZM31.2614 20.6073L31.4735 20.3952V20.3952L31.2614 20.6073ZM29.8472 20.6073L30.0593 20.8195V20.8195L29.8472 20.6073ZM25.0097 26.859C24.7364 26.5856 24.7364 26.1424 25.0097 25.8691L24.5855 25.4448C24.0778 25.9525 24.0778 26.7756 24.5855 27.2833L25.0097 26.859ZM35.0752 36.9245L25.0097 26.859L24.5855 27.2833L34.651 37.3488L35.0752 36.9245ZM25.0089 47.4151L35.0752 37.3488L34.651 36.9245L24.5847 46.9908L25.0089 47.4151ZM25.0089 48.405C24.7356 48.1317 24.7356 47.6885 25.0089 47.4151L24.5847 46.9908C24.077 47.4985 24.077 48.3216 24.5847 48.8293L25.0089 48.405ZM30.0585 53.4546L25.0089 48.405L24.5847 48.8293L29.6342 53.8789L30.0585 53.4546ZM31.0485 53.4546C30.7751 53.728 30.3319 53.728 30.0585 53.4546L29.6342 53.8789C30.1419 54.3866 30.965 54.3866 31.4727 53.8789L31.0485 53.4546ZM41.1148 43.3883L31.0485 53.4546L31.4727 53.8789L41.539 43.8126L41.1148 43.3883ZM51.6053 53.4546L41.539 43.3883L41.1148 43.8126L51.181 53.8788L51.6053 53.4546ZM52.5952 53.4546C52.3219 53.7279 51.8786 53.7279 51.6053 53.4546L51.181 53.8788C51.6887 54.3865 52.5118 54.3865 53.0195 53.8788L52.5952 53.4546ZM57.6448 48.405L52.5952 53.4546L53.0195 53.8788L58.0691 48.8292L57.6448 48.405ZM57.6448 47.415C57.9182 47.6884 57.9182 48.1316 57.6448 48.405L58.0691 48.8292C58.5768 48.3216 58.5768 47.4984 58.0691 46.9908L57.6448 47.415ZM47.5786 37.3488L57.6448 47.415L58.0691 46.9908L48.0028 36.9245L47.5786 37.3488ZM57.644 26.8591L47.5786 36.9245L48.0028 37.3488L58.0683 27.2833L57.644 26.8591ZM57.644 25.8691C57.9174 26.1425 57.9174 26.5857 57.644 26.8591L58.0683 27.2833C58.5759 26.7757 58.5759 25.9525 58.0683 25.4449L57.644 25.8691ZM52.5944 20.8195L57.644 25.8691L58.0683 25.4449L53.0187 20.3953L52.5944 20.8195ZM51.6045 20.8195C51.8778 20.5462 52.3211 20.5462 52.5944 20.8195L53.0187 20.3953C52.511 19.8876 51.6879 19.8876 51.1802 20.3953L51.6045 20.8195ZM41.539 30.885L51.6045 20.8195L51.1802 20.3953L41.1148 30.4607L41.539 30.885ZM31.0493 20.8195L41.1148 30.885L41.539 30.4607L31.4735 20.3952L31.0493 20.8195ZM30.0593 20.8195C30.3327 20.5461 30.7759 20.5461 31.0493 20.8195L31.4735 20.3952C30.9658 19.8875 30.1427 19.8875 29.635 20.3952L30.0593 20.8195ZM25.0097 25.8691L30.0593 20.8195L29.635 20.3952L24.5855 25.4448L25.0097 25.8691Z" fill="url(#paint4_linear)" mask="url(#path-4-inside-1)"/>
<defs>
<filter id="filter0_d" x="0" y="0" width="82" height="82" filterUnits="userSpaceOnUse" color-interpolation-filters="sRGB">
<feFlood flood-opacity="0" result="BackgroundImageFix"/>
<feColorMatrix in="SourceAlpha" type="matrix" values="0 0 0 0 0 0 0 0 0 0 0 0 0 0 0 0 0 0 127 0"/>
<feOffset dy="4"/>
<feGaussianBlur stdDeviation="2"/>
<feColorMatrix type="matrix" values="0 0 0 0 0 0 0 0 0 0 0 0 0 0 0 0 0 0 0.68 0"/>
<feBlend mode="normal" in2="BackgroundImageFix" result="effect1_dropShadow"/>
<feBlend mode="normal" in="SourceGraphic" in2="effect1_dropShadow" result="shape"/>
</filter>
<filter id="filter1_d" x="23.5039" y="20.3145" width="35.6459" height="36.6452" filterUnits="userSpaceOnUse" color-interpolation-filters="sRGB">
<feFlood flood-opacity="0" result="BackgroundImageFix"/>
<feColorMatrix in="SourceAlpha" type="matrix" values="0 0 0 0 0 0 0 0 0 0 0 0 0 0 0 0 0 0 127 0"/>
<feOffset dy="2"/>
<feGaussianBlur stdDeviation="0.5"/>
<feColorMatrix type="matrix" values="0 0 0 0 0 0 0 0 0 0 0 0 0 0 0 0 0 0 0.56 0"/>
<feBlend mode="normal" in2="BackgroundImageFix" result="effect1_dropShadow"/>
<feBlend mode="normal" in="SourceGraphic" in2="effect1_dropShadow" result="shape"/>
</filter>
<radialGradient id="paint0_radial" cx="0" cy="0" r="1" gradientUnits="userSpaceOnUse" gradientTransform="translate(41 37) rotate(90) scale(37)">
<stop stop-color="#F31F1F"/>
<stop offset="1" stop-color="#270505"/>
</radialGradient>
<radialGradient id="paint1_radial" cx="0" cy="0" r="1" gradientUnits="userSpaceOnUse" gradientTransform="translate(41 37) rotate(90) scale(37)">
<stop stop-color="#F34444"/>
<stop offset="1" stop-color="#7B0000"/>
</radialGradient>
<linearGradient id="paint2_linear" x1="41" y1="0" x2="41" y2="74" gradientUnits="userSpaceOnUse">
<stop stop-color="#FFE773"/>
<stop offset="0.128125" stop-color="#FFFA93"/>
<stop offset="0.3125" stop-color="#C09B37"/>
<stop offset="0.5625" stop-color="#E7C75F"/>
<stop offset="0.827206" stop-color="#512704"/>
<stop offset="1" stop-color="#EFD160"/>
</linearGradient>
<linearGradient id="paint3_linear" x1="41.3269" y1="17.8442" x2="41.3269" y2="56.4299" gradientUnits="userSpaceOnUse">
<stop offset="0.0169556" stop-color="white"/>
<stop offset="0.0812499" stop-color="#979696"/>
<stop offset="0.136863" stop-color="#636161"/>
<stop offset="0.476592" stop-color="#FCFCFC"/>
<stop offset="0.649545" stop-color="#A7A6A6"/>
<stop offset="0.841029" stop-color="#636262"/>
<stop offset="1" stop-color="white"/>
</linearGradient>
<linearGradient id="paint4_linear" x1="30.524" y1="19.3876" x2="55.2187" y2="54.1153" gradientUnits="userSpaceOnUse">
<stop stop-color="#7D7E7E"/>
<stop offset="0.544792" stop-color="white"/>
<stop offset="1" stop-color="#BFB5A5"/>
</linearGradient>
</defs>
</svg>
