<svg width="33" height="34" viewBox="0 0 33 34" fill="none" xmlns="http://www.w3.org/2000/svg">
<g filter="url(#filter0_d)">
<path fill-rule="evenodd" clip-rule="evenodd" d="M1.62633 4.80677C1.2358 5.19729 1.2358 5.83046 1.62633 6.22098L10.5274 15.122L1.6259 24.0235C1.23538 24.4141 1.23538 25.0472 1.6259 25.4377L5.97669 29.7885C6.36721 30.1791 7.00038 30.1791 7.3909 29.7885L16.2924 20.887L25.1938 29.7884C25.5843 30.179 26.2175 30.179 26.608 29.7884L30.9588 25.4377C31.3493 25.0471 31.3493 24.414 30.9588 24.0234L22.0574 15.122L30.9584 6.22108C31.3489 5.83055 31.3489 5.19739 30.9584 4.80686L26.6076 0.456074C26.217 0.0655502 25.5839 0.0655496 25.1934 0.456074L16.2924 9.35704L7.39133 0.455979C7.00081 0.0654548 6.36764 0.0654549 5.97712 0.455979L1.62633 4.80677Z" fill="url(#paint0_linear)"/>
</g>
<mask id="path-2-inside-1" fill="white">
<path fill-rule="evenodd" clip-rule="evenodd" d="M1.62633 4.80677C1.2358 5.19729 1.2358 5.83046 1.62633 6.22098L10.5274 15.122L1.6259 24.0235C1.23538 24.4141 1.23538 25.0472 1.6259 25.4377L5.97669 29.7885C6.36721 30.1791 7.00038 30.1791 7.3909 29.7885L16.2924 20.887L25.1938 29.7884C25.5843 30.179 26.2175 30.179 26.608 29.7884L30.9588 25.4377C31.3493 25.0471 31.3493 24.414 30.9588 24.0234L22.0574 15.122L30.9584 6.22108C31.3489 5.83055 31.3489 5.19739 30.9584 4.80686L26.6076 0.456074C26.217 0.0655502 25.5839 0.0655496 25.1934 0.456074L16.2924 9.35704L7.39133 0.455979C7.00081 0.0654548 6.36764 0.0654549 5.97712 0.455979L1.62633 4.80677Z"/>
</mask>
<path d="M1.62633 6.22098L1.4142 6.43311H1.4142L1.62633 6.22098ZM1.62633 4.80677L1.83846 5.0189H1.83846L1.62633 4.80677ZM10.5274 15.122L10.7395 15.3342L10.9517 15.122L10.7395 14.9099L10.5274 15.122ZM1.6259 24.0235L1.83803 24.2357H1.83803L1.6259 24.0235ZM1.6259 25.4377L1.83803 25.2256H1.83803L1.6259 25.4377ZM5.97669 29.7885L5.76456 30.0007H5.76456L5.97669 29.7885ZM7.3909 29.7885L7.60303 30.0007H7.60303L7.3909 29.7885ZM16.2924 20.887L16.5045 20.6749L16.2924 20.4628L16.0803 20.6749L16.2924 20.887ZM25.1938 29.7884L24.9817 30.0006V30.0006L25.1938 29.7884ZM26.608 29.7884L26.8201 30.0006L26.608 29.7884ZM30.9588 25.4377L30.7467 25.2255L30.9588 25.4377ZM22.0574 15.122L21.8453 14.9099L21.6331 15.122L21.8453 15.3342L22.0574 15.122ZM30.9584 6.22108L31.1705 6.43321L30.9584 6.22108ZM30.9584 4.80686L30.7462 5.019L30.9584 4.80686ZM26.6076 0.456074L26.8197 0.243942L26.8197 0.243942L26.6076 0.456074ZM25.1934 0.456074L25.4055 0.668206V0.668206L25.1934 0.456074ZM16.2924 9.35704L16.0803 9.56917L16.2924 9.78131L16.5045 9.56917L16.2924 9.35704ZM7.39133 0.455979L7.60346 0.243847V0.243847L7.39133 0.455979ZM5.97712 0.455979L5.76499 0.243847V0.243847L5.97712 0.455979ZM1.83846 6.00885C1.56509 5.73548 1.56509 5.29227 1.83846 5.0189L1.4142 4.59464C0.906515 5.10232 0.906514 5.92543 1.4142 6.43311L1.83846 6.00885ZM10.7395 14.9099L1.83846 6.00885L1.4142 6.43311L10.3153 15.3342L10.7395 14.9099ZM1.83803 24.2357L10.7395 15.3342L10.3153 14.9099L1.41377 23.8114L1.83803 24.2357ZM1.83803 25.2256C1.56467 24.9522 1.56467 24.509 1.83803 24.2357L1.41377 23.8114C0.906087 24.3191 0.906087 25.1422 1.41377 25.6499L1.83803 25.2256ZM6.18882 29.5764L1.83803 25.2256L1.41377 25.6499L5.76456 30.0007L6.18882 29.5764ZM7.17877 29.5764C6.9054 29.8498 6.46219 29.8498 6.18882 29.5764L5.76456 30.0007C6.27224 30.5083 7.09535 30.5084 7.60303 30.0007L7.17877 29.5764ZM16.0803 20.6749L7.17877 29.5764L7.60303 30.0007L16.5045 21.0992L16.0803 20.6749ZM25.4059 29.5763L16.5045 20.6749L16.0803 21.0992L24.9817 30.0006L25.4059 29.5763ZM26.3959 29.5763C26.1225 29.8497 25.6793 29.8497 25.4059 29.5763L24.9817 30.0006C25.4893 30.5083 26.3125 30.5083 26.8201 30.0006L26.3959 29.5763ZM30.7467 25.2255L26.3959 29.5763L26.8201 30.0006L31.1709 25.6498L30.7467 25.2255ZM30.7467 24.2356C31.02 24.5089 31.02 24.9522 30.7467 25.2255L31.1709 25.6498C31.6786 25.1421 31.6786 24.319 31.1709 23.8113L30.7467 24.2356ZM21.8453 15.3342L30.7467 24.2356L31.1709 23.8113L22.2695 14.9099L21.8453 15.3342ZM30.7462 6.00894L21.8453 14.9099L22.2695 15.3342L31.1705 6.43321L30.7462 6.00894ZM30.7462 5.019C31.0196 5.29236 31.0196 5.73558 30.7462 6.00894L31.1705 6.43321C31.6782 5.92553 31.6782 5.10241 31.1705 4.59473L30.7462 5.019ZM26.3954 0.668207L30.7462 5.019L31.1705 4.59473L26.8197 0.243942L26.3954 0.668207ZM25.4055 0.668206C25.6789 0.394839 26.1221 0.394839 26.3954 0.668207L26.8197 0.243942C26.312 -0.263738 25.4889 -0.26374 24.9812 0.243942L25.4055 0.668206ZM16.5045 9.56917L25.4055 0.668206L24.9812 0.243942L16.0803 9.14491L16.5045 9.56917ZM7.1792 0.668111L16.0803 9.56917L16.5045 9.14491L7.60346 0.243847L7.1792 0.668111ZM6.18925 0.668111C6.46262 0.394744 6.90583 0.394744 7.1792 0.668111L7.60346 0.243847C7.09578 -0.263835 6.27267 -0.263834 5.76499 0.243847L6.18925 0.668111ZM1.83846 5.0189L6.18925 0.668111L5.76499 0.243847L1.4142 4.59464L1.83846 5.0189Z" fill="url(#paint1_linear)" mask="url(#path-2-inside-1)"/>
<defs>
<filter id="filter0_d" x="0.333008" y="0.163086" width="31.9187" height="32.9183" filterUnits="userSpaceOnUse" color-interpolation-filters="sRGB">
<feFlood flood-opacity="0" result="BackgroundImageFix"/>
<feColorMatrix in="SourceAlpha" type="matrix" values="0 0 0 0 0 0 0 0 0 0 0 0 0 0 0 0 0 0 127 0" result="hardAlpha"/>
<feOffset dy="2"/>
<feGaussianBlur stdDeviation="0.5"/>
<feColorMatrix type="matrix" values="0 0 0 0 0 0 0 0 0 0 0 0 0 0 0 0 0 0 0.56 0"/>
<feBlend mode="normal" in2="BackgroundImageFix" result="effect1_dropShadow"/>
<feBlend mode="normal" in="SourceGraphic" in2="effect1_dropShadow" result="shape"/>
</filter>
<linearGradient id="paint0_linear" x1="16.2923" y1="-2.03354" x2="16.2923" y2="32.2781" gradientUnits="userSpaceOnUse">
<stop offset="0.0169556" stop-color="white"/>
<stop offset="0.0812499" stop-color="#979696"/>
<stop offset="0.136863" stop-color="#636161"/>
<stop offset="0.476592" stop-color="#FCFCFC"/>
<stop offset="0.649545" stop-color="#A7A6A6"/>
<stop offset="0.841029" stop-color="#636262"/>
<stop offset="1" stop-color="white"/>
</linearGradient>
<linearGradient id="paint1_linear" x1="6.68622" y1="-0.661071" x2="28.6456" y2="30.2196" gradientUnits="userSpaceOnUse">
<stop stop-color="#7D7E7E"/>
<stop offset="0.544792" stop-color="white"/>
<stop offset="1" stop-color="#BFB5A5"/>
</linearGradient>
</defs>
</svg>
