<svg width="30" height="32" viewBox="0 0 30 32" fill="none" xmlns="http://www.w3.org/2000/svg">
<g filter="url(#filter0_d)">
<path fill-rule="evenodd" clip-rule="evenodd" d="M13.3372 15.104C13.3351 15.0695 13.334 15.0348 13.334 15V1.66667C13.334 1.22464 13.5096 0.800716 13.8221 0.488155C14.1347 0.175595 14.5586 0 15.0007 0C15.4427 0 15.8666 0.175595 16.1792 0.488155C16.4917 0.800716 16.6673 1.22464 16.6673 1.66667V15C16.6673 15.0039 16.6673 15.0078 16.6673 15.0117L20.6674 11.9998C21.021 11.7346 21.4655 11.6207 21.9031 11.6833C22.3407 11.7458 22.7355 11.9796 23.0007 12.3332C23.2659 12.6868 23.3798 13.1313 23.3173 13.5689C23.2548 14.0065 23.021 14.4013 22.6674 14.6665L16.0007 19.6665C15.7122 19.8829 15.3613 19.9998 15.0007 19.9998C14.6552 20.0025 14.3174 19.8976 14.0341 19.6998L7.3674 14.9998C7.00809 14.745 6.7643 14.3582 6.68935 13.9241C6.61439 13.4899 6.71436 13.0438 6.9674 12.6832C7.09371 12.5029 7.25447 12.3495 7.44041 12.2317C7.62634 12.1139 7.83377 12.0341 8.05071 11.9969C8.26765 11.9597 8.4898 11.9659 8.70435 12.015C8.9189 12.0641 9.1216 12.1553 9.30073 12.2832L13.3372 15.104ZM1.66699 23.3335V26.6667V26.6668C1.66699 27.5873 2.41318 28.3335 3.33366 28.3335L3.35728 28.3333H26.643L26.6667 28.3335C26.9257 28.3335 27.1709 28.2744 27.3896 28.169C27.4185 28.155 27.447 28.1403 27.475 28.1247C27.9871 27.8403 28.3337 27.294 28.3337 26.6667L28.3336 26.6528L28.3333 26.6335V23.3335C28.3333 22.413 27.5871 21.6668 26.6667 21.6668C25.7462 21.6668 25 22.413 25 23.3335V25H5.00033V23.3335C5.00033 22.413 4.25413 21.6668 3.33366 21.6668C2.41318 21.6668 1.66699 22.413 1.66699 23.3335Z" fill="white"/>
<path fill-rule="evenodd" clip-rule="evenodd" d="M13.3372 15.104C13.3351 15.0695 13.334 15.0348 13.334 15V1.66667C13.334 1.22464 13.5096 0.800716 13.8221 0.488155C14.1347 0.175595 14.5586 0 15.0007 0C15.4427 0 15.8666 0.175595 16.1792 0.488155C16.4917 0.800716 16.6673 1.22464 16.6673 1.66667V15C16.6673 15.0039 16.6673 15.0078 16.6673 15.0117L20.6674 11.9998C21.021 11.7346 21.4655 11.6207 21.9031 11.6833C22.3407 11.7458 22.7355 11.9796 23.0007 12.3332C23.2659 12.6868 23.3798 13.1313 23.3173 13.5689C23.2548 14.0065 23.021 14.4013 22.6674 14.6665L16.0007 19.6665C15.7122 19.8829 15.3613 19.9998 15.0007 19.9998C14.6552 20.0025 14.3174 19.8976 14.0341 19.6998L7.3674 14.9998C7.00809 14.745 6.7643 14.3582 6.68935 13.9241C6.61439 13.4899 6.71436 13.0438 6.9674 12.6832C7.09371 12.5029 7.25447 12.3495 7.44041 12.2317C7.62634 12.1139 7.83377 12.0341 8.05071 11.9969C8.26765 11.9597 8.4898 11.9659 8.70435 12.015C8.9189 12.0641 9.1216 12.1553 9.30073 12.2832L13.3372 15.104ZM1.66699 23.3335V26.6667V26.6668C1.66699 27.5873 2.41318 28.3335 3.33366 28.3335L3.35728 28.3333H26.643L26.6667 28.3335C26.9257 28.3335 27.1709 28.2744 27.3896 28.169C27.4185 28.155 27.447 28.1403 27.475 28.1247C27.9871 27.8403 28.3337 27.294 28.3337 26.6667L28.3336 26.6528L28.3333 26.6335V23.3335C28.3333 22.413 27.5871 21.6668 26.6667 21.6668C25.7462 21.6668 25 22.413 25 23.3335V25H5.00033V23.3335C5.00033 22.413 4.25413 21.6668 3.33366 21.6668C2.41318 21.6668 1.66699 22.413 1.66699 23.3335Z" fill="url(#paint0_linear)"/>
</g>
<mask id="path-2-inside-1" fill="white">
<path fill-rule="evenodd" clip-rule="evenodd" d="M13.3372 15.104C13.3351 15.0695 13.334 15.0348 13.334 15V1.66667C13.334 1.22464 13.5096 0.800716 13.8221 0.488155C14.1347 0.175595 14.5586 0 15.0007 0C15.4427 0 15.8666 0.175595 16.1792 0.488155C16.4917 0.800716 16.6673 1.22464 16.6673 1.66667V15C16.6673 15.0039 16.6673 15.0078 16.6673 15.0117L20.6674 11.9998C21.021 11.7346 21.4655 11.6207 21.9031 11.6833C22.3407 11.7458 22.7355 11.9796 23.0007 12.3332C23.2659 12.6868 23.3798 13.1313 23.3173 13.5689C23.2548 14.0065 23.021 14.4013 22.6674 14.6665L16.0007 19.6665C15.7122 19.8829 15.3613 19.9998 15.0007 19.9998C14.6552 20.0025 14.3174 19.8976 14.0341 19.6998L7.3674 14.9998C7.00809 14.745 6.7643 14.3582 6.68935 13.9241C6.61439 13.4899 6.71436 13.0438 6.9674 12.6832C7.09371 12.5029 7.25447 12.3495 7.44041 12.2317C7.62634 12.1139 7.83377 12.0341 8.05071 11.9969C8.26765 11.9597 8.4898 11.9659 8.70435 12.015C8.9189 12.0641 9.1216 12.1553 9.30073 12.2832L13.3372 15.104ZM1.66699 23.3335V26.6667V26.6668C1.66699 27.5873 2.41318 28.3335 3.33366 28.3335L3.35728 28.3333H26.643L26.6667 28.3335C26.9257 28.3335 27.1709 28.2744 27.3896 28.169C27.4185 28.155 27.447 28.1403 27.475 28.1247C27.9871 27.8403 28.3337 27.294 28.3337 26.6667L28.3336 26.6528L28.3333 26.6335V23.3335C28.3333 22.413 27.5871 21.6668 26.6667 21.6668C25.7462 21.6668 25 22.413 25 23.3335V25H5.00033V23.3335C5.00033 22.413 4.25413 21.6668 3.33366 21.6668C2.41318 21.6668 1.66699 22.413 1.66699 23.3335Z"/>
</mask>
<path d="M13.3372 15.104L13.0508 15.5138L13.9009 16.1079L13.8363 15.0728L13.3372 15.104ZM13.8221 0.488155L13.4686 0.134602L13.4686 0.134602L13.8221 0.488155ZM16.1792 0.488155L16.5327 0.134602L16.5327 0.134602L16.1792 0.488155ZM16.6673 15.0117L16.1673 15.0082L16.1601 16.0194L16.968 15.4111L16.6673 15.0117ZM20.6674 11.9998L20.3674 11.5998L20.3666 11.6004L20.6674 11.9998ZM21.9031 11.6833L21.8324 12.1782H21.8324L21.9031 11.6833ZM23.0007 12.3332L22.6007 12.6332L22.6007 12.6332L23.0007 12.3332ZM22.6674 14.6665L22.3674 14.2665V14.2665L22.6674 14.6665ZM16.0007 19.6665L16.3007 20.0665L16.3007 20.0665L16.0007 19.6665ZM15.0007 19.9998V19.4998L14.9969 19.4999L15.0007 19.9998ZM14.0341 19.6998L13.746 20.1085L13.7479 20.1098L14.0341 19.6998ZM7.3674 14.9998L7.0781 15.4077L7.0793 15.4085L7.3674 14.9998ZM6.9674 12.6832L7.37669 12.9704L7.37687 12.9701L6.9674 12.6832ZM8.70435 12.015L8.81597 11.5276H8.81596L8.70435 12.015ZM9.30073 12.2832L9.01019 12.6901L9.01432 12.693L9.30073 12.2832ZM3.33366 28.3335V28.8335L3.33713 28.8335L3.33366 28.3335ZM3.35728 28.3333V27.8333L3.35381 27.8333L3.35728 28.3333ZM26.643 28.3333L26.6465 27.8333H26.643V28.3333ZM26.6667 28.3335L26.6632 28.8335H26.6667V28.3335ZM27.3896 28.169L27.1725 27.7185L27.1724 27.7186L27.3896 28.169ZM27.475 28.1247L27.2323 27.6876L27.2323 27.6876L27.475 28.1247ZM28.3337 26.6667H28.8337L28.8337 26.6646L28.3337 26.6667ZM28.3336 26.6528L28.8336 26.6507L28.8336 26.6458L28.3336 26.6528ZM28.3333 26.6335H27.8333L27.8334 26.6404L28.3333 26.6335ZM25 25V25.5H25.5V25H25ZM5.00033 25H4.50033V25.5H5.00033V25ZM13.8363 15.0728C13.8347 15.0487 13.834 15.0244 13.834 15H12.834C12.834 15.0452 12.8354 15.0903 12.8382 15.1352L13.8363 15.0728ZM13.834 15V1.66667H12.834V15H13.834ZM13.834 1.66667C13.834 1.35725 13.9569 1.0605 14.1757 0.841708L13.4686 0.134602C13.0623 0.540931 12.834 1.09203 12.834 1.66667H13.834ZM14.1757 0.841709C14.3945 0.622916 14.6912 0.5 15.0007 0.5V-0.5C14.426 -0.5 13.8749 -0.271727 13.4686 0.134602L14.1757 0.841709ZM15.0007 0.5C15.3101 0.5 15.6068 0.622916 15.8256 0.841709L16.5327 0.134602C16.1264 -0.271727 15.5753 -0.5 15.0007 -0.5V0.5ZM15.8256 0.841708C16.0444 1.0605 16.1673 1.35725 16.1673 1.66667H17.1673C17.1673 1.09203 16.939 0.540931 16.5327 0.134602L15.8256 0.841708ZM16.1673 1.66667V15H17.1673V1.66667H16.1673ZM16.1673 15C16.1673 15.0028 16.1673 15.0055 16.1673 15.0082L17.1673 15.0152C17.1673 15.0101 17.1673 15.005 17.1673 15H16.1673ZM20.3666 11.6004L16.3665 14.6123L16.968 15.4111L20.9681 12.3993L20.3666 11.6004ZM21.9738 11.1883C21.405 11.107 20.8271 11.2551 20.3674 11.5998L20.9674 12.3998C21.2149 12.2142 21.5261 12.1345 21.8324 12.1782L21.9738 11.1883ZM23.4007 12.0332C23.056 11.5735 22.5427 11.2696 21.9738 11.1883L21.8324 12.1782C22.1387 12.222 22.4151 12.3856 22.6007 12.6332L23.4007 12.0332ZM23.8123 13.6396C23.8936 13.0707 23.7455 12.4929 23.4007 12.0332L22.6007 12.6332C22.7864 12.8807 22.8661 13.1919 22.8223 13.4982L23.8123 13.6396ZM22.9674 15.0665C23.4271 14.7217 23.731 14.2084 23.8123 13.6396L22.8223 13.4982C22.7786 13.8045 22.6149 14.0809 22.3674 14.2665L22.9674 15.0665ZM16.3007 20.0665L22.9674 15.0665L22.3674 14.2665L15.7007 19.2665L16.3007 20.0665ZM15.0007 20.4998C15.4695 20.4998 15.9257 20.3478 16.3007 20.0665L15.7007 19.2665C15.4988 19.418 15.2532 19.4998 15.0007 19.4998V20.4998ZM13.7479 20.1098C14.1162 20.367 14.5553 20.5032 15.0045 20.4998L14.9969 19.4999C14.7551 19.5017 14.5186 19.4283 14.3203 19.2899L13.7479 20.1098ZM7.0793 15.4085L13.746 20.1085L14.3222 19.2912L7.6555 14.5912L7.0793 15.4085ZM6.19664 14.0091C6.29408 14.5735 6.611 15.0763 7.0781 15.4077L7.65669 14.592C7.40517 14.4136 7.23453 14.1429 7.18206 13.839L6.19664 14.0091ZM6.5581 12.396C6.22916 12.8648 6.0992 13.4448 6.19664 14.0091L7.18206 13.839C7.12959 13.5351 7.19957 13.2228 7.37669 12.9704L6.5581 12.396ZM7.17284 11.8093C6.93112 11.9624 6.72213 12.1619 6.55792 12.3962L7.37687 12.9701C7.46529 12.8439 7.57782 12.7365 7.70798 12.6541L7.17284 11.8093ZM7.96622 11.5041C7.6842 11.5525 7.41455 11.6562 7.17284 11.8093L7.70798 12.6541C7.83813 12.5716 7.98333 12.5158 8.13519 12.4897L7.96622 11.5041ZM8.81596 11.5276C8.53705 11.4638 8.24824 11.4558 7.96622 11.5041L8.13519 12.4897C8.28705 12.4637 8.44256 12.468 8.59274 12.5024L8.81596 11.5276ZM9.59126 11.8762C9.35838 11.71 9.09488 11.5915 8.81597 11.5276L8.59274 12.5024C8.74293 12.5368 8.88481 12.6006 9.01021 12.6901L9.59126 11.8762ZM13.6236 14.6942L9.58714 11.8733L9.01432 12.693L13.0508 15.5138L13.6236 14.6942ZM2.16699 26.6667V23.3335H1.16699V26.6667H2.16699ZM2.16699 26.6668V26.6667H1.16699V26.6668H2.16699ZM3.33366 27.8335C2.68933 27.8335 2.16699 27.3112 2.16699 26.6668H1.16699C1.16699 27.8634 2.13704 28.8335 3.33366 28.8335V27.8335ZM3.35381 27.8333L3.33019 27.8335L3.33713 28.8335L3.36076 28.8333L3.35381 27.8333ZM26.643 27.8333H3.35728V28.8333H26.643V27.8333ZM26.6701 27.8335L26.6465 27.8333L26.6396 28.8333L26.6632 28.8335L26.6701 27.8335ZM27.1724 27.7186C27.02 27.7921 26.8489 27.8335 26.6667 27.8335V28.8335C27.0025 28.8335 27.3218 28.7567 27.6067 28.6194L27.1724 27.7186ZM27.2323 27.6876C27.2127 27.6985 27.1928 27.7088 27.1725 27.7185L27.6066 28.6194C27.6443 28.6013 27.6814 28.5821 27.7178 28.5618L27.2323 27.6876ZM27.8337 26.6667C27.8337 27.1051 27.592 27.4878 27.2323 27.6876L27.7178 28.5618C28.3822 28.1928 28.8337 27.4828 28.8337 26.6667H27.8337ZM27.8336 26.6548L27.8337 26.6687L28.8337 26.6646L28.8336 26.6507L27.8336 26.6548ZM27.8334 26.6404L27.8336 26.6597L28.8336 26.6458L28.8333 26.6265L27.8334 26.6404ZM27.8333 23.3335V26.6335H28.8333V23.3335H27.8333ZM26.6667 22.1668C27.311 22.1668 27.8333 22.6892 27.8333 23.3335H28.8333C28.8333 22.1369 27.8633 21.1668 26.6667 21.1668V22.1668ZM25.5 23.3335C25.5 22.6892 26.0223 22.1668 26.6667 22.1668V21.1668C25.47 21.1668 24.5 22.1369 24.5 23.3335H25.5ZM25.5 25V23.3335H24.5V25H25.5ZM5.00033 25.5H25V24.5H5.00033V25.5ZM4.50033 23.3335V25H5.50033V23.3335H4.50033ZM3.33366 22.1668C3.97799 22.1668 4.50033 22.6892 4.50033 23.3335H5.50033C5.50033 22.1369 4.53028 21.1668 3.33366 21.1668V22.1668ZM2.16699 23.3335C2.16699 22.6892 2.68933 22.1668 3.33366 22.1668V21.1668C2.13704 21.1668 1.16699 22.1369 1.16699 23.3335H2.16699Z" fill="url(#paint1_linear)" mask="url(#path-2-inside-1)"/>
<defs>
<filter id="filter0_d" x="0.666992" y="0" width="28.6667" height="31.3335" filterUnits="userSpaceOnUse" color-interpolation-filters="sRGB">
<feFlood flood-opacity="0" result="BackgroundImageFix"/>
<feColorMatrix in="SourceAlpha" type="matrix" values="0 0 0 0 0 0 0 0 0 0 0 0 0 0 0 0 0 0 127 0" result="hardAlpha"/>
<feOffset dy="2"/>
<feGaussianBlur stdDeviation="0.5"/>
<feColorMatrix type="matrix" values="0 0 0 0 0 0 0 0 0 0 0 0 0 0 0 0 0 0 0.56 0"/>
<feBlend mode="normal" in2="BackgroundImageFix" result="effect1_dropShadow"/>
<feBlend mode="normal" in="SourceGraphic" in2="effect1_dropShadow" result="shape"/>
</filter>
<linearGradient id="paint0_linear" x1="15.0003" y1="-2.83335" x2="15.0003" y2="31.6391" gradientUnits="userSpaceOnUse">
<stop stop-color="#A8A8A8"/>
<stop offset="0.148958" stop-color="#747272"/>
<stop offset="0.315625" stop-color="#999898"/>
<stop offset="0.503125" stop-color="#F6F6F6"/>
<stop offset="0.648958" stop-color="#9B9A9A"/>
<stop offset="0.805208" stop-color="#646363"/>
<stop offset="0.971875" stop-color="#ADACAC"/>
</linearGradient>
<linearGradient id="paint1_linear" x1="16.5876" y1="-9.82457e-08" x2="3.17917" y2="23.7643" gradientUnits="userSpaceOnUse">
<stop stop-color="#838484"/>
<stop offset="0.51875" stop-color="#FBFAF9"/>
<stop offset="0.541667" stop-color="#F9F7F6"/>
<stop offset="0.578125" stop-color="#F9F8F6"/>
<stop offset="1" stop-color="#C7BEB0"/>
</linearGradient>
</defs>
</svg>
