<svg width="32" height="33" viewBox="0 0 32 33" fill="none" xmlns="http://www.w3.org/2000/svg">
<g clip-path="url(#clip0)">
<path d="M16 0.276367H15.0625V3.08887H16H16.9375V0.276367H16Z" fill="#FABE2C"/>
<path d="M16 0.276367H16.9375V3.08887H16V0.276367Z" fill="#FF9100"/>
<path d="M16 5.90137H15.0625V28.5264H16H16.9375V5.90137H16Z" fill="#FABE2C"/>
<path d="M16 5.90137H16.9375V28.5264H16V5.90137Z" fill="#FF9100"/>
<path d="M30.0263 19.7689L26.7258 8.15608L24.0552 8.04346L20.7227 19.7689L22.5263 20.2834L25.3743 10.2532L28.2227 20.2834L30.0263 19.7689Z" fill="#FF9100"/>
<path d="M11.2763 19.7689L7.94372 8.04346L5.27222 8.15608L1.97266 19.7689L3.77628 20.2834L6.62416 10.2518L9.47266 20.2834L11.2763 19.7689Z" fill="#FABE2C"/>
<path d="M6.625 24.7139C2.9455 24.7139 0 22.6549 0 20.0264V19.0889H13.1875V20.0264C13.1875 22.6549 10.3045 24.7139 6.625 24.7139Z" fill="#FED843"/>
<path d="M25.375 24.7139C21.6955 24.7139 18.8125 22.6549 18.8125 20.0264V19.0889H32V20.0264C32 22.6549 29.0545 24.7139 25.375 24.7139Z" fill="#FABE2C"/>
<path d="M21.9024 4.51799C20.2544 3.30037 18.6981 2.15137 16 2.15137C13.3019 2.15137 11.7456 3.30037 10.0976 4.51799C8.02944 6.04512 5.62319 7.77637 0 7.77637V9.65137C6.04525 9.65137 8.75363 9.00043 10.8786 8.47674C12.4056 8.10137 13.724 7.77637 16 7.77637C18.276 7.77637 19.5944 8.10137 21.1214 8.47674C23.2464 9.00043 25.9548 9.65137 32 9.65137V7.77637C26.3768 7.77637 23.9706 6.04512 21.9024 4.51799Z" fill="#FED843"/>
<path d="M32 9.65137V7.77637C26.3768 7.77637 23.9706 6.04512 21.9024 4.51799C20.2544 3.30037 18.6981 2.15137 16 2.15137V7.77637C18.276 7.77637 19.5944 8.10137 21.1214 8.47674C23.2464 9.00043 25.9548 9.65137 32 9.65137Z" fill="#FABE2C"/>
<path d="M16.937 26.6514H15.9995H15.062L7.27637 32.2764H15.9995H24.7208L16.937 26.6514Z" fill="#FED843"/>
<path d="M16.9375 26.6514H16V32.2764H24.7213L16.9375 26.6514Z" fill="#FABE2C"/>
</g>
<defs>
<clipPath id="clip0">
<rect width="32" height="32" fill="white" transform="translate(0 0.276367)"/>
</clipPath>
</defs>
</svg>
