<svg width="40" height="40" viewBox="0 0 40 40" fill="none" xmlns="http://www.w3.org/2000/svg">
<path d="M10.3113 13.3335H29.6863L28.528 31.8752C28.475 32.7218 28.1012 33.5163 27.4828 34.0969C26.8644 34.6775 26.0479 35.0005 25.1997 35.0002H14.7997C13.9514 35.0005 13.1349 34.6775 12.5165 34.0969C11.8981 33.5163 11.5244 32.7218 11.4713 31.8752L10.3113 13.3335ZM31.6663 8.3335V11.6668H8.33301V8.3335H13.333V6.66683C13.333 5.78277 13.6842 4.93493 14.3093 4.30981C14.9344 3.68469 15.7823 3.3335 16.6663 3.3335H23.333C24.2171 3.3335 25.0649 3.68469 25.69 4.30981C26.3152 4.93493 26.6663 5.78277 26.6663 6.66683V8.3335H31.6663ZM16.6663 8.3335H23.333V6.66683H16.6663V8.3335Z" fill="black"/>
<path d="M10.3113 13.3335H29.6863L28.528 31.8752C28.475 32.7218 28.1012 33.5163 27.4828 34.0969C26.8644 34.6775 26.0479 35.0005 25.1997 35.0002H14.7997C13.9514 35.0005 13.1349 34.6775 12.5165 34.0969C11.8981 33.5163 11.5244 32.7218 11.4713 31.8752L10.3113 13.3335ZM31.6663 8.3335V11.6668H8.33301V8.3335H13.333V6.66683C13.333 5.78277 13.6842 4.93493 14.3093 4.30981C14.9344 3.68469 15.7823 3.3335 16.6663 3.3335H23.333C24.2171 3.3335 25.0649 3.68469 25.69 4.30981C26.3152 4.93493 26.6663 5.78277 26.6663 6.66683V8.3335H31.6663ZM16.6663 8.3335H23.333V6.66683H16.6663V8.3335Z" fill="url(#paint0_linear)"/>
<path d="M10.3113 13.3335H29.6863L28.528 31.8752C28.475 32.7218 28.1012 33.5163 27.4828 34.0969C26.8644 34.6775 26.0479 35.0005 25.1997 35.0002H14.7997C13.9514 35.0005 13.1349 34.6775 12.5165 34.0969C11.8981 33.5163 11.5244 32.7218 11.4713 31.8752L10.3113 13.3335ZM31.6663 8.3335V11.6668H8.33301V8.3335H13.333V6.66683C13.333 5.78277 13.6842 4.93493 14.3093 4.30981C14.9344 3.68469 15.7823 3.3335 16.6663 3.3335H23.333C24.2171 3.3335 25.0649 3.68469 25.69 4.30981C26.3152 4.93493 26.6663 5.78277 26.6663 6.66683V8.3335H31.6663ZM16.6663 8.3335H23.333V6.66683H16.6663V8.3335Z" fill="url(#paint1_radial)"/>
<defs>
<linearGradient id="paint0_linear" x1="19.9997" y1="0.16683" x2="19.9997" y2="38.6946" gradientUnits="userSpaceOnUse">
<stop stop-color="#B1AFAF"/>
<stop offset="0.148958" stop-color="#747272"/>
<stop offset="0.315625" stop-color="#999898"/>
<stop offset="0.503125" stop-color="#F6F6F6"/>
<stop offset="0.648958" stop-color="#9B9A9A"/>
<stop offset="0.805208" stop-color="#646363"/>
<stop offset="0.971875" stop-color="#ADACAC"/>
</linearGradient>
<radialGradient id="paint1_radial" cx="0" cy="0" r="1" gradientUnits="userSpaceOnUse" gradientTransform="translate(19.9997 19.1668) rotate(90) scale(15.8333 11.6667)">
<stop stop-color="#F34444"/>
<stop offset="1" stop-color="#7B0000"/>
</radialGradient>
</defs>
</svg>
