<svg width="44" height="44" viewBox="0 0 44 44" fill="none" xmlns="http://www.w3.org/2000/svg">
<g clip-path="url(#clip0)">
<path d="M42.6285 18.3468L37.5863 17.1094C37.3085 16.2256 36.955 15.3669 36.5257 14.5336L39.1015 10.2405C39.4045 9.73547 39.3288 9.10413 38.9247 8.70008L35.3388 5.11412C34.9347 4.71007 34.3034 4.63431 33.7983 4.93735L29.5053 7.51318C28.6719 7.08387 27.8133 6.73033 26.9294 6.45254L25.7173 1.41031C25.5657 0.854736 25.0607 0.450684 24.4799 0.450684H19.4292C18.8484 0.450684 18.3433 0.854736 18.1918 1.41031L16.9796 6.45254C16.0958 6.73033 15.2372 7.08387 14.4038 7.51318L10.1108 4.93735C9.60569 4.63431 8.97435 4.71007 8.5703 5.11412L4.98434 8.70008C4.58029 9.10413 4.50453 9.73547 4.80757 10.2405L7.3834 14.5336C6.95409 15.3669 6.60055 16.2256 6.32276 17.1094L1.44888 18.3468C0.89331 18.4731 0.489258 18.9782 0.489258 19.559V24.6096C0.489258 25.1905 0.89331 25.6955 1.44888 25.8218L6.32276 27.0592C6.60055 27.9431 6.95409 28.8017 7.3834 29.635L4.80757 33.9281C4.50453 34.4332 4.58029 35.0645 4.98434 35.4685L8.5703 39.0545C8.97435 39.4586 9.60569 39.5343 10.1108 39.2313L14.4038 36.6554C15.2372 37.0847 16.0958 37.4383 16.9796 37.7161L18.1918 42.59C18.3433 43.1455 18.8484 43.5496 19.4292 43.5496H24.4799C25.0607 43.5496 25.5657 43.1455 25.7173 42.59L26.9294 37.7161C27.8133 37.4383 28.6719 37.0847 29.5053 36.6554L33.7983 39.2313C34.3034 39.5343 34.9347 39.4586 35.3388 39.0545L38.9247 35.4685C39.3288 35.0645 39.4045 34.4332 39.1015 33.9281L36.5257 29.635C36.955 28.8017 37.3085 27.9431 37.5863 27.0592L42.6285 25.8218C43.1841 25.6955 43.5882 25.1905 43.5882 24.6096V19.559C43.5882 18.9782 43.1841 18.4731 42.6285 18.3468ZM21.9545 28.3976C18.4696 28.3976 15.6412 25.5693 15.6412 22.0843C15.6412 18.5994 18.4696 15.771 21.9545 15.771C25.4395 15.771 28.2678 18.5994 28.2678 22.0843C28.2678 25.5693 25.4395 28.3976 21.9545 28.3976Z" fill="url(#paint0_linear)"/>
<g style="mix-blend-mode:overlay">
<path d="M42.5689 18.5896L42.5689 18.5897L42.5731 18.5906C43.0138 18.6908 43.3382 19.0938 43.3382 19.559V24.6096C43.3382 25.0748 43.0138 25.4778 42.5731 25.578L42.5731 25.578L42.5689 25.579L37.5267 26.8164L37.39 26.85L37.3478 26.9842C37.0743 27.8543 36.7263 28.6997 36.3034 29.5205L36.2397 29.6443L36.3113 29.7637L38.8871 34.0567C39.1326 34.4659 39.0689 34.9708 38.7479 35.2918L35.162 38.8777C34.8411 39.1987 34.3361 39.2624 33.9269 39.0169L29.6339 36.4411L29.5145 36.3695L29.3908 36.4332C28.57 36.856 27.7246 37.2041 26.8545 37.4776L26.7207 37.5196L26.6868 37.6557L25.4754 42.5267C25.3514 42.977 24.9422 43.2996 24.4799 43.2996H19.4292C18.9669 43.2996 18.5577 42.977 18.4337 42.5267L17.2222 37.6557L17.1884 37.5196L17.0546 37.4776C16.1845 37.2041 15.3391 36.856 14.5183 36.4332L14.3945 36.3695L14.2752 36.4411L9.98213 39.0169C9.57298 39.2624 9.06801 39.1987 8.74708 38.8777L5.16112 35.2918C4.84018 34.9708 4.77645 34.4659 5.02194 34.0567L7.59777 29.7637L7.66939 29.6443L7.60564 29.5205C7.1828 28.6997 6.83472 27.8543 6.56126 26.9842L6.51945 26.8512L6.38428 26.8169L1.5104 25.5795L1.51042 25.5794L1.50429 25.578C1.06358 25.4778 0.739258 25.0748 0.739258 24.6096V19.559C0.739258 19.0938 1.06358 18.6908 1.50429 18.5906L1.5043 18.5907L1.5104 18.5891L6.38428 17.3517L6.51945 17.3174L6.56126 17.1844C6.83472 16.3143 7.1828 15.4689 7.60564 14.6481L7.66939 14.5243L7.59777 14.405L5.02194 10.1119C4.77645 9.70276 4.84018 9.19779 5.16112 8.87686L8.74708 5.2909C9.06801 4.96996 9.57298 4.90623 9.98213 5.15172L14.2752 7.72755L14.3945 7.79917L14.5183 7.73542C15.3391 7.31258 16.1845 6.9645 17.0546 6.69104L17.1896 6.6486L17.2227 6.51098L18.4339 1.47265C18.5582 1.02284 18.9672 0.700684 19.4292 0.700684H24.4799C24.9419 0.700684 25.3508 1.02284 25.4751 1.47266L26.6863 6.51098L26.7194 6.6486L26.8545 6.69104C27.7246 6.9645 28.57 7.31258 29.3908 7.73542L29.5145 7.79917L29.6339 7.72755L33.9269 5.15172C34.3361 4.90623 34.8411 4.96996 35.162 5.2909L38.7479 8.87686C39.0689 9.19779 39.1326 9.70276 38.8871 10.1119L36.3113 14.405L36.2397 14.5243L36.3034 14.6481C36.7263 15.4689 37.0743 16.3143 37.3478 17.1844L37.39 17.3187L37.5267 17.3522L42.5689 18.5896ZM15.3912 22.0843C15.3912 25.7073 18.3315 28.6476 21.9545 28.6476C25.5776 28.6476 28.5178 25.7073 28.5178 22.0843C28.5178 18.4613 25.5776 15.521 21.9545 15.521C18.3315 15.521 15.3912 18.4613 15.3912 22.0843Z" stroke="url(#paint1_linear)" stroke-width="0.5"/>
</g>
</g>
<defs>
<linearGradient id="paint0_linear" x1="22.0387" y1="0.450684" x2="22.0387" y2="43.5496" gradientUnits="userSpaceOnUse">
<stop stop-color="#ECCF60"/>
<stop offset="0.273958" stop-color="#FDF891"/>
<stop offset="0.508333" stop-color="#D2AF4B"/>
<stop offset="0.747917" stop-color="#FDF891"/>
<stop offset="1" stop-color="#7B5720"/>
</linearGradient>
<linearGradient id="paint1_linear" x1="22.0387" y1="0.450684" x2="22.0387" y2="43.5496" gradientUnits="userSpaceOnUse">
<stop stop-color="white"/>
<stop offset="1"/>
</linearGradient>
<clipPath id="clip0">
<rect width="43.0989" height="43.0989" fill="white" transform="translate(0.489258 0.450684)"/>
</clipPath>
</defs>
</svg>
