<svg width="45" height="45" viewBox="0 0 45 45" fill="none" xmlns="http://www.w3.org/2000/svg">
<g clip-path="url(#clip0)">
<path fill-rule="evenodd" clip-rule="evenodd" d="M24.6168 35.856C24.8794 35.8168 25.1292 35.9808 25.1979 36.2372L26.29 40.3114C26.3694 40.608 26.1775 40.9093 25.8752 40.963C13.7924 43.1084 1.98535 33.8163 1.98535 20.8501C1.98535 9.60191 11.1365 0.450684 22.3848 0.450684C36.0327 0.450684 45.9672 13.724 41.8621 26.912C41.7691 27.2105 41.4355 27.3571 41.1493 27.2314C40.984 27.1587 40.8123 27.0981 40.6352 27.0506L37.1952 26.1289C36.9058 26.0514 36.7424 25.7476 36.8339 25.4624C39.9693 15.6749 32.6103 5.68129 22.3848 5.68129C14.0207 5.68129 7.21596 12.486 7.21596 20.8501C7.21596 30.1404 15.5334 37.2137 24.6168 35.856ZM24.3353 17.0671C24.3486 16.2359 23.7031 15.3804 22.4543 15.3804C21.1843 15.3804 20.1337 16.5775 20.5126 17.8724C20.7566 18.7056 21.5409 19.2769 22.4091 19.2811C24.5999 19.2917 26.4888 20.7197 27.1863 22.6929C27.3104 23.0439 27.048 23.4192 26.676 23.4038C26.0538 23.3779 25.4266 23.5118 24.8635 23.8003C24.6047 23.933 24.2805 23.8289 24.1591 23.5646C23.8501 22.8912 23.1671 22.4195 22.3848 22.4195C19.632 22.4195 17.3497 20.181 17.2971 17.4295C17.2536 15.1573 18.7318 13.2131 20.8156 12.5133V11.6908C20.8156 10.799 21.5595 10.081 22.4606 10.1234C23.3046 10.1631 23.954 10.8901 23.954 11.7351V12.4293C25.9481 12.9993 27.4217 14.8153 27.4721 16.9781C27.4929 17.8706 26.818 18.65 25.9254 18.6618C25.0406 18.6734 24.3211 17.9526 24.3353 17.0671ZM23.5796 31.0246C23.6875 30.8975 23.7201 30.7226 23.6771 30.5616C23.5466 30.0746 23.4357 29.6678 23.342 29.3235C22.9139 27.7519 22.8415 27.4862 22.8757 26.8698C22.891 26.591 22.6836 26.3199 22.3155 26.3199C21.0668 26.3199 20.4213 25.4643 20.4346 24.6331C20.4488 23.7476 19.7293 23.0268 18.8445 23.0384C17.9518 23.0503 17.277 23.8296 17.2978 24.7221C17.3482 26.885 18.8218 28.7009 20.8159 29.271V29.9662C20.8158 31.4645 22.6338 32.1389 23.5796 31.0246ZM38.9983 33.4965L43.3706 37.8699C43.9835 38.4829 43.9833 39.4763 43.3705 40.089L39.5563 43.9032C38.9436 44.5159 37.95 44.516 37.3372 43.9032L32.9645 39.5306L31.1654 41.3297C30.4022 42.0932 28.9069 41.997 28.4813 40.406L25.0137 27.4683C24.7012 26.3022 25.771 25.2345 26.9355 25.5463L40.0935 29.0717C41.2595 29.384 41.6495 30.8441 40.7973 31.6969L38.9983 33.4965Z" fill="url(#paint0_linear)"/>
<g style="mix-blend-mode:overlay">
<mask id="path-2-inside-1" fill="white">
<path fill-rule="evenodd" clip-rule="evenodd" d="M24.6168 35.856C24.8794 35.8168 25.1292 35.9808 25.1979 36.2372L26.29 40.3114C26.3694 40.608 26.1775 40.9093 25.8752 40.963C13.7924 43.1084 1.98535 33.8163 1.98535 20.8501C1.98535 9.60191 11.1365 0.450684 22.3848 0.450684C36.0327 0.450684 45.9672 13.724 41.8621 26.912C41.7691 27.2105 41.4355 27.3571 41.1493 27.2314C40.984 27.1587 40.8123 27.0981 40.6352 27.0506L37.1952 26.1289C36.9058 26.0514 36.7424 25.7476 36.8339 25.4624C39.9693 15.6749 32.6103 5.68129 22.3848 5.68129C14.0207 5.68129 7.21596 12.486 7.21596 20.8501C7.21596 30.1404 15.5334 37.2137 24.6168 35.856ZM24.3353 17.0671C24.3486 16.2359 23.7031 15.3804 22.4543 15.3804C21.1843 15.3804 20.1337 16.5775 20.5126 17.8724C20.7566 18.7056 21.5409 19.2769 22.4091 19.2811C24.5999 19.2917 26.4888 20.7197 27.1863 22.6929C27.3104 23.0439 27.048 23.4192 26.676 23.4038C26.0538 23.3779 25.4266 23.5118 24.8635 23.8003C24.6047 23.933 24.2805 23.8289 24.1591 23.5646C23.8501 22.8912 23.1671 22.4195 22.3848 22.4195C19.632 22.4195 17.3497 20.181 17.2971 17.4295C17.2536 15.1573 18.7318 13.2131 20.8156 12.5133V11.6908C20.8156 10.799 21.5595 10.081 22.4606 10.1234C23.3046 10.1631 23.954 10.8901 23.954 11.7351V12.4293C25.9481 12.9993 27.4217 14.8153 27.4721 16.9781C27.4929 17.8706 26.818 18.65 25.9254 18.6618C25.0406 18.6734 24.3211 17.9526 24.3353 17.0671ZM23.5796 31.0246C23.6875 30.8975 23.7201 30.7226 23.6771 30.5616C23.5466 30.0746 23.4357 29.6678 23.342 29.3235C22.9139 27.7519 22.8415 27.4862 22.8757 26.8698C22.891 26.591 22.6836 26.3199 22.3155 26.3199C21.0668 26.3199 20.4213 25.4643 20.4346 24.6331C20.4488 23.7476 19.7293 23.0268 18.8445 23.0384C17.9518 23.0503 17.277 23.8296 17.2978 24.7221C17.3482 26.885 18.8218 28.7009 20.8159 29.271V29.9662C20.8158 31.4645 22.6338 32.1389 23.5796 31.0246ZM38.9983 33.4965L43.3706 37.8699C43.9835 38.4829 43.9833 39.4763 43.3705 40.089L39.5563 43.9032C38.9436 44.5159 37.95 44.516 37.3372 43.9032L32.9645 39.5306L31.1654 41.3297C30.4022 42.0932 28.9069 41.997 28.4813 40.406L25.0137 27.4683C24.7012 26.3022 25.771 25.2345 26.9355 25.5463L40.0935 29.0717C41.2595 29.384 41.6495 30.8441 40.7973 31.6969L38.9983 33.4965Z"/>
</mask>
<path d="M25.1979 36.2372L24.7149 36.3666L24.715 36.3667L25.1979 36.2372ZM24.6168 35.856L24.543 35.3615L24.5428 35.3615L24.6168 35.856ZM26.29 40.3114L26.7729 40.1821L26.7729 40.182L26.29 40.3114ZM25.8752 40.963L25.9626 41.4553L25.9626 41.4553L25.8752 40.963ZM41.8621 26.912L42.3394 27.0606L42.3395 27.0606L41.8621 26.912ZM41.1493 27.2314L40.9481 27.6891L40.9482 27.6892L41.1493 27.2314ZM40.6352 27.0506L40.7647 26.5676L40.7646 26.5676L40.6352 27.0506ZM37.1952 26.1289L37.0658 26.6119L37.0658 26.6119L37.1952 26.1289ZM36.8339 25.4624L37.31 25.615L37.31 25.6149L36.8339 25.4624ZM24.3353 17.0671L23.8353 17.0591L23.8353 17.0591L24.3353 17.0671ZM20.5126 17.8724L20.0327 18.0128L20.0328 18.0129L20.5126 17.8724ZM22.4091 19.2811L22.4115 18.7811H22.4115L22.4091 19.2811ZM27.1863 22.6929L26.7149 22.8595L26.7149 22.8595L27.1863 22.6929ZM26.676 23.4038L26.6552 23.9034L26.6553 23.9034L26.676 23.4038ZM24.8635 23.8003L24.6355 23.3553L24.6354 23.3553L24.8635 23.8003ZM24.1591 23.5646L23.7047 23.7731L23.7047 23.7732L24.1591 23.5646ZM17.2971 17.4295L16.7972 17.4391L17.2971 17.4295ZM20.8156 12.5133L20.9748 12.9873L21.3156 12.8728V12.5133H20.8156ZM22.4606 10.1234L22.4371 10.6229L22.4371 10.6229L22.4606 10.1234ZM23.954 12.4293H23.454V12.8063L23.8165 12.91L23.954 12.4293ZM27.4721 16.9781L26.9722 16.9898V16.9898L27.4721 16.9781ZM25.9254 18.6618L25.9188 18.1618H25.9188L25.9254 18.6618ZM23.6771 30.5616L24.1601 30.4325L24.16 30.4321L23.6771 30.5616ZM23.5796 31.0246L23.1985 30.7011L23.1984 30.7011L23.5796 31.0246ZM23.342 29.3235L22.8596 29.4549L23.342 29.3235ZM22.8757 26.8698L23.3749 26.8974L23.3749 26.8973L22.8757 26.8698ZM20.4346 24.6331L20.9345 24.6411L20.9345 24.6411L20.4346 24.6331ZM18.8445 23.0384L18.8379 22.5385H18.8379L18.8445 23.0384ZM17.2978 24.7221L17.7977 24.7105L17.7977 24.7104L17.2978 24.7221ZM20.8159 29.271H21.3159V28.8939L20.9534 28.7902L20.8159 29.271ZM20.8159 29.9662L21.3159 29.9662V29.9662H20.8159ZM43.3706 37.8699L43.017 38.2235L43.017 38.2235L43.3706 37.8699ZM38.9983 33.4965L38.6446 33.143L38.2912 33.4965L38.6447 33.85L38.9983 33.4965ZM43.3705 40.089L43.017 39.7354L43.017 39.7354L43.3705 40.089ZM39.5563 43.9032L39.9099 44.2567L39.5563 43.9032ZM37.3372 43.9032L37.6908 43.5496L37.6908 43.5496L37.3372 43.9032ZM32.9645 39.5306L33.3181 39.177L32.9645 38.8234L32.611 39.177L32.9645 39.5306ZM31.1654 41.3297L30.8119 40.9761L30.8118 40.9762L31.1654 41.3297ZM28.4813 40.406L28.9643 40.2768L28.9642 40.2765L28.4813 40.406ZM25.0137 27.4683L24.5307 27.5977V27.5977L25.0137 27.4683ZM26.9355 25.5463L27.0649 25.0634L27.0649 25.0633L26.9355 25.5463ZM40.0935 29.0717L39.9641 29.5547L39.9641 29.5547L40.0935 29.0717ZM40.7973 31.6969L41.1509 32.0504L41.1509 32.0503L40.7973 31.6969ZM25.6809 36.1078C25.5464 35.606 25.0572 35.2847 24.543 35.3615L24.6906 36.3505C24.7016 36.3489 24.712 36.3555 24.7149 36.3666L25.6809 36.1078ZM26.7729 40.182L25.6809 36.1078L24.715 36.3667L25.807 40.4409L26.7729 40.182ZM25.9626 41.4553C26.5533 41.3504 26.9282 40.762 26.7729 40.1821L25.807 40.4408C25.8082 40.4452 25.8081 40.4481 25.8077 40.4504C25.8072 40.4531 25.8061 40.4564 25.804 40.4598C25.8018 40.4632 25.7993 40.4656 25.7969 40.4672C25.795 40.4686 25.7923 40.4699 25.7878 40.4707L25.9626 41.4553ZM1.48535 20.8501C1.48535 34.1362 13.5822 43.6535 25.9626 41.4553L25.7878 40.4707C14.0026 42.5632 2.48535 33.4964 2.48535 20.8501H1.48535ZM22.3848 -0.0493164C10.8603 -0.0493164 1.48535 9.32577 1.48535 20.8501H2.48535C2.48535 9.87805 11.4126 0.950684 22.3848 0.950684V-0.0493164ZM42.3395 27.0606C46.5457 13.5479 36.3668 -0.0493164 22.3848 -0.0493164V0.950684C35.6987 0.950684 45.3888 13.9001 41.3847 26.7634L42.3395 27.0606ZM40.9482 27.6892C41.4997 27.9314 42.1553 27.6521 42.3394 27.0606L41.3847 26.7633C41.3835 26.7672 41.3823 26.7686 41.3816 26.7694C41.3805 26.7706 41.3783 26.7724 41.3747 26.774C41.3712 26.7756 41.3672 26.7765 41.3634 26.7765C41.36 26.7765 41.3558 26.776 41.3503 26.7736L40.9482 27.6892ZM40.5056 27.5335C40.658 27.5744 40.8058 27.6265 40.9481 27.6891L41.3504 26.7736C41.1622 26.6909 40.9666 26.6218 40.7647 26.5676L40.5056 27.5335ZM37.0658 26.6119L40.5058 27.5335L40.7646 26.5676L37.3246 25.646L37.0658 26.6119ZM36.3577 25.3097C36.1802 25.8636 36.497 26.4595 37.0658 26.6119L37.3246 25.646C37.3146 25.6433 37.3047 25.6316 37.31 25.615L36.3577 25.3097ZM22.3848 6.18129C32.2735 6.18129 39.3891 15.847 36.3577 25.3098L37.31 25.6149C40.5494 15.5029 32.9471 5.18129 22.3848 5.18129V6.18129ZM7.71596 20.8501C7.71596 12.7622 14.2969 6.18129 22.3848 6.18129V5.18129C13.7446 5.18129 6.71596 12.2099 6.71596 20.8501H7.71596ZM24.5428 35.3615C15.7599 36.6743 7.71596 29.833 7.71596 20.8501H6.71596C6.71596 30.4478 15.3069 37.7532 24.6907 36.3505L24.5428 35.3615ZM22.4543 15.8804C23.4285 15.8804 23.8441 16.5117 23.8353 17.0591L24.8352 17.0751C24.8531 15.96 23.9777 14.8804 22.4543 14.8804V15.8804ZM20.9925 17.732C20.7191 16.7976 21.4745 15.8804 22.4543 15.8804V14.8804C20.8941 14.8804 19.5483 16.3574 20.0327 18.0128L20.9925 17.732ZM22.4115 18.7811C21.7567 18.7779 21.1722 18.3456 20.9925 17.7319L20.0328 18.0129C20.341 19.0656 21.325 19.7759 22.4066 19.7811L22.4115 18.7811ZM27.6577 22.5262C26.8926 20.3619 24.8214 18.7928 22.4115 18.7811L22.4066 19.7811C24.3783 19.7907 26.085 21.0775 26.7149 22.8595L27.6577 22.5262ZM26.6553 23.9034C27.402 23.9343 27.8927 23.1907 27.6577 22.5262L26.7149 22.8595C26.7177 22.8675 26.7178 22.8733 26.7171 22.8782C26.7161 22.8841 26.7136 22.8905 26.7098 22.8959C26.7059 22.9013 26.7025 22.9034 26.7017 22.9038C26.7014 22.904 26.7013 22.904 26.7011 22.904C26.7011 22.904 26.6998 22.9043 26.6967 22.9042L26.6553 23.9034ZM25.0915 24.2453C25.5766 23.9967 26.1179 23.881 26.6552 23.9034L26.6968 22.9042C25.9896 22.8748 25.2766 23.0268 24.6355 23.3553L25.0915 24.2453ZM23.7047 23.7732C23.9506 24.3087 24.5919 24.5014 25.0916 24.2452L24.6354 23.3553C24.6302 23.358 24.6235 23.3588 24.6166 23.3565C24.6135 23.3555 24.6122 23.3544 24.6123 23.3545C24.6124 23.3546 24.6128 23.3549 24.6131 23.3554C24.6135 23.3559 24.6136 23.3562 24.6135 23.356L23.7047 23.7732ZM22.3848 22.9195C22.9625 22.9195 23.4733 23.2689 23.7047 23.7731L24.6136 23.3561C24.2269 22.5134 23.3716 21.9195 22.3848 21.9195V22.9195ZM16.7972 17.4391C16.855 20.4631 19.3598 22.9195 22.3848 22.9195V21.9195C19.9043 21.9195 17.8444 19.899 17.797 17.4199L16.7972 17.4391ZM20.6565 12.0393C18.378 12.8044 16.7493 14.9358 16.7972 17.4391L17.797 17.4199C17.7579 15.3788 19.0855 13.6217 20.9748 12.9873L20.6565 12.0393ZM20.3156 11.6908V12.5133H21.3156V11.6908H20.3156ZM22.4841 9.62399C21.2966 9.56804 20.3156 10.515 20.3156 11.6908H21.3156C21.3156 11.083 21.8224 10.5939 22.4371 10.6229L22.4841 9.62399ZM24.454 11.7351C24.454 10.6419 23.6132 9.67711 22.4841 9.62399L22.4371 10.6229C22.996 10.6492 23.454 11.1383 23.454 11.7351H24.454ZM24.454 12.4293V11.7351H23.454V12.4293H24.454ZM27.972 16.9665C27.9163 14.5789 26.2902 12.5771 24.0914 11.9485L23.8165 12.91C25.606 13.4216 26.927 15.0518 26.9722 16.9898L27.972 16.9665ZM25.932 19.1617C27.1337 19.1459 27.9985 18.105 27.972 16.9664L26.9722 16.9898C26.9873 17.6362 26.5024 18.1541 25.9188 18.1618L25.932 19.1617ZM23.8353 17.0591C23.8167 18.2265 24.7655 19.1771 25.932 19.1617L25.9188 18.1618C25.3157 18.1698 24.8256 17.6786 24.8352 17.0751L23.8353 17.0591ZM23.194 30.6907C23.1959 30.6978 23.1956 30.7034 23.195 30.706C23.1946 30.7081 23.1947 30.7054 23.1985 30.7011L23.9608 31.3482C24.1845 31.0847 24.2415 30.737 24.1601 30.4325L23.194 30.6907ZM22.8596 29.4549C22.9533 29.7992 23.0639 30.2052 23.1941 30.691L24.16 30.4321C24.0292 29.9441 23.9182 29.5364 23.8244 29.1921L22.8596 29.4549ZM22.3764 26.8421C22.3369 27.556 22.4378 27.9066 22.8596 29.4549L23.8244 29.1921C23.39 27.5972 23.3462 27.4165 23.3749 26.8974L22.3764 26.8421ZM22.3155 26.8199C22.3455 26.8199 22.3613 26.8252 22.3671 26.8276C22.3703 26.829 22.3721 26.8301 22.3729 26.8307C22.3737 26.8312 22.374 26.8316 22.3741 26.8317C22.3743 26.8319 22.3748 26.8324 22.3754 26.8341C22.3761 26.8359 22.3766 26.8387 22.3764 26.8423L23.3749 26.8973C23.4057 26.3379 22.9766 25.8199 22.3155 25.8199V26.8199ZM19.9347 24.6251C19.9168 25.7401 20.7921 26.8199 22.3155 26.8199V25.8199C21.3414 25.8199 20.9258 25.1884 20.9345 24.6411L19.9347 24.6251ZM18.8511 23.5384C19.4541 23.5305 19.9443 24.0216 19.9347 24.6251L20.9345 24.6411C20.9532 23.4737 20.0044 22.5231 18.8379 22.5385L18.8511 23.5384ZM17.7977 24.7104C17.7826 24.0641 18.2675 23.5461 18.8511 23.5384L18.8379 22.5385C17.6362 22.5544 16.7713 23.5952 16.7979 24.7338L17.7977 24.7104ZM20.9534 28.7902C19.1639 28.2787 17.8428 26.6485 17.7977 24.7105L16.7979 24.7338C16.8536 27.1214 18.4797 29.1231 20.6785 29.7517L20.9534 28.7902ZM21.3159 29.9662V29.271H20.3159V29.9662H21.3159ZM23.1984 30.7011C22.5658 31.4463 21.3159 31.0178 21.3159 29.9662L20.3159 29.9662C20.3158 31.9112 22.7018 32.8315 23.9608 31.3482L23.1984 30.7011ZM43.7242 37.5164L39.3519 33.143L38.6447 33.85L43.017 38.2235L43.7242 37.5164ZM43.724 40.4426C44.5321 39.6346 44.5323 38.3247 43.7242 37.5164L43.017 38.2235C43.4347 38.6412 43.4345 39.3179 43.017 39.7354L43.724 40.4426ZM39.9099 44.2567L43.7241 40.4425L43.017 39.7354L39.2028 43.5496L39.9099 44.2567ZM36.9836 44.2567C37.7918 45.0649 39.102 45.0646 39.9099 44.2567L39.2028 43.5496C38.7853 43.9671 38.1083 43.9672 37.6908 43.5496L36.9836 44.2567ZM32.611 39.8841L36.9837 44.2567L37.6908 43.5496L33.3181 39.177L32.611 39.8841ZM31.519 41.6832L33.3181 39.8841L32.611 39.177L30.8119 40.9761L31.519 41.6832ZM27.9983 40.5352C28.2518 41.483 28.8552 42.0601 29.5782 42.2365C30.2765 42.4069 31.0185 42.1839 31.519 41.6832L30.8118 40.9762C30.5491 41.2389 30.1619 41.3496 29.8153 41.265C29.4934 41.1865 29.1364 40.92 28.9643 40.2768L27.9983 40.5352ZM24.5307 27.5977L27.9983 40.5354L28.9642 40.2765L25.4966 27.3388L24.5307 27.5977ZM27.0649 25.0633C25.5291 24.6521 24.1184 26.0593 24.5307 27.5977L25.4966 27.3388C25.2839 26.5451 26.0129 25.8169 26.8062 26.0293L27.0649 25.0633ZM40.2229 28.5888L27.0649 25.0634L26.8061 26.0293L39.9641 29.5547L40.2229 28.5888ZM41.1509 32.0503C42.2749 30.9257 41.7611 29.0007 40.2228 28.5888L39.9641 29.5547C40.7579 29.7673 41.0242 30.7625 40.4436 31.3434L41.1509 32.0503ZM39.3519 33.85L41.1509 32.0504L40.4437 31.3434L38.6446 33.143L39.3519 33.85Z" fill="url(#paint1_linear)" mask="url(#path-2-inside-1)"/>
</g>
</g>
<defs>
<linearGradient id="paint0_linear" x1="22.9078" y1="0.450684" x2="22.9078" y2="44.3628" gradientUnits="userSpaceOnUse">
<stop stop-color="#EDD162"/>
<stop offset="0.2375" stop-color="#FEFC96"/>
<stop offset="0.477083" stop-color="#D1AF4A"/>
<stop offset="0.716667" stop-color="#FEFC96"/>
<stop offset="1" stop-color="#7C5821"/>
</linearGradient>
<linearGradient id="paint1_linear" x1="22.9078" y1="0.450684" x2="22.9078" y2="44.3628" gradientUnits="userSpaceOnUse">
<stop stop-color="white"/>
<stop offset="1"/>
</linearGradient>
<clipPath id="clip0">
<rect width="43.9121" height="43.9121" fill="white" transform="translate(0.951172 0.450684)"/>
</clipPath>
</defs>
</svg>
