<svg width="43" height="43" viewBox="0 0 43 43" fill="none" xmlns="http://www.w3.org/2000/svg">
<g clip-path="url(#clip0)">
<path d="M8.52567 35.9422H34.2109C36.9433 35.9422 39.1663 33.7193 39.1663 30.9869V5.21903C39.1663 2.48664 36.9433 0.263672 34.2109 0.263672H8.52567C5.79329 0.263672 3.57031 2.48664 3.57031 5.21903V37.594C3.57031 40.3264 5.79329 42.5494 8.52567 42.5494H32.5591H34.2109C36.9433 42.5494 39.1663 40.3264 39.1663 37.594V37.5899C37.785 38.6291 36.0687 39.2458 34.2109 39.2458H32.5591H8.52567C7.61487 39.2458 6.87388 38.5048 6.87388 37.594C6.87388 36.6832 7.61487 35.9422 8.52567 35.9422ZM6.87388 5.21903C6.87388 4.30823 7.61487 3.56724 8.52567 3.56724H34.2109C35.1217 3.56724 35.8627 4.30823 35.8627 5.21903V30.9869C35.8627 31.8977 35.1217 32.6387 34.2109 32.6387H8.52567C7.9468 32.6387 7.39073 32.7384 6.87388 32.9217V5.21903ZM18.6016 14.1866H15.298C15.298 12.492 16.0243 10.87 17.2907 9.73633C18.5737 8.58768 20.2997 8.03863 22.0264 8.2304C24.7925 8.53738 27.02 10.759 27.3227 13.5131C27.5988 16.025 26.1258 17.8274 24.9937 18.9647C24.7023 19.2574 24.4334 19.5138 24.1962 19.7402C23.1168 20.7696 22.9793 20.9427 22.9793 21.654V21.7369H19.6757V21.6539C19.6757 19.4862 20.714 18.496 21.9163 17.3494C22.1498 17.1267 22.3914 16.8963 22.6524 16.6341C23.7192 15.5623 24.1339 14.7369 24.0391 13.8741C23.9038 12.6443 22.9042 11.6517 21.6621 11.5138C20.8572 11.4248 20.0868 11.6673 19.4942 12.1978C18.9185 12.713 18.6016 13.4193 18.6016 14.1866ZM19.6752 24.2146H22.9788V27.5181H19.6752V24.2146Z" fill="url(#paint0_linear)"/>
<g style="mix-blend-mode:overlay">
<path d="M22.8296 16.8105C22.5671 17.0742 22.3243 17.3058 22.0919 17.5274L22.0888 17.5303C21.4833 18.1078 20.9478 18.6204 20.5577 19.2503C20.1941 19.8375 19.9531 20.5343 19.9279 21.4869H22.7324C22.7446 21.19 22.7981 20.9501 22.9733 20.6803C23.1622 20.3892 23.4923 20.066 24.0236 19.5593C24.0236 19.5593 24.0236 19.5593 24.0236 19.5593L24.0285 19.5547C24.2647 19.3293 24.5297 19.0764 24.8165 18.7883C25.9389 17.6608 27.3371 15.9319 27.0742 13.5405C26.7843 10.9035 24.6494 8.77303 21.9988 8.47887L21.9988 8.47887C20.3421 8.29487 18.687 8.82183 17.4575 9.92259L17.4575 9.9226C16.3063 10.9531 15.621 12.4046 15.5535 13.9366H18.362C18.424 13.1948 18.7621 12.5175 19.3274 12.0116C19.9742 11.4325 20.8157 11.1687 21.6896 11.2653L21.6896 11.2653C23.0464 11.4159 24.1393 12.4989 24.2876 13.8467L24.2876 13.8468C24.3951 14.8256 23.9118 15.7233 22.8296 16.8105ZM22.8296 16.8105C22.8296 16.8105 22.8296 16.8105 22.8296 16.8105L22.6524 16.6341L22.8296 16.8105ZM6.62388 32.9217V33.2756L6.95743 33.1573C7.44786 32.9834 7.9757 32.8887 8.52567 32.8887H34.2109C35.2598 32.8887 36.1127 32.0358 36.1127 30.9869V5.21903C36.1127 4.17016 35.2598 3.31724 34.2109 3.31724H8.52567C7.4768 3.31724 6.62388 4.17016 6.62388 5.21903V32.9217ZM24.0391 13.8741C23.9038 12.6443 22.9042 11.6517 21.6621 11.5138L24.0391 13.8741ZM34.2109 35.6922H8.52567C7.4768 35.6922 6.62388 36.5452 6.62388 37.594C6.62388 38.6429 7.4768 39.4958 8.52567 39.4958H32.5591H34.2109C35.9381 39.4958 37.547 38.9782 38.8903 38.0905C38.6414 40.4524 36.6376 42.2994 34.2109 42.2994H32.5591H8.52567C5.93136 42.2994 3.82031 40.1883 3.82031 37.594V5.21903C3.82031 2.62472 5.93136 0.513672 8.52567 0.513672H34.2109C36.8052 0.513672 38.9163 2.62472 38.9163 5.21903V30.9869C38.9163 33.5812 36.8052 35.6922 34.2109 35.6922ZM19.9252 24.4646H22.7288V27.2681H19.9252V24.4646Z" stroke="url(#paint1_linear)" stroke-width="0.5"/>
</g>
</g>
<defs>
<linearGradient id="paint0_linear" x1="21.3683" y1="0.263672" x2="21.3683" y2="42.5494" gradientUnits="userSpaceOnUse">
<stop stop-color="#EBCC5C"/>
<stop offset="0.258333" stop-color="#FFFD97"/>
<stop offset="0.491112" stop-color="#D1AE49"/>
<stop offset="0.773958" stop-color="#FFFD97"/>
<stop offset="1" stop-color="#653B0C"/>
</linearGradient>
<linearGradient id="paint1_linear" x1="21.3683" y1="0.263672" x2="21.3683" y2="42.5494" gradientUnits="userSpaceOnUse">
<stop stop-color="white"/>
<stop offset="1"/>
</linearGradient>
<clipPath id="clip0">
<rect width="42.2857" height="42.2857" fill="white" transform="translate(0.225586 0.263672)"/>
</clipPath>
</defs>
</svg>
