<svg width="42" height="43" viewBox="0 0 42 43" fill="none" xmlns="http://www.w3.org/2000/svg">
<path fill-rule="evenodd" clip-rule="evenodd" d="M22.1099 7.42036C23.6298 5.90045 23.6298 3.4362 22.1099 1.9163C20.59 0.396391 18.1258 0.396391 16.6059 1.9163C15.086 3.4362 15.086 5.90045 16.6059 7.42036C18.1258 8.94027 20.59 8.94026 22.1099 7.42036ZM29.3943 7.57752C28.6119 6.99604 27.506 7.15894 26.9245 7.94155L23.4437 12.6255L20.0791 11.475L21.7977 11.6978C21.5466 10.8497 20.8218 10.1823 19.8889 10.051L15.0628 9.38332C14.0806 9.24746 13.0814 9.44589 12.2256 9.94662L6.53022 13.2796C5.95238 13.6184 5.61613 14.2549 5.66192 14.9231L6.21263 22.9524C6.27939 23.9262 7.12364 24.6599 8.09452 24.5927C9.06716 24.5261 9.80166 23.6835 9.7349 22.7109L9.25897 15.7723L11.58 14.4115L10.3146 22.9664C10.2524 23.3868 10.2069 23.8096 10.1782 24.2337L9.77732 30.1521L2.14235 31.4692C0.989458 31.6681 0.216077 32.7639 0.41497 33.9169C0.613863 35.0697 1.7096 35.8432 2.86267 35.6442L12.1385 34.044C13.1014 33.8779 13.8259 33.0745 13.8919 32.0995L14.3295 25.6376L16.8354 26.049L19.263 31.1989L20.2936 40.9483C20.4164 42.1096 21.4568 42.9551 22.623 42.8322C23.7864 42.7092 24.6299 41.6663 24.5069 40.5029L23.4386 30.3972C23.4136 30.1613 23.3493 29.9312 23.2481 29.7166L20.3607 23.5914L21.377 16.2456L18.9367 14.8156L23.5206 16.3831C24.25 16.6324 25.0526 16.3794 25.5087 15.7656L29.7581 10.0472C30.3398 9.2648 30.1768 8.159 29.3943 7.57752ZM34.6259 25.6957V24.4567V24.4566H27.9712C27.5089 24.4566 27.1341 24.0819 27.1341 23.6196V20.1042C27.1341 19.6419 27.5089 19.2671 27.9712 19.2671H34.6259V18.0281C34.6259 17.3727 35.3793 17.0071 35.8943 17.4083L40.8162 21.2421C41.22 21.5566 41.22 22.1672 40.8162 22.4817L35.8943 26.3155C35.3787 26.7171 34.6259 26.3505 34.6259 25.6957Z" fill="url(#paint0_linear)"/>
<g style="mix-blend-mode:overlay">
<mask id="path-2-inside-1" fill="white">
<path fill-rule="evenodd" clip-rule="evenodd" d="M22.1099 7.42036C23.6298 5.90045 23.6298 3.4362 22.1099 1.9163C20.59 0.396391 18.1258 0.396391 16.6059 1.9163C15.086 3.4362 15.086 5.90045 16.6059 7.42036C18.1258 8.94027 20.59 8.94026 22.1099 7.42036ZM29.3943 7.57752C28.6119 6.99604 27.506 7.15894 26.9245 7.94155L23.4437 12.6255L20.0791 11.475L21.7977 11.6978C21.5466 10.8497 20.8218 10.1823 19.8889 10.051L15.0628 9.38332C14.0806 9.24746 13.0814 9.44589 12.2256 9.94662L6.53022 13.2796C5.95238 13.6184 5.61613 14.2549 5.66192 14.9231L6.21263 22.9524C6.27939 23.9262 7.12364 24.6599 8.09452 24.5927C9.06716 24.5261 9.80166 23.6835 9.7349 22.7109L9.25897 15.7723L11.58 14.4115L10.3146 22.9664C10.2524 23.3868 10.2069 23.8096 10.1782 24.2337L9.77732 30.1521L2.14235 31.4692C0.989458 31.6681 0.216077 32.7639 0.41497 33.9169C0.613863 35.0697 1.7096 35.8432 2.86267 35.6442L12.1385 34.044C13.1014 33.8779 13.8259 33.0745 13.8919 32.0995L14.3295 25.6376L16.8354 26.049L19.263 31.1989L20.2936 40.9483C20.4164 42.1096 21.4568 42.9551 22.623 42.8322C23.7864 42.7092 24.6299 41.6663 24.5069 40.5029L23.4386 30.3972C23.4136 30.1613 23.3493 29.9312 23.2481 29.7166L20.3607 23.5914L21.377 16.2456L18.9367 14.8156L23.5206 16.3831C24.25 16.6324 25.0526 16.3794 25.5087 15.7656L29.7581 10.0472C30.3398 9.2648 30.1768 8.159 29.3943 7.57752ZM34.6259 25.6957V24.4567V24.4566H27.9712C27.5089 24.4566 27.1341 24.0819 27.1341 23.6196V20.1042C27.1341 19.6419 27.5089 19.2671 27.9712 19.2671H34.6259V18.0281C34.6259 17.3727 35.3793 17.0071 35.8943 17.4083L40.8162 21.2421C41.22 21.5566 41.22 22.1672 40.8162 22.4817L35.8943 26.3155C35.3787 26.7171 34.6259 26.3505 34.6259 25.6957Z"/>
</mask>
<path d="M22.1099 1.9163L22.4635 1.56274L22.1099 1.9163ZM16.6059 1.9163L16.9594 2.26985V2.26985L16.6059 1.9163ZM16.6059 7.42036L16.9594 7.06681L16.6059 7.42036ZM26.9245 7.94155L27.3258 8.23978L27.3258 8.23975L26.9245 7.94155ZM29.3943 7.57752L29.0961 7.97883L29.0961 7.97885L29.3943 7.57752ZM23.4437 12.6255L23.2819 13.0986L23.6273 13.2167L23.845 12.9237L23.4437 12.6255ZM20.0791 11.475L20.1434 10.9792L19.9174 11.9481L20.0791 11.475ZM21.7977 11.6978L21.7334 12.1936L22.4951 12.2924L22.2771 11.5559L21.7977 11.6978ZM19.8889 10.051L19.9586 9.55584L19.9574 9.55567L19.8889 10.051ZM15.0628 9.38332L15.1313 8.88803L15.1313 8.88803L15.0628 9.38332ZM12.2256 9.94662L11.9731 9.51506L11.973 9.51508L12.2256 9.94662ZM6.53022 13.2796L6.27768 12.8481L6.27735 12.8483L6.53022 13.2796ZM5.66192 14.9231L5.16309 14.9573L5.16309 14.9574L5.66192 14.9231ZM6.21263 22.9524L6.71146 22.9182L6.71145 22.9181L6.21263 22.9524ZM8.09452 24.5927L8.06032 24.0939L8.06002 24.0939L8.09452 24.5927ZM9.7349 22.7109L9.23607 22.7451L9.23607 22.7451L9.7349 22.7109ZM9.25897 15.7723L9.00608 15.341L8.73895 15.4976L8.76014 15.8066L9.25897 15.7723ZM11.58 14.4115L12.0746 14.4847L12.2273 13.4524L11.3271 13.9802L11.58 14.4115ZM10.3146 22.9664L10.8092 23.0395L10.8092 23.0395L10.3146 22.9664ZM10.1782 24.2337L10.677 24.2674L10.677 24.2674L10.1782 24.2337ZM9.77732 30.1521L9.86232 30.6448L10.2496 30.578L10.2762 30.1859L9.77732 30.1521ZM2.14235 31.4692L2.05735 30.9764H2.05735L2.14235 31.4692ZM0.41497 33.9169L-0.0777527 34.0019L-0.0777504 34.0019L0.41497 33.9169ZM2.86267 35.6442L2.77767 35.1515L2.77765 35.1515L2.86267 35.6442ZM12.1385 34.044L12.0535 33.5512L12.0535 33.5512L12.1385 34.044ZM13.8919 32.0995L13.393 32.0657V32.0657L13.8919 32.0995ZM14.3295 25.6376L14.4105 25.1442L13.8678 25.0551L13.8306 25.6038L14.3295 25.6376ZM16.8354 26.049L17.2877 25.8358L17.1756 25.5981L16.9164 25.5556L16.8354 26.049ZM19.263 31.1989L19.7603 31.1464L19.7514 31.0623L19.7153 30.9857L19.263 31.1989ZM20.2936 40.9483L19.7964 41.0008L19.7964 41.0008L20.2936 40.9483ZM22.623 42.8322L22.6754 43.3294L22.6755 43.3294L22.623 42.8322ZM24.5069 40.5029L24.0097 40.5555L24.5069 40.5029ZM23.4386 30.3972L23.9358 30.3446L23.9358 30.3445L23.4386 30.3972ZM23.2481 29.7166L22.7958 29.9298L22.7958 29.9299L23.2481 29.7166ZM20.3607 23.5914L19.8654 23.5229L19.8451 23.6701L19.9085 23.8046L20.3607 23.5914ZM21.377 16.2456L21.8723 16.3141L21.9181 15.9831L21.6298 15.8142L21.377 16.2456ZM18.9367 14.8156L19.0985 14.3425L18.6839 15.247L18.9367 14.8156ZM23.5206 16.3831L23.3588 16.8562L23.3588 16.8562L23.5206 16.3831ZM25.5087 15.7656L25.1073 15.4674L25.1073 15.4674L25.5087 15.7656ZM29.7581 10.0472L29.3568 9.74889L29.3567 9.749L29.7581 10.0472ZM34.6259 24.4566H35.1259V23.9566H34.6259V24.4566ZM34.6259 19.2671V19.7671H35.1259V19.2671H34.6259ZM35.8943 17.4083L36.2015 17.0138L36.2015 17.0138L35.8943 17.4083ZM40.8162 21.2421L40.5089 21.6365L40.5089 21.6365L40.8162 21.2421ZM40.8162 22.4817L40.5089 22.0872L40.5089 22.0872L40.8162 22.4817ZM35.8943 26.3155L35.587 25.921L35.587 25.921L35.8943 26.3155ZM21.7564 2.26985C23.081 3.59449 23.081 5.74216 21.7564 7.06681L22.4635 7.77391C24.1787 6.05875 24.1787 3.27791 22.4635 1.56274L21.7564 2.26985ZM16.9594 2.26985C18.2841 0.945206 20.4317 0.945207 21.7564 2.26985L22.4635 1.56274C20.7483 -0.152424 17.9675 -0.152425 16.2523 1.56274L16.9594 2.26985ZM16.9594 7.06681C15.6348 5.74216 15.6348 3.59449 16.9594 2.26985L16.2523 1.56274C14.5372 3.27791 14.5372 6.05875 16.2523 7.77391L16.9594 7.06681ZM21.7564 7.06681C20.4317 8.39145 18.2841 8.39145 16.9594 7.06681L16.2523 7.77391C17.9675 9.48908 20.7483 9.48908 22.4635 7.77391L21.7564 7.06681ZM27.3258 8.23975C27.7426 7.67883 28.5353 7.56206 29.0961 7.97883L29.6925 7.17621C28.6885 6.43001 27.2694 6.63905 26.5232 7.64335L27.3258 8.23975ZM23.845 12.9237L27.3258 8.23978L26.5232 7.64332L23.0424 12.3272L23.845 12.9237ZM19.9174 11.9481L23.2819 13.0986L23.6055 12.1524L20.2409 11.0019L19.9174 11.9481ZM21.8619 11.2019L20.1434 10.9792L20.0149 11.9709L21.7334 12.1936L21.8619 11.2019ZM19.8192 10.5461C20.5508 10.6491 21.1206 11.1722 21.3182 11.8397L22.2771 11.5559C21.9726 10.5272 21.0929 9.71558 19.9586 9.55584L19.8192 10.5461ZM14.9943 9.8786L19.8204 10.5462L19.9574 9.55567L15.1313 8.88803L14.9943 9.8786ZM12.4781 10.3782C13.2371 9.93408 14.1233 9.75812 14.9943 9.8786L15.1313 8.88803C14.038 8.7368 12.9257 8.95769 11.9731 9.51506L12.4781 10.3782ZM6.78276 13.7111L12.4781 10.3782L11.973 9.51508L6.27768 12.8481L6.78276 13.7111ZM6.16075 14.889C6.12793 14.41 6.36895 13.9537 6.7831 13.7109L6.27735 12.8483C5.53581 13.283 5.10434 14.0999 5.16309 14.9573L6.16075 14.889ZM6.71145 22.9181L6.16074 14.8889L5.16309 14.9574L5.7138 22.9866L6.71145 22.9181ZM8.06002 24.0939C7.36458 24.142 6.75931 23.6162 6.71146 22.9182L5.7138 22.9866C5.79947 24.2362 6.8827 25.1777 8.12901 25.0916L8.06002 24.0939ZM9.23607 22.7451C9.28392 23.4422 8.75749 24.0461 8.06032 24.0939L8.12871 25.0916C9.37683 25.006 10.3194 23.9248 10.2337 22.6766L9.23607 22.7451ZM8.76014 15.8066L9.23607 22.7451L10.2337 22.6766L9.7578 15.7381L8.76014 15.8066ZM11.3271 13.9802L9.00608 15.341L9.51186 16.2037L11.8328 14.8428L11.3271 13.9802ZM10.8092 23.0395L12.0746 14.4847L11.0853 14.3383L9.81999 22.8932L10.8092 23.0395ZM10.677 24.2674C10.7049 23.8565 10.749 23.4469 10.8092 23.0395L9.81999 22.8932C9.75586 23.3267 9.70894 23.7626 9.67933 24.1999L10.677 24.2674ZM10.2762 30.1859L10.677 24.2674L9.67933 24.1999L9.27847 30.1183L10.2762 30.1859ZM2.22735 31.9619L9.86232 30.6448L9.69232 29.6593L2.05735 30.9764L2.22735 31.9619ZM0.907693 33.8319C0.755739 32.951 1.34659 32.1138 2.22735 31.9619L2.05735 30.9764C0.632325 31.2223 -0.323586 32.5768 -0.0777527 34.0019L0.907693 33.8319ZM2.77765 35.1515C1.89677 35.3035 1.05965 34.7126 0.90769 33.8319L-0.0777504 34.0019C0.168082 35.4267 1.52243 36.3829 2.9477 36.137L2.77765 35.1515ZM12.0535 33.5512L2.77767 35.1515L2.94768 36.137L12.2235 34.5367L12.0535 33.5512ZM13.393 32.0657C13.3426 32.8106 12.7891 33.4244 12.0535 33.5512L12.2235 34.5367C13.4138 34.3314 14.3092 33.3384 14.3908 32.1333L13.393 32.0657ZM13.8306 25.6038L13.393 32.0657L14.3908 32.1333L14.8284 25.6713L13.8306 25.6038ZM16.9164 25.5556L14.4105 25.1442L14.2485 26.131L16.7544 26.5424L16.9164 25.5556ZM19.7153 30.9857L17.2877 25.8358L16.3831 26.2622L18.8108 31.4121L19.7153 30.9857ZM20.7908 40.8957L19.7603 31.1464L18.7658 31.2515L19.7964 41.0008L20.7908 40.8957ZM22.5706 42.335C21.6795 42.4289 20.8847 41.783 20.7908 40.8957L19.7964 41.0008C19.9481 42.4362 21.2342 43.4813 22.6754 43.3294L22.5706 42.335ZM24.0097 40.5555C24.1036 41.4443 23.4592 42.241 22.5704 42.335L22.6755 43.3294C24.1136 43.1774 25.1562 41.8884 25.0041 40.4504L24.0097 40.5555ZM22.9414 30.4498L24.0097 40.5555L25.0041 40.4504L23.9358 30.3446L22.9414 30.4498ZM22.7958 29.9299C22.8731 30.0936 22.9223 30.2695 22.9414 30.4499L23.9358 30.3445C23.9049 30.0531 23.8255 29.7687 23.7003 29.5034L22.7958 29.9299ZM19.9085 23.8046L22.7958 29.9298L23.7004 29.5034L20.813 23.3782L19.9085 23.8046ZM20.8817 16.177L19.8654 23.5229L20.856 23.6599L21.8723 16.3141L20.8817 16.177ZM18.6839 15.247L21.1242 16.677L21.6298 15.8142L19.1895 14.3842L18.6839 15.247ZM23.6823 15.91L19.0985 14.3425L18.7749 15.2887L23.3588 16.8562L23.6823 15.91ZM25.1073 15.4674C24.7804 15.9074 24.2051 16.0887 23.6823 15.91L23.3588 16.8562C24.295 17.1762 25.3248 16.8513 25.91 16.0638L25.1073 15.4674ZM29.3567 9.749L25.1073 15.4674L25.91 16.0639L30.1594 10.3455L29.3567 9.749ZM29.0961 7.97885C29.657 8.39563 29.7737 9.18817 29.3568 9.74889L30.1593 10.3456C30.9059 9.34144 30.6967 7.92237 29.6925 7.17619L29.0961 7.97885ZM34.1259 24.4567V25.6957H35.1259V24.4567H34.1259ZM34.1259 24.4566V24.4567H35.1259V24.4566H34.1259ZM27.9712 24.9566H34.6259V23.9566H27.9712V24.9566ZM26.6341 23.6196C26.6341 24.358 27.2327 24.9566 27.9712 24.9566V23.9566C27.785 23.9566 27.6341 23.8057 27.6341 23.6196H26.6341ZM26.6341 20.1042V23.6196H27.6341V20.1042H26.6341ZM27.9712 18.7671C27.2327 18.7671 26.6341 19.3657 26.6341 20.1042H27.6341C27.6341 19.918 27.785 19.7671 27.9712 19.7671V18.7671ZM34.6259 18.7671H27.9712V19.7671H34.6259V18.7671ZM34.1259 18.0281V19.2671H35.1259V18.0281H34.1259ZM36.2015 17.0138C35.3594 16.3578 34.1259 16.955 34.1259 18.0281H35.1259C35.1259 17.7905 35.3992 17.6564 35.587 17.8027L36.2015 17.0138ZM41.1234 20.8476L36.2015 17.0138L35.587 17.8027L40.5089 21.6365L41.1234 20.8476ZM41.1234 22.8762C41.7843 22.3615 41.7843 21.3623 41.1234 20.8476L40.5089 21.6365C40.6558 21.7509 40.6558 21.9729 40.5089 22.0872L41.1234 22.8762ZM36.2015 26.7099L41.1234 22.8761L40.5089 22.0872L35.587 25.921L36.2015 26.7099ZM34.1259 25.6957C34.1259 26.7674 35.3582 27.3669 36.2015 26.7099L35.587 25.921C35.3993 26.0673 35.1259 25.9335 35.1259 25.6957H34.1259Z" fill="url(#paint1_linear)" mask="url(#path-2-inside-1)"/>
</g>
<defs>
<linearGradient id="paint0_linear" x1="20.7514" y1="0.776367" x2="20.7514" y2="42.8441" gradientUnits="userSpaceOnUse">
<stop stop-color="#EDD062"/>
<stop offset="0.232292" stop-color="#FDF993"/>
<stop offset="0.508333" stop-color="#D1AE49"/>
<stop offset="0.763542" stop-color="#F7F390"/>
<stop offset="1" stop-color="#78531D"/>
</linearGradient>
<linearGradient id="paint1_linear" x1="20.7514" y1="0.776367" x2="20.7514" y2="42.8441" gradientUnits="userSpaceOnUse">
<stop stop-color="white"/>
<stop offset="1"/>
</linearGradient>
</defs>
</svg>
