<svg width="67" height="43" viewBox="0 0 67 43" fill="none" xmlns="http://www.w3.org/2000/svg">
<g filter="url(#filter0_d)">
<path d="M61.3437 34.8781H5.16833C4.57071 34.8781 4.08691 34.4448 4.08691 33.9096V1.73906C4.08691 1.20381 4.57071 0.770508 5.16833 0.770508H61.3421C61.9397 0.770508 62.4235 1.20381 62.4235 1.73906V33.9081C62.4251 34.4434 61.9397 34.8781 61.3437 34.8781Z" fill="#939393"/>
<path d="M9.61527 2.14258H6.16073C5.85085 2.14258 5.59473 2.37056 5.59473 2.64951V7.55601C5.59473 7.83497 5.84927 8.06295 6.16073 8.06295H9.61527C9.92515 8.06295 10.1813 7.83497 10.1813 7.55601V2.6481C10.1813 2.37056 9.92515 2.14258 9.61527 2.14258Z" fill="#F1F2F2"/>
<path d="M8.62623 6.42066L9.42307 7.13008H8.88868L8.25943 6.56651C8.11082 6.60332 7.95113 6.62315 7.78829 6.62315C6.90133 6.62315 6.2041 6.027 6.2041 5.18023C6.2041 4.33345 6.90133 3.7373 7.78829 3.7373C8.67999 3.7373 9.37247 4.33345 9.37247 5.18023C9.37247 5.73247 9.0784 6.17852 8.62623 6.42066ZM7.78829 6.30313C8.4539 6.30313 8.95192 5.86983 8.95192 5.18023C8.95192 4.48638 8.4539 4.05732 7.78829 4.05732C7.12268 4.05732 6.62465 4.48638 6.62465 5.18023C6.62465 5.86983 7.12268 6.30313 7.78829 6.30313Z" fill="#58595B"/>
<path d="M15.2514 2.14258H11.7984C11.487 2.14258 11.2324 2.37056 11.2324 2.64951V7.55601C11.2324 7.83497 11.487 8.06295 11.7984 8.06295H15.2514C15.5628 8.06295 15.8174 7.83497 15.8174 7.55601V2.6481C15.8174 2.37056 15.5628 2.14258 15.2514 2.14258Z" fill="#F1F2F2"/>
<path d="M11.3984 3.77002H11.838L12.5257 6.16592L13.2862 3.77002H13.7478L14.4719 6.15742L15.1644 3.77002H15.6087L14.6949 6.59497H14.2332L13.4996 4.32085L12.7391 6.59497L12.2822 6.59922L11.3984 3.77002Z" fill="#58595B"/>
<path d="M20.8881 2.14258H17.4351C17.1237 2.14258 16.8691 2.37056 16.8691 2.64951V7.55601C16.8691 7.83497 17.1237 8.06295 17.4351 8.06295H20.8881C21.1996 8.06295 21.4541 7.83497 21.4541 7.55601V2.6481C21.4541 2.37056 21.1996 2.14258 20.8881 2.14258Z" fill="#F1F2F2"/>
<path d="M20.0929 4.06958H18.8076V5.01406H19.957V5.31851H18.8076V6.29131H20.0929V6.59575H18.3965V3.76514H20.0929V4.06958Z" fill="#58595B"/>
<path d="M26.5244 2.14258H23.0699C22.76 2.14258 22.5039 2.37056 22.5039 2.64951V7.55601C22.5039 7.83497 22.7585 8.06295 23.0699 8.06295H26.5244C26.8343 8.06295 27.0905 7.83497 27.0905 7.55601V2.6481C27.0905 2.37056 26.8343 2.14258 26.5244 2.14258Z" fill="#F1F2F2"/>
<path d="M24.9473 3.77002C25.6888 3.77002 26.0429 4.13818 26.0429 4.60122C26.0429 4.96231 25.8216 5.3064 25.2919 5.4126L26.084 6.59639H25.5907L24.8398 5.44092H24.3417V6.59639H23.9307V3.77002H24.9473ZM24.9473 4.07446H24.3402V5.14497H24.9473C25.4137 5.14497 25.6176 4.91841 25.6176 4.60122C25.6176 4.2812 25.4184 4.07446 24.9473 4.07446Z" fill="#58595B"/>
<path d="M32.1641 2.14258H28.7096C28.3997 2.14258 28.1436 2.37056 28.1436 2.64951V7.55601C28.1436 7.83497 28.3981 8.06295 28.7096 8.06295H32.1641C32.474 8.06295 32.7301 7.83497 32.7301 7.55601V2.6481C32.7301 2.37056 32.474 2.14258 32.1641 2.14258Z" fill="#F1F2F2"/>
<path d="M29.4648 3.76953H31.6008V4.06973H30.7407V6.59449H30.3297V4.06973H29.4648V3.76953Z" fill="#58595B"/>
<path d="M37.7992 2.14258H34.3463C34.0348 2.14258 33.7803 2.37056 33.7803 2.64951V7.55601C33.7803 7.83497 34.0348 8.06295 34.3463 8.06295H37.7992C38.1107 8.06295 38.3652 7.83497 38.3652 7.55601V2.6481C38.3652 2.37056 38.1107 2.14258 37.7992 2.14258Z" fill="#F1F2F2"/>
<path d="M34.9355 3.77002H35.3925L36.1703 5.2002L36.9482 3.77002H37.4051L36.3774 5.52871V6.59497H35.9664V5.52871L34.9355 3.77002Z" fill="#58595B"/>
<path d="M43.4369 2.14258H39.984C39.6725 2.14258 39.418 2.37056 39.418 2.64951V7.55601C39.418 7.83497 39.6725 8.06295 39.984 8.06295H43.4369C43.7484 8.06295 44.0029 7.83497 44.0029 7.55601V2.6481C44.0029 2.37056 43.7484 2.14258 43.4369 2.14258Z" fill="#F1F2F2"/>
<path d="M40.4274 3.77002H40.8384V5.55703C40.8384 6.0753 41.1515 6.29903 41.6163 6.29903C42.0827 6.29903 42.391 6.07671 42.391 5.55703V3.77002H42.8021V5.5542C42.8021 6.2877 42.2629 6.62471 41.6116 6.62471C40.9602 6.62471 40.4258 6.2877 40.4258 5.5542V3.77002H40.4274Z" fill="#58595B"/>
<path d="M49.0762 2.14258H45.6217C45.3118 2.14258 45.0557 2.37056 45.0557 2.64951V7.55601C45.0557 7.83497 45.3102 8.06295 45.6217 8.06295H49.0762C49.3861 8.06295 49.6422 7.83497 49.6422 7.55601V2.6481C49.6406 2.37056 49.3861 2.14258 49.0762 2.14258Z" fill="#F1F2F2"/>
<path d="M47.1553 3.77002H47.5663V6.59497H47.1553V3.77002Z" fill="#58595B"/>
<path d="M54.7139 2.14258H51.2594C50.9495 2.14258 50.6934 2.37056 50.6934 2.64951V7.55601C50.6934 7.83497 50.9479 8.06295 51.2594 8.06295H54.7139C55.0238 8.06295 55.2799 7.83497 55.2799 7.55601V2.6481C55.2783 2.37056 55.0238 2.14258 54.7139 2.14258Z" fill="#F1F2F2"/>
<path d="M53.049 6.62266C52.1621 6.62266 51.4648 6.02652 51.4648 5.17974C51.4648 4.33296 52.1621 3.73682 53.049 3.73682C53.9407 3.73682 54.6332 4.33296 54.6332 5.17974C54.6332 6.02793 53.9407 6.62266 53.049 6.62266ZM53.049 6.30264C53.7146 6.30264 54.2127 5.86934 54.2127 5.17974C54.2127 4.48589 53.7146 4.05684 53.049 4.05684C52.3834 4.05684 51.8854 4.48589 51.8854 5.17974C51.8854 5.86934 52.3834 6.30264 53.049 6.30264Z" fill="#58595B"/>
<path d="M60.35 2.14258H56.8971C56.5856 2.14258 56.3311 2.37056 56.3311 2.64951V7.55601C56.3311 7.83497 56.5856 8.06295 56.8971 8.06295H60.35C60.6615 8.06295 60.916 7.83497 60.916 7.55601V2.6481C60.916 2.37056 60.6615 2.14258 60.35 2.14258Z" fill="#F1F2F2"/>
<path d="M58.7887 5.41494H58.1816V6.59449H57.7705V3.76953H58.7887C59.5302 3.76953 59.8796 4.13486 59.8796 4.59649C59.878 5.02695 59.5713 5.41494 58.7887 5.41494ZM58.7887 5.11192C59.2598 5.11192 59.459 4.91367 59.459 4.59649C59.459 4.26797 59.2598 4.07397 58.7887 4.07397H58.1816V5.11192H58.7887Z" fill="#58595B"/>
<path d="M12.4301 10.5439H8.97714C8.66568 10.5439 8.41113 10.7719 8.41113 11.0509V15.9574C8.41113 16.2363 8.66568 16.4643 8.97714 16.4643H12.4301C12.7416 16.4643 12.9961 16.2363 12.9961 15.9574V11.0509C12.9961 10.7719 12.7416 10.5439 12.4301 10.5439Z" fill="#F1F2F2"/>
<path d="M11.533 14.3687H10.1575L9.90451 14.9974H9.46973L10.6096 12.188H11.0855L12.2223 14.9974H11.7859L11.533 14.3687ZM10.8452 12.6425L10.2745 14.0699H11.4144L10.8452 12.6425Z" fill="#58595B"/>
<path d="M18.0707 10.5439H14.6178C14.3063 10.5439 14.0518 10.7719 14.0518 11.0509V15.9574C14.0518 16.2363 14.3063 16.4643 14.6178 16.4643H18.0707C18.3822 16.4643 18.6367 16.2363 18.6367 15.9574V11.0509C18.6367 10.7719 18.3822 10.5439 18.0707 10.5439Z" fill="#F1F2F2"/>
<path d="M16.419 15.0258C15.785 15.0258 15.3376 14.7101 15.3281 14.2442H15.7677C15.7945 14.4793 15.9811 14.7143 16.419 14.7143C16.8174 14.7143 17.053 14.5118 17.053 14.2442C17.053 13.4824 15.3471 13.9681 15.3471 12.9188C15.3471 12.4529 15.7677 12.1357 16.3922 12.1357C16.9945 12.1357 17.3882 12.4317 17.4372 12.8607H16.985C16.9582 12.671 16.759 12.4558 16.3748 12.4515C16.0348 12.443 15.7677 12.6016 15.7677 12.9061C15.7677 13.6353 17.4688 13.1822 17.4688 14.2272C17.4688 14.6293 17.102 15.0258 16.419 15.0258Z" fill="#58595B"/>
<path d="M23.7061 10.5439H20.2516C19.9417 10.5439 19.6855 10.7719 19.6855 11.0509V15.9574C19.6855 16.2363 19.9401 16.4643 20.2516 16.4643H23.7061C24.016 16.4643 24.2721 16.2363 24.2721 15.9574V11.0509C24.2721 10.7719 24.0176 10.5439 23.7061 10.5439Z" fill="#F1F2F2"/>
<path d="M23.4794 13.5912C23.4794 14.4663 22.8406 14.9973 21.8051 14.9973H20.8232V12.1724H21.8051C22.8406 12.1724 23.4794 12.7147 23.4794 13.5912ZM21.8051 14.6929C22.6288 14.6929 23.0588 14.2794 23.0588 13.5898C23.0588 12.9002 22.6288 12.4711 21.8051 12.4711H21.2343V14.6929H21.8051Z" fill="#58595B"/>
<path d="M29.3438 10.5439H25.8892C25.5794 10.5439 25.3232 10.7719 25.3232 11.0509V15.9574C25.3232 16.2363 25.5778 16.4643 25.8892 16.4643H29.3438C29.6537 16.4643 29.9098 16.2363 29.9098 15.9574V11.0509C29.9098 10.7719 29.6537 10.5439 29.3438 10.5439Z" fill="#F1F2F2"/>
<path d="M26.8613 12.1724H28.6447V12.4726H27.274V13.4255H28.387V13.7257H27.274V14.9987H26.8629V12.1724H26.8613Z" fill="#58595B"/>
<path d="M34.9809 10.5439H31.5279C31.2165 10.5439 30.9619 10.7719 30.9619 11.0509V15.9574C30.9619 16.2363 31.2165 16.4643 31.5279 16.4643H34.9809C35.2923 16.4643 35.5469 16.2363 35.5469 15.9574V11.0509C35.5469 10.7719 35.2923 10.5439 34.9809 10.5439Z" fill="#F1F2F2"/>
<path d="M34.7077 12.9906H34.2144C34.0421 12.6621 33.699 12.4724 33.2547 12.4724C32.5891 12.4724 32.0911 12.9014 32.0911 13.5825C32.0911 14.2594 32.5891 14.6884 33.2547 14.6884C33.8745 14.6884 34.2998 14.3316 34.363 13.7723H33.1045V13.4721H34.801V13.7553C34.7282 14.4562 34.1085 15.0198 33.2531 15.0198C32.3662 15.0198 31.6689 14.4279 31.6689 13.5811C31.6689 12.7343 32.3662 12.1382 33.2531 12.1382C33.9203 12.1396 34.4721 12.4483 34.7077 12.9906Z" fill="#58595B"/>
<path d="M40.6182 10.5439H37.1637C36.8538 10.5439 36.5977 10.7719 36.5977 11.0509V15.9574C36.5977 16.2363 36.8522 16.4643 37.1637 16.4643H40.6182C40.9281 16.4643 41.1842 16.2363 41.1842 15.9574V11.0509C41.1842 10.7719 40.9297 10.5439 40.6182 10.5439Z" fill="#F1F2F2"/>
<path d="M39.783 13.7172H38.1767V14.9987H37.7656V12.1724H38.1767V13.4128H39.783V12.1724H40.1941V14.9973H39.783V13.7172Z" fill="#58595B"/>
<path d="M46.2559 10.5439H42.8014C42.4915 10.5439 42.2354 10.7719 42.2354 11.0509V15.9574C42.2354 16.2363 42.4899 16.4643 42.8014 16.4643H46.2559C46.5658 16.4643 46.8219 16.2363 46.8219 15.9574V11.0509C46.8219 10.7719 46.5658 10.5439 46.2559 10.5439Z" fill="#F1F2F2"/>
<path d="M44.8979 12.1724H45.3137V14.2596C45.3137 14.7297 44.9611 15.0256 44.4409 15.0256C43.916 15.0256 43.5635 14.7254 43.5635 14.2313H43.9745C43.9793 14.4904 44.1153 14.6971 44.4409 14.6971C44.7666 14.6971 44.8979 14.4946 44.8979 14.2596V12.1724Z" fill="#58595B"/>
<path d="M51.894 10.5439H48.441C48.1295 10.5439 47.875 10.7719 47.875 11.0509V15.9574C47.875 16.2363 48.1295 16.4643 48.441 16.4643H51.894C52.2054 16.4643 52.46 16.2363 52.46 15.9574V11.0509C52.46 10.7719 52.2054 10.5439 51.894 10.5439Z" fill="#F1F2F2"/>
<path d="M49.7021 13.7087V14.9973H49.291V12.1724H49.7021V13.4822L51.0048 12.1724H51.525L50.0958 13.587L51.5392 14.9973H51.0001L49.7021 13.7087Z" fill="#58595B"/>
<path d="M57.5297 10.5439H54.0768C53.7653 10.5439 53.5107 10.7719 53.5107 11.0509V15.9574C53.5107 16.2363 53.7653 16.4643 54.0768 16.4643H57.5297C57.8412 16.4643 58.0957 16.2363 58.0957 15.9574V11.0509C58.0957 10.7719 57.8412 10.5439 57.5297 10.5439Z" fill="#F1F2F2"/>
<path d="M55.6548 12.1724V14.6971H56.7584V14.9973H55.2422V12.1724H55.6548Z" fill="#58595B"/>
<path d="M18.0707 18.9463H14.6178C14.3063 18.9463 14.0518 19.1743 14.0518 19.4532V24.3597C14.0518 24.6387 14.3063 24.8667 14.6178 24.8667H18.0707C18.3822 24.8667 18.6367 24.6387 18.6367 24.3597V19.4532C18.6367 19.1743 18.3822 18.9463 18.0707 18.9463Z" fill="#F1F2F2"/>
<path d="M17.3207 20.8664L15.7903 23.0796H17.3286V23.3997H15.3018V23.108L16.8322 20.8947H15.3207V20.5747H17.3207V20.8664Z" fill="#58595B"/>
<path d="M46.2547 27.3052H20.2516C19.9401 27.3052 19.6855 27.5332 19.6855 27.8121V32.7186C19.6855 32.9976 19.9401 33.2255 20.2516 33.2255H46.2547C46.5645 33.2255 46.8207 32.9976 46.8207 32.7186V27.8121C46.8207 27.5332 46.5661 27.3052 46.2547 27.3052Z" fill="#F1F2F2"/>
<path d="M29.6705 31.0887C29.2721 31.0887 28.9907 30.8904 28.9844 30.5973H29.2611C29.2784 30.7446 29.3954 30.8933 29.6705 30.8933C29.9203 30.8933 30.069 30.7658 30.069 30.5973C30.069 30.1173 28.9954 30.4246 28.9954 29.7633C28.9954 29.4702 29.2595 29.2705 29.6531 29.2705C30.0326 29.2705 30.2792 29.456 30.3109 29.7265H30.0263C30.0089 29.6061 29.884 29.4716 29.6421 29.4687C29.4286 29.4631 29.2611 29.5636 29.2611 29.7548C29.2611 30.2136 30.3314 29.9275 30.3314 30.586C30.3314 30.838 30.1006 31.0887 29.6705 31.0887Z" fill="#58595B"/>
<path d="M31.5546 29.6499C31.9736 29.6499 32.2945 29.9303 32.2945 30.3664C32.2945 30.7997 31.9736 31.0928 31.5546 31.0928C31.27 31.0928 31.0676 30.9555 30.9712 30.8125V31.7329H30.7119V29.6726H30.9712V29.9303C31.0645 29.783 31.27 29.6499 31.5546 29.6499ZM31.5008 29.851C31.2194 29.851 30.9712 30.045 30.9712 30.3692C30.9712 30.6978 31.2194 30.8889 31.5008 30.8889C31.7886 30.8889 32.0305 30.6949 32.0305 30.3664C32.0305 30.0379 31.7886 29.851 31.5008 29.851Z" fill="#58595B"/>
<path d="M33.28 29.6499C33.5709 29.6499 33.7701 29.783 33.8602 29.9274V29.6726H34.1226V31.0702H33.8602V30.8096C33.7669 30.9597 33.5645 31.0928 33.2768 31.0928C32.861 31.0928 32.54 30.7997 32.54 30.3664C32.54 29.9303 32.861 29.6499 33.28 29.6499ZM33.3306 29.851C33.046 29.851 32.8041 30.0365 32.8041 30.3664C32.8041 30.6949 33.046 30.8889 33.3306 30.8889C33.6151 30.8889 33.8602 30.6978 33.8602 30.3692C33.8602 30.045 33.6151 29.851 33.3306 29.851Z" fill="#58595B"/>
<path d="M35.2234 29.6499C35.6107 29.6499 35.8637 29.8283 35.9443 30.1214H35.6661C35.6123 29.9529 35.4558 29.8467 35.2249 29.8467C34.9404 29.8467 34.7301 30.028 34.7301 30.3692C34.7301 30.7162 34.9404 30.8974 35.2249 30.8974C35.4558 30.8974 35.6091 30.7983 35.6661 30.6227H35.9443C35.8653 30.9002 35.6107 31.0942 35.2234 31.0942C34.7791 31.0942 34.4629 30.8139 34.4629 30.3707C34.4629 29.9303 34.7791 29.6499 35.2234 29.6499Z" fill="#58595B"/>
<path d="M36.9629 31.0928C36.5187 31.0928 36.1914 30.8125 36.1914 30.3692C36.1914 29.9274 36.5076 29.6499 36.9629 29.6499C37.4151 29.6499 37.7123 29.9359 37.7123 30.3183C37.7123 30.3692 37.7092 30.4103 37.7044 30.4584H36.457C36.4776 30.7417 36.6989 30.8974 36.9645 30.8974C37.1985 30.8974 37.3456 30.7898 37.4025 30.6397H37.6807C37.6001 30.8946 37.3503 31.0928 36.9629 31.0928ZM36.4586 30.2701H37.4436C37.4467 29.9968 37.2191 29.8467 36.9519 29.8467C36.6989 29.8467 36.4871 29.9968 36.4586 30.2701Z" fill="#58595B"/>
<path d="M60.3509 27.3052H48.441C48.1295 27.3052 47.875 27.5332 47.875 27.8121V32.7186C47.875 32.9976 48.1295 33.2255 48.441 33.2255H60.3509C60.6607 33.2255 60.9169 32.9976 60.9169 32.7186V27.8121C60.9169 27.5332 60.6607 27.3052 60.3509 27.3052Z" fill="#757576"/>
<path d="M50.8112 29.4346C51.2776 29.4346 51.5005 29.6668 51.5005 29.9571C51.5005 30.1836 51.3614 30.4003 51.0278 30.4668L51.5258 31.2117H51.216L50.7432 30.4853H50.4302V31.2117H50.1709V29.4346H50.8112ZM50.8112 29.6257H50.4302V30.2983H50.8112C51.1037 30.2983 51.2333 30.1553 51.2333 29.9571C51.2318 29.756 51.1069 29.6257 50.8112 29.6257Z" fill="#545554"/>
<path d="M52.5753 31.2349C52.131 31.2349 51.8037 30.9545 51.8037 30.5113C51.8037 30.0695 52.1199 29.792 52.5753 29.792C53.0274 29.792 53.3247 30.078 53.3247 30.4604C53.3247 30.5113 53.3215 30.5524 53.3168 30.6005H52.0693C52.0899 30.8837 52.3112 31.0395 52.5768 31.0395C52.8108 31.0395 52.9579 30.9319 53.0148 30.7818H53.293C53.2124 31.0367 52.9626 31.2349 52.5753 31.2349ZM52.0709 30.4122H53.0559C53.059 30.1389 52.8314 29.9888 52.5642 29.9888C52.3096 29.9888 52.0994 30.1389 52.0709 30.4122Z" fill="#545554"/>
<path d="M53.7229 30.0057H53.5205V29.8146H53.7229V29.4634H53.9822V29.8146H54.3885V30.0057H53.9822V30.8298C53.9822 30.9672 54.0391 31.0153 54.1988 31.0153H54.3901V31.2122H54.1561C53.8794 31.2122 53.7229 31.1102 53.7229 30.8298V30.0057Z" fill="#545554"/>
<path d="M56.0842 31.2121H55.8249V31.0053C55.7253 31.1512 55.534 31.2319 55.3268 31.2319C54.9679 31.2319 54.6865 31.0336 54.6865 30.6329V29.8145H54.9426V30.6018C54.9426 30.885 55.1166 31.0308 55.3774 31.0308C55.6446 31.0308 55.8249 30.8835 55.8249 30.5819V29.8145H56.0842V31.2121Z" fill="#545554"/>
<path d="M56.7817 31.2122H56.5225V29.8146H56.7817V30.0411C56.8703 29.8854 57.0379 29.7891 57.2861 29.7891V30.0284H57.2181C56.9699 30.0284 56.7833 30.1275 56.7833 30.4518V31.2122H56.7817Z" fill="#545554"/>
<path d="M58.7265 30.4216C58.7265 30.1355 58.5525 29.9911 58.2917 29.9911C58.0276 29.9911 57.8443 30.1384 57.8443 30.44V31.2131H57.585V29.8155H57.8443V30.0138C57.947 29.8679 58.1352 29.79 58.3454 29.79C58.7075 29.79 58.9826 29.9883 58.9826 30.389V31.2131H58.7265V30.4216Z" fill="#545554"/>
<path d="M18.0686 27.3052H6.15878C5.84732 27.3052 5.59277 27.5332 5.59277 27.8121V32.7186C5.59277 32.9976 5.84732 33.2255 6.15878 33.2255H18.0686C18.3785 33.2255 18.6346 32.9976 18.6346 32.7186V27.8121C18.6331 27.5332 18.3785 27.3052 18.0686 27.3052Z" fill="#757576"/>
<path d="M8.90071 31.511C8.8011 31.511 8.72363 31.4417 8.72363 31.3524C8.72363 31.2632 8.8011 31.1938 8.90071 31.1938C8.99399 31.1938 9.07146 31.2632 9.07146 31.3524C9.07146 31.4417 8.99399 31.511 8.90071 31.511Z" fill="#545554"/>
<path d="M9.92155 29.6953C10.2947 29.6953 10.5508 29.8964 10.5508 30.2207C10.5508 30.5931 10.2631 30.746 9.86463 30.746L9.85673 30.9881H9.63222L9.62115 30.586H9.70337C10.0275 30.586 10.3042 30.5293 10.3042 30.2207C10.3042 30.0167 10.1555 29.8893 9.92471 29.8893C9.69072 29.8893 9.54685 30.0097 9.54685 30.2079H9.30179C9.29863 29.8992 9.54843 29.6953 9.92155 29.6953ZM9.74289 31.5106C9.64329 31.5106 9.56582 31.4413 9.56582 31.3521C9.56582 31.2628 9.64329 31.1935 9.74289 31.1935C9.83617 31.1935 9.91364 31.2628 9.91364 31.3521C9.91364 31.4413 9.83617 31.5106 9.74289 31.5106Z" fill="#545554"/>
<path d="M11.0684 29.8638H10.7949V29.6528H11.3293V31.4965H11.0669V29.8638H11.0684Z" fill="#545554"/>
<path d="M11.7422 31.3099C12.2829 30.9205 12.7952 30.5523 12.7952 30.1757C12.7952 29.9718 12.6955 29.8188 12.4173 29.8188C12.1501 29.8188 12.0125 29.9845 12.0015 30.2167H11.7517C11.7691 29.8245 12.0442 29.6206 12.4157 29.6206C12.8031 29.6206 13.0529 29.8245 13.0529 30.1658C13.0529 30.6246 12.5011 31.0154 12.1327 31.283H13.1114V31.477H11.7422V31.3099Z" fill="#545554"/>
<path d="M14.0805 29.6162C14.4821 29.6162 14.7019 29.8258 14.7019 30.0906C14.7019 30.3016 14.5532 30.4687 14.3382 30.5111V30.5239C14.577 30.5749 14.7398 30.7334 14.7398 30.9982C14.7398 31.2843 14.5185 31.508 14.0884 31.508C13.6979 31.508 13.4086 31.3225 13.377 30.9657H13.6268C13.6521 31.1625 13.8117 31.3126 14.0853 31.3126C14.3619 31.3126 14.4916 31.1667 14.4916 30.9784C14.4916 30.7179 14.2892 30.6187 13.9192 30.6187H13.8544V30.4248H13.9224C14.2671 30.4219 14.452 30.3285 14.452 30.1132C14.452 29.9376 14.3208 29.8145 14.0742 29.8145C13.8323 29.8145 13.6868 29.9362 13.6615 30.1146H13.4086C13.4307 29.8003 13.6995 29.6162 14.0805 29.6162Z" fill="#545554"/>
<path d="M23.7055 18.9463H20.2525C19.9411 18.9463 19.6865 19.1743 19.6865 19.4532V24.3597C19.6865 24.6387 19.9411 24.8667 20.2525 24.8667H23.7055C24.0169 24.8667 24.2715 24.6387 24.2715 24.3597V19.4532C24.2715 19.1743 24.0169 18.9463 23.7055 18.9463Z" fill="#F1F2F2"/>
<path d="M21.7572 22.2971L21.0378 23.4002H20.5809L21.5453 21.9898L20.5762 20.5752H21.0378L21.7983 21.6811L22.5224 20.5752H22.9841L22.0117 21.9898L22.9809 23.4002H22.5145L21.7572 22.2971Z" fill="#58595B"/>
<path d="M29.3438 18.9463H25.8892C25.5794 18.9463 25.3232 19.1743 25.3232 19.4532V24.3597C25.3232 24.6387 25.5778 24.8667 25.8892 24.8667H29.3438C29.6537 24.8667 29.9098 24.6387 29.9098 24.3597V19.4532C29.9098 19.1743 29.6537 18.9463 29.3438 18.9463Z" fill="#F1F2F2"/>
<path d="M27.4419 20.5381C28.1249 20.5381 28.6688 20.8468 28.9043 21.3934H28.4111C28.2387 21.0535 27.9035 20.8624 27.4419 20.8624C26.781 20.8624 26.2877 21.2914 26.2877 21.9853C26.2877 22.6749 26.781 23.1039 27.4419 23.1039C27.9035 23.1039 28.2387 22.9142 28.4111 22.5771H28.9043C28.6688 23.1195 28.1265 23.4239 27.4419 23.4239C26.5597 23.4239 25.8672 22.832 25.8672 21.9853C25.8672 21.1385 26.5597 20.5381 27.4419 20.5381Z" fill="#58595B"/>
<path d="M34.9825 18.9463H31.5279C31.218 18.9463 30.9619 19.1743 30.9619 19.4532V24.3597C30.9619 24.6387 31.2165 24.8667 31.5279 24.8667H34.9825C35.2923 24.8667 35.5485 24.6387 35.5485 24.3597V19.4532C35.5485 19.1743 35.2923 18.9463 34.9825 18.9463Z" fill="#F1F2F2"/>
<path d="M33.8811 20.5747H34.3159L33.1254 23.3997H32.6495L31.459 20.5747H31.8985L32.8898 23.0103L33.8811 20.5747Z" fill="#58595B"/>
<path d="M40.6196 18.9463H37.1666C36.8551 18.9463 36.6006 19.1743 36.6006 19.4532V24.3597C36.6006 24.6387 36.8551 24.8667 37.1666 24.8667H40.6196C40.931 24.8667 41.1856 24.6387 41.1856 24.3597V19.4532C41.1856 19.1743 40.931 18.9463 40.6196 18.9463Z" fill="#F1F2F2"/>
<path d="M38.8755 23.3997H37.6992V20.5747H38.8312C39.4968 20.5747 39.832 20.899 39.832 21.2926C39.832 21.6495 39.5838 21.8562 39.2802 21.9454C39.6249 21.9978 39.9047 22.2938 39.9047 22.6421C39.9032 23.0669 39.5269 23.3997 38.8755 23.3997ZM38.7933 20.8777H38.1103V21.7939H38.8028C39.187 21.7939 39.4099 21.624 39.4099 21.3365C39.4099 21.0562 39.1964 20.8777 38.7933 20.8777ZM38.8249 22.0983H38.1103V23.0952H38.8391C39.247 23.0952 39.4905 22.9126 39.4905 22.6053C39.4905 22.2923 39.2281 22.0983 38.8249 22.0983Z" fill="#58595B"/>
<path d="M46.2559 18.9463H42.8014C42.4915 18.9463 42.2354 19.1743 42.2354 19.4532V24.3597C42.2354 24.6387 42.4899 24.8667 42.8014 24.8667H46.2559C46.5658 24.8667 46.8219 24.6387 46.8219 24.3597V19.4532C46.8219 19.1743 46.5658 18.9463 46.2559 18.9463Z" fill="#F1F2F2"/>
<path d="M45.5533 20.5703V23.3995H45.1422L43.4853 21.1495V23.3995H43.0742V20.5703H43.4853L45.1422 22.8161V20.5703H45.5533Z" fill="#58595B"/>
<path d="M51.8955 18.9463H48.441C48.1311 18.9463 47.875 19.1743 47.875 19.4532V24.3597C47.875 24.6387 48.1295 24.8667 48.441 24.8667H51.8955C52.2054 24.8667 52.4616 24.6387 52.4616 24.3597V19.4532C52.4616 19.1743 52.2054 18.9463 51.8955 18.9463Z" fill="#F1F2F2"/>
<path d="M48.3828 20.5947H48.8271L49.986 22.9127L51.1449 20.5947H51.5844V23.3999H51.1733V21.3084L50.133 23.3999H49.8437L48.7986 21.3042V23.3999H48.3876V20.5947H48.3828Z" fill="#58595B"/>
<path d="M60.0101 18.8882H55.1959C54.886 18.8882 54.6299 19.1162 54.6299 19.3951V24.3016C54.6299 24.5806 54.8844 24.8086 55.1959 24.8086H60.0101C60.32 24.8086 60.5761 24.5806 60.5761 24.3016V19.3951C60.5761 19.1162 60.3216 18.8882 60.0101 18.8882Z" fill="#757576"/>
<path d="M56.8278 20.7393L55.9092 21.848L56.8278 22.9567H59.3021V20.7407H56.8278V20.7393ZM58.4009 22.2119L58.238 22.3578L57.8301 21.9939L57.4238 22.3578L57.261 22.2119L57.6673 21.848L57.261 21.4841L57.4238 21.3382L57.8301 21.7036L58.238 21.3382L58.4009 21.4841L57.993 21.848L58.4009 22.2119Z" fill="#545554"/>
<path d="M11.2005 18.9463H6.38632C6.07644 18.9463 5.82031 19.1743 5.82031 19.4532V24.3597C5.82031 24.6387 6.07486 24.8667 6.38632 24.8667H11.2005C11.5104 24.8667 11.7665 24.6387 11.7665 24.3597V19.4532C11.765 19.1743 11.5104 18.9463 11.2005 18.9463Z" fill="#757576"/>
<path d="M8.79689 20.603L7.29492 21.8052H8.02535V22.8035H9.56685V21.8052H10.2989L8.79689 20.603Z" fill="#545554"/>
</g>
<defs>
<filter id="filter0_d" x="0.0869141" y="0.770508" width="66.3366" height="42.1076" filterUnits="userSpaceOnUse" color-interpolation-filters="sRGB">
<feFlood flood-opacity="0" result="BackgroundImageFix"/>
<feColorMatrix in="SourceAlpha" type="matrix" values="0 0 0 0 0 0 0 0 0 0 0 0 0 0 0 0 0 0 127 0" result="hardAlpha"/>
<feOffset dy="4"/>
<feGaussianBlur stdDeviation="2"/>
<feColorMatrix type="matrix" values="0 0 0 0 0 0 0 0 0 0 0 0 0 0 0 0 0 0 0.25 0"/>
<feBlend mode="normal" in2="BackgroundImageFix" result="effect1_dropShadow"/>
<feBlend mode="normal" in="SourceGraphic" in2="effect1_dropShadow" result="shape"/>
</filter>
</defs>
</svg>
