<!--?xml version="1.0" encoding="utf-8"?-->
<!-- Generator: Adobe Illustrator 23.0.1, SVG Export Plug-In . SVG Version: 6.00 Build 0)  -->
<svg version="1.1" xmlns="http://www.w3.org/2000/svg" xmlns:xlink="http://www.w3.org/1999/xlink" x="0px" y="0px" viewBox="0 0 640 300" style="" xml:space="preserve">
<style type="text/css">
	.st0{fill:#AD8F44;}
	.st1{fill:#EED792;stroke:#B37B3C;stroke-width:2;stroke-miterlimit:10;}
	.st2{fill:#EED792;}
	.st3{fill:#F6D394;}
	.st4{fill:#E87F70;}
	.st5{fill:#154484;}
	.st6{fill:#F0C8C7;}
	.st7{fill:#FFF263;}
	.st8{fill:#AA8E6C;}
	.st9{fill:#A6DADD;}
	.st10{fill:#CD5C51;}
	.st11{fill:#92CE6F;}
	.st12{fill:none;stroke:#FAD182;stroke-width:3;stroke-miterlimit:10;}
</style>
<g id="cap">
	<path class="st0 WIXxBWFx_0" d="M5.58,262.82h4.1v24.02h13.57v2.92H5.58V262.82z"></path>
	<path class="st0 WIXxBWFx_1" d="M44.25,277.12H31.91v9.71h13.75v2.92H27.81v-26.93h17.15v2.92H31.91v8.51h12.34V277.12z"></path>
	<path class="st0 WIXxBWFx_2" d="M57.77,265.77h-9.66v-2.96h23.5v2.96h-9.7v23.98h-4.15V265.77z"></path>
	<path class="st0 WIXxBWFx_3" d="M110,289.75v-11.43l-10.03-15.5h4.66l4.47,7.43c1.22,2.04,2.17,3.68,3.16,5.55h0.09
		c0.9-1.76,1.98-3.52,3.2-5.55l4.57-7.43h4.66l-10.65,15.46v11.47H110z"></path>
	<path class="st0 WIXxBWFx_4" d="M153.86,276c0,9.27-6.64,14.19-14.74,14.19c-8.38,0-14.27-5.51-14.27-13.67c0-8.55,6.26-14.15,14.74-14.15
		C148.25,262.38,153.86,268.01,153.86,276z M129.22,276.44c0,5.75,3.67,10.91,10.13,10.91c6.5,0,10.17-5.08,10.17-11.19
		c0-5.36-3.3-10.95-10.13-10.95C132.61,265.21,129.22,270.53,129.22,276.44z"></path>
	<path class="st0 WIXxBWFx_5" d="M163.27,262.82v15.94c0,6.04,3.16,8.59,7.4,8.59c4.71,0,7.73-2.64,7.73-8.59v-15.94h4.15v15.71
		c0,8.27-5.13,11.67-12.01,11.67c-6.5,0-11.4-3.16-11.4-11.51v-15.87H163.27z"></path>
	<path class="st0 WIXxBWFx_6" d="M189.65,263.18c2.07-0.36,5.04-0.56,7.87-0.56c4.38,0,7.21,0.68,9.19,2.2c1.6,1.2,2.5,3.04,2.5,5.12
		c0,3.56-2.64,5.91-5.98,6.87v0.12c2.45,0.72,3.91,2.64,4.66,5.43c1.04,3.76,1.79,6.35,2.45,7.39h-4.24
		c-0.52-0.76-1.22-3.08-2.12-6.43c-0.94-3.72-2.64-5.12-6.36-5.24h-3.86v11.67h-4.1V263.18z M193.75,275.45h4.19
		c4.38,0,7.16-2.04,7.16-5.12c0-3.48-2.97-5-7.3-5.04c-1.98,0-3.39,0.16-4.05,0.32V275.45z"></path>
	<path class="st0 WIXxBWFx_7" d="M250.22,289.75l-10.36-26.93h4.43l4.95,13.27c1.37,3.64,2.54,6.91,3.39,10.07h0.09
		c0.9-3.12,2.21-6.51,3.63-10.03l5.37-13.31h4.38l-11.35,26.93H250.22z"></path>
	<path class="st0 WIXxBWFx_8" d="M296.67,276c0,9.27-6.64,14.19-14.74,14.19c-8.38,0-14.27-5.51-14.27-13.67c0-8.55,6.26-14.15,14.74-14.15
		C291.06,262.38,296.67,268.01,296.67,276z M272.03,276.44c0,5.75,3.67,10.91,10.13,10.91c6.5,0,10.17-5.08,10.17-11.19
		c0-5.36-3.3-10.95-10.13-10.95C275.42,265.21,272.03,270.53,272.03,276.44z"></path>
	<path class="st0 WIXxBWFx_9" d="M306.09,262.82v26.93h-4.1v-26.93H306.09z"></path>
	<path class="st0 WIXxBWFx_10" d="M335.43,288.87c-1.51,0.64-4.52,1.28-8.38,1.28c-8.95,0-15.69-4.79-15.69-13.63c0-8.43,6.74-14.15,16.58-14.15
		c3.96,0,6.45,0.72,7.54,1.2l-0.99,2.84c-1.55-0.64-3.77-1.12-6.41-1.12c-7.44,0-12.39,4.04-12.39,11.11
		c0,6.59,4.47,10.83,12.2,10.83c2.5,0,5.04-0.44,6.69-1.12L335.43,288.87z"></path>
	<path class="st0 WIXxBWFx_11" d="M357,277.12h-12.34v9.71h13.75v2.92h-17.85v-26.93h17.15v2.92h-13.05v8.51H357V277.12z"></path>
	<path class="st0 WIXxBWFx_12" d="M373.72,263.18c1.79-0.32,4.62-0.56,7.49-0.56c4.1,0,6.74,0.6,8.71,1.96c1.65,1.04,2.64,2.64,2.64,4.76
		c0,2.6-2.03,4.88-5.37,5.91v0.08c3.01,0.64,6.55,2.76,6.55,6.75c0,2.32-1.08,4.08-2.68,5.39c-2.21,1.72-5.79,2.52-10.98,2.52
		c-2.83,0-4.99-0.16-6.36-0.32V263.18z M377.82,274.21h3.72c4.33,0,6.88-1.92,6.88-4.52c0-3.16-2.83-4.4-6.97-4.4
		c-1.88,0-2.97,0.12-3.63,0.24V274.21z M377.82,287.11c0.8,0.12,1.98,0.16,3.44,0.16c4.24,0,8.15-1.32,8.15-5.24
		c0-3.68-3.72-5.2-8.2-5.2h-3.39V287.11z"></path>
	<path class="st0 WIXxBWFx_13" d="M415.69,277.12h-12.34v9.71h13.75v2.92h-17.85v-26.93h17.15v2.92h-13.05v8.51h12.34V277.12z"></path>
	<path class="st0 WIXxBWFx_14" d="M446.49,262.82v11.27h15.36v-11.27H466v26.93h-4.14v-12.63h-15.36v12.63h-4.1v-26.93H446.49z"></path>
	<path class="st0 WIXxBWFx_15" d="M489.55,277.12H477.2v9.71h13.75v2.92h-17.85v-26.93h17.15v2.92H477.2v8.51h12.34V277.12z"></path>
	<path class="st0 WIXxBWFx_16" d="M501.41,281.28l-3.3,8.47h-4.24l10.79-26.93h4.95l10.83,26.93h-4.38l-3.39-8.47H501.41z M511.82,278.56
		l-3.11-7.75c-0.71-1.76-1.18-3.36-1.65-4.92h-0.09c-0.47,1.6-0.99,3.24-1.6,4.88l-3.11,7.79H511.82z"></path>
	<path class="st0 WIXxBWFx_17" d="M525.11,263.18c2.07-0.36,5.04-0.56,7.87-0.56c4.38,0,7.21,0.68,9.19,2.2c1.6,1.2,2.5,3.04,2.5,5.12
		c0,3.56-2.64,5.91-5.98,6.87v0.12c2.45,0.72,3.91,2.64,4.66,5.43c1.04,3.76,1.79,6.35,2.45,7.39h-4.24
		c-0.52-0.76-1.22-3.08-2.12-6.43c-0.94-3.72-2.64-5.12-6.36-5.24h-3.86v11.67h-4.1V263.18z M529.21,275.45h4.19
		c4.38,0,7.16-2.04,7.16-5.12c0-3.48-2.97-5-7.3-5.04c-1.98,0-3.39,0.16-4.05,0.32V275.45z"></path>
	<path class="st0 WIXxBWFx_18" d="M550.45,263.18c2.5-0.32,5.46-0.56,8.71-0.56c5.89,0,10.08,1.16,12.86,3.36c2.83,2.2,4.47,5.32,4.47,9.67
		c0,4.4-1.6,7.99-4.57,10.47c-2.97,2.52-7.87,3.88-14.04,3.88c-2.92,0-5.37-0.12-7.44-0.32V263.18z M554.54,286.99
		c1.04,0.16,2.54,0.2,4.15,0.2c8.76,0,13.52-4.16,13.52-11.43c0.05-6.35-4.19-10.39-12.86-10.39c-2.12,0-3.72,0.16-4.8,0.36V286.99z
		"></path>
</g>
<g id="heresays">
	<path id="h" class="st1 WIXxBWFx_19" d="M232,149h17v17h15v-11.34c-1.47-1.08-3.09-2-4.86-2.76c-1.77-0.76-3.82-1.4-6.14-1.91v-0.39
		c4.73,0,9.4-0.01,14-0.05c4.6-0.03,9.27-0.05,14-0.05v48.15c1.57,1.12,3.34,2.1,5.31,2.95c1.97,0.85,4.2,1.54,6.69,2.07V203h-28
		v-31h-16v25.35c1.44,1.08,3.07,2.03,4.87,2.86c1.8,0.83,3.85,1.49,6.13,2V203h-28V149z"></path>
	<path id="e_1_" class="st1 WIXxBWFx_20" d="M397,158.58V172h-0.48c-0.37-1.88-0.87-3.55-1.51-5.02c-0.64-1.47-1.37-2.79-2.2-3.98H383v12h11v5
		h-11v15h12.64c0.82-1.19,1.56-2.52,2.2-3.98c0.64-1.47,1.14-3.14,1.51-5.02H400v14h-30v-36.82c-1.2-0.81-2.53-1.51-3.98-2.12
		c-1.45-0.6-3.13-1.09-5.02-1.44v-0.97c6.18,0,12.23-0.01,18.14-0.03C385.05,158.59,391,158.58,397,158.58z"></path>
	<path id="r" class="st1 WIXxBWFx_21" d="M342.46,154.05c3.13,0,6.06,0.26,8.79,0.78c2.72,0.52,5.11,1.32,7.18,2.39
		c2.06,1.07,3.68,2.45,4.87,4.12c1.18,1.68,1.77,3.67,1.77,5.98c0,2.8-0.86,5.11-2.57,6.93c-1.71,1.81-3.97,3.24-6.79,4.29
		l14.22,24.66c1.26,0.77,2.64,1.44,4.12,2.02c1.49,0.58,3.14,1.03,4.95,1.36v0.84c-4.11,0-8.19-0.01-12.24-0.04
		c-4.06-0.03-8.14-0.04-12.26-0.04L339,180.6v18.6c1.49,1.02,3.12,1.92,4.9,2.69c1.78,0.77,3.81,1.38,6.1,1.83v0.41
		c-4.39,0-8.71,0.01-12.96,0.04c-4.25,0.03-8.6,0.04-13.04,0.04v-43.11c-1.32-0.97-2.79-1.82-4.39-2.56
		c-1.6-0.74-3.47-1.31-5.61-1.72v-0.72c2.64,0,5.18-0.11,7.63-0.33c2.45-0.22,4.84-0.45,7.18-0.7c2.34-0.25,4.63-0.48,6.89-0.7
		C337.95,154.16,340.2,154.05,342.46,154.05z M340,177h0.58c2.87-0.55,5.21-1.58,7.01-3.09c1.8-1.51,2.7-3.58,2.7-6.21
		c0-2.74-0.97-4.87-2.9-6.38c-1.94-1.51-4.4-2.51-7.38-3V177z"></path>
	<path id="s" class="st1 WIXxBWFx_22" d="M434.52,171c-0.52-2.45-1.23-4.61-2.13-6.46c-0.9-1.85-1.97-3.51-3.19-4.95
		c-1.61-1.76-3.65-2.61-6.1-2.55c-1.1,0.06-2.1,0.35-3,0.85c-0.9,0.5-1.68,1.15-2.32,1.93c-0.65,0.79-1.13,1.62-1.45,2.5
		c-0.32,0.88-0.48,1.73-0.48,2.55c0,1.13,0.35,2.17,1.06,3.11c0.71,0.94,1.65,1.84,2.81,2.69c1.16,0.85,2.48,1.64,3.97,2.36
		c1.48,0.72,3.03,1.43,4.65,2.12c2.39,1.01,4.55,2.31,6.48,3.91c1.94,1.6,3.26,3.92,3.97,6.93c0.19,1.07,0.29,2.04,0.29,2.92
		c0,2.33-0.52,4.51-1.55,6.56c-1.03,2.04-2.39,3.7-4.06,4.95c-1.68,1.26-3.68,2.26-6,3.02c-2.32,0.75-4.77,1.13-7.35,1.13
		c-2.58,0-5.11-0.43-7.6-1.3c-2.48-0.86-4.69-2.33-6.63-4.39l-3.87,2.08V186h0.58c0.19,0.94,0.45,1.97,0.77,3.07
		c0.32,1.1,0.73,2.19,1.21,3.25c0.48,1.07,1.03,2.09,1.64,3.07c0.61,0.98,1.34,1.78,2.18,2.41c0.84,0.69,1.76,1.18,2.76,1.46
		c1,0.28,2.02,0.42,3.05,0.42c1.74,0,3.4-0.38,4.98-1.13c1.58-0.76,2.79-1.8,3.63-3.12c0.64-1.01,0.9-1.94,0.77-2.79
		c-0.13-0.85-0.5-1.64-1.11-2.36c-0.61-0.73-1.42-1.39-2.42-1.99c-1-0.6-2.05-1.15-3.15-1.66c-1.61-0.75-3.27-1.64-4.98-2.65
		c-1.71-1.01-3.28-2.24-4.69-3.69c-1.42-1.45-2.6-3.2-3.53-5.25c-0.94-2.05-1.4-4.49-1.4-7.33c0-2.27,0.52-4.33,1.55-6.19
		c1.03-1.86,2.39-3.45,4.06-4.77c1.68-1.32,3.58-2.33,5.71-3.02c2.13-0.69,4.26-1.04,6.39-1.04c2.26,0,4.42,0.41,6.48,1.23
		c2.06,0.82,3.77,2.14,5.13,3.96L435,156v15H434.52z"></path>
	<path id="y" class="st1 WIXxBWFx_23" d="M501.44,154.88l10.35,15.67l6.86-11.37c-2.64-1.63-5.85-2.82-9.65-3.6V155c3.18,0,6.3,0.02,9.36,0.06
		c3.06,0.04,6.14,0.06,9.24,0.06L514,177.4V207l-27-0.12v-0.58c4.37-0.94,8.03-2.46,11-4.56v-24.15l-12.58-19.19
		c-2.45-1.17-5.26-2.11-8.42-2.81V155L501.44,154.88z"></path>
	<path id="s_1_" class="st1 WIXxBWFx_24" d="M564.37,170c-0.67-3.27-1.6-6.14-2.77-8.62c-1.18-2.47-2.57-4.67-4.16-6.6
		c-2.1-2.35-4.75-3.48-7.94-3.4c-1.43,0.09-2.73,0.46-3.91,1.13c-1.18,0.67-2.19,1.53-3.03,2.58c-0.84,1.05-1.47,2.16-1.89,3.33
		c-0.42,1.18-0.63,2.31-0.63,3.4c0,1.51,0.46,2.89,1.39,4.15c0.92,1.26,2.14,2.45,3.66,3.58c1.51,1.13,3.24,2.18,5.17,3.15
		c1.93,0.96,3.95,1.91,6.05,2.83c3.11,1.34,5.93,3.08,8.45,5.22c2.52,2.14,4.24,5.22,5.17,9.25c0.25,1.43,0.38,2.73,0.38,3.9
		c0,3.1-0.67,6.02-2.02,8.74c-1.35,2.73-3.11,4.93-5.3,6.6c-2.19,1.68-4.79,3.02-7.82,4.02c-3.03,1.01-6.22,1.51-9.58,1.51
		c-3.36,0-6.66-0.58-9.9-1.73c-3.24-1.15-6.12-3.1-8.64-5.85l-5.04,2.77V190h0.76c0.25,1.26,0.59,2.62,1.01,4.09
		c0.42,1.47,0.95,2.91,1.58,4.34c0.63,1.43,1.34,2.79,2.14,4.09c0.8,1.3,1.74,2.37,2.84,3.21c1.09,0.92,2.29,1.57,3.59,1.95
		c1.3,0.38,2.63,0.57,3.97,0.57c2.27,0,4.43-0.5,6.49-1.51c2.06-1.01,3.63-2.4,4.73-4.16c0.84-1.35,1.18-2.58,1.01-3.72
		c-0.17-1.13-0.65-2.18-1.45-3.15c-0.8-0.97-1.85-1.85-3.15-2.65c-1.3-0.8-2.67-1.53-4.1-2.21c-2.1-1.01-4.27-2.18-6.49-3.53
		c-2.23-1.34-4.27-2.98-6.12-4.92c-1.85-1.93-3.38-4.26-4.6-6.99c-1.22-2.73-1.83-5.99-1.83-9.77c0-3.02,0.67-5.77,2.02-8.25
		c1.34-2.48,3.11-4.6,5.3-6.36c2.18-1.76,4.67-3.11,7.44-4.03c2.77-0.92,5.55-1.39,8.32-1.39c2.94,0,5.76,0.55,8.45,1.63
		c2.69,1.09,4.92,2.85,6.68,5.28L565,150v20H564.37z"></path>
	<path id="a" class="st1 WIXxBWFx_25" d="M463.15,152h0.87l26.81,54.98c-5.47,0-10.94-0.02-16.41-0.07c-5.47-0.04-10.94-0.07-16.41-0.07v-0.55
		c2.28-0.46,4.31-1.05,6.09-1.78c1.78-0.73,3.44-1.59,4.99-2.6l-2.46-4.92h-23.67l-2.25,5.2c1.41,0.91,2.97,1.71,4.69,2.39
		c1.72,0.68,3.59,1.25,5.61,1.71v0.55c-6.25,0-12.59,0.14-19.02,0.41l22.58-50.33c-1.41-1-2.97-1.85-4.69-2.53
		c-1.72-0.68-3.68-1.25-5.88-1.71V152H463.15z M463.39,191l-9.4-19.21L445,191H463.39z"></path>
	<path id="e" class="st1 WIXxBWFx_26" d="M316,156.25V170h-0.48c-0.37-1.88-0.87-3.55-1.51-5.02c-0.64-1.47-1.37-2.79-2.2-3.98H302v13h11v5h-11
		v15h12.64c0.82-1.19,1.56-2.52,2.2-3.98c0.64-1.47,1.14-3.14,1.51-5.02H320v14h-31v-38.92c-1.2-0.85-2.53-1.6-3.98-2.24
		c-1.45-0.64-3.13-1.15-5.02-1.53v0c6.18,0,12.23-0.01,18.14-0.03C304.05,156.26,310,156.25,316,156.25z"></path>
</g>
<g id="Layer_4">
	<path id="e1" class="st2 WIXxBWFx_27" d="M543.9,131.26c0,0,8.2-36.19,50.86-22.55c24.21,9.03,44.01,31.9,32.48,78.02
		c-5.38,19.02-10.38,22.1-19.22,30.17c-8.84,8.07-29.4,34.21-31.9,35.74c-2.5,1.54-24.6,8.26-34.4-14.41
		c0,0.19,1.92,21.14,29.79,19.02c11.72-2.11,18.06-14.99,21.33-18.26c3.27-3.27,19.22-19.6,25.17-24.21s13.84-19.6,15.37-39.2
		c1.54-19.6,1.73-39.97-18.83-58.23C593.99,99.1,551.85,95.58,543.9,131.26z"></path>
	<path id="e2" class="st3 WIXxBWFx_28" d="M612.95,137.15c0,0-16.65-18.06-38.95-12.68c-7.94,2.18-16.91,9.61-15.76,25.24
		c0.26,0.64-0.77,1.15-0.77,1.15l-2.69-1.79c0,0-1.02-21.65,16.78-26.13C583.36,119.86,602.32,123.06,612.95,137.15z"></path>
	<path id="e4" class="st2 WIXxBWFx_29" d="M567.86,156.11c0,0,16.14,7.05,23.57,8.84s16.53,16.27,4.74,31.39c-4.74,6.53-10.76,7.56-15.5,8.58
		c-4.74,1.02-16.14,6.53-18.19,8.33c-0.13,0.13,5.79-6.66,17.42-9.48c11.63-2.82,21.52-17.94,17.17-29.08
		S573.75,162.39,567.86,156.11z"></path>
	<g id="e5">
		<path class="st2 WIXxBWFx_30" d="M616.93,154.06c2.14,5.8,2.98,12.08,2.91,18.33c-0.02,3.13-0.39,6.26-0.96,9.35c-0.6,3.09-1.5,6.12-2.63,9.08
			c-1.2,2.93-2.67,5.74-4.37,8.4c-1.73,2.64-3.74,5.09-5.92,7.34c-4.44,4.44-9.66,8.03-15.29,10.54c5.02-3.59,9.63-7.58,13.57-12.12
			c3.87-4.59,7.04-9.72,9.23-15.26c2.21-5.54,3.5-11.44,4.04-17.44C618,166.26,617.85,160.15,616.93,154.06z"></path>
	</g>
</g>
<g id="chatheads">
	<g>
		<path class="st4 WIXxBWFx_31" d="M291.1,126.16c-5.75,0-11.59-1.95-16.35-7.09c-0.05-0.05-0.15-0.14-0.27-0.15
			c-5.83-0.25-19.73-1.59-22.91-8.7c-1.49-3.34-0.45-7.23,3.11-11.57c0.12-0.15,0.15-0.35,0.08-0.52
			c-0.99-2.33-2.26-6.86,0.35-11.07c2.76-4.46,9.04-7.03,18.65-7.63c0.14-0.01,0.26-0.06,0.34-0.14h0c2.46-2.55,15.6-14.69,33-3.26
			c0.13,0.09,0.28,0.12,0.41,0.08l0.32-0.09c14.52-4.28,23.72-0.62,27.35,10.88c0.04,0.13,0.14,0.24,0.28,0.29
			c5.35,1.93,14.35,6.09,14.49,12.27c0.11,4.49-4.27,8.51-13.38,12.31c-0.14,0.06-0.24,0.18-0.27,0.32
			c-0.36,1.8-2.01,7.92-8.01,11.24c-5.63,3.11-13.31,2.86-22.83-0.75c-0.14-0.05-0.29-0.05-0.41,0.02
			C300.97,124.71,296.06,126.16,291.1,126.16z M276.87,81.96c-0.75,0.77-1.76,1.24-2.87,1.31c-8.18,0.51-13.58,2.52-15.62,5.81
			c-1.69,2.74-0.78,5.9-0.08,7.55c0.63,1.49,0.39,3.2-0.64,4.46c-2.56,3.13-3.43,5.67-2.58,7.57c1.89,4.21,11.72,6.1,19.56,6.43
			c1.11,0.05,2.15,0.54,2.93,1.37c9.31,10.05,22.04,4.62,25.72,2.71c1.09-0.56,2.38-0.63,3.54-0.2c8.41,3.19,15.01,3.52,19.61,0.98
			c4.55-2.52,5.82-7.24,6.1-8.63c0.28-1.4,1.24-2.56,2.56-3.11c9.67-4.02,11.05-7.16,11.01-8.66c-0.07-2.72-4.76-6.15-11.96-8.75
			c-1.25-0.45-2.24-1.48-2.64-2.74c-3.89-12.31-14.76-10.66-22.6-8.35l-0.33,0.1c-1.21,0.36-2.52,0.15-3.6-0.56
			C290.5,69.73,279.8,78.92,276.87,81.96L276.87,81.96z"></path>
	</g>
	<g>
		<path class="st4 WIXxBWFx_32" d="M347.13,121.78c-3.18,0-5.76-2.59-5.76-5.76c0-3.18,2.59-5.76,5.76-5.76c3.18,0,5.76,2.59,5.76,5.76
			C352.89,119.19,350.31,121.78,347.13,121.78z M347.13,111.79c-2.33,0-4.23,1.9-4.23,4.23s1.9,4.23,4.23,4.23
			c2.33,0,4.23-1.9,4.23-4.23S349.46,111.79,347.13,111.79z"></path>
	</g>
	<g>
		<path class="st4 WIXxBWFx_33" d="M359.04,128.31c-2.23,0-4.05-1.82-4.05-4.05c0-2.23,1.82-4.05,4.05-4.05c2.23,0,4.05,1.82,4.05,4.05
			C363.09,126.5,361.27,128.31,359.04,128.31z M359.04,121.75c-1.38,0-2.51,1.13-2.51,2.51c0,1.38,1.13,2.51,2.51,2.51
			c1.38,0,2.51-1.13,2.51-2.51C361.55,122.88,360.43,121.75,359.04,121.75z"></path>
	</g>
	<g>
		<path class="st5 WIXxBWFx_34" d="M372.52,81.9c-3.97,0-7.99-1.35-11.27-4.89c-0.03-0.04-0.1-0.1-0.19-0.1c-4.02-0.17-13.6-1.1-15.79-6
			c-1.03-2.3-0.31-4.98,2.14-7.98c0.08-0.1,0.1-0.24,0.05-0.36c-0.68-1.6-1.56-4.73,0.24-7.63c1.9-3.08,6.23-4.85,12.86-5.26
			c0.09-0.01,0.18-0.04,0.23-0.09h0c1.69-1.76,10.76-10.13,22.75-2.25c0.09,0.06,0.2,0.08,0.28,0.06l0.22-0.07
			c10.01-2.95,16.35-0.43,18.86,7.5c0.03,0.09,0.1,0.16,0.19,0.2c3.69,1.33,9.89,4.2,9.99,8.46c0.07,3.09-2.94,5.87-9.22,8.48
			c-0.1,0.04-0.16,0.12-0.18,0.22c-0.25,1.24-1.38,5.46-5.52,7.75c-3.88,2.15-9.18,1.97-15.74-0.52c-0.1-0.04-0.2-0.03-0.28,0.01
			C379.33,80.9,375.95,81.9,372.52,81.9z M362.71,51.43c-0.51,0.53-1.22,0.85-1.98,0.9c-5.64,0.35-9.37,1.74-10.77,4.01
			c-1.17,1.89-0.53,4.07-0.05,5.2c0.44,1.03,0.27,2.21-0.44,3.07c-1.76,2.16-2.36,3.91-1.78,5.22c1.3,2.9,8.08,4.2,13.49,4.43
			c0.76,0.03,1.48,0.37,2.02,0.95c6.42,6.93,15.2,3.18,17.74,1.87c0.75-0.39,1.64-0.44,2.44-0.14c5.8,2.2,10.35,2.43,13.52,0.67
			c3.14-1.73,4.01-4.99,4.2-5.95c0.19-0.96,0.85-1.76,1.76-2.14c6.67-2.77,7.62-4.93,7.59-5.97c-0.05-1.87-3.28-4.24-8.24-6.03
			c-0.86-0.31-1.54-1.02-1.82-1.89c-2.68-8.49-10.17-7.35-15.58-5.76l-0.23,0.07c-0.83,0.24-1.74,0.1-2.48-0.38
			C372.11,42.99,364.73,49.33,362.71,51.43L362.71,51.43z"></path>
	</g>
	<g>
		<path class="st5 WIXxBWFx_35" d="M411.15,78.88c-2.19,0-3.97-1.78-3.97-3.97c0-2.19,1.78-3.97,3.97-3.97c2.19,0,3.97,1.78,3.97,3.97
			C415.12,77.1,413.34,78.88,411.15,78.88z M411.15,71.99c-1.61,0-2.91,1.31-2.91,2.91s1.31,2.91,2.91,2.91s2.91-1.31,2.91-2.91
			S412.76,71.99,411.15,71.99z"></path>
	</g>
	<g>
		<path class="st5 WIXxBWFx_36" d="M419.36,83.38c-1.54,0-2.79-1.25-2.79-2.79s1.25-2.79,2.79-2.79s2.79,1.25,2.79,2.79
			S420.9,83.38,419.36,83.38z M419.36,78.86c-0.95,0-1.73,0.78-1.73,1.73c0,0.95,0.78,1.73,1.73,1.73s1.73-0.78,1.73-1.73
			C421.1,79.64,420.32,78.86,419.36,78.86z"></path>
	</g>
	<g>
		<path class="st6 WIXxBWFx_37" d="M428.63,39.63c-0.08-0.04-0.19-0.05-0.28-0.01c-6.56,2.49-11.86,2.66-15.74,0.52
			c-4.14-2.29-5.27-6.51-5.52-7.75c-0.02-0.1-0.09-0.18-0.18-0.22c-6.28-2.61-9.3-5.39-9.22-8.48c0.1-4.26,6.31-7.13,9.99-8.46
			c0.09-0.03,0.16-0.11,0.19-0.2c2.5-7.93,8.85-10.45,18.86-7.5l0.22,0.07c0.09,0.03,0.19,0.01,0.28-0.06
			c12-7.88,21.06,0.49,22.75,2.25h0c0.05,0.05,0.14,0.09,0.23,0.09c6.63,0.41,10.96,2.18,12.86,5.26c1.79,2.9,0.92,6.03,0.24,7.63
			c-0.05,0.12-0.03,0.26,0.05,0.36c2.45,3,3.17,5.68,2.14,7.98c-2.19,4.9-11.78,5.83-15.79,6c-0.08,0-0.15,0.07-0.19,0.1
			c-3.28,3.54-7.3,4.89-11.27,4.89C434.84,42.09,431.45,41.09,428.63,39.63z M448.07,11.61c-2.02-2.1-9.4-8.44-19.39-1.87
			c-0.74,0.49-1.65,0.63-2.48,0.38l-0.23-0.07c-5.4-1.59-12.9-2.73-15.58,5.76c-0.28,0.87-0.96,1.58-1.82,1.89
			c-4.96,1.79-8.2,4.16-8.24,6.03c-0.03,1.04,0.93,3.2,7.59,5.97c0.91,0.38,1.57,1.18,1.76,2.14c0.19,0.96,1.07,4.22,4.2,5.95
			c3.17,1.75,7.72,1.53,13.52-0.67c0.8-0.3,1.69-0.25,2.44,0.14c2.54,1.31,11.32,5.06,17.74-1.87c0.54-0.58,1.25-0.92,2.02-0.95
			c5.41-0.23,12.19-1.53,13.49-4.43c0.59-1.31-0.01-3.06-1.78-5.22c-0.71-0.87-0.88-2.04-0.44-3.07c0.48-1.13,1.11-3.32-0.05-5.2
			c-1.4-2.27-5.13-3.66-10.77-4.01C449.29,12.47,448.59,12.15,448.07,11.61L448.07,11.61z"></path>
	</g>
	<g>
		<path class="st6 WIXxBWFx_38" d="M395.66,35.09c0-2.19,1.78-3.97,3.97-3.97c2.19,0,3.97,1.78,3.97,3.97s-1.78,3.97-3.97,3.97
			C397.44,39.07,395.66,37.28,395.66,35.09z M396.72,35.09c0,1.61,1.31,2.91,2.91,2.91c1.61,0,2.91-1.31,2.91-2.91
			s-1.31-2.91-2.91-2.91C398.02,32.18,396.72,33.48,396.72,35.09z"></path>
	</g>
	<g>
		<path class="st6 WIXxBWFx_39" d="M388.63,40.78c0-1.54,1.25-2.79,2.79-2.79c1.54,0,2.79,1.25,2.79,2.79s-1.25,2.79-2.79,2.79
			C389.88,43.57,388.63,42.32,388.63,40.78z M389.69,40.78c0,0.95,0.78,1.73,1.73,1.73c0.95,0,1.73-0.78,1.73-1.73
			c0-0.96-0.78-1.73-1.73-1.73C390.46,39.05,389.69,39.82,389.69,40.78z"></path>
	</g>
	<g>
		<path class="st7 WIXxBWFx_40" d="M502.26,87.02c-0.12-0.06-0.27-0.07-0.4-0.02c-9.39,3.56-16.97,3.81-22.53,0.74
			c-5.92-3.27-7.54-9.32-7.9-11.09c-0.03-0.14-0.13-0.26-0.26-0.31c-8.99-3.74-13.31-7.71-13.2-12.14
			c0.15-6.1,9.03-10.21,14.3-12.11c0.13-0.05,0.23-0.15,0.27-0.28c3.58-11.35,12.66-14.96,26.99-10.74l0.32,0.09
			c0.12,0.04,0.27,0.01,0.4-0.08c17.17-11.29,30.14,0.7,32.57,3.22h0c0.07,0.08,0.2,0.13,0.33,0.14c9.49,0.59,15.68,3.12,18.41,7.53
			c2.57,4.15,1.32,8.63,0.34,10.92c-0.07,0.17-0.05,0.37,0.08,0.51c3.51,4.29,4.54,8.13,3.07,11.42
			c-3.14,7.01-16.86,8.34-22.61,8.58c-0.12,0.01-0.22,0.09-0.27,0.15c-4.69,5.07-10.45,6.99-16.13,6.99
			C511.14,90.54,506.3,89.11,502.26,87.02z M530.09,46.93c-2.9-3-13.46-12.08-27.75-2.68c-1.06,0.7-2.36,0.9-3.55,0.55l-0.33-0.1
			c-7.74-2.28-18.46-3.91-22.3,8.24c-0.39,1.25-1.37,2.26-2.6,2.71c-7.1,2.56-11.74,5.95-11.8,8.64c-0.04,1.49,1.33,4.58,10.87,8.55
			c1.3,0.54,2.24,1.69,2.52,3.07c0.28,1.37,1.52,6.04,6.02,8.52c4.54,2.51,11.05,2.18,19.35-0.97c1.14-0.43,2.41-0.36,3.49,0.19
			c3.63,1.88,16.2,7.24,25.39-2.68c0.77-0.83,1.79-1.31,2.89-1.36c7.74-0.33,17.44-2.19,19.31-6.35c0.84-1.87-0.02-4.38-2.54-7.47
			c-1.02-1.24-1.26-2.93-0.63-4.4c0.69-1.62,1.59-4.75-0.08-7.45c-2.01-3.25-7.34-5.24-15.42-5.74
			C531.83,48.15,530.82,47.69,530.09,46.93L530.09,46.93z"></path>
	</g>
	<g>
		<path class="st7 WIXxBWFx_41" d="M455.06,80.53c0-3.14,2.55-5.69,5.69-5.69c3.14,0,5.69,2.55,5.69,5.69c0,3.14-2.55,5.69-5.69,5.69
			C457.61,86.22,455.06,83.67,455.06,80.53z M456.58,80.53c0,2.3,1.87,4.17,4.17,4.17c2.3,0,4.17-1.87,4.17-4.17
			s-1.87-4.17-4.17-4.17C458.45,76.36,456.58,78.23,456.58,80.53z"></path>
	</g>
	<g>
		<path class="st7 WIXxBWFx_42" d="M445,88.67c0-2.2,1.79-4,4-4c2.2,0,4,1.79,4,4s-1.79,4-4,4C446.79,92.67,445,90.87,445,88.67z M446.52,88.67
			c0,1.37,1.11,2.48,2.48,2.48c1.37,0,2.48-1.11,2.48-2.48c0-1.37-1.11-2.48-2.48-2.48C447.63,86.19,446.52,87.3,446.52,88.67z"></path>
	</g>
	<g>
		<path class="st8 WIXxBWFx_43" d="M499.88,19.27c-0.04-0.02-0.09-0.02-0.14-0.01c-3.3,1.25-5.97,1.34-7.92,0.26c-2.08-1.15-2.65-3.28-2.78-3.9
			c-0.01-0.05-0.04-0.09-0.09-0.11c-3.16-1.32-4.68-2.71-4.64-4.27c0.05-2.15,3.17-3.59,5.03-4.26c0.05-0.02,0.08-0.05,0.1-0.1
			c1.26-3.99,4.45-5.26,9.49-3.78l0.11,0.03c0.04,0.01,0.1,0,0.14-0.03c6.04-3.97,10.6,0.25,11.45,1.13h0
			c0.03,0.03,0.07,0.04,0.12,0.05c3.34,0.21,5.52,1.1,6.47,2.65c0.9,1.46,0.46,3.03,0.12,3.84c-0.03,0.06-0.02,0.13,0.03,0.18
			c1.23,1.51,1.6,2.86,1.08,4.02c-1.1,2.47-5.93,2.93-7.95,3.02c-0.04,0-0.08,0.03-0.09,0.05c-1.65,1.78-3.68,2.46-5.67,2.46
			C503,20.51,501.3,20,499.88,19.27z M509.66,5.17c-1.02-1.06-4.73-4.25-9.76-0.94c-0.37,0.25-0.83,0.32-1.25,0.19l-0.11-0.03
			c-2.72-0.8-6.49-1.37-7.84,2.9c-0.14,0.44-0.48,0.79-0.91,0.95c-2.5,0.9-4.13,2.09-4.15,3.04c-0.01,0.52,0.47,1.61,3.82,3.01
			c0.46,0.19,0.79,0.59,0.89,1.08c0.1,0.48,0.54,2.12,2.12,3c1.6,0.88,3.89,0.77,6.8-0.34c0.4-0.15,0.85-0.13,1.23,0.07
			c1.28,0.66,5.7,2.55,8.93-0.94c0.27-0.29,0.63-0.46,1.02-0.48c2.72-0.12,6.14-0.77,6.79-2.23c0.29-0.66-0.01-1.54-0.89-2.63
			c-0.36-0.44-0.44-1.03-0.22-1.55c0.24-0.57,0.56-1.67-0.03-2.62c-0.71-1.14-2.58-1.84-5.42-2.02
			C510.27,5.6,509.92,5.43,509.66,5.17L509.66,5.17z"></path>
	</g>
	<g>
		<path class="st8 WIXxBWFx_44" d="M483.28,16.98c0-1.1,0.9-2,2-2c1.1,0,2,0.9,2,2s-0.9,2-2,2C484.17,18.99,483.28,18.09,483.28,16.98z
			 M483.81,16.98c0,0.81,0.66,1.47,1.47,1.47s1.47-0.66,1.47-1.47s-0.66-1.47-1.47-1.47S483.81,16.18,483.81,16.98z"></path>
	</g>
	<g>
		<path class="st8 WIXxBWFx_45" d="M479.74,19.85c0-0.77,0.63-1.41,1.41-1.41s1.41,0.63,1.41,1.41c0,0.77-0.63,1.41-1.41,1.41
			S479.74,20.62,479.74,19.85z M480.27,19.85c0,0.48,0.39,0.87,0.87,0.87c0.48,0,0.87-0.39,0.87-0.87c0-0.48-0.39-0.87-0.87-0.87
			C480.66,18.98,480.27,19.37,480.27,19.85z"></path>
	</g>
	<g>
		<path class="st9 WIXxBWFx_46" d="M509.32,138.76c-0.06-0.03-0.14-0.03-0.21-0.01c-4.77,1.81-8.62,1.94-11.45,0.38
			c-3.01-1.66-3.83-4.73-4.02-5.64c-0.01-0.07-0.06-0.13-0.13-0.16c-4.57-1.9-6.76-3.92-6.71-6.17c0.07-3.1,4.59-5.19,7.27-6.16
			c0.07-0.02,0.12-0.08,0.14-0.14c1.82-5.77,6.43-7.6,13.71-5.46l0.16,0.05c0.06,0.02,0.14,0,0.2-0.04
			c8.72-5.73,15.32,0.35,16.55,1.63h0c0.04,0.04,0.1,0.06,0.17,0.07c4.82,0.3,7.97,1.59,9.35,3.83c1.31,2.11,0.67,4.38,0.17,5.55
			c-0.04,0.09-0.02,0.19,0.04,0.26c1.78,2.18,2.31,4.13,1.56,5.8c-1.6,3.56-8.57,4.24-11.49,4.36c-0.06,0-0.11,0.05-0.14,0.07
			c-2.39,2.57-5.31,3.55-8.2,3.55C513.83,140.55,511.37,139.82,509.32,138.76z M523.46,118.39c-1.47-1.53-6.84-6.14-14.1-1.36
			c-0.54,0.36-1.2,0.46-1.8,0.28l-0.17-0.05c-3.93-1.16-9.38-1.99-11.33,4.19c-0.2,0.63-0.69,1.15-1.32,1.38
			c-3.61,1.3-5.96,3.03-6,4.39c-0.02,0.76,0.67,2.33,5.52,4.35c0.66,0.28,1.14,0.86,1.28,1.56c0.14,0.7,0.77,3.07,3.06,4.33
			c2.31,1.27,5.61,1.11,9.83-0.49c0.58-0.22,1.23-0.18,1.77,0.1c1.85,0.95,8.23,3.68,12.9-1.36c0.39-0.42,0.91-0.67,1.47-0.69
			c3.93-0.17,8.86-1.11,9.81-3.22c0.43-0.95-0.01-2.23-1.29-3.8c-0.52-0.63-0.64-1.49-0.32-2.24c0.35-0.82,0.81-2.41-0.04-3.79
			c-1.02-1.65-3.73-2.66-7.83-2.92C524.34,119.01,523.83,118.77,523.46,118.39L523.46,118.39z"></path>
	</g>
	<g>
		<path class="st9 WIXxBWFx_47" d="M485.33,135.46c0-1.59,1.3-2.89,2.89-2.89s2.89,1.3,2.89,2.89s-1.3,2.89-2.89,2.89
			S485.33,137.06,485.33,135.46z M486.11,135.46c0,1.17,0.95,2.12,2.12,2.12s2.12-0.95,2.12-2.12s-0.95-2.12-2.12-2.12
			S486.11,134.29,486.11,135.46z"></path>
	</g>
	<g>
		<path class="st9 WIXxBWFx_48" d="M480.22,139.6c0-1.12,0.91-2.03,2.03-2.03s2.03,0.91,2.03,2.03c0,1.12-0.91,2.03-2.03,2.03
			S480.22,140.72,480.22,139.6z M480.99,139.6c0,0.69,0.57,1.26,1.26,1.26c0.69,0,1.26-0.57,1.26-1.26c0-0.69-0.57-1.26-1.26-1.26
			C481.56,138.34,480.99,138.9,480.99,139.6z"></path>
	</g>
	<g>
		<path class="st10 WIXxBWFx_49" d="M288.56,36.84c-2.96,0-5.95-1-8.4-3.64c-0.03-0.03-0.08-0.07-0.14-0.08c-2.99-0.13-10.13-0.82-11.77-4.47
			c-0.77-1.71-0.23-3.71,1.6-5.95c0.06-0.08,0.08-0.18,0.04-0.27c-0.51-1.2-1.16-3.52,0.18-5.69c1.42-2.29,4.64-3.61,9.58-3.92
			c0.07,0,0.13-0.03,0.17-0.07h0c1.26-1.31,8.02-7.55,16.95-1.67c0.07,0.05,0.15,0.06,0.21,0.04l0.17-0.05
			c7.46-2.2,12.18-0.32,14.05,5.59c0.02,0.07,0.07,0.12,0.14,0.15c2.75,0.99,7.37,3.13,7.45,6.31c0.06,2.31-2.19,4.37-6.87,6.32
			c-0.07,0.03-0.12,0.09-0.14,0.16c-0.19,0.92-1.03,4.07-4.11,5.77c-2.89,1.6-6.84,1.47-11.73-0.38c-0.07-0.03-0.15-0.02-0.21,0.01
			C293.62,36.09,291.11,36.84,288.56,36.84z M281.24,14.13c-0.38,0.4-0.91,0.64-1.47,0.67c-4.2,0.26-6.98,1.29-8.02,2.99
			c-0.87,1.41-0.4,3.03-0.04,3.88c0.33,0.77,0.2,1.64-0.33,2.29c-1.31,1.61-1.76,2.91-1.32,3.89c0.97,2.16,6.02,3.13,10.05,3.3
			c0.57,0.02,1.1,0.28,1.5,0.71c4.78,5.16,11.32,2.37,13.21,1.39c0.56-0.29,1.22-0.33,1.82-0.1c4.32,1.64,7.71,1.81,10.07,0.5
			c2.34-1.29,2.99-3.72,3.13-4.43c0.14-0.72,0.64-1.31,1.31-1.6c4.97-2.07,5.68-3.68,5.66-4.45c-0.03-1.4-2.44-3.16-6.14-4.5
			c-0.64-0.23-1.15-0.76-1.35-1.41c-2-6.32-7.58-5.48-11.61-4.29l-0.17,0.05c-0.62,0.18-1.3,0.08-1.85-0.29
			C288.25,7.85,282.75,12.57,281.24,14.13L281.24,14.13z"></path>
	</g>
	<g>
		<path class="st10 WIXxBWFx_50" d="M317.34,34.59c-1.63,0-2.96-1.33-2.96-2.96s1.33-2.96,2.96-2.96c1.63,0,2.96,1.33,2.96,2.96
			S318.97,34.59,317.34,34.59z M317.34,29.45c-1.2,0-2.17,0.97-2.17,2.17c0,1.2,0.97,2.17,2.17,2.17c1.2,0,2.17-0.97,2.17-2.17
			C319.51,30.43,318.53,29.45,317.34,29.45z"></path>
	</g>
	<g>
		<path class="st10 WIXxBWFx_51" d="M323.46,37.94c-1.15,0-2.08-0.93-2.08-2.08s0.93-2.08,2.08-2.08s2.08,0.93,2.08,2.08
			S324.6,37.94,323.46,37.94z M323.46,34.57c-0.71,0-1.29,0.58-1.29,1.29c0,0.71,0.58,1.29,1.29,1.29s1.29-0.58,1.29-1.29
			C324.75,35.15,324.17,34.57,323.46,34.57z"></path>
	</g>
	<g>
		<path class="st11 WIXxBWFx_52" d="M347.35,29.73c-2.01,0-4.04-0.68-5.7-2.47c-0.02-0.02-0.05-0.05-0.09-0.05c-2.03-0.09-6.88-0.56-7.98-3.03
			c-0.52-1.16-0.16-2.52,1.08-4.03c0.04-0.05,0.05-0.12,0.03-0.18c-0.34-0.81-0.79-2.39,0.12-3.86c0.96-1.56,3.15-2.45,6.5-2.66
			c0.05,0,0.09-0.02,0.12-0.05h0c0.86-0.89,5.44-5.12,11.5-1.14c0.05,0.03,0.1,0.04,0.14,0.03l0.11-0.03
			c5.06-1.49,8.27-0.22,9.53,3.79c0.01,0.05,0.05,0.08,0.1,0.1c1.86,0.67,5,2.12,5.05,4.28c0.04,1.56-1.49,2.97-4.66,4.29
			c-0.05,0.02-0.08,0.06-0.09,0.11c-0.13,0.63-0.7,2.76-2.79,3.92c-1.96,1.09-4.64,1-7.96-0.26c-0.05-0.02-0.1-0.02-0.14,0.01
			C350.79,29.22,349.08,29.73,347.35,29.73z M342.39,14.32c-0.26,0.27-0.61,0.43-1,0.46c-2.85,0.18-4.73,0.88-5.44,2.03
			c-0.59,0.95-0.27,2.06-0.03,2.63c0.22,0.52,0.14,1.12-0.22,1.55c-0.89,1.09-1.19,1.98-0.9,2.64c0.66,1.47,4.08,2.12,6.82,2.24
			c0.39,0.02,0.75,0.19,1.02,0.48c3.24,3.5,7.68,1.61,8.97,0.95c0.38-0.2,0.83-0.22,1.23-0.07c2.93,1.11,5.23,1.23,6.83,0.34
			c1.59-0.88,2.03-2.52,2.13-3.01c0.1-0.49,0.43-0.89,0.89-1.08c3.37-1.4,3.85-2.49,3.84-3.02c-0.02-0.95-1.66-2.15-4.17-3.05
			c-0.44-0.16-0.78-0.51-0.92-0.96c-1.36-4.29-5.14-3.72-7.88-2.91l-0.12,0.03c-0.42,0.12-0.88,0.05-1.25-0.19
			C347.14,10.06,343.41,13.26,342.39,14.32L342.39,14.32z"></path>
	</g>
	<g>
		<path class="st11 WIXxBWFx_53" d="M366.88,28.2c-1.11,0-2.01-0.9-2.01-2.01c0-1.11,0.9-2.01,2.01-2.01s2.01,0.9,2.01,2.01
			C368.89,27.3,367.98,28.2,366.88,28.2z M366.88,24.72c-0.81,0-1.47,0.66-1.47,1.47s0.66,1.47,1.47,1.47s1.47-0.66,1.47-1.47
			S367.69,24.72,366.88,24.72z"></path>
	</g>
	<g>
		<path class="st11 WIXxBWFx_54" d="M371.03,30.48c-0.78,0-1.41-0.63-1.41-1.41s0.63-1.41,1.41-1.41s1.41,0.63,1.41,1.41
			S371.81,30.48,371.03,30.48z M371.03,28.19c-0.48,0-0.88,0.39-0.88,0.88c0,0.48,0.39,0.88,0.88,0.88c0.48,0,0.88-0.39,0.88-0.88
			C371.9,28.58,371.51,28.19,371.03,28.19z"></path>
	</g>
</g>
<g id="heads">
	<path id="head1" class="st12 WIXxBWFx_55" d="M578.24,249.12c0,0-408.67,0.26-426.09-0.51c-26.9-2.56-33.56-14.6-35.87-28.18
		s0.77-19.22,8.46-25.88c26.13-23.32,16.53-67.26-3.07-78.53c-53.93-27.67-77.19,14.16-77.95,15.95s-1.47,2.95-2.05,4.68
		s-0.06,2.95-0.26,5.44c-0.19,2.5-0.7,5.19-1.41,6.73c-0.7,1.54-0.51,3.01-0.58,5.25c-0.06,2.24,0.45,5.51-0.26,6.98
		c-0.7,1.47-9.54,11.98-10.63,13.32c-1.09,1.35-3.27,4.93,1.15,6.21c8.46,1.86,6.92,3.27,5.96,4.61c-0.96,1.35-0.77,3.2-0.77,5.06
		s5.51,2.31,4.55,2.63c-0.96,0.32-3.14,1.79-2.88,3.2c0.26,1.41,2.56,2.43,3.65,5.12c1.79,5.25-1.92,5.12-0.77,8.97
		c1.92,5,6.53,8.46,19.99,4.61c34.21-7.3,30.75-21.52,30.75-21.52"></path>
	<path id="head2" class="st12 WIXxBWFx_56" d="M3.54,249.16c0,0,101.21,0.04,108.12,0c6.92-0.04,34.33-4.91,38.69-25.15
		c4.36-20.24,7.43-55.6-5.12-70.46c-12.55-14.86-23.57-28.44-21.27-49.71s35.87-63.29,87.63-31c15.37,10.25,12.81,28.7,13.07,30.75
		c0.26,2.05,3.84,3.59,2.05,12.3c0.51,3.33,11.27,13.07,11.02,15.37c-0.26,2.31-3.59,4.61-6.66,4.87s-1.02,5.64-1.02,7.69
		c0,2.05-4.36,2.31-4.1,3.84c0.26,1.54,2.82,3.59,0.77,6.15c-2.05,2.56-0.51,8.2-1.28,11.79s-5.12,7.69-14.86,5.12
		c-9.74-2.56-34.08-6.41-34.33-22.55"></path>
</g>
<style data-made-by="inens.com">.WIXxBWFx_0{stroke-dasharray:90 92;stroke-dashoffset:91;animation:WIXxBWFx_draw 0000ms linear 0ms forwards;}

	.WIXxBWFx_55{stroke-dasharray:842 844;stroke-dashoffset:843;animation:WIXxBWFx_draw 3000ms ease-out 0ms  forwards;}
	.WIXxBWFx_56{stroke-dasharray:568 570;stroke-dashoffset:569;animation:WIXxBWFx_draw 3000ms ease-out 0ms  forwards;}@keyframes WIXxBWFx_draw{100%{stroke-dashoffset:0;}}@keyframes WIXxBWFx_fade{0%{stroke-opacity:1;}93.54838709677419%{stroke-opacity:1;}100%{stroke-opacity:0;}}</style></svg>
