<!--?xml version="1.0" encoding="utf-8"?-->
<!-- Generator: Adobe Illustrator 21.0.0, SVG Export Plug-In . SVG Version: 6.00 Build 0)  -->
<svg version="1.1" id="Layer_1" xmlns="http://www.w3.org/2000/svg" xmlns:xlink="http://www.w3.org/1999/xlink" x="0px" y="0px" viewBox="0 0 640 300" style="" xml:space="preserve">
<style type="text/css">
	.st0{fill:#EED792;stroke:#684C07;stroke-width:1;stroke-miterlimit:10;}
	.st01{fill:#EED792;stroke:#684C07;stroke-width:.5;stroke-miterlimit:10;}
	.st1{fill:#EED792;}
	.st2{fill:#F6D394;}
	.st3{fill:#E87F70;

	animation-name: st3a; animation-delay:.2s; animation-duration: 3s;  animation-fill-mode: freeze;	opacity:0;
	animation: st3a 4.5s infinite linear;
	}
	@keyframes st3a {  from {top: 0px;}  to {top: 200px;fill:#E87F70;opacity:1; }}
	.st4{fill:#154484;

	animation-name: st4a; animation-delay:1.2s; animation-duration: 3s;  animation-fill-mode: freeze;	opacity:0;
	animation: st4a 2s infinite linear;	}
	@keyframes st4a {  from {top: 0px;}  to {top: 200px;fill:#154484;opacity:1; }}
	.st5{fill:#F0C8C7;
	animation-name: st5a; animation-delay:.2s; animation-duration: 3s;  animation-fill-mode: forwards;	opacity:0;
	animation: st5a 4s infinite linear;	}
	@keyframes st5a {  from {top: 0px;}  to {top: 200px;fill:#F0C8C7;opacity:1; }}
	.st6{fill:#FFF263;
	animation-name: st6a; animation-delay:.4s; animation-duration: 2s;  animation-fill-mode: forwards;	opacity:0;
	animation: st6a 5s infinite linear;	}
	@keyframes st6a {  from {top: 0px;}  to {top: 200px;fill:#FFF263;opacity:1; }}
	.st7{fill:#AA8E6C;
	animation-name: st7a;animation-delay:1s;  animation-duration: 2s;  animation-fill-mode: forwards;	opacity:0;
	animation: st7a 5s infinite linear;		}
	@keyframes st7a {  from {top: 0px;}  to {top: 200px;fill:#AA8E6C;opacity:1; }}
	.st8{fill:#A6DADD;
	animation-name: st8a; animation-delay:0s;  animation-duration: 2s;  animation-fill-mode: forwards;	opacity:0;
	animation: st8a 5s infinite linear;		}
	@keyframes st8a {  from {top: 0px;}  to {top: 200px;fill:#A6DADD;opacity:1; }	}
	.st9{fill:#CD5C51;
	animation-name: st9a; animation-delay:1.8s;  animation-duration: 2s;  animation-fill-mode: forwards;	opacity:0;
	animation: st9a 5s infinite linear;		}
	@keyframes st9a {  from {top: 0px;}  to {top: 200px;fill:#CD5C51;opacity:1; }	}
	.st10{fill:#92CE6F;
	animation-name: st10a; animation-delay:1.5s;  animation-duration: 2s;  animation-fill-mode: forwards;	opacity:0;
	animation: st9a 5s infinite linear;		}
	@keyframes st10a {  from {top: 0px;}  to {top: 200px;fill:#CD5C51;opacity:1; }}
	.st11{fill:none;stroke:#FAD182;stroke-width:3;stroke-miterlimit:10;}
	.st12{fill:#FAD182;}
</style>
<g id="heresays">
	<path id="h" class="st0 kRVNUFjN_0" d="M232,149h17v17h15v-11.3c-1.5-1.1-3.1-2-4.9-2.8s-3.8-1.4-6.1-1.9v-0.4c4.7,0,9.4,0,14-0.1
		c4.6,0,9.3-0.1,14-0.1v48.1c1.6,1.1,3.3,2.1,5.3,2.9c2,0.9,4.2,1.5,6.7,2.1v0.3h-28v-31h-16v25.4c1.4,1.1,3.1,2,4.9,2.9
		c1.8,0.8,3.9,1.5,6.1,2v0.8h-28V149z"></path>
	<path id="e_1_" class="st0 kRVNUFjN_1" d="M397,158.6V172h-0.5c-0.4-1.9-0.9-3.6-1.5-5s-1.4-2.8-2.2-4H383v12h11v5h-11v15h12.6
		c0.8-1.2,1.6-2.5,2.2-4c0.6-1.5,1.1-3.1,1.5-5h0.6v14h-30v-36.8c-1.2-0.8-2.5-1.5-4-2.1c-1.5-0.6-3.1-1.1-5-1.4v-1
		c6.2,0,12.2,0,18.1,0C385,158.6,391,158.6,397,158.6z"></path>
	<path id="r" class="st0 kRVNUFjN_2" d="M342.5,154.1c3.1,0,6.1,0.3,8.8,0.8c2.7,0.5,5.1,1.3,7.2,2.4c2.1,1.1,3.7,2.4,4.9,4.1
		c1.2,1.7,1.8,3.7,1.8,6c0,2.8-0.9,5.1-2.6,6.9c-1.7,1.8-4,3.2-6.8,4.3l14.2,24.7c1.3,0.8,2.6,1.4,4.1,2c1.5,0.6,3.1,1,5,1.4v0.8
		c-4.1,0-8.2,0-12.2,0c-4.1,0-8.1,0-12.3,0L339,180.6v18.6c1.5,1,3.1,1.9,4.9,2.7s3.8,1.4,6.1,1.8v0.4c-4.4,0-8.7,0-13,0
		s-8.6,0-13,0v-43.1c-1.3-1-2.8-1.8-4.4-2.6c-1.6-0.7-3.5-1.3-5.6-1.7v-0.7c2.6,0,5.2-0.1,7.6-0.3s4.8-0.4,7.2-0.7s4.6-0.5,6.9-0.7
		C338,154.2,340.2,154.1,342.5,154.1z M340,177h0.6c2.9-0.6,5.2-1.6,7-3.1c1.8-1.5,2.7-3.6,2.7-6.2c0-2.7-1-4.9-2.9-6.4
		c-1.9-1.5-4.4-2.5-7.4-3L340,177L340,177z"></path>
	<path id="s" class="st0 kRVNUFjN_3" d="M434.5,171c-0.5-2.4-1.2-4.6-2.1-6.5s-2-3.5-3.2-4.9c-1.6-1.8-3.6-2.6-6.1-2.6c-1.1,0.1-2.1,0.4-3,0.9
		s-1.7,1.1-2.3,1.9c-0.6,0.8-1.1,1.6-1.5,2.5s-0.5,1.7-0.5,2.6c0,1.1,0.4,2.2,1.1,3.1s1.6,1.8,2.8,2.7s2.5,1.6,4,2.4
		c1.5,0.7,3,1.4,4.6,2.1c2.4,1,4.5,2.3,6.5,3.9c1.9,1.6,3.3,3.9,4,6.9c0.2,1.1,0.3,2,0.3,2.9c0,2.3-0.5,4.5-1.5,6.6
		c-1,2-2.4,3.7-4.1,4.9c-1.7,1.3-3.7,2.3-6,3c-2.3,0.8-4.8,1.1-7.4,1.1c-2.6,0-5.1-0.4-7.6-1.3c-2.5-0.9-4.7-2.3-6.6-4.4L402,201
		v-15h0.6c0.2,0.9,0.5,2,0.8,3.1c0.3,1.1,0.7,2.2,1.2,3.3c0.5,1.1,1,2.1,1.6,3.1c0.6,1,1.3,1.8,2.2,2.4c0.8,0.7,1.8,1.2,2.8,1.5
		c1,0.3,2,0.4,3,0.4c1.7,0,3.4-0.4,5-1.1c1.6-0.8,2.8-1.8,3.6-3.1c0.6-1,0.9-1.9,0.8-2.8c-0.1-0.9-0.5-1.6-1.1-2.4
		c-0.6-0.7-1.4-1.4-2.4-2s-2-1.1-3.1-1.7c-1.6-0.8-3.3-1.6-5-2.6c-1.7-1-3.3-2.2-4.7-3.7c-1.4-1.4-2.6-3.2-3.5-5.3
		c-0.9-2.1-1.4-4.5-1.4-7.3c0-2.3,0.5-4.3,1.5-6.2s2.4-3.4,4.1-4.8c1.7-1.3,3.6-2.3,5.7-3s4.3-1,6.4-1c2.3,0,4.4,0.4,6.5,1.2
		c2.1,0.8,3.8,2.1,5.1,4l3.4-1.9v15H434.5z"></path>
	<path id="y" class="st0 kRVNUFjN_4" d="M501.4,154.9l10.4,15.7l6.9-11.4c-2.6-1.6-5.8-2.8-9.6-3.6V155c3.2,0,6.3,0,9.4,0.1s6.1,0.1,9.2,0.1
		L514,177.4V207l-27-0.1v-0.6c4.4-0.9,8-2.5,11-4.6v-24.1l-12.6-19.2c-2.5-1.2-5.3-2.1-8.4-2.8V155L501.4,154.9z"></path>
	<path id="s_1_" class="st0 kRVNUFjN_5" d="M564.4,170c-0.7-3.3-1.6-6.1-2.8-8.6c-1.2-2.5-2.6-4.7-4.2-6.6c-2.1-2.4-4.8-3.5-7.9-3.4
		c-1.4,0.1-2.7,0.5-3.9,1.1s-2.2,1.5-3,2.6s-1.5,2.2-1.9,3.3c-0.4,1.2-0.6,2.3-0.6,3.4c0,1.5,0.5,2.9,1.4,4.1
		c0.9,1.3,2.1,2.4,3.7,3.6c1.5,1.1,3.2,2.2,5.2,3.1c1.9,1,4,1.9,6,2.8c3.1,1.3,5.9,3.1,8.5,5.2s4.2,5.2,5.2,9.3
		c0.3,1.4,0.4,2.7,0.4,3.9c0,3.1-0.7,6-2,8.7c-1.3,2.7-3.1,4.9-5.3,6.6c-2.2,1.7-4.8,3-7.8,4c-3,1-6.2,1.5-9.6,1.5
		c-3.4,0-6.7-0.6-9.9-1.7c-3.2-1.1-6.1-3.1-8.6-5.9l-5,2.8v-20h0.8c0.3,1.3,0.6,2.6,1,4.1s1,2.9,1.6,4.3s1.3,2.8,2.1,4.1
		s1.7,2.4,2.8,3.2c1.1,0.9,2.3,1.6,3.6,1.9c1.3,0.4,2.6,0.6,4,0.6c2.3,0,4.4-0.5,6.5-1.5s3.6-2.4,4.7-4.2c0.8-1.4,1.2-2.6,1-3.7
		c-0.2-1.1-0.7-2.2-1.5-3.1s-1.8-1.9-3.2-2.6c-1.3-0.8-2.7-1.5-4.1-2.2c-2.1-1-4.3-2.2-6.5-3.5c-2.2-1.3-4.3-3-6.1-4.9
		c-1.8-1.9-3.4-4.3-4.6-7c-1.2-2.7-1.8-6-1.8-9.8c0-3,0.7-5.8,2-8.3c1.3-2.5,3.1-4.6,5.3-6.4c2.2-1.8,4.7-3.1,7.4-4s5.5-1.4,8.3-1.4
		c2.9,0,5.8,0.6,8.5,1.6c2.7,1.1,4.9,2.9,6.7,5.3l4.4-2.5v20H564.4z"></path>
	<path id="a" class="st0 kRVNUFjN_6" d="M463.1,152h0.9l26.8,55c-5.5,0-10.9,0-16.4-0.1c-5.5,0-10.9-0.1-16.4-0.1v-0.6c2.3-0.5,4.3-1.1,6.1-1.8
		s3.4-1.6,5-2.6l-2.5-4.9H443l-2.3,5.2c1.4,0.9,3,1.7,4.7,2.4s3.6,1.3,5.6,1.7v0.6c-6.3,0-12.6,0.1-19,0.4l22.6-50.3
		c-1.4-1-3-1.9-4.7-2.5s-3.7-1.3-5.9-1.7V152H463.1z M463.4,191l-9.4-19.2l-9,19.2H463.4z"></path>
	<path id="e" class="st0 kRVNUFjN_7" d="M316,156.3V170h-0.5c-0.4-1.9-0.9-3.6-1.5-5s-1.4-2.8-2.2-4H302v13h11v5h-11v15h12.6
		c0.8-1.2,1.6-2.5,2.2-4c0.6-1.5,1.1-3.1,1.5-5h1.6v14h-31v-38.9c-1.2-0.9-2.5-1.6-4-2.2s-3.1-1.1-5-1.5l0,0c6.2,0,12.2,0,18.1,0
		C304,156.3,310,156.3,316,156.3z"></path>
</g>
<g id="Layer_4">
	<path id="e1" class="st1 kRVNUFjN_8" d="M543.9,131.3c0,0,8.2-36.2,50.9-22.6c24.2,9,44,31.9,32.5,78c-5.4,19-10.4,22.1-19.2,30.2
		c-8.8,8.1-29.4,34.2-31.9,35.7c-2.5,1.5-24.6,8.3-34.4-14.4c0,0.2,1.9,21.1,29.8,19c11.7-2.1,18.1-15,21.3-18.3
		c3.3-3.3,19.2-19.6,25.2-24.2s13.8-19.6,15.4-39.2c1.5-19.6,1.7-40-18.8-58.2C594,99.1,551.8,95.6,543.9,131.3z"></path>
	<path id="e2" class="st2 kRVNUFjN_9" d="M613,137.1c0,0-16.7-18.1-39-12.7c-7.9,2.2-16.9,9.6-15.8,25.2c0.3,0.6-0.8,1.1-0.8,1.1l-2.7-1.8
		c0,0-1-21.7,16.8-26.1C583.4,119.9,602.3,123.1,613,137.1z"></path>
	<path id="e4" class="st1 kRVNUFjN_10" d="M567.9,156.1c0,0,16.1,7.1,23.6,8.8s16.5,16.3,4.7,31.4c-4.7,6.5-10.8,7.6-15.5,8.6
		s-16.1,6.5-18.2,8.3c-0.1,0.1,5.8-6.7,17.4-9.5c11.6-2.8,21.5-17.9,17.2-29.1S573.8,162.4,567.9,156.1z"></path>
	<g id="e5">
		<path class="st1 kRVNUFjN_11" d="M616.9,154.1c2.1,5.8,3,12.1,2.9,18.3c0,3.1-0.4,6.3-1,9.4c-0.6,3.1-1.5,6.1-2.6,9.1
			c-1.2,2.9-2.7,5.7-4.4,8.4c-1.7,2.6-3.7,5.1-5.9,7.3c-4.4,4.4-9.7,8-15.3,10.5c5-3.6,9.6-7.6,13.6-12.1c3.9-4.6,7-9.7,9.2-15.3
			c2.2-5.5,3.5-11.4,4-17.4C618,166.3,617.8,160.1,616.9,154.1z"></path>
	</g>
</g>
<g id="chatheads" class="chatheads">
	<g>
		<path class="st3  " d="M291.1,126.2c-5.8,0-11.6-1.9-16.4-7.1c0-0.1-0.1-0.1-0.3-0.2c-5.8-0.3-19.7-1.6-22.9-8.7
			c-1.5-3.3-0.4-7.2,3.1-11.6c0.1-0.2,0.1-0.3,0.1-0.5c-1-2.3-2.3-6.9,0.4-11.1c2.8-4.5,9-7,18.6-7.6c0.1,0,0.3-0.1,0.3-0.1l0,0
			c2.5-2.6,15.6-14.7,33-3.3c0.1,0.1,0.3,0.1,0.4,0.1l0.3-0.1c14.5-4.3,23.7-0.6,27.4,10.9c0,0.1,0.1,0.2,0.3,0.3
			c5.4,1.9,14.4,6.1,14.5,12.3c0.1,4.5-4.3,8.5-13.4,12.3c-0.1,0.1-0.2,0.2-0.3,0.3c-0.4,1.8-2,7.9-8,11.2
			c-5.6,3.1-13.3,2.9-22.8-0.8c-0.1-0.1-0.3-0.1-0.4,0C301,124.7,296.1,126.2,291.1,126.2z M276.9,82c-0.8,0.8-1.8,1.2-2.9,1.3
			c-8.2,0.5-13.6,2.5-15.6,5.8c-1.7,2.7-0.8,5.9-0.1,7.6c0.6,1.5,0.4,3.2-0.6,4.5c-2.6,3.1-3.4,5.7-2.6,7.6
			c1.9,4.2,11.7,6.1,19.6,6.4c1.1,0.1,2.1,0.5,2.9,1.4c9.3,10.1,22,4.6,25.7,2.7c1.1-0.6,2.4-0.6,3.5-0.2c8.4,3.2,15,3.5,19.6,1
			c4.5-2.5,5.8-7.2,6.1-8.6c0.3-1.4,1.2-2.6,2.6-3.1c9.7-4,11-7.2,11-8.7c-0.1-2.7-4.8-6.2-12-8.8c-1.3-0.4-2.2-1.5-2.6-2.7
			c-3.9-12.3-14.8-10.7-22.6-8.3l-0.3,0.1c-1.2,0.4-2.5,0.2-3.6-0.6C290.5,69.7,279.8,78.9,276.9,82L276.9,82z"></path>
	</g>
	<g>
		<path class="st3  " d="M347.1,121.8c-3.2,0-5.8-2.6-5.8-5.8c0-3.2,2.6-5.8,5.8-5.8c3.2,0,5.8,2.6,5.8,5.8S350.3,121.8,347.1,121.8z
			 M347.1,111.8c-2.3,0-4.2,1.9-4.2,4.2s1.9,4.2,4.2,4.2c2.3,0,4.2-1.9,4.2-4.2S349.5,111.8,347.1,111.8z"></path>
	</g>
	<g>
		<path class="st3  " d="M359,128.3c-2.2,0-4-1.8-4-4.1s1.8-4.1,4-4.1c2.2,0,4,1.8,4,4.1C363.1,126.5,361.3,128.3,359,128.3z
			 M359,121.8c-1.4,0-2.5,1.1-2.5,2.5c0,1.4,1.1,2.5,2.5,2.5s2.5-1.1,2.5-2.5C361.5,122.9,360.4,121.8,359,121.8z"></path>
	</g>
	<g>
		<path class="st4  " d="M372.5,81.9c-4,0-8-1.3-11.3-4.9c0,0-0.1-0.1-0.2-0.1c-4-0.2-13.6-1.1-15.8-6c-1-2.3-0.3-5,2.1-8
			c0.1-0.1,0.1-0.2,0-0.4c-0.7-1.6-1.6-4.7,0.2-7.6c1.9-3.1,6.2-4.8,12.9-5.3c0.1,0,0.2,0,0.2-0.1l0,0c1.7-1.8,10.8-10.1,22.8-2.3
			c0.1,0.1,0.2,0.1,0.3,0.1l0.2-0.1c10-3,16.4-0.4,18.9,7.5c0,0.1,0.1,0.2,0.2,0.2c3.7,1.3,9.9,4.2,10,8.5c0.1,3.1-2.9,5.9-9.2,8.5
			c-0.1,0-0.2,0.1-0.2,0.2c-0.3,1.2-1.4,5.5-5.5,7.8c-3.9,2.2-9.2,2-15.7-0.5c-0.1,0-0.2,0-0.3,0C379.3,80.9,376,81.9,372.5,81.9z
			 M362.7,51.4c-0.5,0.5-1.2,0.8-2,0.9c-5.6,0.3-9.4,1.7-10.8,4c-1.2,1.9-0.5,4.1,0,5.2c0.4,1,0.3,2.2-0.4,3.1
			c-1.8,2.2-2.4,3.9-1.8,5.2c1.3,2.9,8.1,4.2,13.5,4.4c0.8,0,1.5,0.4,2,0.9c6.4,6.9,15.2,3.2,17.7,1.9c0.8-0.4,1.6-0.4,2.4-0.1
			c5.8,2.2,10.4,2.4,13.5,0.7c3.1-1.7,4-5,4.2-5.9s0.9-1.8,1.8-2.1c6.7-2.8,7.6-4.9,7.6-6c0-1.9-3.3-4.2-8.2-6
			c-0.9-0.3-1.5-1-1.8-1.9c-2.7-8.5-10.2-7.3-15.6-5.8l-0.2,0.1c-0.8,0.2-1.7,0.1-2.5-0.4C372.1,43,364.7,49.3,362.7,51.4
			L362.7,51.4z"></path>
	</g>
	<g>
		<path class="st4  " d="M411.1,78.9c-2.2,0-4-1.8-4-4s1.8-4,4-4s4,1.8,4,4S413.3,78.9,411.1,78.9z M411.1,72c-1.6,0-2.9,1.3-2.9,2.9
			s1.3,2.9,2.9,2.9s2.9-1.3,2.9-2.9S412.8,72,411.1,72z"></path>
	</g>
	<g>
		<path class="st4  " d="M419.4,83.4c-1.5,0-2.8-1.3-2.8-2.8s1.3-2.8,2.8-2.8s2.8,1.3,2.8,2.8S420.9,83.4,419.4,83.4z M419.4,78.9
			c-1,0-1.7,0.8-1.7,1.7c0,0.9,0.8,1.7,1.7,1.7s1.7-0.8,1.7-1.7C421.1,79.6,420.3,78.9,419.4,78.9z"></path>
	</g>
	<g>
		<path class="st5  " d="M428.6,39.6c-0.1,0-0.2,0-0.3,0c-6.6,2.5-11.9,2.7-15.7,0.5c-4.1-2.3-5.3-6.5-5.5-7.8c0-0.1-0.1-0.2-0.2-0.2
			c-6.3-2.6-9.3-5.4-9.2-8.5c0.1-4.3,6.3-7.1,10-8.5c0.1,0,0.2-0.1,0.2-0.2c2.5-7.9,8.9-10.4,18.9-7.5l0.2,0.1c0.1,0,0.2,0,0.3-0.1
			c12-7.9,21.1,0.5,22.8,2.3l0,0c0,0.1,0.1,0.1,0.2,0.1c6.6,0.4,11,2.2,12.9,5.3c1.8,2.9,0.9,6,0.2,7.6c0,0.1,0,0.3,0,0.4
			c2.5,3,3.2,5.7,2.1,8c-2.2,4.9-11.8,5.8-15.8,6c-0.1,0-0.1,0.1-0.2,0.1c-3.3,3.5-7.3,4.9-11.3,4.9
			C434.8,42.1,431.5,41.1,428.6,39.6z M448.1,11.6c-2-2.1-9.4-8.4-19.4-1.9c-0.7,0.5-1.6,0.6-2.5,0.4l-0.2-0.1
			c-5.4-1.6-12.9-2.7-15.6,5.8c-0.3,0.9-1,1.6-1.8,1.9c-5,1.8-8.2,4.2-8.2,6c0,1,0.9,3.2,7.6,6c0.9,0.4,1.6,1.2,1.8,2.1
			s1.1,4.2,4.2,6c3.2,1.8,7.7,1.5,13.5-0.7c0.8-0.3,1.7-0.3,2.4,0.1c2.5,1.3,11.3,5.1,17.7-1.9c0.5-0.6,1.3-0.9,2-1
			c5.4-0.2,12.2-1.5,13.5-4.4c0.6-1.3,0-3.1-1.8-5.2c-0.7-0.9-0.9-2-0.4-3.1c0.5-1.1,1.1-3.3,0-5.2c-1.4-2.3-5.1-3.7-10.8-4
			C449.3,12.5,448.6,12.1,448.1,11.6L448.1,11.6z"></path>
	</g>
	<g>
		<path class="st5  " d="M395.7,35.1c0-2.2,1.8-4,4-4s4,1.8,4,4s-1.8,4-4,4C397.4,39.1,395.7,37.3,395.7,35.1z M396.7,35.1
			c0,1.6,1.3,2.9,2.9,2.9c1.6,0,2.9-1.3,2.9-2.9s-1.3-2.9-2.9-2.9C398,32.2,396.7,33.5,396.7,35.1z"></path>
	</g>
	<g>
		<path class="st5  " d="M388.6,40.8c0-1.5,1.3-2.8,2.8-2.8s2.8,1.3,2.8,2.8s-1.3,2.8-2.8,2.8S388.6,42.3,388.6,40.8z M389.7,40.8
			c0,1,0.8,1.7,1.7,1.7s1.7-0.8,1.7-1.7c0-1-0.8-1.7-1.7-1.7C390.5,39,389.7,39.8,389.7,40.8z"></path>
	</g>
	<g>
		<path class="st6  " d="M502.3,87c-0.1-0.1-0.3-0.1-0.4,0c-9.4,3.6-17,3.8-22.5,0.7c-5.9-3.3-7.5-9.3-7.9-11.1c0-0.1-0.1-0.3-0.3-0.3
			c-9-3.7-13.3-7.7-13.2-12.1c0.1-6.1,9-10.2,14.3-12.1c0.1,0,0.2-0.2,0.3-0.3c3.6-11.3,12.7-15,27-10.7l0.3,0.1
			c0.1,0,0.3,0,0.4-0.1c17.2-11.3,30.1,0.7,32.6,3.2l0,0c0.1,0.1,0.2,0.1,0.3,0.1c9.5,0.6,15.7,3.1,18.4,7.5
			c2.6,4.2,1.3,8.6,0.3,10.9c-0.1,0.2,0,0.4,0.1,0.5c3.5,4.3,4.5,8.1,3.1,11.4c-3.1,7-16.9,8.3-22.6,8.6c-0.1,0-0.2,0.1-0.3,0.2
			c-4.7,5.1-10.5,7-16.1,7C511.1,90.5,506.3,89.1,502.3,87z M530.1,46.9c-2.9-3-13.5-12.1-27.8-2.7c-1.1,0.7-2.4,0.9-3.5,0.5
			l-0.3-0.1c-7.7-2.3-18.5-3.9-22.3,8.2c-0.4,1.3-1.4,2.3-2.6,2.7c-7.1,2.6-11.7,6-11.8,8.6c0,1.5,1.3,4.6,10.9,8.6
			c1.3,0.5,2.2,1.7,2.5,3.1c0.3,1.4,1.5,6,6,8.5c4.5,2.5,11,2.2,19.4-1c1.1-0.4,2.4-0.4,3.5,0.2c3.6,1.9,16.2,7.2,25.4-2.7
			c0.8-0.8,1.8-1.3,2.9-1.4c7.7-0.3,17.4-2.2,19.3-6.3c0.8-1.9,0-4.4-2.5-7.5c-1-1.2-1.3-2.9-0.6-4.4c0.7-1.6,1.6-4.8-0.1-7.5
			c-2-3.3-7.3-5.2-15.4-5.7C531.8,48.2,530.8,47.7,530.1,46.9L530.1,46.9z"></path>
	</g>
	<g>
		<path class="st6 " d="M455.1,80.5c0-3.1,2.5-5.7,5.7-5.7s5.7,2.6,5.7,5.7s-2.5,5.7-5.7,5.7S455.1,83.7,455.1,80.5z M456.6,80.5
			c0,2.3,1.9,4.2,4.2,4.2c2.3,0,4.2-1.9,4.2-4.2s-1.9-4.2-4.2-4.2C458.5,76.4,456.6,78.2,456.6,80.5z"></path>
	</g>
	<g>
		<path class="st6 " d="M445,88.7c0-2.2,1.8-4,4-4c2.2,0,4,1.8,4,4s-1.8,4-4,4S445,90.9,445,88.7z M446.5,88.7c0,1.4,1.1,2.5,2.5,2.5
			c1.4,0,2.5-1.1,2.5-2.5s-1.1-2.5-2.5-2.5C447.6,86.2,446.5,87.3,446.5,88.7z"></path>
	</g>
	<g>
		<path class="st7 " d="M499.9,19.3c0,0-0.1,0-0.1,0c-3.3,1.3-6,1.3-7.9,0.3c-2.1-1.1-2.6-3.3-2.8-3.9c0-0.1,0-0.1-0.1-0.1
			c-3.2-1.3-4.7-2.7-4.6-4.3c0-2.1,3.2-3.6,5-4.3c0,0,0.1-0.1,0.1-0.1c1.3-4,4.5-5.3,9.5-3.8l0.1,0c0,0,0.1,0,0.1,0
			c6-4,10.6,0.3,11.5,1.1l0,0c0,0,0.1,0,0.1,0.1c3.3,0.2,5.5,1.1,6.5,2.7c0.9,1.5,0.5,3,0.1,3.8c0,0.1,0,0.1,0,0.2
			c1.2,1.5,1.6,2.9,1.1,4c-1.1,2.5-5.9,2.9-8,3c0,0-0.1,0-0.1,0c-1.6,1.8-3.7,2.5-5.7,2.5C503,20.5,501.3,20,499.9,19.3z M509.7,5.2
			c-1-1.1-4.7-4.3-9.8-0.9c-0.4,0.3-0.8,0.3-1.3,0.2l-0.1,0c-2.7-0.8-6.5-1.4-7.8,2.9c-0.1,0.4-0.5,0.8-0.9,0.9
			c-2.5,0.9-4.1,2.1-4.1,3c0,0.5,0.5,1.6,3.8,3c0.5,0.2,0.8,0.6,0.9,1.1c0.1,0.5,0.5,2.1,2.1,3c1.6,0.9,3.9,0.8,6.8-0.3
			c0.4-0.1,0.9-0.1,1.2,0.1c1.3,0.7,5.7,2.5,8.9-0.9c0.3-0.3,0.6-0.5,1-0.5c2.7-0.1,6.1-0.8,6.8-2.2c0.3-0.7,0-1.5-0.9-2.6
			c-0.4-0.4-0.4-1-0.2-1.6c0.2-0.6,0.6-1.7,0-2.6c-0.7-1.1-2.6-1.8-5.4-2C510.3,5.6,509.9,5.4,509.7,5.2L509.7,5.2z"></path>
	</g>
	<g>
		<path class="st7 " d="M483.3,17c0-1.1,0.9-2,2-2s2,0.9,2,2s-0.9,2-2,2C484.2,19,483.3,18.1,483.3,17z M483.8,17
			c0,0.8,0.7,1.5,1.5,1.5s1.5-0.7,1.5-1.5s-0.7-1.5-1.5-1.5S483.8,16.2,483.8,17z"></path>
	</g>
	<g>
		<path class="st7 " d="M479.7,19.9c0-0.8,0.6-1.4,1.4-1.4s1.4,0.6,1.4,1.4c0,0.8-0.6,1.4-1.4,1.4S479.7,20.6,479.7,19.9z
			 M480.3,19.9c0,0.5,0.4,0.9,0.9,0.9c0.5,0,0.9-0.4,0.9-0.9c0-0.5-0.4-0.9-0.9-0.9S480.3,19.4,480.3,19.9z"></path>
	</g>
	<g>
		<path class="st8 " d="M509.3,138.8c-0.1,0-0.1,0-0.2,0c-4.8,1.8-8.6,1.9-11.5,0.4c-3-1.7-3.8-4.7-4-5.6c0-0.1-0.1-0.1-0.1-0.2
			c-4.6-1.9-6.8-3.9-6.7-6.2c0.1-3.1,4.6-5.2,7.3-6.2c0.1,0,0.1-0.1,0.1-0.1c1.8-5.8,6.4-7.6,13.7-5.5l0.2,0.1c0.1,0,0.1,0,0.2,0
			c8.7-5.7,15.3,0.3,16.5,1.6l0,0c0,0,0.1,0.1,0.2,0.1c4.8,0.3,8,1.6,9.3,3.8c1.3,2.1,0.7,4.4,0.2,5.6c0,0.1,0,0.2,0,0.3
			c1.8,2.2,2.3,4.1,1.6,5.8c-1.6,3.6-8.6,4.2-11.5,4.4c-0.1,0-0.1,0.1-0.1,0.1c-2.4,2.6-5.3,3.6-8.2,3.6
			C513.8,140.6,511.4,139.8,509.3,138.8z M523.5,118.4c-1.5-1.5-6.8-6.1-14.1-1.4c-0.5,0.4-1.2,0.5-1.8,0.3l-0.2-0.1
			c-3.9-1.2-9.4-2-11.3,4.2c-0.2,0.6-0.7,1.2-1.3,1.4c-3.6,1.3-6,3-6,4.4c0,0.8,0.7,2.3,5.5,4.3c0.7,0.3,1.1,0.9,1.3,1.6
			c0.1,0.7,0.8,3.1,3.1,4.3c2.3,1.3,5.6,1.1,9.8-0.5c0.6-0.2,1.2-0.2,1.8,0.1c1.9,0.9,8.2,3.7,12.9-1.4c0.4-0.4,0.9-0.7,1.5-0.7
			c3.9-0.2,8.9-1.1,9.8-3.2c0.4-0.9,0-2.2-1.3-3.8c-0.5-0.6-0.6-1.5-0.3-2.2c0.3-0.8,0.8-2.4,0-3.8c-1-1.7-3.7-2.7-7.8-2.9
			C524.3,119,523.8,118.8,523.5,118.4L523.5,118.4z"></path>
	</g>
	<g>
		<path class="st8 " d="M485.3,135.5c0-1.6,1.3-2.9,2.9-2.9s2.9,1.3,2.9,2.9s-1.3,2.9-2.9,2.9S485.3,137.1,485.3,135.5z M486.1,135.5
			c0,1.2,1,2.1,2.1,2.1s2.1-0.9,2.1-2.1s-1-2.1-2.1-2.1S486.1,134.3,486.1,135.5z"></path>
	</g>
	<g>
		<path class="st8 " d="M480.2,139.6c0-1.1,0.9-2,2-2s2,0.9,2,2s-0.9,2-2,2S480.2,140.7,480.2,139.6z M481,139.6
			c0,0.7,0.6,1.3,1.3,1.3s1.3-0.6,1.3-1.3c0-0.7-0.6-1.3-1.3-1.3C481.6,138.3,481,138.9,481,139.6z"></path>
	</g>
	<g>
		<path class="st9 " d="M288.6,36.8c-3,0-6-1-8.4-3.6c0,0-0.1-0.1-0.1-0.1c-3-0.1-10.1-0.8-11.8-4.5c-0.8-1.7-0.2-3.7,1.6-5.9
			c0.1-0.1,0.1-0.2,0-0.3c-0.5-1.2-1.2-3.5,0.2-5.7c1.4-2.3,4.6-3.6,9.6-3.9c0.1,0,0.1,0,0.2-0.1l0,0c1.3-1.3,8-7.6,17-1.7
			c0.1,0.1,0.1,0.1,0.2,0l0.2-0.1c7.5-2.2,12.2-0.3,14,5.6c0,0.1,0.1,0.1,0.1,0.1c2.8,1,7.4,3.1,7.5,6.3c0.1,2.3-2.2,4.4-6.9,6.3
			c-0.1,0-0.1,0.1-0.1,0.2c-0.2,0.9-1,4.1-4.1,5.8c-2.9,1.6-6.8,1.5-11.7-0.4c-0.1,0-0.1,0-0.2,0C293.6,36.1,291.1,36.8,288.6,36.8z
			 M281.2,14.1c-0.4,0.4-0.9,0.6-1.5,0.7c-4.2,0.3-7,1.3-8,3c-0.9,1.4-0.4,3,0,3.9c0.3,0.8,0.2,1.6-0.3,2.3
			c-1.3,1.6-1.8,2.9-1.3,3.9c1,2.2,6,3.1,10,3.3c0.6,0,1.1,0.3,1.5,0.7c4.8,5.2,11.3,2.4,13.2,1.4c0.6-0.3,1.2-0.3,1.8-0.1
			c4.3,1.6,7.7,1.8,10.1,0.5c2.3-1.3,3-3.7,3.1-4.4c0.1-0.7,0.6-1.3,1.3-1.6c5-2.1,5.7-3.7,5.7-4.4c0-1.4-2.4-3.2-6.1-4.5
			c-0.6-0.2-1.1-0.8-1.4-1.4c-2-6.3-7.6-5.5-11.6-4.3l-0.2,0.1c-0.6,0.2-1.3,0.1-1.9-0.3C288.3,7.8,282.8,12.6,281.2,14.1
			L281.2,14.1z"></path>
	</g>
	<g>
		<path class="st9 " d="M317.3,34.6c-1.6,0-3-1.3-3-3s1.3-3,3-3s3,1.3,3,3C320.3,33.3,319,34.6,317.3,34.6z M317.3,29.5
			c-1.2,0-2.2,1-2.2,2.2c0,1.2,1,2.2,2.2,2.2s2.2-1,2.2-2.2C319.5,30.4,318.5,29.5,317.3,29.5z"></path>
	</g>
	<g>
		<path class="st9 " d="M323.5,37.9c-1.1,0-2.1-0.9-2.1-2.1s0.9-2.1,2.1-2.1s2.1,0.9,2.1,2.1S324.6,37.9,323.5,37.9z M323.5,34.6
			c-0.7,0-1.3,0.6-1.3,1.3s0.6,1.3,1.3,1.3s1.3-0.6,1.3-1.3S324.2,34.6,323.5,34.6z"></path>
	</g>
	<g>
		<path class="st10 " d="M347.4,29.7c-2,0-4-0.7-5.7-2.5c0,0,0,0-0.1,0c-2-0.1-6.9-0.6-8-3c-0.5-1.2-0.2-2.5,1.1-4c0,0,0-0.1,0-0.2
			c-0.3-0.8-0.8-2.4,0.1-3.9c1-1.6,3.1-2.4,6.5-2.7c0,0,0.1,0,0.1-0.1l0,0c0.9-0.9,5.4-5.1,11.5-1.1c0,0,0.1,0,0.1,0l0.1,0
			c5.1-1.5,8.3-0.2,9.5,3.8c0,0,0,0.1,0.1,0.1c1.9,0.7,5,2.1,5,4.3c0,1.6-1.5,3-4.7,4.3c0,0-0.1,0.1-0.1,0.1
			c-0.1,0.6-0.7,2.8-2.8,3.9c-2,1.1-4.6,1-8-0.3c0,0-0.1,0-0.1,0C350.8,29.2,349.1,29.7,347.4,29.7z M342.4,14.3
			c-0.3,0.3-0.6,0.4-1,0.5c-2.9,0.2-4.7,0.9-5.4,2c-0.6,1-0.3,2.1,0,2.6c0.2,0.5,0.1,1.1-0.2,1.5c-0.9,1.1-1.2,2-0.9,2.6
			c0.7,1.5,4.1,2.1,6.8,2.2c0.4,0,0.8,0.2,1,0.5c3.2,3.5,7.7,1.6,9,1c0.4-0.2,0.8-0.2,1.2-0.1c2.9,1.1,5.2,1.2,6.8,0.3
			c1.6-0.9,2-2.5,2.1-3s0.4-0.9,0.9-1.1c3.4-1.4,3.9-2.5,3.8-3c0-1-1.7-2.1-4.2-3c-0.4-0.2-0.8-0.5-0.9-1c-1.4-4.3-5.1-3.7-7.9-2.9
			l-0.1,0c-0.4,0.1-0.9,0.1-1.3-0.2C347.1,10.1,343.4,13.3,342.4,14.3L342.4,14.3z"></path>
	</g>
	<g>
		<path class="st10 " d="M366.9,28.2c-1.1,0-2-0.9-2-2s0.9-2,2-2s2,0.9,2,2C368.9,27.3,368,28.2,366.9,28.2z M366.9,24.7
			c-0.8,0-1.5,0.7-1.5,1.5s0.7,1.5,1.5,1.5s1.5-0.7,1.5-1.5S367.7,24.7,366.9,24.7z"></path>
	</g>
	<g>
		<path class="st10 " d="M371,30.5c-0.8,0-1.4-0.6-1.4-1.4s0.6-1.4,1.4-1.4s1.4,0.6,1.4,1.4S371.8,30.5,371,30.5z M371,28.2
			c-0.5,0-0.9,0.4-0.9,0.9c0,0.5,0.4,0.9,0.9,0.9c0.5,0,0.9-0.4,0.9-0.9C371.9,28.6,371.5,28.2,371,28.2z"></path>
	</g>
</g>
<g id="heads">
	<path id="head1" class="st11 kRVNUFjN_36" d="M578.2,249.1c0,0-408.7,0.3-426.1-0.5c-26.9-2.6-33.6-14.6-35.9-28.2s0.8-19.2,8.5-25.9
		c26.1-23.3,16.5-67.3-3.1-78.5C67.7,88.3,44.5,130.2,43.7,132s-1.5,2.9-2,4.7s-0.1,2.9-0.3,5.4c-0.2,2.5-0.7,5.2-1.4,6.7
		c-0.7,1.5-0.5,3-0.6,5.3c-0.1,2.2,0.5,5.5-0.3,7c-0.7,1.5-9.5,12-10.6,13.3c-1.1,1.4-3.3,4.9,1.1,6.2c8.5,1.9,6.9,3.3,6,4.6
		c-1,1.4-0.8,3.2-0.8,5.1s5.5,2.3,4.5,2.6c-1,0.3-3.1,1.8-2.9,3.2s2.6,2.4,3.7,5.1c1.8,5.3-1.9,5.1-0.8,9c1.9,5,6.5,8.5,20,4.6
		c34.2-7.3,30.8-21.5,30.8-21.5"></path>
	<path id="head2" class="st11 kRVNUFjN_37" d="M3.5,249.2c0,0,101.2,0,108.1,0c6.9,0,34.3-4.9,38.7-25.1s7.4-55.6-5.1-70.5
		c-12.6-14.9-23.6-28.4-21.3-49.7s35.9-63.3,87.6-31c15.4,10.3,12.8,28.7,13.1,30.8c0.3,2.1,3.8,3.6,2.1,12.3
		c0.5,3.3,11.3,13.1,11,15.4c-0.3,2.3-3.6,4.6-6.7,4.9s-1,5.6-1,7.7s-4.4,2.3-4.1,3.8c0.3,1.5,2.8,3.6,0.8,6.1s-0.5,8.2-1.3,11.8
		s-5.1,7.7-14.9,5.1c-9.7-2.6-34.1-6.4-34.3-22.6"></path>
</g>
<g id="letur">
	<path class="st01" d="M4.8,295.2c-0.8,0-1.2-0.3-1.2-1v-28.9h4.1c0.4,0,0.6,0.1,0.9,0.3c0.2,0.2,0.3,0.4,0.3,0.7v25.1h12.4
		c0.8,0,1.2,0.3,1.2,1v2.8H4.8z"/>
	<path class="st01" d="M45.9,265.3c0.7,0,1.1,0.3,1.1,1v2.7H32.6v9.2h11.9c0.8,0,1.2,0.3,1.2,1v2.8H32.6v9.5h13.8
		c0.4,0,0.6,0.1,0.9,0.2c0.2,0.2,0.3,0.4,0.3,0.7v2.7H28.5c-0.8,0-1.2-0.3-1.2-1v-28.9H45.9z"/>
	<path class="st01" d="M60.2,269.1h-8c-0.8,0-1.2-0.3-1.2-1v-2.8h22.6c0.4,0,0.6,0.1,0.9,0.3c0.2,0.2,0.3,0.4,0.3,0.7v2.8h-9.3v26.1
		h-4.1c-0.8,0-1.2-0.3-1.2-1V269.1z"/>
	<path class="st01" d="M98.1,295.2c-0.8,0-1.2-0.3-1.2-1v-10.4c-1.1-1.6-2.2-3.2-3.1-4.7c-0.9-1.5-1.8-3-2.6-4.5
		c-0.8-1.5-1.5-3-2.2-4.5c-0.7-1.5-1.3-3.1-1.8-4.8h4.6c0.5,0,0.8,0.1,1,0.3c0.1,0.2,0.3,0.5,0.5,0.9c0.3,0.9,0.7,1.9,1.1,3
		c0.4,1.1,0.9,2.2,1.4,3.3c0.5,1.2,1.1,2.3,1.7,3.6c0.6,1.2,1.4,2.4,2.1,3.6c0.8-1.2,1.5-2.6,2.2-4c0.7-1.4,1.4-2.8,2-4.1
		c0.6-1.3,1.1-2.6,1.6-3.8c0.4-1.2,0.7-2.1,0.9-2.9h3.9c0.5,0,0.8,0.1,1,0.4s0.2,0.6,0,1c-0.6,1.6-1.2,3.2-1.9,4.6
		c-0.6,1.4-1.3,2.8-2.1,4.2c-0.7,1.4-1.5,2.7-2.4,4.1c-0.9,1.3-1.8,2.7-2.8,4.2v11.4H98.1z"/>
	<path class="st01" d="M140.8,280.3c0,3.2-0.3,5.8-0.9,7.8c-0.6,2-1.5,3.6-2.6,4.7c-1.1,1.1-2.5,1.9-4,2.3c-1.6,0.4-3.3,0.6-5.2,0.6
		c-1.9,0-3.6-0.2-5.1-0.6c-1.6-0.4-2.9-1.2-4-2.3c-1.1-1.1-2-2.7-2.6-4.7c-0.6-2-0.9-4.6-0.9-7.8c0-3.2,0.3-5.8,0.9-7.8
		c0.6-2,1.5-3.6,2.6-4.7c1.1-1.1,2.4-1.9,4-2.3c1.6-0.4,3.3-0.6,5.1-0.6c1.9,0,3.6,0.2,5.2,0.6c1.6,0.4,2.9,1.2,4,2.3
		c1.1,1.1,2,2.7,2.6,4.7C140.5,274.5,140.8,277.1,140.8,280.3z M121,280.3c0,2.2,0.1,4.1,0.3,5.5c0.2,1.5,0.6,2.7,1.1,3.6
		c0.5,0.9,1.3,1.6,2.2,1.9c0.9,0.4,2.1,0.6,3.5,0.6c1.4,0,2.6-0.2,3.5-0.6s1.7-1,2.2-1.9c0.5-0.9,0.9-2.1,1.2-3.6s0.4-3.3,0.4-5.5
		c0-2.2-0.1-4.1-0.4-5.5s-0.6-2.7-1.2-3.6c-0.5-0.9-1.3-1.6-2.2-1.9c-0.9-0.4-2.1-0.6-3.5-0.6c-1.4,0-2.6,0.2-3.5,0.6
		c-0.9,0.4-1.7,1-2.2,1.9c-0.5,0.9-0.9,2.1-1.1,3.6C121.1,276.2,121,278.1,121,280.3z"/>
	<path class="st01" d="M170.3,284.7c0,3.8-0.9,6.6-2.7,8.4c-1.8,1.8-4.7,2.7-8.8,2.7c-1.9,0-3.5-0.2-5-0.5c-1.5-0.4-2.7-1-3.7-1.8
		c-1-0.8-1.7-2-2.3-3.4c-0.5-1.4-0.8-3.2-0.8-5.3v-19.3h4.1c0.8,0,1.2,0.3,1.2,1v18.8c0,1,0.1,1.9,0.3,2.8c0.2,0.8,0.5,1.5,1,2.1
		c0.5,0.6,1.1,1,1.9,1.3c0.8,0.3,1.9,0.5,3.2,0.5c1.3,0,2.3-0.2,3.1-0.5c0.8-0.3,1.4-0.7,1.9-1.3c0.5-0.6,0.8-1.3,1-2.1
		c0.2-0.8,0.3-1.8,0.3-2.9v-19.8h4.1c0.4,0,0.7,0.1,0.9,0.3c0.2,0.2,0.3,0.4,0.3,0.7V284.7z"/>
	<path class="st01" d="M178.4,295.2c-0.8,0-1.2-0.3-1.2-1v-28.4c1.5-0.2,3.2-0.4,5-0.6c1.8-0.2,3.7-0.2,5.6-0.2c4,0,7,0.8,8.8,2.3
		c1.8,1.5,2.7,3.8,2.7,6.8c0,2.2-0.6,3.9-1.7,5.3c-1.1,1.4-2.7,2.3-4.6,2.9c0.8,0.8,1.6,1.8,2.4,2.9c0.8,1.1,1.6,2.3,2.3,3.5
		c0.7,1.2,1.4,2.4,2,3.5c0.6,1.1,1,2.2,1.4,3h-4.4c-0.5,0-0.8-0.1-1-0.2c-0.2-0.2-0.4-0.4-0.5-0.7c-0.3-0.7-0.7-1.5-1.2-2.5
		s-1.1-1.9-1.7-2.9c-0.6-1-1.3-2-2-3c-0.7-1-1.5-1.9-2.3-2.7h-5.4v12H178.4z M182.4,279.8h5.5c0.9,0,1.7-0.1,2.4-0.2
		c0.8-0.2,1.4-0.4,2-0.9c0.6-0.4,1-1,1.3-1.7c0.3-0.7,0.4-1.7,0.4-2.8c0-1.1-0.1-2-0.4-2.7c-0.3-0.7-0.7-1.3-1.2-1.7
		c-0.5-0.4-1.2-0.7-2-0.9c-0.8-0.2-1.7-0.2-2.8-0.2c-1.1,0-2.1,0-3.1,0.1c-0.9,0.1-1.6,0.1-2.2,0.2V279.8z"/>
	<path class="st01" d="M237.5,265.3c0.9,0,1.3,0.4,1.2,1.1l-0.6,2.8c-0.4,1.8-0.8,3.9-1.5,6.1c-0.6,2.3-1.3,4.6-2.1,6.9
		c-0.8,2.3-1.6,4.6-2.5,6.9c-0.9,2.3-1.8,4.3-2.7,6.1h-4.8c-0.5,0-0.8-0.1-1.1-0.2c-0.2-0.2-0.4-0.4-0.5-0.7c-0.9-2-1.9-4.2-2.8-6.5
		c-0.9-2.3-1.8-4.8-2.6-7.3c-0.8-2.5-1.5-5.1-2.2-7.6c-0.6-2.6-1.2-5.1-1.6-7.5h4.6c0.7,0,1.1,0.3,1.2,1c0.2,1.4,0.5,3.1,0.9,4.9
		c0.4,1.8,0.8,3.8,1.4,5.9c0.5,2.1,1.2,4.3,2,6.6c0.8,2.3,1.6,4.6,2.6,7c1-2.4,1.9-4.8,2.7-7.2c0.8-2.3,1.4-4.6,2-6.8
		c0.6-2.2,1-4.2,1.4-6.1c0.4-1.9,0.7-3.7,0.9-5.3H237.5z"/>
	<path class="st01" d="M268.3,280.3c0,3.2-0.3,5.8-0.9,7.8c-0.6,2-1.5,3.6-2.6,4.7c-1.1,1.1-2.5,1.9-4,2.3c-1.6,0.4-3.3,0.6-5.2,0.6
		c-1.9,0-3.6-0.2-5.1-0.6c-1.6-0.4-2.9-1.2-4-2.3c-1.1-1.1-2-2.7-2.6-4.7c-0.6-2-0.9-4.6-0.9-7.8c0-3.2,0.3-5.8,0.9-7.8
		c0.6-2,1.5-3.6,2.6-4.7c1.1-1.1,2.4-1.9,4-2.3c1.6-0.4,3.3-0.6,5.1-0.6c1.9,0,3.6,0.2,5.2,0.6c1.6,0.4,2.9,1.2,4,2.3
		c1.1,1.1,2,2.7,2.6,4.7C268,274.5,268.3,277.1,268.3,280.3z M248.5,280.3c0,2.2,0.1,4.1,0.3,5.5c0.2,1.5,0.6,2.7,1.1,3.6
		c0.5,0.9,1.3,1.6,2.2,1.9c0.9,0.4,2.1,0.6,3.5,0.6c1.4,0,2.6-0.2,3.5-0.6s1.7-1,2.2-1.9c0.5-0.9,0.9-2.1,1.2-3.6s0.4-3.3,0.4-5.5
		c0-2.2-0.1-4.1-0.4-5.5s-0.6-2.7-1.2-3.6c-0.5-0.9-1.3-1.6-2.2-1.9c-0.9-0.4-2.1-0.6-3.5-0.6c-1.4,0-2.6,0.2-3.5,0.6
		c-0.9,0.4-1.7,1-2.2,1.9c-0.5,0.9-0.9,2.1-1.1,3.6C248.6,276.2,248.5,278.1,248.5,280.3z"/>
	<path class="st01" d="M275.9,295.2c-0.8,0-1.2-0.3-1.2-1v-28.9h4.1c0.8,0,1.2,0.3,1.2,1v28.9H275.9z"/>
	<path class="st01" d="M299.1,264.9c1.2,0,2.4,0.1,3.7,0.2c1.3,0.2,2.2,0.4,3,0.6c0.4,0.1,0.7,0.3,0.8,0.6c0.1,0.2,0.2,0.5,0.2,0.9v2
		c-1-0.1-2.1-0.2-3.2-0.3c-1.2-0.1-2.4-0.2-3.7-0.2c-1.5,0-2.8,0.2-3.8,0.5c-1,0.4-1.9,1-2.5,1.8c-0.6,0.9-1.1,2-1.4,3.5
		c-0.3,1.5-0.4,3.3-0.4,5.5c0,2.4,0.2,4.4,0.5,5.9c0.3,1.5,0.8,2.7,1.5,3.6c0.7,0.8,1.5,1.4,2.5,1.7c1,0.3,2.2,0.5,3.6,0.5
		c1.4,0,2.6-0.1,3.7-0.2c1-0.2,1.8-0.2,2.4-0.2c0.8,0,1.3,0.3,1.3,1v2.1c-1,0.3-2.1,0.6-3.5,0.8c-1.4,0.2-2.9,0.4-4.7,0.4
		c-2.2,0-4.1-0.3-5.7-0.8c-1.6-0.6-2.9-1.5-3.9-2.7c-1-1.3-1.8-2.9-2.3-4.8c-0.5-1.9-0.7-4.3-0.7-7c0-2.8,0.2-5.1,0.7-7.1
		c0.5-1.9,1.2-3.5,2.3-4.8c1-1.2,2.4-2.1,4-2.7C294.9,265.2,296.8,264.9,299.1,264.9z"/>
	<path class="st01" d="M331,265.3c0.7,0,1.1,0.3,1.1,1v2.7h-14.4v9.2h11.9c0.8,0,1.2,0.3,1.2,1v2.8h-13.1v9.5h13.8
		c0.4,0,0.6,0.1,0.9,0.2c0.2,0.2,0.3,0.4,0.3,0.7v2.7h-19.1c-0.8,0-1.2-0.3-1.2-1v-28.9H331z"/>
	<path class="st01" d="M348.5,265.9c1.5-0.2,3.2-0.4,5-0.6c1.9-0.2,3.6-0.2,5.1-0.2c1.7,0,3.2,0.1,4.6,0.4s2.6,0.7,3.6,1.3
		c1,0.6,1.8,1.4,2.3,2.5c0.5,1,0.8,2.3,0.8,3.8c0,1.7-0.4,3.1-1.1,4.2c-0.7,1.1-1.9,2-3.4,2.5c2,0.6,3.4,1.6,4.2,2.8
		c0.8,1.2,1.2,2.7,1.2,4.4c0,1.6-0.3,2.9-0.8,3.9c-0.6,1.1-1.3,1.9-2.3,2.5c-1,0.6-2.1,1-3.5,1.3c-1.3,0.3-2.8,0.4-4.4,0.4h-10.1
		c-0.8,0-1.2-0.3-1.2-1V265.9z M353.6,278.2h5.6c0.9,0,1.8-0.1,2.5-0.2c0.7-0.1,1.3-0.4,1.8-0.7c0.5-0.4,0.8-0.8,1.1-1.5
		s0.4-1.4,0.4-2.4c0-1-0.1-1.8-0.4-2.4c-0.3-0.6-0.6-1.1-1.2-1.5s-1.2-0.6-2-0.8c-0.8-0.2-1.8-0.2-2.9-0.2c-0.8,0-1.7,0-2.6,0.1
		c-0.9,0.1-1.6,0.1-2.2,0.2V278.2z M353.6,291.7h5.8c1.1,0,2-0.1,2.8-0.2c0.8-0.2,1.4-0.4,2-0.8c0.5-0.4,0.9-0.9,1.1-1.5
		c0.2-0.6,0.4-1.4,0.4-2.4c0-1.1-0.2-2-0.5-2.7c-0.3-0.7-0.8-1.2-1.5-1.5c-0.7-0.3-1.5-0.6-2.5-0.7s-2.2-0.2-3.5-0.2h-4V291.7z"/>
	<path class="st01" d="M395.1,265.3c0.7,0,1.1,0.3,1.1,1v2.7h-14.4v9.2h11.9c0.8,0,1.2,0.3,1.2,1v2.8h-13.1v9.5h13.8
		c0.4,0,0.6,0.1,0.9,0.2c0.2,0.2,0.3,0.4,0.3,0.7v2.7h-19.1c-0.8,0-1.2-0.3-1.2-1v-28.9H395.1z"/>
	<path class="st01" d="M434.9,265.3c0.8,0,1.2,0.3,1.2,1v28.9H432c-0.4,0-0.6-0.1-0.9-0.2c-0.2-0.2-0.3-0.4-0.3-0.7v-12.4h-12.9v13.4
		h-4.1c-0.8,0-1.2-0.3-1.2-1v-28.9h4.1c0.4,0,0.6,0.1,0.9,0.3c0.2,0.2,0.3,0.4,0.3,0.7V278h12.9v-12.7H434.9z"/>
	<path class="st01" d="M461.7,265.3c0.7,0,1.1,0.3,1.1,1v2.7h-14.4v9.2h11.9c0.8,0,1.2,0.3,1.2,1v2.8h-13.1v9.5h13.8
		c0.4,0,0.6,0.1,0.9,0.2c0.2,0.2,0.3,0.4,0.3,0.7v2.7h-19.1c-0.8,0-1.2-0.3-1.2-1v-28.9H461.7z"/>
	<path class="st01" d="M486.5,294.2c-0.3-1.3-0.5-2.5-0.8-3.7c-0.2-1.2-0.5-2.4-0.8-3.6h-11.2c-0.4,1.4-0.7,2.8-0.9,4.2
		c-0.3,1.4-0.5,2.8-0.8,4.1h-3.9c-0.7,0-1.1-0.4-1.1-1.1c0.1-0.9,0.3-1.7,0.5-2.5c0.6-2.8,1.2-5.5,2-8c0.7-2.5,1.5-4.9,2.3-7.2
		c0.8-2.2,1.6-4.3,2.4-6.2c0.8-1.9,1.5-3.5,2.3-5h5c0.4,0,0.7,0.1,0.9,0.2c0.2,0.2,0.4,0.4,0.5,0.7c0.7,1.5,1.5,3.2,2.3,5.3
		c0.8,2,1.7,4.3,2.5,6.8c0.8,2.5,1.6,5.2,2.3,8c0.7,2.9,1.4,5.8,1.9,8.9h-4.3C487,295.2,486.6,294.9,486.5,294.2z M479.3,269.1
		c-0.8,2-1.6,4.3-2.5,6.6c-0.9,2.4-1.7,4.9-2.4,7.7h9.9c-0.8-2.8-1.6-5.3-2.4-7.7C481,273.3,480.2,271.1,479.3,269.1z"/>
	<path class="st01" d="M498.1,295.2c-0.8,0-1.2-0.3-1.2-1v-28.4c1.5-0.2,3.2-0.4,5-0.6c1.8-0.2,3.7-0.2,5.6-0.2c4,0,7,0.8,8.8,2.3
		c1.8,1.5,2.7,3.8,2.7,6.8c0,2.2-0.6,3.9-1.7,5.3c-1.1,1.4-2.7,2.3-4.6,2.9c0.8,0.8,1.6,1.8,2.4,2.9c0.8,1.1,1.6,2.3,2.3,3.5
		c0.7,1.2,1.4,2.4,2,3.5c0.6,1.1,1,2.2,1.4,3h-4.4c-0.5,0-0.8-0.1-1-0.2c-0.2-0.2-0.4-0.4-0.5-0.7c-0.3-0.7-0.7-1.5-1.2-2.5
		s-1.1-1.9-1.7-2.9c-0.6-1-1.3-2-2-3c-0.7-1-1.5-1.9-2.3-2.7h-5.4v12H498.1z M502.2,279.8h5.5c0.9,0,1.7-0.1,2.4-0.2
		c0.8-0.2,1.4-0.4,2-0.9c0.6-0.4,1-1,1.3-1.7s0.4-1.7,0.4-2.8c0-1.1-0.1-2-0.4-2.7c-0.3-0.7-0.7-1.3-1.2-1.7c-0.5-0.4-1.2-0.7-2-0.9
		c-0.8-0.2-1.7-0.2-2.8-0.2c-1.1,0-2.1,0-3.1,0.1c-0.9,0.1-1.6,0.1-2.2,0.2V279.8z"/>
	<path class="st01" d="M544.1,265.3c0.7,0,1.1,0.3,1.1,1v2.7h-14.4v9.2h11.9c0.8,0,1.2,0.3,1.2,1v2.8h-13.1v9.5h13.8
		c0.4,0,0.6,0.1,0.9,0.2c0.2,0.2,0.3,0.4,0.3,0.7v2.7h-19.1c-0.8,0-1.2-0.3-1.2-1v-28.9H544.1z"/>
	<path class="st01" d="M552.6,295.2c-0.8,0-1.2-0.3-1.2-1v-28.4c0.8-0.1,1.6-0.2,2.5-0.3s1.8-0.2,2.7-0.3s1.8-0.1,2.7-0.2
		c0.9,0,1.7-0.1,2.5-0.1c2.4,0,4.4,0.3,6.2,0.8c1.7,0.5,3.1,1.4,4.2,2.5c1.1,1.2,1.9,2.7,2.4,4.7c0.5,1.9,0.8,4.3,0.8,7.1
		c0,2.8-0.3,5.1-0.8,7.1c-0.5,1.9-1.3,3.5-2.4,4.7c-1.1,1.2-2.5,2.1-4.2,2.6c-1.7,0.5-3.7,0.8-6.1,0.8H552.6z M561.6,268.6
		c-0.8,0-1.6,0-2.6,0.1c-0.9,0.1-1.7,0.1-2.3,0.2v22.6h4.8c1.5,0,2.7-0.1,3.8-0.4s2-0.8,2.7-1.7c0.7-0.8,1.2-2,1.6-3.6
		c0.3-1.5,0.5-3.6,0.5-6.1c0-2.2-0.1-4.1-0.4-5.5s-0.8-2.6-1.4-3.5c-0.7-0.9-1.5-1.4-2.6-1.8C564.5,268.8,563.2,268.6,561.6,268.6z"
		/>
</g>
<style data-made-with="inens">

	.kRVNUFjN_0 {
    stroke-dasharray: 358 360;
    stroke-dashoffset: 359;
    animation: kRVNUFjN_draw 000ms linear 0ms forwards;
}

.kRVNUFjN_1 {
    stroke-dasharray: 239 241;
    stroke-dashoffset: 240;
    animation: kRVNUFjN_draw 000ms linear 17ms forwards;
}

.kRVNUFjN_2 {
    stroke-dasharray: 330 332;
    stroke-dashoffset: 331;
    animation: kRVNUFjN_draw 000ms linear 35ms forwards;
}

.kRVNUFjN_3 {
    stroke-dasharray: 257 259;
    stroke-dashoffset: 258;
    animation: kRVNUFjN_draw 000ms linear 53ms forwards;
}

.kRVNUFjN_4 {
    stroke-dasharray: 238 240;
    stroke-dashoffset: 239;
    animation: kRVNUFjN_draw 000ms linear 71ms forwards;
}

.kRVNUFjN_5 {
    stroke-dasharray: 338 340;
    stroke-dashoffset: 339;
    animation: kRVNUFjN_draw 000ms linear 89ms forwards;
}

.kRVNUFjN_6 {
    stroke-dasharray: 321 323;
    stroke-dashoffset: 322;
    animation: kRVNUFjN_draw 000ms linear 107ms forwards;
}

.kRVNUFjN_7 {
    stroke-dasharray: 243 245;
    stroke-dashoffset: 244;
    animation: kRVNUFjN_draw 000ms linear 125ms forwards;
}

.kRVNUFjN_8 {
    stroke-dasharray: 582 584;
    stroke-dashoffset: 583;
    animation: kRVNUFjN_draw 2000ms linear 142ms forwards;
}

.kRVNUFjN_9 {
    stroke-dasharray: 160 162;
    stroke-dashoffset: 161;
    animation: kRVNUFjN_draw 2000ms linear 160ms forwards;
}

.kRVNUFjN_10 {
    stroke-dasharray: 194 196;
    stroke-dashoffset: 195;
    animation: kRVNUFjN_draw 2000ms linear 178ms forwards;
}

.kRVNUFjN_11 {
    stroke-dasharray: 148 150;
    stroke-dashoffset: 149;
    animation: kRVNUFjN_draw 2000ms linear 196ms forwards;
}

.kRVNUFjN_12 {
    stroke-dasharray: 484 486;
    stroke-dashoffset: 485;
    animation: chatheads_fade infinite linear 214ms forwards;
}

.kRVNUFjN_13 {
    stroke-dasharray: 63 65;
    stroke-dashoffset: 64;
    animation: chatheads_fade infinite linear 232ms forwards;
}

.kRVNUFjN_14 {
    stroke-dasharray: 42 44;
    stroke-dashoffset: 43;
    animation: chatheads_fade infinite linear 250ms forwards;
}

.kRVNUFjN_15 {
    stroke-dasharray: 334 336;
    stroke-dashoffset: 335;
    animation: chatheads_fade infinite linear 267ms forwards;
}

.kRVNUFjN_16 {
    stroke-dasharray: 44 46;
    stroke-dashoffset: 45;
    animation: chatheads_fade infinite linear 285ms forwards;
}

.kRVNUFjN_17 {
    stroke-dasharray: 29 31;
    stroke-dashoffset: 30;
    animation: chatheads_fade infinite linear 303ms forwards;
}

.kRVNUFjN_18 {
    stroke-dasharray: 334 336;
    stroke-dashoffset: 335;
    animation: chatheads_fade infinite linear 321ms forwards;
}

.kRVNUFjN_19 {
    stroke-dasharray: 44 46;
    stroke-dashoffset: 45;
    animation: chatheads_fade infinite linear 339ms forwards;
}

.kRVNUFjN_20 {
    stroke-dasharray: 29 31;
    stroke-dashoffset: 30;
    animation: chatheads_fade 2000ms linear 357ms forwards;
}

.kRVNUFjN_21 {
    stroke-dasharray: 477 479;
    stroke-dashoffset: 478;
    animation: chatheads_fade 2000ms linear 375ms forwards;
}

.kRVNUFjN_22 {
    stroke-dasharray: 63 65;
    stroke-dashoffset: 64;
    animation: kRVNUFjN_draw 2000ms linear 392ms forwards;
}

.kRVNUFjN_23 {
    stroke-dasharray: 41 43;
    stroke-dashoffset: 42;
    animation: kRVNUFjN_draw 2000ms linear 410ms forwards;
}

.kRVNUFjN_24 {
    stroke-dasharray: 168 170;
    stroke-dashoffset: 169;
    animation: kRVNUFjN_draw 2000ms linear 428ms forwards;
}

.kRVNUFjN_25 {
    stroke-dasharray: 22 24;
    stroke-dashoffset: 23;
    animation: kRVNUFjN_draw 2000ms linear 446ms forwards;
}

.kRVNUFjN_26 {
    stroke-dasharray: 15 17;
    stroke-dashoffset: 16;
    animation: kRVNUFjN_draw 2000ms linear 464ms forwards;
}

.kRVNUFjN_27 {
    stroke-dasharray: 243 245;
    stroke-dashoffset: 244;
    animation: kRVNUFjN_draw 2000ms linear 482ms forwards;
}

.kRVNUFjN_28 {
    stroke-dasharray: 32 34;
    stroke-dashoffset: 33;
    animation: kRVNUFjN_draw 2000ms linear 500ms forwards;
}

.kRVNUFjN_29 {
    stroke-dasharray: 21 23;
    stroke-dashoffset: 22;
    animation: kRVNUFjN_draw 2000ms linear 517ms forwards;
}

.kRVNUFjN_30 {
    stroke-dasharray: 249 251;
    stroke-dashoffset: 250;
    animation: kRVNUFjN_draw 2000ms linear 535ms forwards;
}

.kRVNUFjN_31 {
    stroke-dasharray: 33 35;
    stroke-dashoffset: 34;
    animation: kRVNUFjN_draw 2000ms linear 553ms forwards;
}

.kRVNUFjN_32 {
    stroke-dasharray: 22 24;
    stroke-dashoffset: 23;
    animation: kRVNUFjN_draw 2000ms linear 571ms forwards;
}

.kRVNUFjN_33 {
    stroke-dasharray: 168 170;
    stroke-dashoffset: 169;
    animation: kRVNUFjN_draw 2000ms linear 589ms forwards;
}

.kRVNUFjN_34 {
    stroke-dasharray: 22 24;
    stroke-dashoffset: 23;
    animation: kRVNUFjN_draw 2000ms linear 607ms forwards;
}

.kRVNUFjN_35 {
    stroke-dasharray: 15 17;
    stroke-dashoffset: 16;
    animation: kRVNUFjN_draw 2000ms linear 625ms forwards;
}

.kRVNUFjN_36 {
    stroke-dasharray: 842 844;
    stroke-dashoffset: 843;
    animation: kRVNUFjN_draw 2000ms linear 642ms forwards;
}

.kRVNUFjN_37 {
    stroke-dasharray: 568 570;
    stroke-dashoffset: 569;
    animation: kRVNUFjN_draw 2000ms linear 660ms forwards;
}

.kRVNUFjN_38 {
    stroke-dasharray: 89 91;
    stroke-dashoffset: 90;
    animation: kRVNUFjN_draw 2000ms linear 678ms forwards;
}

.kRVNUFjN_39 {
    stroke-dasharray: 141 143;
    stroke-dashoffset: 142;
    animation: kRVNUFjN_draw 2000ms linear 696ms forwards;
}

.kRVNUFjN_40 {
    stroke-dasharray: 102 104;
    stroke-dashoffset: 103;
    animation: kRVNUFjN_draw 2000ms linear 714ms forwards;
}

.kRVNUFjN_41 {
    stroke-dasharray: 97 99;
    stroke-dashoffset: 98;
    animation: kRVNUFjN_draw 2000ms linear 732ms forwards;
}

.kRVNUFjN_42 {
    stroke-dasharray: 170 172;
    stroke-dashoffset: 171;
    animation: kRVNUFjN_draw 2000ms linear 750ms forwards;
}

.kRVNUFjN_43 {
    stroke-dasharray: 129 131;
    stroke-dashoffset: 130;
    animation: kRVNUFjN_draw 2000ms linear 767ms forwards;
}

.kRVNUFjN_44 {
    stroke-dasharray: 151 153;
    stroke-dashoffset: 152;
    animation: kRVNUFjN_draw 2000ms linear 785ms forwards;
}

.kRVNUFjN_45 {
    stroke-dasharray: 117 119;
    stroke-dashoffset: 118;
    animation: kRVNUFjN_draw 2000ms linear 803ms forwards;
}

.kRVNUFjN_46 {
    stroke-dasharray: 170 172;
    stroke-dashoffset: 171;
    animation: kRVNUFjN_draw 2000ms linear 821ms forwards;
}

.kRVNUFjN_47 {
    stroke-dasharray: 57 59;
    stroke-dashoffset: 58;
    animation: kRVNUFjN_draw 2000ms linear 839ms forwards;
}

.kRVNUFjN_48 {
    stroke-dasharray: 123 125;
    stroke-dashoffset: 124;
    animation: kRVNUFjN_draw 2000ms linear 857ms forwards;
}

.kRVNUFjN_49 {
    stroke-dasharray: 141 143;
    stroke-dashoffset: 142;
    animation: kRVNUFjN_draw 2000ms linear 875ms forwards;
}

.kRVNUFjN_50 {
    stroke-dasharray: 156 158;
    stroke-dashoffset: 157;
    animation: kRVNUFjN_draw 2000ms linear 892ms forwards;
}

.kRVNUFjN_51 {
    stroke-dasharray: 141 143;
    stroke-dashoffset: 142;
    animation: kRVNUFjN_draw 2000ms linear 910ms forwards;
}

.kRVNUFjN_52 {
    stroke-dasharray: 153 155;
    stroke-dashoffset: 154;
    animation: kRVNUFjN_draw 2000ms linear 928ms forwards;
}

.kRVNUFjN_53 {
    stroke-dasharray: 141 143;
    stroke-dashoffset: 142;
    animation: kRVNUFjN_draw 2000ms linear 946ms forwards;
}

.kRVNUFjN_54 {
    stroke-dasharray: 151 153;
    stroke-dashoffset: 152;
    animation: kRVNUFjN_draw 2000ms linear 964ms forwards;
}

.kRVNUFjN_55 {
    stroke-dasharray: 151 153;
    stroke-dashoffset: 152;
    animation: kRVNUFjN_draw 2000ms linear 982ms forwards;
}

.kRVNUFjN_56 {
    stroke-dasharray: 152 154;
    stroke-dashoffset: 153;
    animation: kRVNUFjN_draw 2000ms linear 1000ms forwards;
}

@keyframes kRVNUFjN_draw {
    100% {
        stroke-dashoffset: 0;
    }
}

@keyframes kRVNUFjN_fade {
    0% {
        stroke-opacity: 1;
    }
    94.44444444444444% {
        stroke-opacity: 1;
    }
    100% {
        stroke-opacity: 0;
    }
}


@keyframes chatheads_draw {
    100% {
        stroke-dashoffset: 0;
    }
}

@keyframes chatheads_fade {
    0% {
        stroke-opacity: 0;
    }
    94.44444444444444% {
        stroke-opacity: 1;
    }
    100% {
        stroke-opacity: 1;
    }
}


</style></svg>
