<svg width="45" height="42" viewBox="0 0 45 42" fill="none" xmlns="http://www.w3.org/2000/svg">
<path d="M40.1152 26.169C40.1346 26.0944 40.1532 26.0195 40.1716 25.9443C40.1533 26.0195 40.1342 26.0942 40.1152 26.169Z" fill="#AFE6FF"/>
<path d="M38.9943 21.0003C38.9943 25.5352 37.3115 29.6771 34.5364 32.8357C31.2487 36.5775 26.4279 37.999 21.0555 37.999C11.1482 37.999 4.00781 30.5898 4.00781 20.6824C4.00781 13.1461 7.76404 7.01299 14.3492 4.35707C16.421 3.52149 18.6845 3.06152 21.0554 3.06152C30.9628 3.06152 38.9943 11.093 38.9943 21.0003Z" fill="#FFE433"/>
<path d="M38.9943 21.0003C38.9943 25.5352 37.3115 29.6771 34.5364 32.8357C31.2487 36.5775 26.4279 37.999 21.0555 37.999C11.1482 37.999 4.00781 30.5898 4.00781 20.6824C4.00781 13.1461 7.76404 7.01299 14.3492 4.35707C16.421 3.52149 18.6845 3.06152 21.0554 3.06152C30.9628 3.06152 38.9943 11.093 38.9943 21.0003Z" fill="url(#paint0_radial)"/>
<g style="mix-blend-mode:screen" opacity="0.6">
<path d="M38.9943 21.0003C38.9943 25.5352 37.3115 29.6771 34.5364 32.8357C31.2487 36.5775 26.4279 37.999 21.0555 37.999C11.1482 37.999 4.00781 30.5898 4.00781 20.6824C4.00781 13.1461 7.76404 7.01299 14.3492 4.35707C16.421 3.52149 18.6845 3.06152 21.0554 3.06152C30.9628 3.06152 38.9943 11.093 38.9943 21.0003Z" fill="url(#paint1_linear)"/>
</g>
<path d="M21.0915 20.0328C22.2985 20.0328 23.2768 18.8561 23.2768 17.4046C23.2768 15.9531 22.2985 14.7764 21.0915 14.7764C19.8846 14.7764 18.9062 15.9531 18.9062 17.4046C18.9062 18.8561 19.8846 20.0328 21.0915 20.0328Z" fill="#EAB14D"/>
<path d="M21.0808 18.7095C22.1669 18.7095 23.0474 17.8291 23.0474 16.7429C23.0474 15.6568 22.1669 14.7764 21.0808 14.7764C19.9947 14.7764 19.1143 15.6568 19.1143 16.7429C19.1143 17.8291 19.9947 18.7095 21.0808 18.7095Z" fill="#6B3504"/>
<path d="M30.0462 20.0328C31.2501 20.0328 32.2262 18.8561 32.2262 17.4046C32.2262 15.9531 31.2501 14.7764 30.0462 14.7764C28.8422 14.7764 27.8662 15.9531 27.8662 17.4046C27.8662 18.8561 28.8422 20.0328 30.0462 20.0328Z" fill="#EAB14D"/>
<path d="M30.0262 18.7095C31.1123 18.7095 31.9927 17.8291 31.9927 16.7429C31.9927 15.6568 31.1123 14.7764 30.0262 14.7764C28.94 14.7764 28.0596 15.6568 28.0596 16.7429C28.0596 17.8291 28.94 18.7095 30.0262 18.7095Z" fill="#6B3504"/>
<path d="M19.2538 29.3302C18.9858 29.3302 18.7229 29.2001 18.5636 28.96C18.3114 28.5795 18.415 28.0667 18.7954 27.8142C19.1312 27.5913 27.08 22.3968 32.3464 26.0035C32.7232 26.2616 32.8195 26.7765 32.5614 27.1533C32.3032 27.5301 31.7885 27.6261 31.4116 27.3684C27.0654 24.3919 19.7827 29.1444 19.7098 29.1926C19.5693 29.2856 19.4107 29.3302 19.2538 29.3302Z" fill="#6B3504"/>
<path d="M15.5416 13.4822C15.297 13.4822 15.0652 13.3367 14.9671 13.0962C14.8376 12.7791 14.9897 12.4169 15.3069 12.2875L19.6778 10.5028C19.9949 10.3731 20.3571 10.5254 20.4866 10.8426C20.616 11.1597 20.4639 11.5219 20.1468 11.6513L15.7758 13.436C15.6991 13.4674 15.6196 13.4822 15.5416 13.4822Z" fill="#6B3504"/>
<path d="M35.3798 13.4822C35.3017 13.4822 35.2224 13.4673 35.1456 13.436L30.7747 11.6513C30.4575 11.5219 30.3053 11.1598 30.4349 10.8426C30.5643 10.5254 30.9264 10.3731 31.2437 10.5028L35.6146 12.2875C35.9318 12.4169 36.0839 12.779 35.9544 13.0962C35.8562 13.3365 35.6243 13.4822 35.3798 13.4822Z" fill="#6B3504"/>
<path fill-rule="evenodd" clip-rule="evenodd" d="M44.7888 21.1537L44.7892 21.1539C44.9249 21.4433 45 21.7614 45 22.0954C45 23.4311 43.7988 24.5139 42.3171 24.5139H26.3772C25.8958 24.5139 25.4493 24.2783 25.2218 23.8958C24.5304 22.7332 24.559 21.5467 25.2295 20.339C25.4538 19.9349 25.9091 19.6768 26.4103 19.6768H40.6005H40.6008H42.3168C43.428 19.6768 44.3814 20.2858 44.7888 21.1537Z" fill="#FF9100"/>
<defs>
<radialGradient id="paint0_radial" cx="0" cy="0" r="1" gradientUnits="userSpaceOnUse" gradientTransform="translate(22 19.0004) rotate(124.114) scale(18.7216 18.7479)">
<stop stop-color="#FFE434" stop-opacity="0"/>
<stop offset="1" stop-color="#F19406"/>
</radialGradient>
<linearGradient id="paint1_linear" x1="21.501" y1="3.06152" x2="9.1452" y2="27.8448" gradientUnits="userSpaceOnUse">
<stop stop-color="white"/>
<stop offset="1" stop-color="#FFE433" stop-opacity="0"/>
</linearGradient>
</defs>
</svg>
