<svg width="40" height="12" viewBox="0 0 40 12" fill="none" xmlns="http://www.w3.org/2000/svg">
<g filter="url(#filter0_d)">
<path fill-rule="evenodd" clip-rule="evenodd" d="M1.62207 5.00018C1.62207 2.79364 3.41083 1.00488 5.61737 1.00488H34.3835C36.5901 1.00488 38.3788 2.79364 38.3788 5.00018C38.3788 7.20673 36.5901 8.99548 34.3835 8.99548H5.61737C3.41083 8.99548 1.62207 7.20673 1.62207 5.00018Z" fill="black"/>
<path fill-rule="evenodd" clip-rule="evenodd" d="M1.62207 5.00018C1.62207 2.79364 3.41083 1.00488 5.61737 1.00488H34.3835C36.5901 1.00488 38.3788 2.79364 38.3788 5.00018C38.3788 7.20673 36.5901 8.99548 34.3835 8.99548H5.61737C3.41083 8.99548 1.62207 7.20673 1.62207 5.00018Z" fill="url(#paint0_linear)"/>
</g>
<path fill-rule="evenodd" clip-rule="evenodd" d="M1.62207 5.00018C1.62207 2.79364 3.41083 1.00488 5.61737 1.00488H34.3835C36.5901 1.00488 38.3788 2.79364 38.3788 5.00018C38.3788 7.20673 36.5901 8.99548 34.3835 8.99548H5.61737C3.41083 8.99548 1.62207 7.20673 1.62207 5.00018Z" stroke="black" stroke-width="0.5" stroke-linecap="round" stroke-linejoin="round"/>
<path fill-rule="evenodd" clip-rule="evenodd" d="M1.62207 5.00018C1.62207 2.79364 3.41083 1.00488 5.61737 1.00488H34.3835C36.5901 1.00488 38.3788 2.79364 38.3788 5.00018C38.3788 7.20673 36.5901 8.99548 34.3835 8.99548H5.61737C3.41083 8.99548 1.62207 7.20673 1.62207 5.00018Z" stroke="url(#paint1_linear)" stroke-width="0.5" stroke-linecap="round" stroke-linejoin="round"/>
<defs>
<filter id="filter0_d" x="0.62207" y="1.00488" width="38.7568" height="10.9906" filterUnits="userSpaceOnUse" color-interpolation-filters="sRGB">
<feFlood flood-opacity="0" result="BackgroundImageFix"/>
<feColorMatrix in="SourceAlpha" type="matrix" values="0 0 0 0 0 0 0 0 0 0 0 0 0 0 0 0 0 0 127 0" result="hardAlpha"/>
<feOffset dy="2"/>
<feGaussianBlur stdDeviation="0.5"/>
<feColorMatrix type="matrix" values="0 0 0 0 0 0 0 0 0 0 0 0 0 0 0 0 0 0 0.56 0"/>
<feBlend mode="normal" in2="BackgroundImageFix" result="effect1_dropShadow"/>
<feBlend mode="normal" in="SourceGraphic" in2="effect1_dropShadow" result="shape"/>
</filter>
<linearGradient id="paint0_linear" x1="20.0004" y1="0.205823" x2="20.0004" y2="9.92772" gradientUnits="userSpaceOnUse">
<stop stop-color="#A8A8A8"/>
<stop offset="0.148958" stop-color="#747272"/>
<stop offset="0.315625" stop-color="#999898"/>
<stop offset="0.503125" stop-color="#F6F6F6"/>
<stop offset="0.648958" stop-color="#9B9A9A"/>
<stop offset="0.805208" stop-color="#646363"/>
<stop offset="0.971875" stop-color="#ADACAC"/>
</linearGradient>
<linearGradient id="paint1_linear" x1="22.1883" y1="1.00488" x2="21.1818" y2="9.72426" gradientUnits="userSpaceOnUse">
<stop stop-color="#838484"/>
<stop offset="0.51875" stop-color="#FBFAF9"/>
<stop offset="1" stop-color="#C7BEB0"/>
</linearGradient>
</defs>
</svg>
