<svg width="75" height="74" viewBox="0 0 75 74" fill="none" xmlns="http://www.w3.org/2000/svg">
<g clip-path="url(#clip0)">
<path d="M70.2626 74H4.74007C2.3975 74 0.5 72.1025 0.5 69.7626V4.24007C0.5 1.8975 2.3975 0 4.74007 0H70.2626C72.6052 0 74.5027 1.8975 74.5027 4.24007V69.7626C74.5 72.1025 72.6025 74 70.2626 74Z" fill="url(#paint0_linear)"/>
<path d="M69.5855 73.3232H5.41683C3.07426 73.3232 1.17676 71.4257 1.17676 69.0831V4.91707C1.17676 2.57451 3.07426 0.677002 5.41683 0.677002H69.5855C71.9281 0.677002 73.8256 2.57451 73.8256 4.91707V69.0858C73.8229 71.4257 71.9254 73.3232 69.5855 73.3232Z" fill="url(#paint1_linear)"/>
<path d="M68.5679 5.93237H6.43262V68.0676H68.5679V5.93237Z" fill="url(#paint2_linear)"/>
<path d="M67.7362 6.7666H7.2666V67.2362H67.7362V6.7666Z" fill="url(#paint3_linear)"/>
<path d="M67.7362 6.7666H7.2666V67.2362H67.7362V6.7666Z" fill="url(#paint4_linear)"/>
<g clip-path="url(#clip1)">
<path fill-rule="evenodd" clip-rule="evenodd" d="M39.6158 50.8557C39.8784 50.8165 40.1282 50.9805 40.1969 51.237L41.289 55.3112C41.3684 55.6078 41.1765 55.9091 40.8742 55.9628C28.7914 58.1081 16.9844 48.8161 16.9844 35.8499C16.9844 24.6017 26.1355 15.4504 37.3838 15.4504C51.0317 15.4504 60.9663 28.7238 56.8611 41.9117C56.7681 42.2103 56.4346 42.3568 56.1483 42.2311C55.983 42.1585 55.8113 42.0978 55.6342 42.0503L52.1942 41.1287C51.9048 41.0511 51.7415 40.7474 51.8329 40.4621C54.9683 30.6747 47.6093 20.681 37.3838 20.681C29.0197 20.681 22.215 27.4858 22.215 35.8499C22.215 45.1401 30.5324 52.2135 39.6158 50.8557ZM39.3343 32.0669C39.3476 31.2356 38.7021 30.3801 37.4534 30.3801C36.1833 30.3801 35.1327 31.5773 35.5116 32.8721C35.7556 33.7054 36.5399 34.2767 37.4081 34.2809C39.5989 34.2915 41.4878 35.7195 42.1853 37.6926C42.3094 38.0437 42.047 38.419 41.675 38.4035C41.0528 38.3776 40.4256 38.5115 39.8625 38.8C39.6037 38.9327 39.2795 38.8287 39.1581 38.5644C38.8491 37.8909 38.1661 37.4193 37.3838 37.4193C34.6311 37.4193 32.3488 35.1808 32.2961 32.4293C32.2526 30.1571 33.7308 28.2128 35.8146 27.5131V26.6906C35.8146 25.7988 36.5585 25.0807 37.4596 25.1232C38.3037 25.1629 38.953 25.8899 38.953 26.7348V27.429C40.9471 27.9991 42.4207 29.8151 42.4711 31.9779C42.492 32.8703 41.8171 33.6498 40.9244 33.6615C40.0396 33.6732 39.3202 32.9523 39.3343 32.0669ZM38.5787 46.0244C38.6866 45.8973 38.7191 45.7224 38.6761 45.5613C38.5456 45.0744 38.4348 44.6675 38.341 44.3233C37.9129 42.7517 37.8406 42.486 37.8747 41.8695C37.89 41.5907 37.6827 41.3196 37.3146 41.3196C36.0658 41.3196 35.4203 40.464 35.4336 39.6329C35.4478 38.7474 34.7283 38.0265 33.8435 38.0382C32.9509 38.05 32.276 38.8294 32.2968 39.7219C32.3472 41.8847 33.8208 43.7006 35.8149 44.2707V44.966C35.8149 46.4643 37.6328 47.1387 38.5787 46.0244ZM53.9973 48.4962L58.3696 52.8697C58.9825 53.4827 58.9823 54.476 58.3695 55.0887L54.5554 58.9029C53.9426 59.5156 52.949 59.5158 52.3363 58.9029L47.9636 54.5303L46.1644 56.3294C45.4012 57.0929 43.9059 56.9968 43.4803 55.4057L40.0127 42.468C39.7002 41.3019 40.77 40.2342 41.9346 40.5461L55.0925 44.0715C56.2585 44.3838 56.6486 45.8438 55.7963 46.6966L53.9973 48.4962Z" fill="url(#paint5_linear)"/>
<g style="mix-blend-mode:overlay">
<mask id="path-7-inside-1" fill="white">
<path fill-rule="evenodd" clip-rule="evenodd" d="M39.6158 50.8557C39.8784 50.8165 40.1282 50.9805 40.1969 51.237L41.289 55.3112C41.3684 55.6078 41.1765 55.9091 40.8742 55.9628C28.7914 58.1081 16.9844 48.8161 16.9844 35.8499C16.9844 24.6017 26.1355 15.4504 37.3838 15.4504C51.0317 15.4504 60.9663 28.7238 56.8611 41.9117C56.7681 42.2103 56.4346 42.3568 56.1483 42.2311C55.983 42.1585 55.8113 42.0978 55.6342 42.0503L52.1942 41.1287C51.9048 41.0511 51.7415 40.7474 51.8329 40.4621C54.9683 30.6747 47.6093 20.681 37.3838 20.681C29.0197 20.681 22.215 27.4858 22.215 35.8499C22.215 45.1401 30.5324 52.2135 39.6158 50.8557ZM39.3343 32.0669C39.3476 31.2356 38.7021 30.3801 37.4534 30.3801C36.1833 30.3801 35.1327 31.5773 35.5116 32.8721C35.7556 33.7054 36.5399 34.2767 37.4081 34.2809C39.5989 34.2915 41.4878 35.7195 42.1853 37.6926C42.3094 38.0437 42.047 38.419 41.675 38.4035C41.0528 38.3776 40.4256 38.5115 39.8625 38.8C39.6037 38.9327 39.2795 38.8287 39.1581 38.5644C38.8491 37.8909 38.1661 37.4193 37.3838 37.4193C34.6311 37.4193 32.3488 35.1808 32.2961 32.4293C32.2526 30.1571 33.7308 28.2128 35.8146 27.5131V26.6906C35.8146 25.7988 36.5585 25.0807 37.4596 25.1232C38.3037 25.1629 38.953 25.8899 38.953 26.7348V27.429C40.9471 27.9991 42.4207 29.8151 42.4711 31.9779C42.492 32.8703 41.8171 33.6498 40.9244 33.6615C40.0396 33.6732 39.3202 32.9523 39.3343 32.0669ZM38.5787 46.0244C38.6866 45.8973 38.7191 45.7224 38.6761 45.5613C38.5456 45.0744 38.4348 44.6675 38.341 44.3233C37.9129 42.7517 37.8406 42.486 37.8747 41.8695C37.89 41.5907 37.6827 41.3196 37.3146 41.3196C36.0658 41.3196 35.4203 40.464 35.4336 39.6329C35.4478 38.7474 34.7283 38.0265 33.8435 38.0382C32.9509 38.05 32.276 38.8294 32.2968 39.7219C32.3472 41.8847 33.8208 43.7006 35.8149 44.2707V44.966C35.8149 46.4643 37.6328 47.1387 38.5787 46.0244ZM53.9973 48.4962L58.3696 52.8697C58.9825 53.4827 58.9823 54.476 58.3695 55.0887L54.5554 58.9029C53.9426 59.5156 52.949 59.5158 52.3363 58.9029L47.9636 54.5303L46.1644 56.3294C45.4012 57.0929 43.9059 56.9968 43.4803 55.4057L40.0127 42.468C39.7002 41.3019 40.77 40.2342 41.9346 40.5461L55.0925 44.0715C56.2585 44.3838 56.6486 45.8438 55.7963 46.6966L53.9973 48.4962Z"/>
</mask>
<path d="M40.1969 51.237L39.714 51.3664L39.714 51.3664L40.1969 51.237ZM39.6158 50.8557L39.542 50.3612L39.5419 50.3612L39.6158 50.8557ZM41.289 55.3112L41.772 55.1819L41.7719 55.1817L41.289 55.3112ZM40.8742 55.9628L40.9616 56.4551L40.9616 56.4551L40.8742 55.9628ZM56.8611 41.9117L57.3385 42.0604L57.3385 42.0603L56.8611 41.9117ZM56.1483 42.2311L55.9471 42.6889L55.9472 42.6889L56.1483 42.2311ZM55.6342 42.0503L55.7638 41.5674L55.7636 41.5674L55.6342 42.0503ZM52.1942 41.1287L52.0648 41.6116L52.0648 41.6116L52.1942 41.1287ZM51.8329 40.4621L52.309 40.6147L52.309 40.6147L51.8329 40.4621ZM39.3343 32.0669L38.8344 32.0589L38.8344 32.0589L39.3343 32.0669ZM35.5116 32.8721L35.0318 33.0126L35.0318 33.0127L35.5116 32.8721ZM37.4081 34.2809L37.4105 33.7809L37.4105 33.7809L37.4081 34.2809ZM42.1853 37.6926L41.7139 37.8593L41.7139 37.8593L42.1853 37.6926ZM41.675 38.4035L41.6542 38.9031L41.6543 38.9031L41.675 38.4035ZM39.8625 38.8L39.6345 38.3551L39.6345 38.3551L39.8625 38.8ZM39.1581 38.5644L38.7037 38.7729L38.7037 38.773L39.1581 38.5644ZM32.2961 32.4293L31.7962 32.4388L31.7962 32.4388L32.2961 32.4293ZM35.8146 27.5131L35.9738 27.987L36.3146 27.8726V27.5131H35.8146ZM37.4596 25.1232L37.4361 25.6226L37.4361 25.6226L37.4596 25.1232ZM38.953 27.429H38.453V27.8061L38.8156 27.9098L38.953 27.429ZM42.4711 31.9779L41.9712 31.9895L41.9712 31.9895L42.4711 31.9779ZM40.9244 33.6615L40.9178 33.1616L40.9178 33.1616L40.9244 33.6615ZM38.6761 45.5613L39.1591 45.4322L39.159 45.4319L38.6761 45.5613ZM38.5787 46.0244L38.1975 45.7008L38.1975 45.7008L38.5787 46.0244ZM38.341 44.3233L37.8586 44.4547L37.8586 44.4547L38.341 44.3233ZM37.8747 41.8695L38.3739 41.8972L38.3739 41.897L37.8747 41.8695ZM35.4336 39.6329L35.9336 39.6408L35.9336 39.6408L35.4336 39.6329ZM33.8435 38.0382L33.8369 37.5382L33.8369 37.5382L33.8435 38.0382ZM32.2968 39.7219L32.7967 39.7102L32.7967 39.7102L32.2968 39.7219ZM35.8149 44.2707H36.3149V43.8936L35.9524 43.79L35.8149 44.2707ZM35.8149 44.966L36.3149 44.966V44.966H35.8149ZM58.3696 52.8697L58.016 53.2232L58.016 53.2232L58.3696 52.8697ZM53.9973 48.4962L53.6437 48.1427L53.2903 48.4963L53.6437 48.8498L53.9973 48.4962ZM58.3695 55.0887L58.016 54.7351L58.016 54.7352L58.3695 55.0887ZM54.5554 58.9029L54.9089 59.2565L54.9089 59.2565L54.5554 58.9029ZM52.3363 58.9029L52.6898 58.5494L52.6898 58.5494L52.3363 58.9029ZM47.9636 54.5303L48.3171 54.1768L47.9636 53.8232L47.61 54.1768L47.9636 54.5303ZM46.1644 56.3294L45.8109 55.9759L45.8108 55.9759L46.1644 56.3294ZM43.4803 55.4057L43.9633 55.2765L43.9633 55.2763L43.4803 55.4057ZM40.0127 42.468L39.5298 42.5975L39.5298 42.5975L40.0127 42.468ZM41.9346 40.5461L42.064 40.0631L42.0639 40.0631L41.9346 40.5461ZM55.0925 44.0715L54.9631 44.5545L54.9632 44.5545L55.0925 44.0715ZM55.7963 46.6966L56.1499 47.0501L56.15 47.0501L55.7963 46.6966ZM40.6799 51.1076C40.5455 50.6058 40.0562 50.2845 39.542 50.3612L39.6896 51.3503C39.7006 51.3486 39.711 51.3553 39.714 51.3664L40.6799 51.1076ZM41.7719 55.1817L40.6799 51.1075L39.714 51.3664L40.806 55.4406L41.7719 55.1817ZM40.9616 56.4551C41.5523 56.3502 41.9273 55.7617 41.772 55.1819L40.806 55.4405C40.8072 55.445 40.8071 55.4478 40.8067 55.4501C40.8063 55.4529 40.8051 55.4562 40.803 55.4595C40.8008 55.4629 40.7983 55.4654 40.796 55.467C40.794 55.4683 40.7914 55.4697 40.7868 55.4705L40.9616 56.4551ZM16.4844 35.8499C16.4844 49.1359 28.5812 58.6533 40.9616 56.4551L40.7868 55.4705C29.0016 57.563 17.4844 48.4962 17.4844 35.8499H16.4844ZM37.3838 14.9504C25.8594 14.9504 16.4844 24.3255 16.4844 35.8499H17.4844C17.4844 24.8778 26.4117 15.9504 37.3838 15.9504V14.9504ZM57.3385 42.0603C61.5448 28.5476 51.3658 14.9504 37.3838 14.9504V15.9504C50.6977 15.9504 60.3878 28.8999 56.3837 41.7631L57.3385 42.0603ZM55.9472 42.6889C56.4987 42.9311 57.1543 42.6519 57.3385 42.0604L56.3837 41.7631C56.3825 41.7669 56.3813 41.7683 56.3806 41.7691C56.3795 41.7704 56.3773 41.7722 56.3738 41.7738C56.3702 41.7754 56.3662 41.7762 56.3624 41.7763C56.359 41.7763 56.3548 41.7757 56.3493 41.7733L55.9472 42.6889ZM55.5046 42.5332C55.657 42.5741 55.8048 42.6263 55.9471 42.6889L56.3495 41.7734C56.1612 41.6906 55.9656 41.6215 55.7638 41.5674L55.5046 42.5332ZM52.0648 41.6116L55.5048 42.5333L55.7636 41.5674L52.3236 40.6457L52.0648 41.6116ZM51.3567 40.3095C51.1792 40.8633 51.4961 41.4593 52.0648 41.6116L52.3236 40.6457C52.3136 40.643 52.3037 40.6314 52.309 40.6147L51.3567 40.3095ZM37.3838 21.181C47.2725 21.181 54.3882 30.8467 51.3567 40.3096L52.309 40.6147C55.5485 30.5026 47.9461 20.181 37.3838 20.181V21.181ZM22.715 35.8499C22.715 27.7619 29.2959 21.181 37.3838 21.181V20.181C28.7436 20.181 21.715 27.2097 21.715 35.8499H22.715ZM39.5419 50.3612C30.7589 51.6741 22.715 44.8327 22.715 35.8499H21.715C21.715 45.4475 30.3059 52.7529 39.6897 51.3502L39.5419 50.3612ZM37.4534 30.8801C38.4275 30.8801 38.8431 31.5115 38.8344 32.0589L39.8342 32.0749C39.8521 30.9598 38.9768 29.8801 37.4534 29.8801V30.8801ZM35.9915 32.7317C35.7181 31.7973 36.4735 30.8801 37.4534 30.8801V29.8801C35.8932 29.8801 34.5474 31.3572 35.0318 33.0126L35.9915 32.7317ZM37.4105 33.7809C36.7557 33.7777 36.1712 33.3453 35.9915 32.7316L35.0318 33.0127C35.3401 34.0654 36.324 34.7756 37.4057 34.7808L37.4105 33.7809ZM42.6568 37.526C41.8916 35.3617 39.8205 33.7926 37.4105 33.7809L37.4057 34.7808C39.3773 34.7904 41.084 36.0773 41.7139 37.8593L42.6568 37.526ZM41.6543 38.9031C42.401 38.9341 42.8917 38.1905 42.6567 37.526L41.7139 37.8593C41.7167 37.8672 41.7168 37.873 41.7161 37.878C41.7152 37.8839 41.7127 37.8902 41.7088 37.8957C41.705 37.9011 41.7016 37.9031 41.7007 37.9036C41.7004 37.9037 41.7003 37.9037 41.7002 37.9038C41.7001 37.9038 41.6988 37.9041 41.6958 37.904L41.6543 38.9031ZM40.0906 39.245C40.5756 38.9965 41.1169 38.8807 41.6542 38.9031L41.6958 37.904C40.9887 37.8745 40.2756 38.0266 39.6345 38.3551L40.0906 39.245ZM38.7037 38.773C38.9496 39.3085 39.5909 39.5011 40.0906 39.245L39.6345 38.3551C39.6292 38.3578 39.6225 38.3586 39.6156 38.3563C39.6125 38.3553 39.6112 38.3542 39.6114 38.3543C39.6115 38.3544 39.6118 38.3547 39.6121 38.3551C39.6125 38.3557 39.6126 38.356 39.6125 38.3557L38.7037 38.773ZM37.3838 37.9193C37.9616 37.9193 38.4723 38.2686 38.7037 38.7729L39.6126 38.3558C39.2259 37.5132 38.3706 36.9193 37.3838 36.9193V37.9193ZM31.7962 32.4388C31.8541 35.4628 34.3588 37.9193 37.3838 37.9193V36.9193C34.9034 36.9193 32.8434 34.8987 32.796 32.4197L31.7962 32.4388ZM35.6555 27.0391C33.377 27.8042 31.7483 29.9355 31.7962 32.4388L32.796 32.4197C32.7569 30.3786 34.0845 28.6215 35.9738 27.987L35.6555 27.0391ZM35.3146 26.6906V27.5131H36.3146V26.6906H35.3146ZM37.4832 24.6237C36.2956 24.5678 35.3146 25.5148 35.3146 26.6906H36.3146C36.3146 26.0828 36.8214 25.5937 37.4361 25.6226L37.4832 24.6237ZM39.453 26.7348C39.453 25.6416 38.6122 24.6769 37.4831 24.6237L37.4361 25.6226C37.9951 25.6489 38.453 26.1381 38.453 26.7348H39.453ZM39.453 27.429V26.7348H38.453V27.429H39.453ZM42.971 31.9662C42.9153 29.5787 41.2893 27.5769 39.0904 26.9483L38.8156 27.9098C40.605 28.4213 41.9261 30.0516 41.9712 31.9895L42.971 31.9662ZM40.931 34.1615C42.1327 34.1457 42.9976 33.1047 42.971 31.9662L41.9712 31.9895C41.9863 32.636 41.5014 33.1539 40.9178 33.1616L40.931 34.1615ZM38.8344 32.0589C38.8157 33.2263 39.7645 34.1769 40.931 34.1615L40.9178 33.1616C40.3148 33.1695 39.8246 32.6784 39.8342 32.0749L38.8344 32.0589ZM38.1931 45.6905C38.1949 45.6975 38.1946 45.7031 38.1941 45.7057C38.1936 45.7078 38.1938 45.7052 38.1975 45.7008L38.9598 46.348C39.1836 46.0844 39.2405 45.7368 39.1591 45.4322L38.1931 45.6905ZM37.8586 44.4547C37.9523 44.7989 38.0629 45.2049 38.1931 45.6908L39.159 45.4319C39.0283 44.9439 38.9172 44.5361 38.8234 44.1919L37.8586 44.4547ZM37.3755 41.8419C37.3359 42.5558 37.4369 42.9064 37.8586 44.4547L38.8234 44.1919C38.389 42.5969 38.3452 42.4162 38.3739 41.8972L37.3755 41.8419ZM37.3146 41.8196C37.3445 41.8196 37.3603 41.825 37.3661 41.8274C37.3693 41.8288 37.3711 41.8299 37.3719 41.8304C37.3727 41.831 37.3731 41.8313 37.3732 41.8315C37.3733 41.8316 37.3738 41.8322 37.3744 41.8339C37.3751 41.8356 37.3757 41.8384 37.3755 41.8421L38.3739 41.897C38.4047 41.3377 37.9756 40.8196 37.3146 40.8196V41.8196ZM34.9337 39.6249C34.9159 40.7398 35.7912 41.8196 37.3146 41.8196V40.8196C36.3405 40.8196 35.9248 40.1882 35.9336 39.6408L34.9337 39.6249ZM33.8501 38.5382C34.4532 38.5302 34.9433 39.0213 34.9337 39.6249L35.9336 39.6408C35.9522 38.4735 35.0034 37.5229 33.8369 37.5382L33.8501 38.5382ZM32.7967 39.7102C32.7816 39.0638 33.2665 38.5459 33.8501 38.5382L33.8369 37.5382C32.6352 37.5542 31.7704 38.595 31.797 39.7335L32.7967 39.7102ZM35.9524 43.79C34.1629 43.2784 32.8419 41.6483 32.7967 39.7102L31.797 39.7335C31.8526 42.1212 33.4787 44.1229 35.6775 44.7515L35.9524 43.79ZM36.3149 44.966V44.2707H35.3149V44.966H36.3149ZM38.1975 45.7008C37.5649 46.4461 36.3149 46.0176 36.3149 44.966L35.3149 44.9659C35.3148 46.911 37.7008 47.8312 38.9599 46.348L38.1975 45.7008ZM58.7232 52.5162L54.3509 48.1427L53.6437 48.8498L58.016 53.2232L58.7232 52.5162ZM58.7231 55.4423C59.5311 54.6344 59.5313 53.3244 58.7232 52.5162L58.016 53.2232C58.4337 53.6409 58.4335 54.3177 58.016 54.7351L58.7231 55.4423ZM54.9089 59.2565L58.7231 55.4423L58.016 54.7352L54.2018 58.5494L54.9089 59.2565ZM51.9827 59.2564C52.7908 60.0647 54.101 60.0644 54.9089 59.2565L54.2018 58.5494C53.7843 58.9669 53.1073 58.9669 52.6898 58.5494L51.9827 59.2564ZM47.61 54.8839L51.9827 59.2565L52.6898 58.5494L48.3171 54.1768L47.61 54.8839ZM46.518 56.683L48.3171 54.8839L47.61 54.1768L45.8109 55.9759L46.518 56.683ZM42.9973 55.5349C43.2508 56.4828 43.8542 57.0598 44.5772 57.2363C45.2755 57.4067 46.0175 57.1836 46.5181 56.6829L45.8108 55.9759C45.5481 56.2387 45.1609 56.3493 44.8143 56.2648C44.4925 56.1862 44.1354 55.9197 43.9633 55.2765L42.9973 55.5349ZM39.5298 42.5975L42.9974 55.5352L43.9633 55.2763L40.4957 42.3386L39.5298 42.5975ZM42.0639 40.0631C40.5282 39.6518 39.1174 41.059 39.5298 42.5975L40.4957 42.3386C40.2829 41.5448 41.0119 40.8166 41.8052 41.0291L42.0639 40.0631ZM55.2219 43.5885L42.064 40.0631L41.8052 41.029L54.9631 44.5545L55.2219 43.5885ZM56.15 47.0501C57.2739 45.9254 56.7601 44.0005 55.2219 43.5885L54.9632 44.5545C55.7569 44.767 56.0232 45.7623 55.4426 46.3432L56.15 47.0501ZM54.3509 48.8497L56.1499 47.0501L55.4427 46.3431L53.6437 48.1427L54.3509 48.8497Z" fill="url(#paint6_linear)" mask="url(#path-7-inside-1)"/>
</g>
</g>
</g>
<defs>
<linearGradient id="paint0_linear" x1="2.04343" y1="72.4574" x2="73.3522" y2="1.14863" gradientUnits="userSpaceOnUse">
<stop stop-color="#FFE46E"/>
<stop offset="0.0578" stop-color="#FFF082"/>
<stop offset="0.1371" stop-color="#FFFF9A"/>
<stop offset="0.1503" stop-color="#F6F18C"/>
<stop offset="0.1954" stop-color="#DBC663"/>
<stop offset="0.2361" stop-color="#C7A845"/>
<stop offset="0.2706" stop-color="#BB9533"/>
<stop offset="0.2948" stop-color="#B78E2C"/>
<stop offset="0.3539" stop-color="#C9A43F"/>
<stop offset="0.4656" stop-color="#F2D66C"/>
<stop offset="0.4681" stop-color="#F1D56B"/>
<stop offset="0.6415" stop-color="#C19A37"/>
<stop offset="0.7244" stop-color="#AE8323"/>
<stop offset="0.7404" stop-color="#A2771F"/>
<stop offset="0.7695" stop-color="#815715"/>
<stop offset="0.8083" stop-color="#4D2304"/>
<stop offset="0.8171" stop-color="#401600"/>
<stop offset="0.8309" stop-color="#5F350A"/>
<stop offset="0.8491" stop-color="#815715"/>
<stop offset="0.8664" stop-color="#9A6F1D"/>
<stop offset="0.8821" stop-color="#A97E21"/>
<stop offset="0.8951" stop-color="#AE8323"/>
<stop offset="0.9179" stop-color="#BB932F"/>
<stop offset="0.9621" stop-color="#DEBC4F"/>
<stop offset="1" stop-color="#FFE46E"/>
</linearGradient>
<linearGradient id="paint1_linear" x1="37.5003" y1="1.29492" x2="37.5003" y2="72.1682" gradientUnits="userSpaceOnUse">
<stop stop-color="#FFE46E"/>
<stop offset="0.0578" stop-color="#FFF082"/>
<stop offset="0.1371" stop-color="#FFFF9A"/>
<stop offset="0.1503" stop-color="#F6F18C"/>
<stop offset="0.1954" stop-color="#DBC663"/>
<stop offset="0.2361" stop-color="#C7A845"/>
<stop offset="0.2706" stop-color="#BB9533"/>
<stop offset="0.2948" stop-color="#B78E2C"/>
<stop offset="0.3539" stop-color="#C9A43F"/>
<stop offset="0.4656" stop-color="#F2D66C"/>
<stop offset="0.4681" stop-color="#F1D56B"/>
<stop offset="0.6415" stop-color="#C19A37"/>
<stop offset="0.7244" stop-color="#AE8323"/>
<stop offset="0.7404" stop-color="#A2771F"/>
<stop offset="0.7695" stop-color="#815715"/>
<stop offset="0.8083" stop-color="#4D2304"/>
<stop offset="0.8171" stop-color="#401600"/>
<stop offset="0.8309" stop-color="#5F350A"/>
<stop offset="0.8491" stop-color="#815715"/>
<stop offset="0.8664" stop-color="#9A6F1D"/>
<stop offset="0.8821" stop-color="#A97E21"/>
<stop offset="0.8951" stop-color="#AE8323"/>
<stop offset="0.9179" stop-color="#BB932F"/>
<stop offset="0.9621" stop-color="#DEBC4F"/>
<stop offset="1" stop-color="#FFE46E"/>
</linearGradient>
<linearGradient id="paint2_linear" x1="6.79714" y1="67.704" x2="67.3749" y2="7.12625" gradientUnits="userSpaceOnUse">
<stop stop-color="#FFE46E"/>
<stop offset="0.0578" stop-color="#FFF082"/>
<stop offset="0.1371" stop-color="#FFFF9A"/>
<stop offset="0.1503" stop-color="#F6F18C"/>
<stop offset="0.1954" stop-color="#DBC663"/>
<stop offset="0.2361" stop-color="#C7A845"/>
<stop offset="0.2706" stop-color="#BB9533"/>
<stop offset="0.2948" stop-color="#B78E2C"/>
<stop offset="0.3539" stop-color="#C9A43F"/>
<stop offset="0.4656" stop-color="#F2D66C"/>
<stop offset="0.4681" stop-color="#F1D56B"/>
<stop offset="0.6415" stop-color="#C19A37"/>
<stop offset="0.7244" stop-color="#AE8323"/>
<stop offset="0.7404" stop-color="#A2771F"/>
<stop offset="0.7695" stop-color="#815715"/>
<stop offset="0.8083" stop-color="#4D2304"/>
<stop offset="0.8171" stop-color="#401600"/>
<stop offset="0.8309" stop-color="#5F350A"/>
<stop offset="0.8491" stop-color="#815715"/>
<stop offset="0.8664" stop-color="#9A6F1D"/>
<stop offset="0.8821" stop-color="#A97E21"/>
<stop offset="0.8951" stop-color="#AE8323"/>
<stop offset="0.9179" stop-color="#BB932F"/>
<stop offset="0.9621" stop-color="#DEBC4F"/>
<stop offset="1" stop-color="#FFE46E"/>
</linearGradient>
<linearGradient id="paint3_linear" x1="37.5005" y1="67.4337" x2="37.5005" y2="6.79152" gradientUnits="userSpaceOnUse">
<stop stop-color="#34180C"/>
<stop offset="1" stop-color="#773419"/>
</linearGradient>
<linearGradient id="paint4_linear" x1="37.5005" y1="67.4337" x2="37.5005" y2="6.79152" gradientUnits="userSpaceOnUse">
<stop stop-color="#3D290C"/>
<stop offset="1" stop-color="#724F1B"/>
</linearGradient>
<linearGradient id="paint5_linear" x1="37.9068" y1="15.4504" x2="37.9068" y2="59.3625" gradientUnits="userSpaceOnUse">
<stop stop-color="#EDD162"/>
<stop offset="0.2375" stop-color="#FEFC96"/>
<stop offset="0.477083" stop-color="#D1AF4A"/>
<stop offset="0.716667" stop-color="#FEFC96"/>
<stop offset="1" stop-color="#7C5821"/>
</linearGradient>
<linearGradient id="paint6_linear" x1="37.9068" y1="15.4504" x2="37.9068" y2="59.3625" gradientUnits="userSpaceOnUse">
<stop stop-color="white"/>
<stop offset="1"/>
</linearGradient>
<clipPath id="clip0">
<rect width="74" height="74" fill="white" transform="translate(0.5)"/>
</clipPath>
<clipPath id="clip1">
<rect width="43.9121" height="43.9121" fill="white" transform="translate(15.9507 15.4504)"/>
</clipPath>
</defs>
</svg>
