<svg width="40" height="41" viewBox="0 0 40 41" fill="none" xmlns="http://www.w3.org/2000/svg">
<g filter="url(#filter0_d)">
<path fill-rule="evenodd" clip-rule="evenodd" d="M23.9951 4.61688C23.9951 2.41034 22.2064 0.621582 19.9998 0.621582C17.7933 0.621582 16.0045 2.41034 16.0045 4.61688V15.0046H5.61737C3.41083 15.0046 1.62207 16.7934 1.62207 18.9999C1.62207 21.2065 3.41083 22.9952 5.61737 22.9952H16.0045V33.383C16.0045 35.5896 17.7933 37.3783 19.9998 37.3783C22.2064 37.3783 23.9951 35.5896 23.9951 33.383V22.9952H34.3835C36.5901 22.9952 38.3788 21.2065 38.3788 18.9999C38.3788 16.7934 36.5901 15.0046 34.3835 15.0046H23.9951V4.61688Z" fill="black"/>
<path fill-rule="evenodd" clip-rule="evenodd" d="M23.9951 4.61688C23.9951 2.41034 22.2064 0.621582 19.9998 0.621582C17.7933 0.621582 16.0045 2.41034 16.0045 4.61688V15.0046H5.61737C3.41083 15.0046 1.62207 16.7934 1.62207 18.9999C1.62207 21.2065 3.41083 22.9952 5.61737 22.9952H16.0045V33.383C16.0045 35.5896 17.7933 37.3783 19.9998 37.3783C22.2064 37.3783 23.9951 35.5896 23.9951 33.383V22.9952H34.3835C36.5901 22.9952 38.3788 21.2065 38.3788 18.9999C38.3788 16.7934 36.5901 15.0046 34.3835 15.0046H23.9951V4.61688Z" fill="url(#paint0_linear)"/>
</g>
<path d="M16.0045 15.0046V15.2546C16.1426 15.2546 16.2545 15.1427 16.2545 15.0046H16.0045ZM16.0045 22.9952H16.2545C16.2545 22.8572 16.1426 22.7452 16.0045 22.7452V22.9952ZM23.9951 22.9952V22.7452C23.857 22.7452 23.7451 22.8572 23.7451 22.9952H23.9951ZM23.9951 15.0046H23.7451C23.7451 15.1427 23.857 15.2546 23.9951 15.2546V15.0046ZM19.9998 0.871582C22.0683 0.871582 23.7451 2.54841 23.7451 4.61688H24.2451C24.2451 2.27227 22.3444 0.371582 19.9998 0.371582V0.871582ZM16.2545 4.61688C16.2545 2.54841 17.9313 0.871582 19.9998 0.871582V0.371582C17.6552 0.371582 15.7545 2.27227 15.7545 4.61688H16.2545ZM16.2545 15.0046V4.61688H15.7545V15.0046H16.2545ZM5.61737 15.2546H16.0045V14.7546H5.61737V15.2546ZM1.87207 18.9999C1.87207 16.9315 3.5489 15.2546 5.61737 15.2546V14.7546C3.27276 14.7546 1.37207 16.6553 1.37207 18.9999H1.87207ZM5.61737 22.7452C3.5489 22.7452 1.87207 21.0684 1.87207 18.9999H1.37207C1.37207 21.3446 3.27276 23.2452 5.61737 23.2452V22.7452ZM16.0045 22.7452H5.61737V23.2452H16.0045V22.7452ZM16.2545 33.383V22.9952H15.7545V33.383H16.2545ZM19.9998 37.1283C17.9313 37.1283 16.2545 35.4515 16.2545 33.383H15.7545C15.7545 35.7277 17.6552 37.6283 19.9998 37.6283V37.1283ZM23.7451 33.383C23.7451 35.4515 22.0683 37.1283 19.9998 37.1283V37.6283C22.3444 37.6283 24.2451 35.7277 24.2451 33.383H23.7451ZM23.7451 22.9952V33.383H24.2451V22.9952H23.7451ZM34.3835 22.7452H23.9951V23.2452H34.3835V22.7452ZM38.1288 18.9999C38.1288 21.0684 36.452 22.7452 34.3835 22.7452V23.2452C36.7281 23.2452 38.6288 21.3446 38.6288 18.9999H38.1288ZM34.3835 15.2546C36.452 15.2546 38.1288 16.9315 38.1288 18.9999H38.6288C38.6288 16.6553 36.7281 14.7546 34.3835 14.7546V15.2546ZM23.9951 15.2546H34.3835V14.7546H23.9951V15.2546ZM23.7451 4.61688V15.0046H24.2451V4.61688H23.7451Z" fill="black"/>
<path d="M16.0045 15.0046V15.2546C16.1426 15.2546 16.2545 15.1427 16.2545 15.0046H16.0045ZM16.0045 22.9952H16.2545C16.2545 22.8572 16.1426 22.7452 16.0045 22.7452V22.9952ZM23.9951 22.9952V22.7452C23.857 22.7452 23.7451 22.8572 23.7451 22.9952H23.9951ZM23.9951 15.0046H23.7451C23.7451 15.1427 23.857 15.2546 23.9951 15.2546V15.0046ZM19.9998 0.871582C22.0683 0.871582 23.7451 2.54841 23.7451 4.61688H24.2451C24.2451 2.27227 22.3444 0.371582 19.9998 0.371582V0.871582ZM16.2545 4.61688C16.2545 2.54841 17.9313 0.871582 19.9998 0.871582V0.371582C17.6552 0.371582 15.7545 2.27227 15.7545 4.61688H16.2545ZM16.2545 15.0046V4.61688H15.7545V15.0046H16.2545ZM5.61737 15.2546H16.0045V14.7546H5.61737V15.2546ZM1.87207 18.9999C1.87207 16.9315 3.5489 15.2546 5.61737 15.2546V14.7546C3.27276 14.7546 1.37207 16.6553 1.37207 18.9999H1.87207ZM5.61737 22.7452C3.5489 22.7452 1.87207 21.0684 1.87207 18.9999H1.37207C1.37207 21.3446 3.27276 23.2452 5.61737 23.2452V22.7452ZM16.0045 22.7452H5.61737V23.2452H16.0045V22.7452ZM16.2545 33.383V22.9952H15.7545V33.383H16.2545ZM19.9998 37.1283C17.9313 37.1283 16.2545 35.4515 16.2545 33.383H15.7545C15.7545 35.7277 17.6552 37.6283 19.9998 37.6283V37.1283ZM23.7451 33.383C23.7451 35.4515 22.0683 37.1283 19.9998 37.1283V37.6283C22.3444 37.6283 24.2451 35.7277 24.2451 33.383H23.7451ZM23.7451 22.9952V33.383H24.2451V22.9952H23.7451ZM34.3835 22.7452H23.9951V23.2452H34.3835V22.7452ZM38.1288 18.9999C38.1288 21.0684 36.452 22.7452 34.3835 22.7452V23.2452C36.7281 23.2452 38.6288 21.3446 38.6288 18.9999H38.1288ZM34.3835 15.2546C36.452 15.2546 38.1288 16.9315 38.1288 18.9999H38.6288C38.6288 16.6553 36.7281 14.7546 34.3835 14.7546V15.2546ZM23.9951 15.2546H34.3835V14.7546H23.9951V15.2546ZM23.7451 4.61688V15.0046H24.2451V4.61688H23.7451Z" fill="url(#paint1_linear)"/>
<defs>
<filter id="filter0_d" x="0.62207" y="0.621582" width="38.7568" height="39.7568" filterUnits="userSpaceOnUse" color-interpolation-filters="sRGB">
<feFlood flood-opacity="0" result="BackgroundImageFix"/>
<feColorMatrix in="SourceAlpha" type="matrix" values="0 0 0 0 0 0 0 0 0 0 0 0 0 0 0 0 0 0 127 0" result="hardAlpha"/>
<feOffset dy="2"/>
<feGaussianBlur stdDeviation="0.5"/>
<feColorMatrix type="matrix" values="0 0 0 0 0 0 0 0 0 0 0 0 0 0 0 0 0 0 0.56 0"/>
<feBlend mode="normal" in2="BackgroundImageFix" result="effect1_dropShadow"/>
<feBlend mode="normal" in="SourceGraphic" in2="effect1_dropShadow" result="shape"/>
</filter>
<linearGradient id="paint0_linear" x1="20.0004" y1="-3.05409" x2="20.0004" y2="41.6666" gradientUnits="userSpaceOnUse">
<stop stop-color="#A8A8A8"/>
<stop offset="0.148958" stop-color="#747272"/>
<stop offset="0.315625" stop-color="#999898"/>
<stop offset="0.503125" stop-color="#F6F6F6"/>
<stop offset="0.648958" stop-color="#9B9A9A"/>
<stop offset="0.805208" stop-color="#646363"/>
<stop offset="0.971875" stop-color="#ADACAC"/>
</linearGradient>
<linearGradient id="paint1_linear" x1="22.1883" y1="0.621582" x2="5.35275" y2="32.325" gradientUnits="userSpaceOnUse">
<stop stop-color="#838484"/>
<stop offset="0.51875" stop-color="#FBFAF9"/>
<stop offset="1" stop-color="#C7BEB0"/>
</linearGradient>
</defs>
</svg>
