<svg width="75" height="74" viewBox="0 0 75 74" fill="none" xmlns="http://www.w3.org/2000/svg">
<g clip-path="url(#clip0)">
<path d="M70.724 74H5.2015C2.85893 74 0.961426 72.1025 0.961426 69.7626V4.24007C0.961426 1.8975 2.85893 0 5.2015 0H70.724C73.0666 0 74.9641 1.8975 74.9641 4.24007V69.7626C74.9614 72.1025 73.0639 74 70.724 74Z" fill="url(#paint0_linear)"/>
<path d="M70.0469 73.3232H5.87825C3.53569 73.3232 1.63818 71.4257 1.63818 69.0831V4.91707C1.63818 2.57451 3.53569 0.677002 5.87825 0.677002H70.0469C72.3895 0.677002 74.287 2.57451 74.287 4.91707V69.0858C74.2843 71.4257 72.3868 73.3232 70.0469 73.3232Z" fill="url(#paint1_linear)"/>
<path d="M69.0293 5.93237H6.89404V68.0676H69.0293V5.93237Z" fill="url(#paint2_linear)"/>
<path d="M68.1977 6.7666H7.72803V67.2362H68.1977V6.7666Z" fill="url(#paint3_linear)"/>
<path d="M67.7362 6.7666H7.2666V67.2362H67.7362V6.7666Z" fill="url(#paint4_linear)"/>
<g clip-path="url(#clip1)">
<path d="M25.5252 51.9422H51.2104C53.9428 51.9422 56.1658 49.7193 56.1658 46.9869V21.219C56.1658 18.4866 53.9428 16.2637 51.2104 16.2637H25.5252C22.7928 16.2637 20.5698 18.4866 20.5698 21.219V53.594C20.5698 56.3264 22.7928 58.5494 25.5252 58.5494H49.5587H51.2104C53.9428 58.5494 56.1658 56.3264 56.1658 53.594V53.5899C54.7845 54.6291 53.0682 55.2458 51.2104 55.2458H49.5587H25.5252C24.6144 55.2458 23.8734 54.5048 23.8734 53.594C23.8734 52.6832 24.6144 51.9422 25.5252 51.9422ZM23.8734 21.219C23.8734 20.3082 24.6144 19.5672 25.5252 19.5672H51.2104C52.1212 19.5672 52.8622 20.3082 52.8622 21.219V46.9869C52.8622 47.8977 52.1212 48.6387 51.2104 48.6387H25.5252C24.9463 48.6387 24.3902 48.7384 23.8734 48.9217V21.219ZM35.6011 30.1866H32.2975C32.2975 28.492 33.0238 26.87 34.2902 25.7363C35.5732 24.5877 37.2992 24.0386 39.0259 24.2304C41.792 24.5374 44.0195 26.759 44.3223 29.5131C44.5983 32.025 43.1253 33.8274 41.9932 34.9647C41.7019 35.2574 41.4329 35.5138 41.1957 35.7402C40.1163 36.7696 39.9788 36.9427 39.9788 37.654V37.7369H36.6752V37.6539C36.6752 35.4862 37.7135 34.496 38.9158 33.3494C39.1494 33.1267 39.3909 32.8963 39.6519 32.6341C40.7187 31.5623 41.1334 30.7369 41.0386 29.8741C40.9033 28.6443 39.9037 27.6517 38.6616 27.5138C37.8567 27.4248 37.0863 27.6673 36.4937 28.1978C35.9181 28.713 35.6011 29.4193 35.6011 30.1866ZM36.6747 40.2146H39.9783V43.5181H36.6747V40.2146Z" fill="url(#paint5_linear)"/>
<g style="mix-blend-mode:overlay">
<path d="M23.6234 48.9217V49.2756L23.9569 49.1573C24.4474 48.9834 24.9752 48.8887 25.5252 48.8887H51.2104C52.2593 48.8887 53.1122 48.0358 53.1122 46.9869V21.219C53.1122 20.1702 52.2593 19.3172 51.2104 19.3172H25.5252C24.4763 19.3172 23.6234 20.1702 23.6234 21.219V48.9217ZM34.457 25.9226L34.457 25.9226C35.6865 24.8218 37.3416 24.2949 38.9983 24.4789L38.9983 24.4789C41.6489 24.773 43.7839 26.9035 44.0737 29.5405C44.3366 31.9319 42.9384 33.6608 41.8161 34.7883C41.5292 35.0764 41.2642 35.3293 41.028 35.5547L41.0231 35.5593C41.0231 35.5593 41.0231 35.5593 41.0231 35.5593C40.4918 36.066 40.1617 36.3892 39.9728 36.6803C39.7976 36.9501 39.7442 37.19 39.7319 37.4869H36.9274C36.9526 36.5343 37.1936 35.8375 37.5572 35.2503C37.9473 34.6204 38.4828 34.1078 39.0883 33.5303L39.0913 33.5275C39.3237 33.3058 39.5666 33.0742 39.8291 32.8105C40.9113 31.7233 41.3946 30.8256 41.2871 29.8468L41.2871 29.8467C41.1388 28.4989 40.0459 27.4159 38.6892 27.2653L38.6891 27.2653C37.8152 27.1687 36.9737 27.4325 36.3269 28.0116C35.7617 28.5175 35.4235 29.1948 35.3615 29.9366H32.553C32.6205 28.4046 33.3058 26.9531 34.457 25.9226ZM51.2104 51.6922H25.5252C24.4763 51.6922 23.6234 52.5452 23.6234 53.594C23.6234 54.6429 24.4763 55.4958 25.5252 55.4958H49.5587H51.2104C52.9377 55.4958 54.5465 54.9783 55.8898 54.0905C55.6409 56.4524 53.6371 58.2994 51.2104 58.2994H49.5587H25.5252C22.9309 58.2994 20.8198 56.1883 20.8198 53.594V21.219C20.8198 18.6247 22.9309 16.5137 25.5252 16.5137H51.2104C53.8048 16.5137 55.9158 18.6247 55.9158 21.219V46.9869C55.9158 49.5812 53.8048 51.6922 51.2104 51.6922ZM36.9247 40.4646H39.7283V43.2681H36.9247V40.4646Z" stroke="url(#paint6_linear)" stroke-width="0.5"/>
</g>
</g>
</g>
<defs>
<linearGradient id="paint0_linear" x1="2.50485" y1="72.4574" x2="73.8136" y2="1.14863" gradientUnits="userSpaceOnUse">
<stop stop-color="#FFE46E"/>
<stop offset="0.0578" stop-color="#FFF082"/>
<stop offset="0.1371" stop-color="#FFFF9A"/>
<stop offset="0.1503" stop-color="#F6F18C"/>
<stop offset="0.1954" stop-color="#DBC663"/>
<stop offset="0.2361" stop-color="#C7A845"/>
<stop offset="0.2706" stop-color="#BB9533"/>
<stop offset="0.2948" stop-color="#B78E2C"/>
<stop offset="0.3539" stop-color="#C9A43F"/>
<stop offset="0.4656" stop-color="#F2D66C"/>
<stop offset="0.4681" stop-color="#F1D56B"/>
<stop offset="0.6415" stop-color="#C19A37"/>
<stop offset="0.7244" stop-color="#AE8323"/>
<stop offset="0.7404" stop-color="#A2771F"/>
<stop offset="0.7695" stop-color="#815715"/>
<stop offset="0.8083" stop-color="#4D2304"/>
<stop offset="0.8171" stop-color="#401600"/>
<stop offset="0.8309" stop-color="#5F350A"/>
<stop offset="0.8491" stop-color="#815715"/>
<stop offset="0.8664" stop-color="#9A6F1D"/>
<stop offset="0.8821" stop-color="#A97E21"/>
<stop offset="0.8951" stop-color="#AE8323"/>
<stop offset="0.9179" stop-color="#BB932F"/>
<stop offset="0.9621" stop-color="#DEBC4F"/>
<stop offset="1" stop-color="#FFE46E"/>
</linearGradient>
<linearGradient id="paint1_linear" x1="37.9617" y1="1.29492" x2="37.9617" y2="72.1682" gradientUnits="userSpaceOnUse">
<stop stop-color="#FFE46E"/>
<stop offset="0.0578" stop-color="#FFF082"/>
<stop offset="0.1371" stop-color="#FFFF9A"/>
<stop offset="0.1503" stop-color="#F6F18C"/>
<stop offset="0.1954" stop-color="#DBC663"/>
<stop offset="0.2361" stop-color="#C7A845"/>
<stop offset="0.2706" stop-color="#BB9533"/>
<stop offset="0.2948" stop-color="#B78E2C"/>
<stop offset="0.3539" stop-color="#C9A43F"/>
<stop offset="0.4656" stop-color="#F2D66C"/>
<stop offset="0.4681" stop-color="#F1D56B"/>
<stop offset="0.6415" stop-color="#C19A37"/>
<stop offset="0.7244" stop-color="#AE8323"/>
<stop offset="0.7404" stop-color="#A2771F"/>
<stop offset="0.7695" stop-color="#815715"/>
<stop offset="0.8083" stop-color="#4D2304"/>
<stop offset="0.8171" stop-color="#401600"/>
<stop offset="0.8309" stop-color="#5F350A"/>
<stop offset="0.8491" stop-color="#815715"/>
<stop offset="0.8664" stop-color="#9A6F1D"/>
<stop offset="0.8821" stop-color="#A97E21"/>
<stop offset="0.8951" stop-color="#AE8323"/>
<stop offset="0.9179" stop-color="#BB932F"/>
<stop offset="0.9621" stop-color="#DEBC4F"/>
<stop offset="1" stop-color="#FFE46E"/>
</linearGradient>
<linearGradient id="paint2_linear" x1="7.25857" y1="67.704" x2="67.8363" y2="7.12625" gradientUnits="userSpaceOnUse">
<stop stop-color="#FFE46E"/>
<stop offset="0.0578" stop-color="#FFF082"/>
<stop offset="0.1371" stop-color="#FFFF9A"/>
<stop offset="0.1503" stop-color="#F6F18C"/>
<stop offset="0.1954" stop-color="#DBC663"/>
<stop offset="0.2361" stop-color="#C7A845"/>
<stop offset="0.2706" stop-color="#BB9533"/>
<stop offset="0.2948" stop-color="#B78E2C"/>
<stop offset="0.3539" stop-color="#C9A43F"/>
<stop offset="0.4656" stop-color="#F2D66C"/>
<stop offset="0.4681" stop-color="#F1D56B"/>
<stop offset="0.6415" stop-color="#C19A37"/>
<stop offset="0.7244" stop-color="#AE8323"/>
<stop offset="0.7404" stop-color="#A2771F"/>
<stop offset="0.7695" stop-color="#815715"/>
<stop offset="0.8083" stop-color="#4D2304"/>
<stop offset="0.8171" stop-color="#401600"/>
<stop offset="0.8309" stop-color="#5F350A"/>
<stop offset="0.8491" stop-color="#815715"/>
<stop offset="0.8664" stop-color="#9A6F1D"/>
<stop offset="0.8821" stop-color="#A97E21"/>
<stop offset="0.8951" stop-color="#AE8323"/>
<stop offset="0.9179" stop-color="#BB932F"/>
<stop offset="0.9621" stop-color="#DEBC4F"/>
<stop offset="1" stop-color="#FFE46E"/>
</linearGradient>
<linearGradient id="paint3_linear" x1="37.962" y1="67.4337" x2="37.962" y2="6.79152" gradientUnits="userSpaceOnUse">
<stop/>
<stop offset="1" stop-color="#525252"/>
</linearGradient>
<linearGradient id="paint4_linear" x1="37.5005" y1="67.4337" x2="37.5005" y2="6.79152" gradientUnits="userSpaceOnUse">
<stop stop-color="#3D290C"/>
<stop offset="1" stop-color="#724F1B"/>
</linearGradient>
<linearGradient id="paint5_linear" x1="38.3678" y1="16.2637" x2="38.3678" y2="58.5494" gradientUnits="userSpaceOnUse">
<stop stop-color="#EBCC5C"/>
<stop offset="0.258333" stop-color="#FFFD97"/>
<stop offset="0.491112" stop-color="#D1AE49"/>
<stop offset="0.773958" stop-color="#FFFD97"/>
<stop offset="1" stop-color="#653B0C"/>
</linearGradient>
<linearGradient id="paint6_linear" x1="38.3678" y1="16.2637" x2="38.3678" y2="58.5494" gradientUnits="userSpaceOnUse">
<stop stop-color="white"/>
<stop offset="1"/>
</linearGradient>
<clipPath id="clip0">
<rect width="74" height="74" fill="white" transform="translate(0.961426)"/>
</clipPath>
<clipPath id="clip1">
<rect width="42.2857" height="42.2857" fill="white" transform="translate(17.2251 16.2637)"/>
</clipPath>
</defs>
</svg>
