<svg width="59" height="35" viewBox="0 0 59 35" fill="none" xmlns="http://www.w3.org/2000/svg">
<g filter="url(#filter0_d)">
<path fill-rule="evenodd" clip-rule="evenodd" d="M52.7205 0.700195H21.5058C18.5949 0.700195 16.2265 3.06856 16.2265 5.97952V8.58163H19.632V6.32415L36.0722 19.0241C36.3787 19.2609 36.7461 19.3792 37.1132 19.3792C37.4803 19.3792 37.8476 19.2609 38.1541 19.0241L54.5944 6.32415V26.0196C54.5944 27.053 53.7537 27.8937 52.7205 27.8937H21.5058C20.6984 27.8937 20.0085 27.3802 19.7456 26.6627H16.2655C16.5837 29.2715 18.8125 31.2989 21.5058 31.2989H52.7205C55.6315 31.2989 57.9998 28.9305 57.9998 26.0196V5.97952C57.9998 3.06856 55.6315 0.700195 52.7205 0.700195ZM51.8957 4.10563L37.1132 15.525L22.3306 4.10563H51.8957ZM2.78184 10.6679C1.88567 10.6679 1.15918 11.3944 1.15918 12.2906C1.15918 13.1867 1.88567 13.9132 2.78184 13.9132H20.3993C21.2955 13.9132 22.0219 13.1867 22.0219 12.2906C22.0219 11.3944 21.2955 10.6679 20.3993 10.6679H2.78184ZM6.0275 15.7678C5.13133 15.7678 4.40484 16.4942 4.40484 17.3904C4.40484 18.2866 5.13133 19.0131 6.0275 19.0131H20.3996C21.2958 19.0131 22.0223 18.2866 22.0223 17.3904C22.0223 16.4942 21.2958 15.7678 20.3996 15.7678H6.0275ZM7.64963 23.4175C7.64963 22.5213 8.37612 21.7948 9.27229 21.7948L20.3991 21.7948C21.2953 21.7948 22.0218 22.5213 22.0218 23.4175C22.0218 24.3137 21.2953 25.0401 20.3991 25.0401H9.27229C8.37612 25.0401 7.64963 24.3137 7.64963 23.4175Z" fill="#1D1D1B"/>
<path fill-rule="evenodd" clip-rule="evenodd" d="M52.7205 0.700195H21.5058C18.5949 0.700195 16.2265 3.06856 16.2265 5.97952V8.58163H19.632V6.32415L36.0722 19.0241C36.3787 19.2609 36.7461 19.3792 37.1132 19.3792C37.4803 19.3792 37.8476 19.2609 38.1541 19.0241L54.5944 6.32415V26.0196C54.5944 27.053 53.7537 27.8937 52.7205 27.8937H21.5058C20.6984 27.8937 20.0085 27.3802 19.7456 26.6627H16.2655C16.5837 29.2715 18.8125 31.2989 21.5058 31.2989H52.7205C55.6315 31.2989 57.9998 28.9305 57.9998 26.0196V5.97952C57.9998 3.06856 55.6315 0.700195 52.7205 0.700195ZM51.8957 4.10563L37.1132 15.525L22.3306 4.10563H51.8957ZM2.78184 10.6679C1.88567 10.6679 1.15918 11.3944 1.15918 12.2906C1.15918 13.1867 1.88567 13.9132 2.78184 13.9132H20.3993C21.2955 13.9132 22.0219 13.1867 22.0219 12.2906C22.0219 11.3944 21.2955 10.6679 20.3993 10.6679H2.78184ZM6.0275 15.7678C5.13133 15.7678 4.40484 16.4942 4.40484 17.3904C4.40484 18.2866 5.13133 19.0131 6.0275 19.0131H20.3996C21.2958 19.0131 22.0223 18.2866 22.0223 17.3904C22.0223 16.4942 21.2958 15.7678 20.3996 15.7678H6.0275ZM7.64963 23.4175C7.64963 22.5213 8.37612 21.7948 9.27229 21.7948L20.3991 21.7948C21.2953 21.7948 22.0218 22.5213 22.0218 23.4175C22.0218 24.3137 21.2953 25.0401 20.3991 25.0401H9.27229C8.37612 25.0401 7.64963 24.3137 7.64963 23.4175Z" fill="url(#paint0_linear)"/>
</g>
<mask id="path-2-inside-1" fill="white">
<path fill-rule="evenodd" clip-rule="evenodd" d="M52.7205 0.700195H21.5058C18.5949 0.700195 16.2265 3.06856 16.2265 5.97952V8.58163H19.632V6.32415L36.0722 19.0241C36.3787 19.2609 36.7461 19.3792 37.1132 19.3792C37.4803 19.3792 37.8476 19.2609 38.1541 19.0241L54.5944 6.32415V26.0196C54.5944 27.053 53.7537 27.8937 52.7205 27.8937H21.5058C20.6984 27.8937 20.0085 27.3802 19.7456 26.6627H16.2655C16.5837 29.2715 18.8125 31.2989 21.5058 31.2989H52.7205C55.6315 31.2989 57.9998 28.9305 57.9998 26.0196V5.97952C57.9998 3.06856 55.6315 0.700195 52.7205 0.700195ZM51.8957 4.10563L37.1132 15.525L22.3306 4.10563H51.8957ZM2.78184 10.6679C1.88567 10.6679 1.15918 11.3944 1.15918 12.2906C1.15918 13.1867 1.88567 13.9132 2.78184 13.9132H20.3993C21.2955 13.9132 22.0219 13.1867 22.0219 12.2906C22.0219 11.3944 21.2955 10.6679 20.3993 10.6679H2.78184ZM6.0275 15.7678C5.13133 15.7678 4.40484 16.4942 4.40484 17.3904C4.40484 18.2866 5.13133 19.0131 6.0275 19.0131H20.3996C21.2958 19.0131 22.0223 18.2866 22.0223 17.3904C22.0223 16.4942 21.2958 15.7678 20.3996 15.7678H6.0275ZM7.64963 23.4175C7.64963 22.5213 8.37612 21.7948 9.27229 21.7948L20.3991 21.7948C21.2953 21.7948 22.0218 22.5213 22.0218 23.4175C22.0218 24.3137 21.2953 25.0401 20.3991 25.0401H9.27229C8.37612 25.0401 7.64963 24.3137 7.64963 23.4175Z"/>
</mask>
<path d="M16.2265 8.58163H15.7265V9.08163H16.2265V8.58163ZM19.632 8.58163V9.08163H20.132V8.58163H19.632ZM19.632 6.32415L19.9376 5.92847L19.132 5.3061V6.32415H19.632ZM36.0722 19.0241L36.3779 18.6285L36.3779 18.6285L36.0722 19.0241ZM38.1541 19.0241L37.8484 18.6285L37.8484 18.6285L38.1541 19.0241ZM54.5944 6.32415H55.0944V5.3061L54.2887 5.92847L54.5944 6.32415ZM19.7456 26.6627L20.2151 26.4907L20.0949 26.1627H19.7456V26.6627ZM16.2655 26.6627V26.1627H15.7008L15.7692 26.7232L16.2655 26.6627ZM37.1132 15.525L36.8075 15.9206L37.1132 16.1568L37.4188 15.9206L37.1132 15.525ZM51.8957 4.10563L52.2014 4.50132L53.3609 3.60563H51.8957V4.10563ZM22.3306 4.10563V3.60563H20.8655L22.025 4.50132L22.3306 4.10563ZM9.27229 21.7948V21.2948V21.7948ZM20.3991 21.7948V22.2948V21.7948ZM21.5058 1.2002H52.7205V0.200195H21.5058V1.2002ZM16.7265 5.97952C16.7265 3.3447 18.871 1.2002 21.5058 1.2002V0.200195C18.3187 0.200195 15.7265 2.79242 15.7265 5.97952H16.7265ZM16.7265 8.58163V5.97952H15.7265V8.58163H16.7265ZM19.632 8.08163H16.2265V9.08163H19.632V8.08163ZM19.132 6.32415V8.58163H20.132V6.32415H19.132ZM36.3779 18.6285L19.9376 5.92847L19.3263 6.71984L35.7666 19.4198L36.3779 18.6285ZM37.1132 18.8792C36.8534 18.8792 36.5943 18.7956 36.3779 18.6285L35.7666 19.4198C36.1632 19.7262 36.6387 19.8792 37.1132 19.8792V18.8792ZM37.8484 18.6285C37.632 18.7956 37.3729 18.8792 37.1132 18.8792V19.8792C37.5876 19.8792 38.0632 19.7262 38.4598 19.4198L37.8484 18.6285ZM54.2887 5.92847L37.8484 18.6285L38.4598 19.4198L54.9001 6.71984L54.2887 5.92847ZM55.0944 26.0196V6.32415H54.0944V26.0196H55.0944ZM52.7205 28.3937C54.0299 28.3937 55.0944 27.3291 55.0944 26.0196H54.0944C54.0944 26.7769 53.4775 27.3937 52.7205 27.3937V28.3937ZM21.5058 28.3937H52.7205V27.3937H21.5058V28.3937ZM19.2761 26.8347C19.6087 27.7424 20.4813 28.3937 21.5058 28.3937V27.3937C20.9154 27.3937 20.4083 27.0181 20.2151 26.4907L19.2761 26.8347ZM16.2655 27.1627H19.7456V26.1627H16.2655V27.1627ZM21.5058 30.7989C19.0686 30.7989 17.0499 28.9634 16.7618 26.6021L15.7692 26.7232C16.1176 29.5796 18.5565 31.7989 21.5058 31.7989V30.7989ZM52.7205 30.7989H21.5058V31.7989H52.7205V30.7989ZM57.4998 26.0196C57.4998 28.6544 55.3553 30.7989 52.7205 30.7989V31.7989C55.9076 31.7989 58.4998 29.2067 58.4998 26.0196H57.4998ZM57.4998 5.97952V26.0196H58.4998V5.97952H57.4998ZM52.7205 1.2002C55.3553 1.2002 57.4998 3.3447 57.4998 5.97952H58.4998C58.4998 2.79242 55.9076 0.200195 52.7205 0.200195V1.2002ZM37.4188 15.9206L52.2014 4.50132L51.59 3.70994L36.8075 15.1293L37.4188 15.9206ZM22.025 4.50132L36.8075 15.9206L37.4188 15.1293L22.6363 3.70994L22.025 4.50132ZM51.8957 3.60563H22.3306V4.60563H51.8957V3.60563ZM1.65918 12.2906C1.65918 11.6705 2.16181 11.1679 2.78184 11.1679V10.1679C1.60953 10.1679 0.65918 11.1182 0.65918 12.2906H1.65918ZM2.78184 13.4132C2.16181 13.4132 1.65918 12.9106 1.65918 12.2906H0.65918C0.65918 13.4629 1.60953 14.4132 2.78184 14.4132V13.4132ZM20.3993 13.4132H2.78184V14.4132H20.3993V13.4132ZM21.5219 12.2906C21.5219 12.9106 21.0193 13.4132 20.3993 13.4132V14.4132C21.5716 14.4132 22.5219 13.4629 22.5219 12.2906H21.5219ZM20.3993 11.1679C21.0193 11.1679 21.5219 11.6705 21.5219 12.2906H22.5219C22.5219 11.1182 21.5716 10.1679 20.3993 10.1679V11.1679ZM2.78184 11.1679H20.3993V10.1679H2.78184V11.1679ZM4.90484 17.3904C4.90484 16.7704 5.40748 16.2678 6.0275 16.2678V15.2678C4.85519 15.2678 3.90484 16.2181 3.90484 17.3904H4.90484ZM6.0275 18.5131C5.40748 18.5131 4.90484 18.0104 4.90484 17.3904H3.90484C3.90484 18.5627 4.85519 19.5131 6.0275 19.5131V18.5131ZM20.3996 18.5131H6.0275V19.5131H20.3996V18.5131ZM21.5223 17.3904C21.5223 18.0104 21.0197 18.5131 20.3996 18.5131V19.5131C21.5719 19.5131 22.5223 18.5627 22.5223 17.3904H21.5223ZM20.3996 16.2678C21.0197 16.2678 21.5223 16.7704 21.5223 17.3904H22.5223C22.5223 16.2181 21.5719 15.2678 20.3996 15.2678V16.2678ZM6.0275 16.2678H20.3996V15.2678H6.0275V16.2678ZM9.27229 21.2948C8.09998 21.2948 7.14963 22.2452 7.14963 23.4175H8.14963C8.14963 22.7975 8.65226 22.2948 9.27229 22.2948V21.2948ZM20.3991 21.2948L9.27229 21.2948V22.2948L20.3991 22.2948V21.2948ZM22.5218 23.4175C22.5218 22.2452 21.5714 21.2948 20.3991 21.2948V22.2948C21.0191 22.2948 21.5218 22.7975 21.5218 23.4175H22.5218ZM20.3991 25.5401C21.5714 25.5401 22.5218 24.5898 22.5218 23.4175H21.5218C21.5218 24.0375 21.0191 24.5401 20.3991 24.5401V25.5401ZM9.27229 25.5401H20.3991V24.5401H9.27229V25.5401ZM7.14963 23.4175C7.14963 24.5898 8.09998 25.5401 9.27229 25.5401V24.5401C8.65226 24.5401 8.14963 24.0375 8.14963 23.4175H7.14963Z" fill="black" mask="url(#path-2-inside-1)"/>
<path d="M16.2265 8.58163H15.7265V9.08163H16.2265V8.58163ZM19.632 8.58163V9.08163H20.132V8.58163H19.632ZM19.632 6.32415L19.9376 5.92847L19.132 5.3061V6.32415H19.632ZM36.0722 19.0241L36.3779 18.6285L36.3779 18.6285L36.0722 19.0241ZM38.1541 19.0241L37.8484 18.6285L37.8484 18.6285L38.1541 19.0241ZM54.5944 6.32415H55.0944V5.3061L54.2887 5.92847L54.5944 6.32415ZM19.7456 26.6627L20.2151 26.4907L20.0949 26.1627H19.7456V26.6627ZM16.2655 26.6627V26.1627H15.7008L15.7692 26.7232L16.2655 26.6627ZM37.1132 15.525L36.8075 15.9206L37.1132 16.1568L37.4188 15.9206L37.1132 15.525ZM51.8957 4.10563L52.2014 4.50132L53.3609 3.60563H51.8957V4.10563ZM22.3306 4.10563V3.60563H20.8655L22.025 4.50132L22.3306 4.10563ZM9.27229 21.7948V21.2948V21.7948ZM20.3991 21.7948V22.2948V21.7948ZM21.5058 1.2002H52.7205V0.200195H21.5058V1.2002ZM16.7265 5.97952C16.7265 3.3447 18.871 1.2002 21.5058 1.2002V0.200195C18.3187 0.200195 15.7265 2.79242 15.7265 5.97952H16.7265ZM16.7265 8.58163V5.97952H15.7265V8.58163H16.7265ZM19.632 8.08163H16.2265V9.08163H19.632V8.08163ZM19.132 6.32415V8.58163H20.132V6.32415H19.132ZM36.3779 18.6285L19.9376 5.92847L19.3263 6.71984L35.7666 19.4198L36.3779 18.6285ZM37.1132 18.8792C36.8534 18.8792 36.5943 18.7956 36.3779 18.6285L35.7666 19.4198C36.1632 19.7262 36.6387 19.8792 37.1132 19.8792V18.8792ZM37.8484 18.6285C37.632 18.7956 37.3729 18.8792 37.1132 18.8792V19.8792C37.5876 19.8792 38.0632 19.7262 38.4598 19.4198L37.8484 18.6285ZM54.2887 5.92847L37.8484 18.6285L38.4598 19.4198L54.9001 6.71984L54.2887 5.92847ZM55.0944 26.0196V6.32415H54.0944V26.0196H55.0944ZM52.7205 28.3937C54.0299 28.3937 55.0944 27.3291 55.0944 26.0196H54.0944C54.0944 26.7769 53.4775 27.3937 52.7205 27.3937V28.3937ZM21.5058 28.3937H52.7205V27.3937H21.5058V28.3937ZM19.2761 26.8347C19.6087 27.7424 20.4813 28.3937 21.5058 28.3937V27.3937C20.9154 27.3937 20.4083 27.0181 20.2151 26.4907L19.2761 26.8347ZM16.2655 27.1627H19.7456V26.1627H16.2655V27.1627ZM21.5058 30.7989C19.0686 30.7989 17.0499 28.9634 16.7618 26.6021L15.7692 26.7232C16.1176 29.5796 18.5565 31.7989 21.5058 31.7989V30.7989ZM52.7205 30.7989H21.5058V31.7989H52.7205V30.7989ZM57.4998 26.0196C57.4998 28.6544 55.3553 30.7989 52.7205 30.7989V31.7989C55.9076 31.7989 58.4998 29.2067 58.4998 26.0196H57.4998ZM57.4998 5.97952V26.0196H58.4998V5.97952H57.4998ZM52.7205 1.2002C55.3553 1.2002 57.4998 3.3447 57.4998 5.97952H58.4998C58.4998 2.79242 55.9076 0.200195 52.7205 0.200195V1.2002ZM37.4188 15.9206L52.2014 4.50132L51.59 3.70994L36.8075 15.1293L37.4188 15.9206ZM22.025 4.50132L36.8075 15.9206L37.4188 15.1293L22.6363 3.70994L22.025 4.50132ZM51.8957 3.60563H22.3306V4.60563H51.8957V3.60563ZM1.65918 12.2906C1.65918 11.6705 2.16181 11.1679 2.78184 11.1679V10.1679C1.60953 10.1679 0.65918 11.1182 0.65918 12.2906H1.65918ZM2.78184 13.4132C2.16181 13.4132 1.65918 12.9106 1.65918 12.2906H0.65918C0.65918 13.4629 1.60953 14.4132 2.78184 14.4132V13.4132ZM20.3993 13.4132H2.78184V14.4132H20.3993V13.4132ZM21.5219 12.2906C21.5219 12.9106 21.0193 13.4132 20.3993 13.4132V14.4132C21.5716 14.4132 22.5219 13.4629 22.5219 12.2906H21.5219ZM20.3993 11.1679C21.0193 11.1679 21.5219 11.6705 21.5219 12.2906H22.5219C22.5219 11.1182 21.5716 10.1679 20.3993 10.1679V11.1679ZM2.78184 11.1679H20.3993V10.1679H2.78184V11.1679ZM4.90484 17.3904C4.90484 16.7704 5.40748 16.2678 6.0275 16.2678V15.2678C4.85519 15.2678 3.90484 16.2181 3.90484 17.3904H4.90484ZM6.0275 18.5131C5.40748 18.5131 4.90484 18.0104 4.90484 17.3904H3.90484C3.90484 18.5627 4.85519 19.5131 6.0275 19.5131V18.5131ZM20.3996 18.5131H6.0275V19.5131H20.3996V18.5131ZM21.5223 17.3904C21.5223 18.0104 21.0197 18.5131 20.3996 18.5131V19.5131C21.5719 19.5131 22.5223 18.5627 22.5223 17.3904H21.5223ZM20.3996 16.2678C21.0197 16.2678 21.5223 16.7704 21.5223 17.3904H22.5223C22.5223 16.2181 21.5719 15.2678 20.3996 15.2678V16.2678ZM6.0275 16.2678H20.3996V15.2678H6.0275V16.2678ZM9.27229 21.2948C8.09998 21.2948 7.14963 22.2452 7.14963 23.4175H8.14963C8.14963 22.7975 8.65226 22.2948 9.27229 22.2948V21.2948ZM20.3991 21.2948L9.27229 21.2948V22.2948L20.3991 22.2948V21.2948ZM22.5218 23.4175C22.5218 22.2452 21.5714 21.2948 20.3991 21.2948V22.2948C21.0191 22.2948 21.5218 22.7975 21.5218 23.4175H22.5218ZM20.3991 25.5401C21.5714 25.5401 22.5218 24.5898 22.5218 23.4175H21.5218C21.5218 24.0375 21.0191 24.5401 20.3991 24.5401V25.5401ZM9.27229 25.5401H20.3991V24.5401H9.27229V25.5401ZM7.14963 23.4175C7.14963 24.5898 8.09998 25.5401 9.27229 25.5401V24.5401C8.65226 24.5401 8.14963 24.0375 8.14963 23.4175H7.14963Z" fill="url(#paint1_linear)" mask="url(#path-2-inside-1)"/>
<defs>
<filter id="filter0_d" x="0.15918" y="0.700195" width="58.8406" height="33.5987" filterUnits="userSpaceOnUse" color-interpolation-filters="sRGB">
<feFlood flood-opacity="0" result="BackgroundImageFix"/>
<feColorMatrix in="SourceAlpha" type="matrix" values="0 0 0 0 0 0 0 0 0 0 0 0 0 0 0 0 0 0 127 0" result="hardAlpha"/>
<feOffset dy="2"/>
<feGaussianBlur stdDeviation="0.5"/>
<feColorMatrix type="matrix" values="0 0 0 0 0 0 0 0 0 0 0 0 0 0 0 0 0 0 0.56 0"/>
<feBlend mode="normal" in2="BackgroundImageFix" result="effect1_dropShadow"/>
<feBlend mode="normal" in="SourceGraphic" in2="effect1_dropShadow" result="shape"/>
</filter>
<linearGradient id="paint0_linear" x1="29.5795" y1="-2.35968" x2="29.5795" y2="34.8688" gradientUnits="userSpaceOnUse">
<stop stop-color="#A8A8A8"/>
<stop offset="0.148958" stop-color="#747272"/>
<stop offset="0.315625" stop-color="#999898"/>
<stop offset="0.503125" stop-color="#F6F6F6"/>
<stop offset="0.648958" stop-color="#9B9A9A"/>
<stop offset="0.805208" stop-color="#646363"/>
<stop offset="0.971875" stop-color="#ADACAC"/>
</linearGradient>
<linearGradient id="paint1_linear" x1="32.9629" y1="0.700195" x2="24.0214" y2="31.9785" gradientUnits="userSpaceOnUse">
<stop stop-color="#838484"/>
<stop offset="0.51875" stop-color="#FBFAF9"/>
<stop offset="1" stop-color="#C7BEB0"/>
</linearGradient>
</defs>
</svg>
