<svg width="30" height="35" viewBox="0 0 30 35" fill="none" xmlns="http://www.w3.org/2000/svg">
<g filter="url(#filter0_d)">
<path d="M15 0C17.6522 0 20.1957 1.05357 22.0711 2.92893C23.9464 4.8043 25 7.34783 25 10V14C26.0609 14 27.0783 14.4214 27.8284 15.1716C28.5786 15.9217 29 16.9391 29 18V28C29 29.0609 28.5786 30.0783 27.8284 30.8284C27.0783 31.5786 26.0609 32 25 32H5C3.93913 32 2.92172 31.5786 2.17157 30.8284C1.42143 30.0783 1 29.0609 1 28V18C1 16.9391 1.42143 15.9217 2.17157 15.1716C2.92172 14.4214 3.93913 14 5 14H21V10C21.0005 8.53928 20.4681 7.12855 19.5027 6.03237C18.5372 4.93618 17.2051 4.22983 15.756 4.04578C14.3069 3.86173 12.8405 4.21263 11.6317 5.03266C10.4228 5.85269 9.55468 7.08554 9.19 8.5C9.05739 9.01372 8.72614 9.45373 8.26911 9.72322C8.04282 9.85666 7.79245 9.94421 7.53232 9.9809C7.27218 10.0176 7.00737 10.0027 6.753 9.937C6.49863 9.87134 6.25968 9.75622 6.0498 9.59821C5.83992 9.44021 5.66322 9.24241 5.52978 9.01611C5.39634 8.78981 5.30878 8.53945 5.2721 8.27932C5.23542 8.01918 5.25034 7.75437 5.316 7.5C5.87093 5.35352 7.12316 3.45219 8.87599 2.09467C10.6288 0.737147 12.783 0.000344898 15 0Z" fill="black"/>
<path d="M15 0C17.6522 0 20.1957 1.05357 22.0711 2.92893C23.9464 4.8043 25 7.34783 25 10V14C26.0609 14 27.0783 14.4214 27.8284 15.1716C28.5786 15.9217 29 16.9391 29 18V28C29 29.0609 28.5786 30.0783 27.8284 30.8284C27.0783 31.5786 26.0609 32 25 32H5C3.93913 32 2.92172 31.5786 2.17157 30.8284C1.42143 30.0783 1 29.0609 1 28V18C1 16.9391 1.42143 15.9217 2.17157 15.1716C2.92172 14.4214 3.93913 14 5 14H21V10C21.0005 8.53928 20.4681 7.12855 19.5027 6.03237C18.5372 4.93618 17.2051 4.22983 15.756 4.04578C14.3069 3.86173 12.8405 4.21263 11.6317 5.03266C10.4228 5.85269 9.55468 7.08554 9.19 8.5C9.05739 9.01372 8.72614 9.45373 8.26911 9.72322C8.04282 9.85666 7.79245 9.94421 7.53232 9.9809C7.27218 10.0176 7.00737 10.0027 6.753 9.937C6.49863 9.87134 6.25968 9.75622 6.0498 9.59821C5.83992 9.44021 5.66322 9.24241 5.52978 9.01611C5.39634 8.78981 5.30878 8.53945 5.2721 8.27932C5.23542 8.01918 5.25034 7.75437 5.316 7.5C5.87093 5.35352 7.12316 3.45219 8.87599 2.09467C10.6288 0.737147 12.783 0.000344898 15 0Z" fill="url(#paint0_linear)"/>
</g>
<path d="M24.75 14.25H25C25.9946 14.25 26.9484 14.6451 27.6517 15.3483C28.3549 16.0516 28.75 17.0054 28.75 18V28C28.75 28.9946 28.3549 29.9484 27.6517 30.6516C26.9484 31.3549 25.9946 31.75 25 31.75H5C4.00544 31.75 3.05161 31.3549 2.34835 30.6516C1.64509 29.9484 1.25 28.9946 1.25 28V18C1.25 17.0054 1.64509 16.0516 2.34835 15.3483C3.05161 14.6451 4.00544 14.25 5 14.25H21H21.25V14V10.0001C21.25 10.0001 21.25 10 21.25 10C21.2505 8.47845 20.6959 7.00897 19.6903 5.86713C18.6846 4.72527 17.2969 3.98949 15.7875 3.79777C14.278 3.60606 12.7505 3.97157 11.4913 4.82577C10.2321 5.67996 9.32782 6.96415 8.94794 8.43751C8.8319 8.88704 8.54204 9.27206 8.14213 9.50787C7.94411 9.62463 7.72504 9.70125 7.49741 9.73334C7.26978 9.76544 7.03807 9.75239 6.81549 9.69493C6.5929 9.63748 6.38382 9.53675 6.20016 9.39848C6.01651 9.26023 5.86189 9.08715 5.74513 8.88913C5.62837 8.69111 5.55175 8.47204 5.51966 8.24441C5.48756 8.01682 5.50061 7.78513 5.55804 7.56257C6.0991 5.46974 7.32004 3.61592 9.02907 2.29233C10.7381 0.968733 12.8384 0.250344 15 0.25L24.75 14.25ZM24.75 14.25V14M24.75 14.25V14M24.75 14V10C24.75 7.41414 23.7228 4.93419 21.8943 3.10571C20.0658 1.27724 17.5859 0.25001 15 0.25L24.75 14Z" stroke="black" stroke-width="0.5"/>
<path d="M24.75 14.25H25C25.9946 14.25 26.9484 14.6451 27.6517 15.3483C28.3549 16.0516 28.75 17.0054 28.75 18V28C28.75 28.9946 28.3549 29.9484 27.6517 30.6516C26.9484 31.3549 25.9946 31.75 25 31.75H5C4.00544 31.75 3.05161 31.3549 2.34835 30.6516C1.64509 29.9484 1.25 28.9946 1.25 28V18C1.25 17.0054 1.64509 16.0516 2.34835 15.3483C3.05161 14.6451 4.00544 14.25 5 14.25H21H21.25V14V10.0001C21.25 10.0001 21.25 10 21.25 10C21.2505 8.47845 20.6959 7.00897 19.6903 5.86713C18.6846 4.72527 17.2969 3.98949 15.7875 3.79777C14.278 3.60606 12.7505 3.97157 11.4913 4.82577C10.2321 5.67996 9.32782 6.96415 8.94794 8.43751C8.8319 8.88704 8.54204 9.27206 8.14213 9.50787C7.94411 9.62463 7.72504 9.70125 7.49741 9.73334C7.26978 9.76544 7.03807 9.75239 6.81549 9.69493C6.5929 9.63748 6.38382 9.53675 6.20016 9.39848C6.01651 9.26023 5.86189 9.08715 5.74513 8.88913C5.62837 8.69111 5.55175 8.47204 5.51966 8.24441C5.48756 8.01682 5.50061 7.78513 5.55804 7.56257C6.0991 5.46974 7.32004 3.61592 9.02907 2.29233C10.7381 0.968733 12.8384 0.250344 15 0.25L24.75 14.25ZM24.75 14.25V14M24.75 14.25V14M24.75 14V10C24.75 7.41414 23.7228 4.93419 21.8943 3.10571C20.0658 1.27724 17.5859 0.25001 15 0.25L24.75 14Z" stroke="url(#paint1_linear)" stroke-width="0.5"/>
<defs>
<filter id="filter0_d" x="0" y="0" width="30" height="35" filterUnits="userSpaceOnUse" color-interpolation-filters="sRGB">
<feFlood flood-opacity="0" result="BackgroundImageFix"/>
<feColorMatrix in="SourceAlpha" type="matrix" values="0 0 0 0 0 0 0 0 0 0 0 0 0 0 0 0 0 0 127 0" result="hardAlpha"/>
<feOffset dy="2"/>
<feGaussianBlur stdDeviation="0.5"/>
<feColorMatrix type="matrix" values="0 0 0 0 0 0 0 0 0 0 0 0 0 0 0 0 0 0 0.56 0"/>
<feBlend mode="normal" in2="BackgroundImageFix" result="effect1_dropShadow"/>
<feBlend mode="normal" in="SourceGraphic" in2="effect1_dropShadow" result="shape"/>
</filter>
<linearGradient id="paint0_linear" x1="15" y1="-3.2" x2="15" y2="35.7333" gradientUnits="userSpaceOnUse">
<stop stop-color="#A8A8A8"/>
<stop offset="0.148958" stop-color="#747272"/>
<stop offset="0.315625" stop-color="#999898"/>
<stop offset="0.503125" stop-color="#F6F6F6"/>
<stop offset="0.648958" stop-color="#9B9A9A"/>
<stop offset="0.805208" stop-color="#646363"/>
<stop offset="0.971875" stop-color="#ADACAC"/>
</linearGradient>
<linearGradient id="paint1_linear" x1="13.3333" y1="-1.10959e-07" x2="29.0273" y2="25.8593" gradientUnits="userSpaceOnUse">
<stop stop-color="#838484"/>
<stop offset="0.51875" stop-color="#FBFAF9"/>
<stop offset="1" stop-color="#C7BEB0"/>
</linearGradient>
</defs>
</svg>
