<svg width="51" height="40" viewBox="0 0 51 40" fill="none" xmlns="http://www.w3.org/2000/svg">
<path fill-rule="evenodd" clip-rule="evenodd" d="M30.1066 0.919893C20.8622 -1.40066 11.4871 4.21216 9.16659 13.4565C4.26191 14.6547 0.806087 19.0427 0.790791 24.0915C0.772358 30.1567 5.67429 35.0885 11.7395 35.1068H18.015V31.9691H11.7395C7.84933 31.9497 4.56098 29.0821 4.01256 25.2307C3.40188 20.9417 6.38361 16.9696 10.6727 16.3588C11.3406 16.2702 11.8773 15.765 12.0062 15.1037C13.312 8.48086 19.123 3.70856 25.8735 3.71532C33.6716 3.72307 39.987 10.0511 39.9792 17.8493C39.9792 18.7158 40.6815 19.4181 41.548 19.4181C45.0139 19.4181 47.8235 22.2278 47.8235 25.6936C47.8235 29.1594 45.0139 31.9691 41.548 31.9691H33.7037V35.1068H41.548C46.1697 35.1252 50.1211 31.7855 50.8731 27.2253C51.719 22.0958 48.2464 17.2518 43.1169 16.4059C42.5764 8.97721 37.3308 2.73341 30.1066 0.919893ZM33.2488 26.1487L26.9733 19.8732C26.3614 19.2649 25.3732 19.2649 24.7612 19.8732L18.4857 26.1487L20.6978 28.3608L24.2905 24.7681V39.8135H27.4283V24.7681L31.0367 28.3608L33.2488 26.1487Z" fill="url(#paint0_linear)"/>
<g style="mix-blend-mode:overlay">
<mask id="path-2-inside-1" fill="white">
<path fill-rule="evenodd" clip-rule="evenodd" d="M30.1066 0.919893C20.8622 -1.40066 11.4871 4.21216 9.16659 13.4565C4.26191 14.6547 0.806087 19.0427 0.790791 24.0915C0.772358 30.1567 5.67429 35.0885 11.7395 35.1068H18.015V31.9691H11.7395C7.84933 31.9497 4.56098 29.0821 4.01256 25.2307C3.40188 20.9417 6.38361 16.9696 10.6727 16.3588C11.3406 16.2702 11.8773 15.765 12.0062 15.1037C13.312 8.48086 19.123 3.70856 25.8735 3.71532C33.6716 3.72307 39.987 10.0511 39.9792 17.8493C39.9792 18.7158 40.6815 19.4181 41.548 19.4181C45.0139 19.4181 47.8235 22.2278 47.8235 25.6936C47.8235 29.1594 45.0139 31.9691 41.548 31.9691H33.7037V35.1068H41.548C46.1697 35.1252 50.1211 31.7855 50.8731 27.2253C51.719 22.0958 48.2464 17.2518 43.1169 16.4059C42.5764 8.97721 37.3308 2.73341 30.1066 0.919893ZM33.2488 26.1487L26.9733 19.8732C26.3614 19.2649 25.3732 19.2649 24.7612 19.8732L18.4857 26.1487L20.6978 28.3608L24.2905 24.7681V39.8135H27.4283V24.7681L31.0367 28.3608L33.2488 26.1487Z"/>
</mask>
<path d="M9.16659 13.4565L9.65154 13.5783L9.57813 13.8707L9.28524 13.9422L9.16659 13.4565ZM30.1066 0.919893L30.2283 0.434938L30.2283 0.434939L30.1066 0.919893ZM0.790791 24.0915L1.29079 24.093V24.093L0.790791 24.0915ZM11.7395 35.1068V35.6068L11.738 35.6068L11.7395 35.1068ZM18.015 35.1068H18.515V35.6068H18.015V35.1068ZM18.015 31.9691V31.4691H18.515V31.9691H18.015ZM11.7395 31.9691V32.4691L11.737 32.4691L11.7395 31.9691ZM4.01256 25.2307L3.51756 25.3012V25.3012L4.01256 25.2307ZM10.6727 16.3588L10.6022 15.8638L10.6069 15.8632L10.6727 16.3588ZM12.0062 15.1037L11.5155 15.008L11.5157 15.007L12.0062 15.1037ZM25.8735 3.71532L25.873 4.21532H25.873L25.8735 3.71532ZM39.9792 17.8493H39.4792V17.8488L39.9792 17.8493ZM33.7037 31.9691H33.2037V31.4691H33.7037V31.9691ZM33.7037 35.1068V35.6068H33.2037V35.1068H33.7037ZM41.548 35.1068V34.6068L41.55 34.6068L41.548 35.1068ZM50.8731 27.2253L50.3798 27.144L50.3798 27.144L50.8731 27.2253ZM43.1169 16.4059L43.0356 16.8992L42.6468 16.8351L42.6182 16.4422L43.1169 16.4059ZM26.9733 19.8732L27.3258 19.5186L27.3269 19.5196L26.9733 19.8732ZM33.2488 26.1487L33.6023 25.7951L33.9559 26.1487L33.6023 26.5022L33.2488 26.1487ZM24.7612 19.8732L24.4076 19.5196L24.4087 19.5186L24.7612 19.8732ZM18.4857 26.1487L18.1322 26.5022L17.7786 26.1487L18.1322 25.7951L18.4857 26.1487ZM20.6978 28.3608L21.0514 28.7143L20.6978 29.0679L20.3443 28.7143L20.6978 28.3608ZM24.2905 24.7681L23.937 24.4145L24.7905 23.561V24.7681H24.2905ZM24.2905 39.8135V40.3135H23.7905V39.8135H24.2905ZM27.4283 39.8135H27.9283V40.3135H27.4283V39.8135ZM27.4283 24.7681H26.9283V23.5647L27.7811 24.4138L27.4283 24.7681ZM31.0367 28.3608L31.3902 28.7143L31.0375 29.0671L30.6839 28.7151L31.0367 28.3608ZM8.68163 13.3348C11.0694 3.8226 20.7161 -1.95285 30.2283 0.434938L29.9848 1.40485C21.0083 -0.848474 11.9049 4.60173 9.65154 13.5783L8.68163 13.3348ZM0.290794 24.09C0.306786 18.8113 3.91995 14.2235 9.04794 12.9708L9.28524 13.9422C4.60388 15.0858 1.30539 19.2741 1.29079 24.093L0.290794 24.09ZM11.738 35.6068C5.39663 35.5877 0.271523 30.4314 0.290794 24.09L1.29079 24.093C1.27319 29.8821 5.95195 34.5893 11.741 34.6068L11.738 35.6068ZM18.015 35.6068H11.7395V34.6068H18.015V35.6068ZM18.515 31.9691V35.1068H17.515V31.9691H18.515ZM11.7395 31.4691H18.015V32.4691H11.7395V31.4691ZM4.50757 25.1602C5.02103 28.7661 8.09978 31.4509 11.742 31.4691L11.737 32.4691C7.59888 32.4484 4.10093 29.3981 3.51756 25.3012L4.50757 25.1602ZM10.7432 16.8538C6.72749 17.4257 3.93581 21.1446 4.50757 25.1602L3.51756 25.3012C2.86795 20.7388 6.03973 16.5135 10.6022 15.8638L10.7432 16.8538ZM12.497 15.1994C12.327 16.0714 11.6193 16.7376 10.7385 16.8545L10.6069 15.8632C11.062 15.8028 11.4276 15.4586 11.5155 15.008L12.497 15.1994ZM25.873 4.21532C19.3616 4.2088 13.7564 8.81211 12.4968 15.2005L11.5157 15.007C12.8677 8.14961 18.8845 3.20832 25.874 3.21532L25.873 4.21532ZM39.4792 17.8488C39.4867 10.3267 33.395 4.22279 25.873 4.21532L25.874 3.21532C33.9483 3.22334 40.4873 9.77546 40.4792 17.8498L39.4792 17.8488ZM41.548 19.9181C40.4054 19.9181 39.4792 18.9919 39.4792 17.8493H40.4792C40.4792 18.4396 40.9577 18.9181 41.548 18.9181V19.9181ZM47.3235 25.6936C47.3235 22.5039 44.7377 19.9181 41.548 19.9181V18.9181C45.29 18.9181 48.3235 21.9516 48.3235 25.6936H47.3235ZM41.548 31.4691C44.7377 31.4691 47.3235 28.8833 47.3235 25.6936H48.3235C48.3235 29.4356 45.29 32.4691 41.548 32.4691V31.4691ZM33.7037 31.4691H41.548V32.4691H33.7037V31.4691ZM33.2037 35.1068V31.9691H34.2037V35.1068H33.2037ZM41.548 35.6068H33.7037V34.6068H41.548V35.6068ZM51.3664 27.3067C50.5745 32.1091 46.4132 35.6261 41.5461 35.6068L41.55 34.6068C45.9262 34.6242 49.6677 31.462 50.3798 27.144L51.3664 27.3067ZM43.1983 15.9126C48.6002 16.8034 52.2573 21.9047 51.3664 27.3067L50.3798 27.144C51.1807 22.2869 47.8926 17.7002 43.0356 16.8992L43.1983 15.9126ZM30.2283 0.434939C37.6619 2.301 43.0595 8.7257 43.6156 16.3696L42.6182 16.4422C42.0934 9.22872 36.9998 3.16582 29.9848 1.40485L30.2283 0.434939ZM27.3269 19.5196L33.6023 25.7951L32.8952 26.5022L26.6198 20.2268L27.3269 19.5196ZM24.4087 19.5186C25.2157 18.7164 26.5188 18.7164 27.3258 19.5186L26.6208 20.2278C26.2039 19.8133 25.5306 19.8133 25.1137 20.2278L24.4087 19.5186ZM18.1322 25.7951L24.4076 19.5196L25.1148 20.2268L18.8393 26.5022L18.1322 25.7951ZM20.3443 28.7143L18.1322 26.5022L18.8393 25.7951L21.0514 28.0072L20.3443 28.7143ZM24.6441 25.1216L21.0514 28.7143L20.3443 28.0072L23.937 24.4145L24.6441 25.1216ZM23.7905 39.8135V24.7681H24.7905V39.8135H23.7905ZM27.4283 40.3135H24.2905V39.3135H27.4283V40.3135ZM27.9283 24.7681V39.8135H26.9283V24.7681H27.9283ZM30.6839 28.7151L27.0755 25.1224L27.7811 24.4138L31.3895 28.0065L30.6839 28.7151ZM33.6023 26.5022L31.3902 28.7143L30.6831 28.0072L32.8952 25.7951L33.6023 26.5022Z" fill="url(#paint1_linear)" mask="url(#path-2-inside-1)"/>
</g>
<defs>
<linearGradient id="paint0_linear" x1="25.8673" y1="1.27655" x2="25.8673" y2="39.8135" gradientUnits="userSpaceOnUse">
<stop stop-color="#EDD263"/>
<stop offset="0.14375" stop-color="#FEFB94"/>
<stop offset="0.33483" stop-color="#D6B751"/>
<stop offset="0.616746" stop-color="#F1E680"/>
<stop offset="0.955645" stop-color="#86652A"/>
</linearGradient>
<linearGradient id="paint1_linear" x1="25.8954" y1="0.396484" x2="25.8954" y2="39.8135" gradientUnits="userSpaceOnUse">
<stop stop-color="white"/>
<stop offset="1"/>
</linearGradient>
</defs>
</svg>
